<?xml version="1.0" encoding="UTF-8" standalone="no"?>
<svg width="184px" height="172px" viewBox="0 0 184 172" version="1.1" xmlns="http://www.w3.org/2000/svg" xmlns:xlink="http://www.w3.org/1999/xlink" xmlns:sketch="http://www.bohemiancoding.com/sketch/ns">
    <!-- Generator: Sketch 3.3.2 (12043) - http://www.bohemiancoding.com/sketch -->
    <title>bats 1</title>
    <desc>Created with Sketch.</desc>
    <defs></defs>
    <g id="Page-1" stroke="none" stroke-width="1" fill="none" fill-rule="evenodd" sketch:type="MSPage">
        <g id="Connorween" sketch:type="MSArtboardGroup" transform="translate(-38.000000, -905.000000)" fill="#3D1425" opacity="0.70207556">
            <g id="bats-1" sketch:type="MSLayerGroup" transform="translate(38.000000, 901.000000)">
                <path d="M39.371,120.06 C39.494,121.002 38.943,122.379 38.373,121.955 C37.803,121.531 37.784,121.352 37.777,120.795 C37.654,121.099 37.545,121.304 37.391,121.374 C37.226,121.412 37.012,121.318 36.73,121.152 C37.066,121.599 37.158,121.752 36.967,122.435 C36.776,123.119 35.498,122.365 35.017,121.547 C34.093,121.818 33.182,123.423 32.939,125.398 C33.546,124.123 34.266,124.134 34.506,124.252 C34.715,124.355 34.494,124.774 35.206,125.02 C34.97,124.67 35.156,124.476 35.385,124.399 C35.748,124.274 36.123,124.823 36.547,125.031 C36.338,124.42 37.03,124.166 37.406,124.224 C37.832,124.288 38.227,124.878 38.911,125.825 C38.873,124.659 38.824,123.95 39.12,123.639 C39.384,123.361 40.085,123.14 40.295,123.753 C40.504,123.326 40.463,122.664 40.827,122.539 C41.055,122.461 41.321,122.5 41.347,122.923 C41.761,122.293 41.329,122.095 41.431,121.887 C41.549,121.646 42.112,121.197 43.373,121.834 C41.973,120.421 40.27,119.707 39.371,120.06" id="Fill-49-Copy-2" sketch:type="MSShapeGroup"></path>
                <path d="M170.525,149.152 C170.631,149.977 170.145,151.18 169.646,150.808 C169.149,150.435 169.133,150.278 169.128,149.791 C169.02,150.056 168.924,150.235 168.789,150.297 C168.645,150.33 168.457,150.247 168.211,150.101 C168.504,150.492 168.584,150.626 168.416,151.224 C168.246,151.823 167.13,151.159 166.711,150.441 C165.901,150.676 165.1,152.078 164.881,153.807 C165.416,152.692 166.047,152.703 166.257,152.808 C166.439,152.898 166.244,153.264 166.867,153.481 C166.66,153.174 166.824,153.005 167.025,152.939 C167.344,152.83 167.668,153.311 168.04,153.496 C167.859,152.96 168.465,152.738 168.795,152.791 C169.167,152.848 169.511,153.365 170.107,154.196 C170.076,153.177 170.037,152.555 170.296,152.284 C170.527,152.042 171.142,151.85 171.324,152.387 C171.51,152.014 171.475,151.434 171.793,151.326 C171.993,151.258 172.227,151.292 172.246,151.662 C172.611,151.112 172.234,150.939 172.323,150.756 C172.428,150.547 172.922,150.155 174.023,150.716 C172.802,149.476 171.314,148.846 170.525,149.152" id="Fill-51-Copy" sketch:type="MSShapeGroup"></path>
                <path d="M5.376,162.51 C5.732,163.261 5.643,164.556 5.054,164.356 C4.465,164.156 4.401,164.013 4.246,163.551 C4.225,163.836 4.19,164.036 4.08,164.138 C3.953,164.214 3.749,164.192 3.469,164.13 C3.87,164.41 3.987,164.514 4.013,165.134 C4.037,165.756 2.77,165.471 2.15,164.919 C1.453,165.393 1.126,166.974 1.454,168.685 C1.616,167.46 2.219,167.275 2.452,167.309 C2.652,167.338 2.581,167.746 3.241,167.761 C2.95,167.532 3.052,167.321 3.223,167.196 C3.491,166.993 3.95,167.351 4.36,167.41 C4.022,166.956 4.529,166.559 4.859,166.506 C5.23,166.444 5.718,166.83 6.542,167.436 C6.197,166.476 5.967,165.896 6.129,165.559 C6.274,165.256 6.798,164.883 7.139,165.337 C7.198,164.925 6.986,164.385 7.255,164.184 C7.424,164.057 7.656,164.018 7.791,164.362 C7.967,163.727 7.554,163.679 7.582,163.477 C7.616,163.246 7.965,162.721 9.186,162.912 C7.64,162.111 6.031,161.974 5.376,162.51" id="Fill-52" sketch:type="MSShapeGroup" transform="translate(5.255964, 165.437131) rotate(70.000000) translate(-5.255964, -165.437131) "></path>
                <path d="M18.376,142.51 C18.732,143.261 18.643,144.556 18.054,144.356 C17.465,144.156 17.401,144.013 17.246,143.551 C17.225,143.836 17.19,144.036 17.08,144.138 C16.953,144.214 16.749,144.192 16.469,144.13 C16.87,144.41 16.987,144.514 17.013,145.134 C17.037,145.756 15.77,145.471 15.15,144.919 C14.453,145.393 14.126,146.974 14.454,148.685 C14.616,147.46 15.219,147.275 15.452,147.309 C15.652,147.338 15.581,147.746 16.241,147.761 C15.95,147.532 16.052,147.321 16.223,147.196 C16.491,146.993 16.95,147.351 17.36,147.41 C17.022,146.956 17.529,146.559 17.859,146.506 C18.23,146.444 18.718,146.83 19.542,147.436 C19.197,146.476 18.967,145.896 19.129,145.559 C19.274,145.256 19.798,144.883 20.139,145.337 C20.198,144.925 19.986,144.385 20.255,144.184 C20.424,144.057 20.656,144.018 20.791,144.362 C20.967,143.727 20.554,143.679 20.582,143.477 C20.616,143.246 20.965,142.721 22.186,142.912 C20.64,142.111 19.031,141.974 18.376,142.51" id="Fill-52-Copy" sketch:type="MSShapeGroup"></path>
                <path d="M46.339,88.606 C46.881,89.643 46.831,91.469 45.992,91.222 C45.153,90.974 45.054,90.776 44.809,90.134 C44.796,90.538 44.757,90.821 44.609,90.969 C44.434,91.084 44.149,91.064 43.751,90.993 C44.329,91.366 44.502,91.503 44.571,92.375 C44.641,93.247 42.843,92.921 41.94,92.177 C40.985,92.885 40.617,95.127 41.176,97.513 C41.337,95.781 42.173,95.487 42.501,95.521 C42.785,95.551 42.709,96.131 43.638,96.112 C43.213,95.807 43.347,95.505 43.577,95.318 C43.945,95.019 44.61,95.495 45.191,95.555 C44.689,94.936 45.379,94.349 45.841,94.255 C46.359,94.149 47.067,94.662 48.26,95.467 C47.718,94.134 47.361,93.335 47.57,92.851 C47.758,92.417 48.475,91.863 48.978,92.481 C49.037,91.9 48.708,91.152 49.077,90.853 C49.307,90.666 49.631,90.598 49.841,91.075 C50.051,90.17 49.467,90.126 49.497,89.841 C49.531,89.514 49.991,88.756 51.718,88.955 C49.498,87.917 47.228,87.817 46.339,88.606" id="Fill-55-Copy-2" sketch:type="MSShapeGroup"></path>
                <path d="M34.2216617,53.9178586 C34.7636617,54.9548586 34.7136617,56.7808586 33.8746617,56.5338586 C33.0356617,56.2858586 32.9366617,56.0878586 32.6916617,55.4458586 C32.6786617,55.8498586 32.6396617,56.1328586 32.4916617,56.2808586 C32.3166617,56.3958586 32.0316617,56.3758586 31.6336617,56.3048586 C32.2116617,56.6778586 32.3846617,56.8148586 32.4536617,57.6868586 C32.5236617,58.5588586 30.7256617,58.2328586 29.8226617,57.4888586 C28.8676617,58.1968586 28.4996617,60.4388586 29.0586617,62.8248586 C29.2196617,61.0928586 30.0556617,60.7988586 30.3836617,60.8328586 C30.6676617,60.8628586 30.5916617,61.4428586 31.5206617,61.4238586 C31.0956617,61.1188586 31.2296617,60.8168586 31.4596617,60.6298586 C31.8276617,60.3308586 32.4926617,60.8068586 33.0736617,60.8668586 C32.5716617,60.2478586 33.2616617,59.6608586 33.7236617,59.5668586 C34.2416617,59.4608586 34.9496617,59.9738586 36.1426617,60.7788586 C35.6006617,59.4458586 35.2436617,58.6468586 35.4526617,58.1628586 C35.6406617,57.7288586 36.3576617,57.1748586 36.8606617,57.7928586 C36.9196617,57.2118586 36.5906617,56.4638586 36.9596617,56.1648586 C37.1896617,55.9778586 37.5136617,55.9098586 37.7236617,56.3868586 C37.9336617,55.4818586 37.3496617,55.4378586 37.3796617,55.1528586 C37.4136617,54.8258586 37.8736617,54.0678586 39.6006617,54.2668586 C37.3806617,53.2288586 35.1106617,53.1288586 34.2216617,53.9178586" id="Fill-55-Copy" sketch:type="MSShapeGroup" transform="translate(34.198158, 58.110868) rotate(48.000000) translate(-34.198158, -58.110868) "></path>
                <path d="M14.2216617,73.9178586 C14.7636617,74.9548586 14.7136617,76.7808586 13.8746617,76.5338586 C13.0356617,76.2858586 12.9366617,76.0878586 12.6916617,75.4458586 C12.6786617,75.8498586 12.6396617,76.1328586 12.4916617,76.2808586 C12.3166617,76.3958586 12.0316617,76.3758586 11.6336617,76.3048586 C12.2116617,76.6778586 12.3846617,76.8148586 12.4536617,77.6868586 C12.5236617,78.5588586 10.7256617,78.2328586 9.82266168,77.4888586 C8.86766168,78.1968586 8.49966168,80.4388586 9.05866168,82.8248586 C9.21966168,81.0928586 10.0556617,80.7988586 10.3836617,80.8328586 C10.6676617,80.8628586 10.5916617,81.4428586 11.5206617,81.4238586 C11.0956617,81.1188586 11.2296617,80.8168586 11.4596617,80.6298586 C11.8276617,80.3308586 12.4926617,80.8068586 13.0736617,80.8668586 C12.5716617,80.2478586 13.2616617,79.6608586 13.7236617,79.5668586 C14.2416617,79.4608586 14.9496617,79.9738586 16.1426617,80.7788586 C15.6006617,79.4458586 15.2436617,78.6468586 15.4526617,78.1628586 C15.6406617,77.7288586 16.3576617,77.1748586 16.8606617,77.7928586 C16.9196617,77.2118586 16.5906617,76.4638586 16.9596617,76.1648586 C17.1896617,75.9778586 17.5136617,75.9098586 17.7236617,76.3868586 C17.9336617,75.4818586 17.3496617,75.4378586 17.3796617,75.1528586 C17.4136617,74.8258586 17.8736617,74.0678586 19.6006617,74.2668586 C17.3806617,73.2288586 15.1106617,73.1288586 14.2216617,73.9178586" id="Fill-55-Copy-3" sketch:type="MSShapeGroup" transform="translate(14.198158, 78.110868) rotate(32.000000) translate(-14.198158, -78.110868) "></path>
                <path d="M106.339,38.606 C106.881,39.643 106.831,41.469 105.992,41.222 C105.153,40.974 105.054,40.776 104.809,40.134 C104.796,40.538 104.757,40.821 104.609,40.969 C104.434,41.084 104.149,41.064 103.751,40.993 C104.329,41.366 104.502,41.503 104.571,42.375 C104.641,43.247 102.843,42.921 101.94,42.177 C100.985,42.885 100.617,45.127 101.176,47.513 C101.337,45.781 102.173,45.487 102.501,45.521 C102.785,45.551 102.709,46.131 103.638,46.112 C103.213,45.807 103.347,45.505 103.577,45.318 C103.945,45.019 104.61,45.495 105.191,45.555 C104.689,44.936 105.379,44.349 105.841,44.255 C106.359,44.149 107.067,44.662 108.26,45.467 C107.718,44.134 107.361,43.335 107.57,42.851 C107.758,42.417 108.475,41.863 108.978,42.481 C109.037,41.9 108.708,41.152 109.077,40.853 C109.307,40.666 109.631,40.598 109.841,41.075 C110.051,40.17 109.467,40.126 109.497,39.841 C109.531,39.514 109.991,38.756 111.718,38.955 C109.498,37.917 107.228,37.817 106.339,38.606" id="Fill-55-Copy-6" sketch:type="MSShapeGroup"></path>
                <path d="M94.2216617,3.91785856 C94.7636617,4.95485856 94.7136617,6.78085856 93.8746617,6.53385856 C93.0356617,6.28585856 92.9366617,6.08785856 92.6916617,5.44585856 C92.6786617,5.84985856 92.6396617,6.13285856 92.4916617,6.28085856 C92.3166617,6.39585856 92.0316617,6.37585856 91.6336617,6.30485856 C92.2116617,6.67785856 92.3846617,6.81485856 92.4536617,7.68685856 C92.5236617,8.55885856 90.7256617,8.23285856 89.8226617,7.48885856 C88.8676617,8.19685856 88.4996617,10.4388586 89.0586617,12.8248586 C89.2196617,11.0928586 90.0556617,10.7988586 90.3836617,10.8328586 C90.6676617,10.8628586 90.5916617,11.4428586 91.5206617,11.4238586 C91.0956617,11.1188586 91.2296617,10.8168586 91.4596617,10.6298586 C91.8276617,10.3308586 92.4926617,10.8068586 93.0736617,10.8668586 C92.5716617,10.2478586 93.2616617,9.66085856 93.7236617,9.56685856 C94.2416617,9.46085856 94.9496617,9.97385856 96.1426617,10.7788586 C95.6006617,9.44585856 95.2436617,8.64685856 95.4526617,8.16285856 C95.6406617,7.72885856 96.3576617,7.17485856 96.8606617,7.79285856 C96.9196617,7.21185856 96.5906617,6.46385856 96.9596617,6.16485856 C97.1896617,5.97785856 97.5136617,5.90985856 97.7236617,6.38685856 C97.9336617,5.48185856 97.3496617,5.43785856 97.3796617,5.15285856 C97.4136617,4.82585856 97.8736617,4.06785856 99.6006617,4.26685856 C97.3806617,3.22885856 95.1106617,3.12885856 94.2216617,3.91785856" id="Fill-55-Copy-4" sketch:type="MSShapeGroup" transform="translate(94.198158, 8.110868) rotate(48.000000) translate(-94.198158, -8.110868) "></path>
                <path d="M29.371,170.06 C29.494,171.002 28.943,172.379 28.373,171.955 C27.803,171.531 27.784,171.352 27.777,170.795 C27.654,171.099 27.545,171.304 27.391,171.374 C27.226,171.412 27.012,171.318 26.73,171.152 C27.066,171.599 27.158,171.752 26.967,172.435 C26.776,173.119 25.498,172.365 25.017,171.547 C24.093,171.818 23.182,173.423 22.939,175.398 C23.546,174.123 24.266,174.134 24.506,174.252 C24.715,174.355 24.494,174.774 25.206,175.02 C24.97,174.67 25.156,174.476 25.385,174.399 C25.748,174.274 26.123,174.823 26.547,175.031 C26.338,174.42 27.03,174.166 27.406,174.224 C27.832,174.288 28.227,174.878 28.911,175.825 C28.873,174.659 28.824,173.95 29.12,173.639 C29.384,173.361 30.085,173.14 30.295,173.753 C30.504,173.326 30.463,172.664 30.827,172.539 C31.055,172.461 31.321,172.5 31.347,172.923 C31.761,172.293 31.329,172.095 31.431,171.887 C31.549,171.646 32.112,171.197 33.373,171.834 C31.973,170.421 30.27,169.707 29.371,170.06" id="Fill-49-Copy" sketch:type="MSShapeGroup"></path>
                <path d="M10.948,106.605 C10.163,107.473 8.433,108.059 8.374,107.186 C8.315,106.312 8.467,106.152 8.984,105.699 C8.602,105.827 8.322,105.889 8.132,105.801 C7.964,105.676 7.883,105.402 7.812,105.004 C7.663,105.675 7.594,105.885 6.8,106.252 C6.007,106.619 5.69,104.819 6.075,103.716 C5.081,103.064 2.849,103.495 0.805,104.846 C2.485,104.398 3.05,105.08 3.132,105.398 C3.202,105.676 2.632,105.805 2.971,106.67 C3.11,106.167 3.44,106.186 3.695,106.338 C4.103,106.58 3.887,107.369 4.031,107.935 C4.438,107.249 5.228,107.693 5.476,108.095 C5.754,108.543 5.519,109.386 5.177,110.783 C6.239,109.812 6.865,109.201 7.392,109.23 C7.863,109.257 8.632,109.736 8.226,110.423 C8.792,110.277 9.379,109.71 9.788,109.952 C10.043,110.104 10.219,110.384 9.844,110.746 C10.765,110.629 10.606,110.066 10.883,109.995 C11.201,109.914 12.072,110.084 12.484,111.773 C12.688,109.33 11.996,107.166 10.948,106.605" id="Fill-56" sketch:type="MSShapeGroup" transform="translate(6.662338, 107.595001) rotate(-13.000000) translate(-6.662338, -107.595001) "></path>
                <path d="M154.134,69.084 C153.427,70.016 151.754,70.749 151.619,69.885 C151.485,69.021 151.623,68.847 152.098,68.351 C151.728,68.512 151.455,68.597 151.258,68.525 C151.08,68.416 150.976,68.15 150.871,67.76 C150.779,68.441 150.729,68.657 149.971,69.092 C149.211,69.526 148.74,67.761 149.027,66.627 C147.98,66.065 145.795,66.687 143.876,68.211 C145.51,67.618 146.133,68.249 146.242,68.56 C146.336,68.83 145.779,69.008 146.191,69.84 C146.287,69.327 146.617,69.317 146.884,69.446 C147.311,69.652 147.165,70.456 147.358,71.009 C147.703,70.289 148.529,70.664 148.811,71.042 C149.128,71.465 148.965,72.324 148.746,73.746 C149.721,72.688 150.291,72.023 150.818,72.008 C151.291,71.992 152.098,72.403 151.752,73.122 C152.304,72.929 152.84,72.312 153.268,72.518 C153.535,72.646 153.734,72.909 153.394,73.304 C154.301,73.107 154.093,72.561 154.363,72.466 C154.673,72.357 155.555,72.451 156.111,74.099 C156.104,71.646 155.227,69.551 154.134,69.084" id="Fill-57" sketch:type="MSShapeGroup"></path>
                <path d="M164.134,39.084 C163.427,40.016 161.754,40.749 161.619,39.885 C161.485,39.021 161.623,38.847 162.098,38.351 C161.728,38.512 161.455,38.597 161.258,38.525 C161.08,38.416 160.976,38.15 160.871,37.76 C160.779,38.441 160.729,38.657 159.971,39.092 C159.211,39.526 158.74,37.761 159.027,36.627 C157.98,36.065 155.795,36.687 153.876,38.211 C155.51,37.618 156.133,38.249 156.242,38.56 C156.336,38.83 155.779,39.008 156.191,39.84 C156.287,39.327 156.617,39.317 156.884,39.446 C157.311,39.652 157.165,40.456 157.358,41.009 C157.703,40.289 158.529,40.664 158.811,41.042 C159.128,41.465 158.965,42.324 158.746,43.746 C159.721,42.688 160.291,42.023 160.818,42.008 C161.291,41.992 162.098,42.403 161.752,43.122 C162.304,42.929 162.84,42.312 163.268,42.518 C163.535,42.646 163.734,42.909 163.394,43.304 C164.301,43.107 164.093,42.561 164.363,42.466 C164.673,42.357 165.555,42.451 166.111,44.099 C166.104,41.646 165.227,39.551 164.134,39.084" id="Fill-57-Copy" sketch:type="MSShapeGroup"></path>
                <path d="M150.525,104.152 C150.631,104.977 150.145,106.18 149.646,105.808 C149.149,105.435 149.133,105.278 149.128,104.791 C149.02,105.056 148.924,105.235 148.789,105.297 C148.645,105.33 148.457,105.247 148.211,105.101 C148.504,105.492 148.584,105.626 148.416,106.224 C148.246,106.823 147.13,106.159 146.711,105.441 C145.901,105.676 145.1,107.078 144.881,108.807 C145.416,107.692 146.047,107.703 146.257,107.808 C146.439,107.898 146.244,108.264 146.867,108.481 C146.66,108.174 146.824,108.005 147.025,107.939 C147.344,107.83 147.668,108.311 148.04,108.496 C147.859,107.96 148.465,107.738 148.795,107.791 C149.167,107.848 149.511,108.365 150.107,109.196 C150.076,108.177 150.037,107.555 150.296,107.284 C150.527,107.042 151.142,106.85 151.324,107.387 C151.51,107.014 151.475,106.434 151.793,106.326 C151.993,106.258 152.227,106.292 152.246,106.662 C152.611,106.112 152.234,105.939 152.323,105.756 C152.428,105.547 152.922,105.155 154.023,105.716 C152.802,104.476 151.314,103.846 150.525,104.152" id="Fill-51-Copy-3" sketch:type="MSShapeGroup"></path>
                <path d="M180.525,109.152 C180.631,109.977 180.145,111.18 179.646,110.808 C179.149,110.435 179.133,110.278 179.128,109.791 C179.02,110.056 178.924,110.235 178.789,110.297 C178.645,110.33 178.457,110.247 178.211,110.101 C178.504,110.492 178.584,110.626 178.416,111.224 C178.246,111.823 177.13,111.159 176.711,110.441 C175.901,110.676 175.1,112.078 174.881,113.807 C175.416,112.692 176.047,112.703 176.257,112.808 C176.439,112.898 176.244,113.264 176.867,113.481 C176.66,113.174 176.824,113.005 177.025,112.939 C177.344,112.83 177.668,113.311 178.04,113.496 C177.859,112.96 178.465,112.738 178.795,112.791 C179.167,112.848 179.511,113.365 180.107,114.196 C180.076,113.177 180.037,112.555 180.296,112.284 C180.527,112.042 181.142,111.85 181.324,112.387 C181.51,112.014 181.475,111.434 181.793,111.326 C181.993,111.258 182.227,111.292 182.246,111.662 C182.611,111.112 182.234,110.939 182.323,110.756 C182.428,110.547 182.922,110.155 184.023,110.716 C182.802,109.476 181.314,108.846 180.525,109.152" id="Fill-51-Copy-2" sketch:type="MSShapeGroup" transform="translate(179.452000, 111.635741) rotate(38.000000) translate(-179.452000, -111.635741) "></path>
                <path d="M80.525,49.152 C80.631,49.977 80.145,51.18 79.646,50.808 C79.149,50.435 79.133,50.278 79.128,49.791 C79.02,50.056 78.924,50.235 78.789,50.297 C78.645,50.33 78.457,50.247 78.211,50.101 C78.504,50.492 78.584,50.626 78.416,51.224 C78.246,51.823 77.13,51.159 76.711,50.441 C75.901,50.676 75.1,52.078 74.881,53.807 C75.416,52.692 76.047,52.703 76.257,52.808 C76.439,52.898 76.244,53.264 76.867,53.481 C76.66,53.174 76.824,53.005 77.025,52.939 C77.344,52.83 77.668,53.311 78.04,53.496 C77.859,52.96 78.465,52.738 78.795,52.791 C79.167,52.848 79.511,53.365 80.107,54.196 C80.076,53.177 80.037,52.555 80.296,52.284 C80.527,52.042 81.142,51.85 81.324,52.387 C81.51,52.014 81.475,51.434 81.793,51.326 C81.993,51.258 82.227,51.292 82.246,51.662 C82.611,51.112 82.234,50.939 82.323,50.756 C82.428,50.547 82.922,50.155 84.023,50.716 C82.802,49.476 81.314,48.846 80.525,49.152" id="Fill-51-Copy-9" sketch:type="MSShapeGroup"></path>
                <path d="M33.525,33.152 C33.631,33.977 33.145,35.18 32.646,34.808 C32.149,34.435 32.133,34.278 32.128,33.791 C32.02,34.056 31.924,34.235 31.789,34.297 C31.645,34.33 31.457,34.247 31.211,34.101 C31.504,34.492 31.584,34.626 31.416,35.224 C31.246,35.823 30.13,35.159 29.711,34.441 C28.901,34.676 28.1,36.078 27.881,37.807 C28.416,36.692 29.047,36.703 29.257,36.808 C29.439,36.898 29.244,37.264 29.867,37.481 C29.66,37.174 29.824,37.005 30.025,36.939 C30.344,36.83 30.668,37.311 31.04,37.496 C30.859,36.96 31.465,36.738 31.795,36.791 C32.167,36.848 32.511,37.365 33.107,38.196 C33.076,37.177 33.037,36.555 33.296,36.284 C33.527,36.042 34.142,35.85 34.324,36.387 C34.51,36.014 34.475,35.434 34.793,35.326 C34.993,35.258 35.227,35.292 35.246,35.662 C35.611,35.112 35.234,34.939 35.323,34.756 C35.428,34.547 35.922,34.155 37.023,34.716 C35.802,33.476 34.314,32.846 33.525,33.152" id="Fill-51-Copy-7" sketch:type="MSShapeGroup"></path>
                <path d="M60.525,29.152 C60.631,29.977 60.145,31.18 59.646,30.808 C59.149,30.435 59.133,30.278 59.128,29.791 C59.02,30.056 58.924,30.235 58.789,30.297 C58.645,30.33 58.457,30.247 58.211,30.101 C58.504,30.492 58.584,30.626 58.416,31.224 C58.246,31.823 57.13,31.159 56.711,30.441 C55.901,30.676 55.1,32.078 54.881,33.807 C55.416,32.692 56.047,32.703 56.257,32.808 C56.439,32.898 56.244,33.264 56.867,33.481 C56.66,33.174 56.824,33.005 57.025,32.939 C57.344,32.83 57.668,33.311 58.04,33.496 C57.859,32.96 58.465,32.738 58.795,32.791 C59.167,32.848 59.511,33.365 60.107,34.196 C60.076,33.177 60.037,32.555 60.296,32.284 C60.527,32.042 61.142,31.85 61.324,32.387 C61.51,32.014 61.475,31.434 61.793,31.326 C61.993,31.258 62.227,31.292 62.246,31.662 C62.611,31.112 62.234,30.939 62.323,30.756 C62.428,30.547 62.922,30.155 64.023,30.716 C62.802,29.476 61.314,28.846 60.525,29.152" id="Fill-51-Copy-8" sketch:type="MSShapeGroup" transform="translate(59.452000, 31.635741) rotate(38.000000) translate(-59.452000, -31.635741) "></path>
                <path d="M180.525,59.152 C180.631,59.977 180.145,61.18 179.646,60.808 C179.149,60.435 179.133,60.278 179.128,59.791 C179.02,60.056 178.924,60.235 178.789,60.297 C178.645,60.33 178.457,60.247 178.211,60.101 C178.504,60.492 178.584,60.626 178.416,61.224 C178.246,61.823 177.13,61.159 176.711,60.441 C175.901,60.676 175.1,62.078 174.881,63.807 C175.416,62.692 176.047,62.703 176.257,62.808 C176.439,62.898 176.244,63.264 176.867,63.481 C176.66,63.174 176.824,63.005 177.025,62.939 C177.344,62.83 177.668,63.311 178.04,63.496 C177.859,62.96 178.465,62.738 178.795,62.791 C179.167,62.848 179.511,63.365 180.107,64.196 C180.076,63.177 180.037,62.555 180.296,62.284 C180.527,62.042 181.142,61.85 181.324,62.387 C181.51,62.014 181.475,61.434 181.793,61.326 C181.993,61.258 182.227,61.292 182.246,61.662 C182.611,61.112 182.234,60.939 182.323,60.756 C182.428,60.547 182.922,60.155 184.023,60.716 C182.802,59.476 181.314,58.846 180.525,59.152" id="Fill-51-Copy-4" sketch:type="MSShapeGroup"></path>
                <path d="M138.525,4.152 C138.631,4.977 138.145,6.18 137.646,5.808 C137.149,5.435 137.133,5.278 137.128,4.791 C137.02,5.056 136.924,5.235 136.789,5.297 C136.645,5.33 136.457,5.247 136.211,5.101 C136.504,5.492 136.584,5.626 136.416,6.224 C136.246,6.823 135.13,6.159 134.711,5.441 C133.901,5.676 133.1,7.078 132.881,8.807 C133.416,7.692 134.047,7.703 134.257,7.808 C134.439,7.898 134.244,8.264 134.867,8.481 C134.66,8.174 134.824,8.005 135.025,7.939 C135.344,7.83 135.668,8.311 136.04,8.496 C135.859,7.96 136.465,7.738 136.795,7.791 C137.167,7.848 137.511,8.365 138.107,9.196 C138.076,8.177 138.037,7.555 138.296,7.284 C138.527,7.042 139.142,6.85 139.324,7.387 C139.51,7.014 139.475,6.434 139.793,6.326 C139.993,6.258 140.227,6.292 140.246,6.662 C140.611,6.112 140.234,5.939 140.323,5.756 C140.428,5.547 140.922,5.155 142.023,5.716 C140.802,4.476 139.314,3.846 138.525,4.152" id="Fill-51-Copy-5" sketch:type="MSShapeGroup"></path>
                <path d="M130.525,19.152 C130.631,19.977 130.145,21.18 129.646,20.808 C129.149,20.435 129.133,20.278 129.128,19.791 C129.02,20.056 128.924,20.235 128.789,20.297 C128.645,20.33 128.457,20.247 128.211,20.101 C128.504,20.492 128.584,20.626 128.416,21.224 C128.246,21.823 127.13,21.159 126.711,20.441 C125.901,20.676 125.1,22.078 124.881,23.807 C125.416,22.692 126.047,22.703 126.257,22.808 C126.439,22.898 126.244,23.264 126.867,23.481 C126.66,23.174 126.824,23.005 127.025,22.939 C127.344,22.83 127.668,23.311 128.04,23.496 C127.859,22.96 128.465,22.738 128.795,22.791 C129.167,22.848 129.511,23.365 130.107,24.196 C130.076,23.177 130.037,22.555 130.296,22.284 C130.527,22.042 131.142,21.85 131.324,22.387 C131.51,22.014 131.475,21.434 131.793,21.326 C131.993,21.258 132.227,21.292 132.246,21.662 C132.611,21.112 132.234,20.939 132.323,20.756 C132.428,20.547 132.922,20.155 134.023,20.716 C132.802,19.476 131.314,18.846 130.525,19.152" id="Fill-51-Copy-6" sketch:type="MSShapeGroup" transform="translate(129.452000, 21.635741) rotate(38.000000) translate(-129.452000, -21.635741) "></path>
            </g>
        </g>
    </g>
</svg>