<?xml version="1.0" encoding="utf-8"?>
<!-- Generator: Adobe Illustrator 19.1.0, SVG Export Plug-In . SVG Version: 6.00 Build 0)  -->
<!DOCTYPE svg PUBLIC "-//W3C//DTD SVG 1.1//EN" "http://www.w3.org/Graphics/SVG/1.1/DTD/svg11.dtd">
<svg version="1.1" id="Layer_1" xmlns:sketch="http://www.bohemiancoding.com/sketch/ns"
	 xmlns="http://www.w3.org/2000/svg" xmlns:xlink="http://www.w3.org/1999/xlink" x="0px" y="0px" viewBox="61 -61 282 283"
	 style="enable-background:new 61 -61 282 283;" xml:space="preserve">
<style type="text/css">
	.st0{opacity:0.2033;}
	.st1{fill:#3D1425;}
</style>
<title>footer</title>
<desc>Created with Sketch.</desc>
<g id="Page-1" sketch:type="MSPage">
	<g id="Connorween" transform="translate(0.000000, -905.000000)" sketch:type="MSArtboardGroup">
		<g id="footer" transform="translate(-1.000000, 901.000000)" sketch:type="MSLayerGroup">
			<g id="bats-layer-1" transform="translate(38.000000, 8.000000)" sketch:type="MSShapeGroup" class="st0">
				<path id="Fill-43" class="st1" d="M96.6,39.4c0.1,0.6-0.1,1.4-0.5,1.2c-0.4-0.2-0.4-0.3-0.4-0.7c-0.1,0.2-0.1,0.3-0.2,0.4
					c-0.1,0-0.2,0-0.4-0.1c0.2,0.3,0.3,0.3,0.2,0.8c-0.1,0.4-0.9,0-1.2-0.4c-0.5,0.2-1,1.2-1.1,2.4c0.3-0.8,0.7-0.8,0.9-0.8
					c0.1,0.1,0,0.3,0.5,0.4c-0.2-0.2-0.1-0.3,0.1-0.4c0.2-0.1,0.5,0.2,0.7,0.3C95,42.1,95.4,42,95.7,42s0.5,0.4,1,0.9
					c-0.1-0.7-0.1-1.1,0-1.3c0.1-0.2,0.6-0.3,0.7,0c0.1-0.3,0-0.7,0.3-0.8c0.1-0.1,0.3,0,0.3,0.2c0.2-0.4-0.1-0.5,0-0.6
					c0.1-0.2,0.4-0.4,1.2-0.1C98.2,39.4,97.1,39.1,96.6,39.4"/>
				<path id="Fill-43_1_" class="st1" d="M96.6-6.6c0.1,0.6-0.1,1.4-0.5,1.2s-0.4-0.3-0.4-0.7c-0.1,0.2-0.1,0.3-0.2,0.4
					c-0.1,0-0.2,0-0.4-0.1c0.2,0.3,0.3,0.3,0.2,0.8c-0.1,0.4-0.9,0-1.2-0.4c-0.5,0.2-1,1.2-1.1,2.4c0.3-0.8,0.7-0.8,0.9-0.8
					c0.1,0.1,0,0.3,0.5,0.4c-0.2-0.2-0.1-0.3,0.1-0.4c0.2-0.1,0.5,0.2,0.7,0.3C95-3.9,95.4-4,95.7-4s0.5,0.4,1,0.9
					c-0.1-0.7-0.1-1.1,0-1.3s0.6-0.3,0.7,0c0.1-0.3,0-0.7,0.3-0.8C97.8-5.3,98-5.2,98-5c0.2-0.4-0.1-0.5,0-0.6
					c0.1-0.2,0.4-0.4,1.2-0.1C98.2-6.6,97.1-6.9,96.6-6.6"/>
				<path id="Fill-44" class="st1" d="M263.4,66c0.2,0.5,0.1,1.4-0.3,1.3c-0.4-0.2-0.4-0.3-0.5-0.6c0,0.2-0.1,0.3-0.1,0.4
					c-0.1,0-0.2,0-0.4,0c0.3,0.2,0.3,0.3,0.3,0.7s-0.9,0.2-1.3-0.2c-0.5,0.3-0.8,1.4-0.7,2.6c0.2-0.8,0.6-0.9,0.8-0.9
					c0.1,0,0.1,0.3,0.5,0.3c-0.2-0.2-0.1-0.3,0-0.4c0.2-0.1,0.5,0.1,0.8,0.2c-0.2-0.3,0.2-0.6,0.4-0.6c0.3,0,0.6,0.3,1.1,0.7
					c-0.2-0.7-0.3-1.1-0.2-1.3c0.1-0.2,0.5-0.4,0.7-0.1c0.1-0.3-0.1-0.7,0.1-0.8c0.1-0.1,0.3-0.1,0.4,0.2c0.2-0.4-0.1-0.5-0.1-0.6
					c0-0.2,0.3-0.5,1.1-0.3C265,65.9,263.9,65.7,263.4,66"/>
				<path id="Fill-45" class="st1" d="M97.8,117.8c0.2,0.5,0,1.4-0.4,1.2s-0.4-0.3-0.5-0.6c0,0.2-0.1,0.3-0.2,0.4
					c-0.1,0-0.2,0-0.4-0.1c0.3,0.2,0.3,0.3,0.3,0.7c0,0.4-0.9,0.1-1.3-0.3c-0.5,0.3-0.9,1.3-0.8,2.5c0.2-0.8,0.6-0.9,0.8-0.9
					c0.1,0,0.1,0.3,0.5,0.4c-0.2-0.2-0.1-0.3,0-0.4c0.2-0.1,0.5,0.2,0.8,0.2c-0.2-0.3,0.2-0.6,0.4-0.6c0.3,0,0.6,0.3,1.1,0.8
					c-0.2-0.7-0.3-1.1-0.1-1.3c0.1-0.2,0.5-0.4,0.7-0.1c0.1-0.3,0-0.7,0.2-0.8c0.1-0.1,0.3-0.1,0.4,0.2c0.2-0.4-0.1-0.5-0.1-0.6
					c0-0.2,0.3-0.5,1.1-0.3C99.4,117.7,98.3,117.5,97.8,117.8"/>
				<path id="Fill-46" class="st1" d="M115.9,17.7c-0.5,0.3-1.4,0.3-1.3-0.1c0.1-0.4,0.2-0.5,0.5-0.6c-0.2,0-0.3,0-0.4-0.1
					c-0.1-0.1-0.1-0.2,0-0.4c-0.2,0.3-0.2,0.4-0.7,0.4c-0.4,0-0.3-0.8,0.1-1.3c-0.4-0.5-1.5-0.6-2.6-0.3c0.8,0.1,1,0.5,1,0.6
					s-0.3,0.1-0.3,0.6c0.1-0.2,0.3-0.1,0.4,0c0.2,0.2-0.1,0.5-0.1,0.8c0.3-0.3,0.6,0.1,0.6,0.3c0.1,0.3-0.2,0.6-0.6,1.2
					c0.6-0.3,1-0.5,1.3-0.4c0.2,0.1,0.5,0.4,0.2,0.7c0.3,0,0.6-0.1,0.8,0c0.1,0.1,0.1,0.3-0.1,0.4c0.4,0.1,0.5-0.2,0.6-0.2
					c0.2,0,0.5,0.2,0.5,1.1C116.3,19.2,116.3,18.1,115.9,17.7"/>
				<path id="Fill-46_1_" class="st1" d="M95.9,17.7c-0.5,0.3-1.4,0.3-1.3-0.1c0.1-0.4,0.2-0.5,0.5-0.6c-0.2,0-0.3,0-0.4-0.1
					c-0.1-0.1-0.1-0.2,0-0.4c-0.2,0.3-0.2,0.4-0.7,0.4c-0.4,0-0.3-0.8,0.1-1.3c-0.4-0.5-1.5-0.6-2.6-0.3c0.8,0.1,1,0.5,1,0.6
					s-0.3,0.1-0.3,0.6c0.1-0.2,0.3-0.1,0.4,0c0.2,0.2-0.1,0.5-0.1,0.8c0.3-0.3,0.6,0.1,0.6,0.3c0.1,0.3-0.2,0.6-0.6,1.2
					c0.6-0.3,1-0.5,1.3-0.4c0.2,0.1,0.5,0.4,0.2,0.7c0.3,0,0.6-0.1,0.8,0c0.1,0.1,0.1,0.3-0.1,0.4c0.4,0.1,0.5-0.2,0.6-0.2
					c0.2,0,0.5,0.2,0.5,1.1C96.3,19.2,96.3,18.1,95.9,17.7"/>
				<path id="Fill-47" class="st1" d="M187.5-1.1c0.1,0.6-0.3,1.4-0.6,1.1s-0.4-0.4-0.4-0.7c-0.1,0.2-0.1,0.3-0.2,0.4
					c-0.1,0-0.2,0-0.4-0.1c0.2,0.3,0.3,0.4,0.1,0.8c-0.1,0.4-0.9,0-1.2-0.5c-0.6,0.2-1.1,1.1-1.3,2.3c0.4-0.8,0.8-0.8,0.9-0.7
					c0.1,0.1,0,0.3,0.4,0.5c-0.1-0.2,0-0.3,0.1-0.4c0.2-0.1,0.4,0.3,0.7,0.4c-0.1-0.4,0.3-0.5,0.5-0.5c0.3,0,0.5,0.4,0.9,1
					c0-0.7-0.1-1.1,0.1-1.3c0.2-0.2,0.6-0.3,0.7,0.1c0.1-0.3,0.1-0.7,0.3-0.7c0.1,0,0.3,0,0.3,0.2c0.2-0.4,0-0.5,0.1-0.6
					s0.4-0.4,1.2,0C189.1-0.9,188.1-1.3,187.5-1.1"/>
				<path id="Fill-48" class="st1" d="M227.8,77.9c-0.5,0.3-1.4,0.2-1.3-0.2c0.1-0.4,0.2-0.5,0.5-0.6c-0.2,0-0.3,0-0.4-0.1
					c-0.1-0.1,0-0.2,0-0.4c-0.2,0.3-0.2,0.4-0.7,0.4c-0.4,0-0.3-0.8,0.1-1.3c-0.3-0.5-1.4-0.6-2.6-0.4c0.8,0.1,1,0.5,1,0.6
					s-0.3,0.1-0.3,0.6c0.1-0.2,0.3-0.1,0.4,0c0.1,0.2-0.1,0.5-0.1,0.8c0.3-0.2,0.6,0.1,0.6,0.3c0.1,0.3-0.2,0.6-0.6,1.2
					c0.6-0.3,1-0.4,1.3-0.3c0.2,0.1,0.5,0.4,0.2,0.7c0.3,0,0.6-0.1,0.8,0c0.1,0.1,0.1,0.3-0.1,0.4c0.4,0.1,0.5-0.2,0.6-0.2
					c0.2,0,0.5,0.2,0.4,1.1C228.2,79.5,228.2,78.4,227.8,77.9"/>
				<path id="Fill-50" class="st1" d="M237.8,51.3c-0.4,0.4-1.2,0.7-1.3,0.3c0-0.4,0.1-0.5,0.3-0.7c-0.2,0.1-0.3,0.1-0.4,0
					c-0.1-0.1-0.1-0.2-0.2-0.4c-0.1,0.3-0.1,0.4-0.5,0.6s-0.5-0.7-0.3-1.2c-0.5-0.3-1.6-0.1-2.6,0.5c0.8-0.2,1.1,0.1,1.1,0.3
					c0,0.1-0.2,0.2-0.1,0.6c0.1-0.2,0.2-0.2,0.4-0.2c0.2,0.1,0.1,0.5,0.2,0.8c0.2-0.3,0.6-0.1,0.7,0.1c0.1,0.2,0,0.6-0.2,1.3
					c0.5-0.5,0.8-0.8,1.1-0.7c0.2,0,0.6,0.3,0.4,0.6c0.3-0.1,0.6-0.3,0.8-0.2c0.1,0.1,0.2,0.2,0,0.4c0.5-0.1,0.4-0.3,0.5-0.4
					c0.2,0,0.6,0.1,0.8,0.9C238.6,52.6,238.3,51.6,237.8,51.3"/>
				<path id="Fill-53" class="st1" d="M257.2,88.7c0.1,0.6-0.3,1.4-0.6,1.1c-0.3-0.3-0.3-0.4-0.3-0.7c-0.1,0.2-0.2,0.3-0.2,0.3
					c-0.1,0-0.2,0-0.4-0.2c0.2,0.3,0.2,0.4,0.1,0.8c-0.1,0.4-0.9-0.1-1.2-0.6c-0.6,0.1-1.2,1.1-1.4,2.3c0.4-0.8,0.8-0.7,1-0.7
					c0.1,0.1,0,0.3,0.4,0.5c-0.1-0.2,0-0.3,0.1-0.4c0.2-0.1,0.4,0.3,0.7,0.4c-0.1-0.4,0.3-0.5,0.5-0.5c0.3,0.1,0.5,0.4,0.9,1
					c0-0.7,0-1.1,0.2-1.3s0.6-0.3,0.7,0.1c0.1-0.3,0.1-0.7,0.4-0.7c0.1,0,0.3,0,0.3,0.2c0.3-0.4,0-0.5,0.1-0.6s0.4-0.4,1.2,0
					C258.8,89,257.7,88.5,257.2,88.7"/>
				<path id="Fill-54" class="st1" d="M65.9,88.7c-0.4,0.4-1.2,0.7-1.3,0.3c0-0.4,0.1-0.5,0.3-0.7c-0.2,0.1-0.3,0.1-0.4,0
					c-0.1-0.1-0.1-0.2-0.2-0.4c-0.1,0.3-0.1,0.4-0.5,0.6s-0.5-0.7-0.3-1.2c-0.5-0.3-1.6-0.1-2.6,0.5c0.8-0.2,1.1,0.1,1.1,0.3
					c0,0.1-0.2,0.2-0.1,0.6c0.1-0.2,0.2-0.2,0.4-0.2c0.2,0.1,0.1,0.5,0.2,0.8c0.2-0.3,0.6-0.1,0.7,0.1c0.1,0.2,0,0.6-0.2,1.3
					c0.5-0.5,0.8-0.8,1.1-0.7c0.2,0,0.6,0.3,0.4,0.6c0.3-0.1,0.6-0.3,0.8-0.2c0.1,0.1,0.2,0.2,0,0.4c0.5-0.1,0.4-0.3,0.5-0.4
					c0.2,0,0.6,0.1,0.8,0.9C66.8,90,66.4,89,65.9,88.7"/>
				<path id="Fill-45-Copy" class="st1" d="M97.8,67.8c0.2,0.5,0,1.4-0.4,1.2s-0.4-0.3-0.5-0.6c0,0.2-0.1,0.3-0.2,0.4
					c-0.1,0-0.2,0-0.4-0.1c0.3,0.2,0.3,0.3,0.3,0.7c0,0.4-0.9,0.1-1.3-0.3c-0.5,0.3-0.9,1.3-0.8,2.5c0.2-0.8,0.6-0.9,0.8-0.9
					c0.1,0,0.1,0.3,0.5,0.4c-0.2-0.2-0.1-0.3,0-0.4c0.2-0.1,0.5,0.2,0.8,0.2c-0.2-0.3,0.2-0.6,0.4-0.6c0.3,0,0.6,0.3,1.1,0.8
					c-0.2-0.7-0.3-1.1-0.1-1.3c0.1-0.2,0.5-0.4,0.7-0.1c0.1-0.3,0-0.7,0.2-0.8c0.1-0.1,0.3-0.1,0.4,0.2c0.2-0.4-0.1-0.5-0.1-0.6
					c0-0.2,0.3-0.5,1.1-0.3C99.4,67.7,98.3,67.5,97.8,67.8"/>
				<path id="Fill-54-Copy" class="st1" d="M75.9,48.7c-0.4,0.4-1.2,0.7-1.3,0.3c0-0.4,0.1-0.5,0.3-0.7c-0.2,0.1-0.3,0.1-0.4,0
					s-0.1-0.2-0.2-0.4c-0.1,0.3-0.1,0.4-0.5,0.6s-0.5-0.7-0.3-1.2c-0.5-0.3-1.6-0.1-2.6,0.5c0.8-0.2,1.1,0.1,1.1,0.3
					c0,0.1-0.2,0.2-0.1,0.6c0.1-0.2,0.2-0.2,0.4-0.2c0.2,0.1,0.1,0.5,0.2,0.8c0.2-0.3,0.6-0.1,0.7,0.1s0,0.6-0.2,1.3
					c0.5-0.5,0.8-0.8,1.1-0.7c0.2,0,0.6,0.3,0.4,0.6c0.3-0.1,0.6-0.3,0.8-0.2c0.1,0.1,0.2,0.2,0,0.4c0.5-0.1,0.4-0.3,0.5-0.4
					c0.2,0,0.6,0.1,0.8,0.9C76.8,50,76.4,49,75.9,48.7"/>
				<path id="Fill-43-Copy" class="st1" d="M126.6-30.6c0.1,0.6-0.1,1.4-0.5,1.2s-0.4-0.3-0.4-0.7c-0.1,0.2-0.1,0.3-0.2,0.4
					c-0.1,0-0.2,0-0.4-0.1c0.2,0.3,0.3,0.3,0.2,0.8c-0.1,0.4-0.9,0-1.2-0.4c-0.5,0.2-1,1.2-1.1,2.4c0.3-0.8,0.7-0.8,0.9-0.8
					c0.1,0.1,0,0.3,0.5,0.4c-0.2-0.2-0.1-0.3,0.1-0.4c0.2-0.1,0.5,0.2,0.7,0.3c-0.2-0.4,0.2-0.5,0.5-0.5s0.5,0.4,1,0.9
					c-0.1-0.7-0.1-1.1,0-1.3s0.6-0.3,0.7,0c0.1-0.3,0-0.7,0.3-0.8c0.1-0.1,0.3,0,0.3,0.2c0.2-0.4-0.1-0.5,0-0.6s0.4-0.4,1.2-0.1
					C128.2-30.6,127.1-30.9,126.6-30.6"/>
				<path id="Fill-45-Copy-3" class="st1" d="M127.8-2.2c0.2,0.5,0,1.4-0.4,1.2c-0.4-0.2-0.4-0.3-0.5-0.6c0,0.2-0.1,0.3-0.2,0.4
					c-0.1,0-0.2,0-0.4-0.1c0.3,0.2,0.3,0.3,0.3,0.7c0,0.4-0.9,0.1-1.3-0.3c-0.5,0.3-0.9,1.3-0.8,2.5c0.2-0.8,0.6-0.9,0.8-0.9
					c0.1,0,0.1,0.3,0.5,0.4c-0.2-0.2-0.1-0.3,0-0.4c0.2-0.1,0.5,0.2,0.8,0.2c-0.2-0.3,0.2-0.6,0.4-0.6c0.3,0,0.6,0.3,1.1,0.8
					c-0.2-0.7-0.3-1.1-0.1-1.3c0.1-0.2,0.5-0.4,0.7-0.1c0.1-0.3,0-0.7,0.2-0.8c0.1-0.1,0.3-0.1,0.4,0.2c0.2-0.4-0.1-0.5-0.1-0.6
					c0-0.2,0.3-0.5,1.1-0.3C129.4-2.3,128.3-2.5,127.8-2.2"/>
				<path id="Fill-54-Copy-6" class="st1" d="M105.9-21.3c-0.4,0.4-1.2,0.7-1.3,0.3c0-0.4,0.1-0.5,0.3-0.7c-0.2,0.1-0.3,0.1-0.4,0
					s-0.1-0.2-0.2-0.4c-0.1,0.3-0.1,0.4-0.5,0.6c-0.4,0.2-0.5-0.7-0.3-1.2c-0.5-0.3-1.6-0.1-2.6,0.5c0.8-0.2,1.1,0.1,1.1,0.3
					c0,0.1-0.2,0.2-0.1,0.6c0.1-0.2,0.2-0.2,0.4-0.2c0.2,0.1,0.1,0.5,0.2,0.8c0.2-0.3,0.6-0.1,0.7,0.1c0.1,0.2,0,0.6-0.2,1.3
					c0.5-0.5,0.8-0.8,1.1-0.7c0.2,0,0.6,0.3,0.4,0.6c0.3-0.1,0.6-0.3,0.8-0.2c0.1,0.1,0.2,0.2,0,0.4c0.5-0.1,0.4-0.3,0.5-0.4
					c0.2,0,0.6,0.1,0.8,0.9C106.8-20,106.4-21,105.9-21.3"/>
				<path id="Fill-43-Copy-2" class="st1" d="M176.6-20.6c0.1,0.6-0.1,1.4-0.5,1.2s-0.4-0.3-0.4-0.7c-0.1,0.2-0.1,0.3-0.2,0.4
					c-0.1,0-0.2,0-0.4-0.1c0.2,0.3,0.3,0.3,0.2,0.8c-0.1,0.4-0.9,0-1.2-0.4c-0.5,0.2-1,1.2-1.1,2.4c0.3-0.8,0.7-0.8,0.9-0.8
					c0.1,0.1,0,0.3,0.5,0.4c-0.2-0.2-0.1-0.3,0.1-0.4c0.2-0.1,0.5,0.2,0.7,0.3c-0.2-0.4,0.2-0.5,0.5-0.5s0.5,0.4,1,0.9
					c-0.1-0.7-0.1-1.1,0-1.3s0.6-0.3,0.7,0c0.1-0.3,0-0.7,0.3-0.8c0.1-0.1,0.3,0,0.3,0.2c0.2-0.4-0.1-0.5,0-0.6
					c0.1-0.2,0.4-0.4,1.2-0.1C178.2-20.6,177.1-20.9,176.6-20.6"/>
				<path id="Fill-54-Copy-7" class="st1" d="M155.9-11.3c-0.4,0.4-1.2,0.7-1.3,0.3c0-0.4,0.1-0.5,0.3-0.7c-0.2,0.1-0.3,0.1-0.4,0
					c-0.1-0.1-0.1-0.2-0.2-0.4c-0.1,0.3-0.1,0.4-0.5,0.6c-0.4,0.2-0.5-0.7-0.3-1.2c-0.5-0.3-1.6-0.1-2.6,0.5
					c0.8-0.2,1.1,0.1,1.1,0.3c0,0.1-0.2,0.2-0.1,0.6c0.1-0.2,0.2-0.2,0.4-0.2c0.2,0.1,0.1,0.5,0.2,0.8c0.2-0.3,0.6-0.1,0.7,0.1
					c0.1,0.2,0,0.6-0.2,1.3c0.5-0.5,0.8-0.8,1.1-0.7c0.2,0,0.6,0.3,0.4,0.6c0.3-0.1,0.6-0.3,0.8-0.2c0.1,0.1,0.2,0.2,0,0.4
					c0.5-0.1,0.4-0.3,0.5-0.4c0.2,0,0.6,0.1,0.8,0.9C156.8-10,156.4-11,155.9-11.3"/>
				<path id="Fill-54-Copy-2" class="st1" d="M81.9,83.7c-0.4,0.4-1.2,0.7-1.3,0.3c0-0.4,0.1-0.5,0.3-0.7c-0.2,0.1-0.3,0.1-0.4,0
					c-0.1-0.1-0.1-0.2-0.2-0.4c-0.1,0.3-0.1,0.4-0.5,0.6s-0.5-0.7-0.3-1.2c-0.5-0.3-1.6-0.1-2.6,0.5c0.8-0.2,1.1,0.1,1.1,0.3
					c0,0.1-0.2,0.2-0.1,0.6c0.1-0.2,0.2-0.2,0.4-0.2c0.2,0.1,0.1,0.5,0.2,0.8c0.2-0.3,0.6-0.1,0.7,0.1s0,0.6-0.2,1.3
					c0.5-0.5,0.8-0.8,1.1-0.7c0.2,0,0.6,0.3,0.4,0.6c0.3-0.1,0.6-0.3,0.8-0.2c0.1,0.1,0.2,0.2,0,0.4c0.5-0.1,0.4-0.3,0.5-0.4
					c0.2,0,0.6,0.1,0.8,0.9C82.8,85,82.4,84,81.9,83.7"/>
				<path id="Fill-54-Copy-5" class="st1" d="M205.9,18.7c-0.4,0.4-1.2,0.7-1.3,0.3c0-0.4,0.1-0.5,0.3-0.7c-0.2,0.1-0.3,0.1-0.4,0
					c-0.1-0.1-0.1-0.2-0.2-0.4c-0.1,0.3-0.1,0.4-0.5,0.6s-0.5-0.7-0.3-1.2c-0.5-0.3-1.6-0.1-2.6,0.5c0.8-0.2,1.1,0.1,1.1,0.3
					c0,0.1-0.2,0.2-0.1,0.6c0.1-0.2,0.2-0.2,0.4-0.2c0.2,0.1,0.1,0.5,0.2,0.8c0.2-0.3,0.6-0.1,0.7,0.1c0.1,0.2,0,0.6-0.2,1.3
					c0.5-0.5,0.8-0.8,1.1-0.7c0.2,0,0.6,0.3,0.4,0.6c0.3-0.1,0.6-0.3,0.8-0.2c0.1,0.1,0.2,0.2,0,0.4c0.5-0.1,0.4-0.3,0.5-0.4
					c0.2,0,0.6,0.1,0.8,0.9C206.8,20,206.4,19,205.9,18.7"/>
				<path id="Fill-47-Copy" class="st1" d="M218.5,94.9c0.1,0.6-0.3,1.4-0.6,1.1s-0.4-0.4-0.4-0.7c-0.1,0.2-0.1,0.3-0.2,0.3
					c-0.1,0-0.2,0-0.4-0.1c0.2,0.3,0.3,0.4,0.1,0.8c-0.1,0.4-0.9,0-1.2-0.5c-0.6,0.2-1.1,1.1-1.3,2.3c0.4-0.8,0.8-0.8,0.9-0.7
					c0.1,0.1,0,0.3,0.4,0.5c-0.1-0.2,0-0.3,0.1-0.4c0.2-0.1,0.4,0.3,0.7,0.4c-0.1-0.4,0.3-0.5,0.5-0.5c0.3,0,0.5,0.4,0.9,1
					c0-0.7-0.1-1.1,0.1-1.3c0.2-0.2,0.6-0.3,0.7,0.1c0.1-0.3,0.1-0.7,0.3-0.7c0.1,0,0.3,0,0.3,0.2c0.2-0.4,0-0.5,0.1-0.6
					s0.4-0.4,1.2,0C220.1,95.1,219.1,94.7,218.5,94.9"/>
				<path id="Fill-54-Copy-8" class="st1" d="M234.9,126.7c-0.4,0.4-1.2,0.7-1.3,0.3c0-0.4,0.1-0.5,0.3-0.7c-0.2,0.1-0.3,0.1-0.4,0
					c-0.1-0.1-0.1-0.2-0.2-0.4c-0.1,0.3-0.1,0.4-0.5,0.6s-0.5-0.7-0.3-1.2c-0.5-0.3-1.6-0.1-2.6,0.5c0.8-0.2,1.1,0.1,1.1,0.3
					c0,0.1-0.2,0.2-0.1,0.6c0.1-0.2,0.2-0.2,0.4-0.2c0.2,0.1,0.1,0.5,0.2,0.8c0.2-0.3,0.6-0.1,0.7,0.1c0.1,0.2,0,0.6-0.2,1.3
					c0.5-0.5,0.8-0.8,1.1-0.7c0.2,0,0.6,0.3,0.4,0.6c0.3-0.1,0.6-0.3,0.8-0.2c0.1,0.1,0.2,0.2,0,0.4c0.5-0.1,0.4-0.3,0.5-0.4
					c0.2,0,0.6,0.1,0.8,0.9C235.8,128,235.4,127,234.9,126.7"/>
				<path id="Fill-45-Copy-2" class="st1" d="M237.8-2.2c0.2,0.5,0,1.4-0.4,1.2c-0.4-0.2-0.4-0.3-0.5-0.6c0,0.2-0.1,0.3-0.2,0.4
					c-0.1,0-0.2,0-0.4-0.1c0.3,0.2,0.3,0.3,0.3,0.7c0,0.4-0.9,0.1-1.3-0.3c-0.5,0.3-0.9,1.3-0.8,2.5c0.2-0.8,0.6-0.9,0.8-0.9
					c0.1,0,0.1,0.3,0.5,0.4c-0.2-0.2-0.1-0.3,0-0.4c0.2-0.1,0.5,0.2,0.8,0.2c-0.2-0.3,0.2-0.6,0.4-0.6c0.3,0,0.6,0.3,1.1,0.8
					c-0.2-0.7-0.3-1.1-0.1-1.3c0.1-0.2,0.5-0.4,0.7-0.1c0.1-0.3,0-0.7,0.2-0.8c0.1-0.1,0.3-0.1,0.4,0.2c0.2-0.4-0.1-0.5-0.1-0.6
					c0-0.2,0.3-0.5,1.1-0.3C239.4-2.3,238.3-2.5,237.8-2.2"/>
				<path id="Fill-54-Copy-3" class="st1" d="M215.9-21.3c-0.4,0.4-1.2,0.7-1.3,0.3c0-0.4,0.1-0.5,0.3-0.7c-0.2,0.1-0.3,0.1-0.4,0
					c-0.1-0.1-0.1-0.2-0.2-0.4c-0.1,0.3-0.1,0.4-0.5,0.6c-0.4,0.2-0.5-0.7-0.3-1.2c-0.5-0.3-1.6-0.1-2.6,0.5
					c0.8-0.2,1.1,0.1,1.1,0.3c0,0.1-0.2,0.2-0.1,0.6c0.1-0.2,0.2-0.2,0.4-0.2c0.2,0.1,0.1,0.5,0.2,0.8c0.2-0.3,0.6-0.1,0.7,0.1
					c0.1,0.2,0,0.6-0.2,1.3c0.5-0.5,0.8-0.8,1.1-0.7c0.2,0,0.6,0.3,0.4,0.6c0.3-0.1,0.6-0.3,0.8-0.2c0.1,0.1,0.2,0.2,0,0.4
					c0.5-0.1,0.4-0.3,0.5-0.4c0.2,0,0.6,0.1,0.8,0.9C216.8-20,216.4-21,215.9-21.3"/>
				<path id="Fill-54-Copy-4" class="st1" d="M221.9,13.7c-0.4,0.4-1.2,0.7-1.3,0.3c0-0.4,0.1-0.5,0.3-0.7c-0.2,0.1-0.3,0.1-0.4,0
					c-0.1-0.1-0.1-0.2-0.2-0.4c-0.1,0.3-0.1,0.4-0.5,0.6s-0.5-0.7-0.3-1.2c-0.5-0.3-1.6-0.1-2.6,0.5c0.8-0.2,1.1,0.1,1.1,0.3
					c0,0.1-0.2,0.2-0.1,0.6c0.1-0.2,0.2-0.2,0.4-0.2c0.2,0.1,0.1,0.5,0.2,0.8c0.2-0.3,0.6-0.1,0.7,0.1c0.1,0.2,0,0.6-0.2,1.3
					c0.5-0.5,0.8-0.8,1.1-0.7c0.2,0,0.6,0.3,0.4,0.6c0.3-0.1,0.6-0.3,0.8-0.2c0.1,0.1,0.2,0.2,0,0.4c0.5-0.1,0.4-0.3,0.5-0.4
					c0.2,0,0.6,0.1,0.8,0.9C222.8,15,222.4,14,221.9,13.7"/>
			</g>
		</g>
	</g>
</g>
</svg>
