<?xml version="1.0" encoding="UTF-8" standalone="no"?>
<svg width="206px" height="161px" viewBox="0 0 206 161" version="1.1" xmlns="http://www.w3.org/2000/svg" xmlns:xlink="http://www.w3.org/1999/xlink" xmlns:sketch="http://www.bohemiancoding.com/sketch/ns">
    <!-- Generator: Sketch 3.3.2 (12043) - http://www.bohemiancoding.com/sketch -->
    <title>bats-2</title>
    <desc>Created with Sketch.</desc>
    <defs></defs>
    <g id="Page-1" stroke="none" stroke-width="1" fill="none" fill-rule="evenodd" sketch:type="MSPage">
        <g id="Connorween" sketch:type="MSArtboardGroup" transform="translate(-37.000000, -909.000000)" fill="#3D1425" opacity="0.203299907">
            <g id="bats-2" sketch:type="MSLayerGroup" transform="translate(37.000000, 909.000000)">
                <path d="M36.007,70.954 C36.126,71.515 35.861,72.369 35.498,72.143 C35.134,71.915 35.115,71.808 35.083,71.473 C35.024,71.662 34.968,71.79 34.878,71.841 C34.781,71.871 34.648,71.824 34.471,71.738 C34.694,71.991 34.757,72.078 34.675,72.499 C34.593,72.919 33.788,72.527 33.46,72.059 C32.916,72.266 32.447,73.274 32.396,74.475 C32.7,73.679 33.133,73.65 33.283,73.709 C33.414,73.761 33.301,74.024 33.741,74.138 C33.581,73.938 33.685,73.813 33.818,73.756 C34.031,73.663 34.282,73.976 34.548,74.08 C34.393,73.723 34.796,73.536 35.026,73.553 C35.284,73.571 35.551,73.907 36.008,74.444 C35.927,73.744 35.865,73.32 36.028,73.119 C36.173,72.939 36.584,72.772 36.74,73.131 C36.845,72.864 36.789,72.468 37.002,72.375 C37.135,72.317 37.297,72.328 37.333,72.581 C37.551,72.182 37.282,72.084 37.333,71.954 C37.393,71.804 37.71,71.507 38.498,71.828 C37.588,71.046 36.53,70.699 36.007,70.954" id="Fill-43" sketch:type="MSShapeGroup"></path>
                <path d="M202.79,97.619 C202.999,98.152 202.876,99.039 202.48,98.873 C202.086,98.708 202.049,98.605 201.963,98.28 C201.935,98.477 201.902,98.612 201.82,98.677 C201.73,98.722 201.592,98.697 201.401,98.642 C201.662,98.855 201.74,98.931 201.727,99.358 C201.715,99.786 200.856,99.531 200.457,99.121 C199.953,99.413 199.654,100.485 199.798,101.679 C199.969,100.843 200.393,100.745 200.55,100.778 C200.686,100.81 200.617,101.087 201.071,101.128 C200.881,100.957 200.962,100.816 201.085,100.738 C201.279,100.612 201.578,100.88 201.857,100.94 C201.646,100.612 202.014,100.363 202.244,100.343 C202.502,100.318 202.818,100.606 203.357,101.063 C203.164,100.385 203.034,99.976 203.162,99.751 C203.277,99.551 203.656,99.319 203.867,99.647 C203.928,99.368 203.807,98.985 204.003,98.859 C204.125,98.78 204.286,98.765 204.363,99.009 C204.514,98.58 204.232,98.526 204.262,98.39 C204.295,98.232 204.56,97.888 205.391,98.077 C204.365,97.452 203.266,97.282 202.79,97.619" id="Fill-44" sketch:type="MSShapeGroup"></path>
                <path d="M37.237,149.414 C37.426,149.955 37.268,150.836 36.88,150.655 C36.492,150.475 36.458,150.371 36.385,150.043 C36.351,150.238 36.311,150.372 36.228,150.434 C36.135,150.476 35.998,150.446 35.81,150.383 C36.063,150.605 36.137,150.685 36.108,151.111 C36.079,151.538 35.231,151.25 34.848,150.826 C34.334,151.099 33.994,152.158 34.092,153.355 C34.295,152.528 34.722,152.446 34.877,152.485 C35.013,152.522 34.934,152.797 35.385,152.855 C35.202,152.677 35.288,152.539 35.414,152.466 C35.613,152.348 35.901,152.626 36.179,152.697 C35.98,152.361 36.357,152.126 36.587,152.115 C36.846,152.101 37.151,152.399 37.672,152.876 C37.505,152.192 37.391,151.778 37.527,151.559 C37.649,151.362 38.037,151.145 38.235,151.481 C38.307,151.205 38.201,150.817 38.401,150.7 C38.527,150.625 38.688,150.616 38.756,150.863 C38.923,150.44 38.643,150.376 38.678,150.24 C38.718,150.085 38.997,149.75 39.818,149.972 C38.818,149.308 37.725,149.095 37.237,149.414" id="Fill-45" sketch:type="MSShapeGroup"></path>
                <path d="M55.34,49.294 C54.839,49.572 53.944,49.569 54.055,49.155 C54.166,48.741 54.262,48.691 54.573,48.563 C54.375,48.561 54.236,48.547 54.162,48.476 C54.104,48.391 54.11,48.25 54.14,48.056 C53.964,48.343 53.899,48.429 53.473,48.474 C53.047,48.519 53.186,47.634 53.538,47.183 C53.181,46.724 52.078,46.57 50.916,46.873 C51.766,46.931 51.92,47.337 51.907,47.497 C51.896,47.637 51.611,47.606 51.632,48.061 C51.776,47.85 51.926,47.912 52.02,48.022 C52.171,48.198 51.946,48.53 51.924,48.815 C52.22,48.562 52.517,48.894 52.568,49.118 C52.627,49.37 52.383,49.724 52.004,50.317 C52.649,50.036 53.037,49.852 53.276,49.948 C53.491,50.035 53.771,50.379 53.474,50.633 C53.759,50.655 54.122,50.485 54.272,50.662 C54.368,50.772 54.405,50.93 54.173,51.039 C54.619,51.131 54.634,50.844 54.773,50.855 C54.934,50.868 55.311,51.084 55.234,51.933 C55.716,50.833 55.737,49.72 55.34,49.294" id="Fill-46" sketch:type="MSShapeGroup"></path>
                <path d="M126.93,30.516 C127.004,31.084 126.671,31.915 126.327,31.659 C125.982,31.403 125.972,31.296 125.967,30.959 C125.893,31.143 125.828,31.266 125.734,31.309 C125.635,31.332 125.506,31.275 125.336,31.175 C125.538,31.444 125.594,31.537 125.479,31.949 C125.363,32.361 124.592,31.907 124.303,31.413 C123.744,31.577 123.195,32.545 123.049,33.737 C123.415,32.967 123.85,32.974 123.994,33.045 C124.12,33.106 123.986,33.36 124.416,33.508 C124.273,33.297 124.387,33.18 124.524,33.134 C124.743,33.059 124.969,33.39 125.225,33.516 C125.1,33.146 125.516,32.993 125.744,33.028 C126,33.066 126.238,33.422 126.651,33.994 C126.628,33.29 126.6,32.862 126.777,32.675 C126.936,32.508 127.359,32.374 127.486,32.744 C127.612,32.486 127.588,32.087 127.808,32.012 C127.945,31.964 128.105,31.988 128.121,32.243 C128.371,31.863 128.109,31.744 128.172,31.618 C128.242,31.473 128.582,31.202 129.344,31.586 C128.498,30.733 127.471,30.303 126.93,30.516" id="Fill-47" sketch:type="MSShapeGroup"></path>
                <path d="M167.244,109.53 C166.738,109.8 165.844,109.779 165.961,109.368 C166.081,108.956 166.178,108.908 166.491,108.785 C166.293,108.78 166.154,108.762 166.082,108.69 C166.025,108.605 166.033,108.464 166.068,108.269 C165.887,108.554 165.819,108.638 165.394,108.675 C164.967,108.712 165.121,107.83 165.482,107.386 C165.133,106.92 164.034,106.745 162.867,107.025 C163.716,107.1 163.861,107.508 163.846,107.669 C163.832,107.809 163.549,107.773 163.561,108.227 C163.708,108.019 163.857,108.083 163.949,108.196 C164.096,108.375 163.865,108.702 163.838,108.987 C164.139,108.739 164.428,109.076 164.476,109.302 C164.529,109.556 164.279,109.903 163.889,110.49 C164.539,110.222 164.93,110.045 165.168,110.145 C165.381,110.236 165.654,110.586 165.354,110.834 C165.639,110.862 166.003,110.698 166.15,110.878 C166.243,110.99 166.277,111.148 166.045,111.253 C166.487,111.354 166.508,111.067 166.646,111.081 C166.808,111.097 167.181,111.32 167.088,112.167 C167.59,111.076 167.633,109.964 167.244,109.53" id="Fill-48" sketch:type="MSShapeGroup"></path>
                <path d="M177.203,82.9 C176.814,83.32 175.963,83.595 175.939,83.168 C175.916,82.739 175.992,82.662 176.248,82.443 C176.06,82.504 175.923,82.532 175.83,82.487 C175.749,82.426 175.711,82.29 175.679,82.096 C175.602,82.423 175.565,82.524 175.175,82.7 C174.783,82.875 174.641,81.991 174.836,81.453 C174.354,81.128 173.258,81.324 172.246,81.973 C173.072,81.764 173.346,82.102 173.383,82.259 C173.416,82.395 173.137,82.454 173.297,82.88 C173.367,82.635 173.529,82.646 173.653,82.723 C173.852,82.843 173.74,83.229 173.808,83.506 C174.011,83.173 174.395,83.396 174.514,83.594 C174.648,83.815 174.527,84.227 174.352,84.909 C174.877,84.441 175.187,84.145 175.446,84.163 C175.677,84.179 176.05,84.419 175.847,84.753 C176.125,84.685 176.416,84.41 176.615,84.531 C176.738,84.607 176.823,84.745 176.637,84.921 C177.089,84.87 177.014,84.593 177.15,84.561 C177.307,84.523 177.732,84.611 177.924,85.441 C178.039,84.246 177.715,83.182 177.203,82.9" id="Fill-50" sketch:type="MSShapeGroup"></path>
                <path d="M196.592,120.292 C196.643,120.863 196.275,121.679 195.942,121.409 C195.609,121.139 195.602,121.03 195.613,120.694 C195.531,120.874 195.46,120.995 195.365,121.034 C195.265,121.053 195.139,120.99 194.973,120.883 C195.163,121.161 195.215,121.255 195.083,121.662 C194.949,122.07 194.199,121.583 193.931,121.077 C193.365,121.217 192.775,122.161 192.579,123.346 C192.977,122.593 193.411,122.617 193.553,122.694 C193.676,122.762 193.532,123.009 193.956,123.176 C193.821,122.958 193.939,122.847 194.078,122.806 C194.301,122.739 194.512,123.08 194.764,123.217 C194.652,122.843 195.076,122.707 195.302,122.752 C195.557,122.802 195.779,123.167 196.168,123.756 C196.174,123.052 196.164,122.623 196.35,122.443 C196.516,122.282 196.943,122.167 197.055,122.542 C197.191,122.29 197.184,121.89 197.407,121.824 C197.547,121.782 197.705,121.813 197.71,122.068 C197.976,121.699 197.721,121.569 197.787,121.446 C197.863,121.305 198.215,121.049 198.959,121.464 C198.151,120.576 197.144,120.102 196.592,120.292" id="Fill-53" sketch:type="MSShapeGroup"></path>
                <path d="M5.317,120.283 C4.928,120.704 4.077,120.979 4.053,120.551 C4.03,120.123 4.106,120.045 4.362,119.827 C4.174,119.887 4.037,119.916 3.944,119.871 C3.863,119.81 3.824,119.674 3.792,119.479 C3.715,119.807 3.679,119.908 3.289,120.083 C2.897,120.259 2.755,119.375 2.949,118.837 C2.467,118.512 1.371,118.707 0.36,119.356 C1.186,119.146 1.459,119.484 1.497,119.642 C1.53,119.778 1.25,119.838 1.41,120.263 C1.481,120.018 1.644,120.029 1.767,120.106 C1.965,120.227 1.854,120.612 1.921,120.89 C2.124,120.557 2.509,120.779 2.628,120.977 C2.762,121.199 2.641,121.609 2.465,122.292 C2.991,121.824 3.302,121.529 3.56,121.547 C3.791,121.563 4.164,121.802 3.96,122.136 C4.239,122.068 4.53,121.794 4.729,121.915 C4.853,121.99 4.937,122.129 4.751,122.304 C5.203,122.253 5.128,121.977 5.264,121.943 C5.42,121.905 5.846,121.994 6.037,122.824 C6.153,121.63 5.828,120.564 5.317,120.283" id="Fill-54" sketch:type="MSShapeGroup"></path>
                <path d="M37.237,99.414 C37.426,99.955 37.268,100.836 36.88,100.655 C36.492,100.475 36.458,100.371 36.385,100.043 C36.351,100.238 36.311,100.372 36.228,100.434 C36.135,100.476 35.998,100.446 35.81,100.383 C36.063,100.605 36.137,100.685 36.108,101.111 C36.079,101.538 35.231,101.25 34.848,100.826 C34.334,101.099 33.994,102.158 34.092,103.355 C34.295,102.528 34.722,102.446 34.877,102.485 C35.013,102.522 34.934,102.797 35.385,102.855 C35.202,102.677 35.288,102.539 35.414,102.466 C35.613,102.348 35.901,102.626 36.179,102.697 C35.98,102.361 36.357,102.126 36.587,102.115 C36.846,102.101 37.151,102.399 37.672,102.876 C37.505,102.192 37.391,101.778 37.527,101.559 C37.649,101.362 38.037,101.145 38.235,101.481 C38.307,101.205 38.201,100.817 38.401,100.7 C38.527,100.625 38.688,100.616 38.756,100.863 C38.923,100.44 38.643,100.376 38.678,100.24 C38.718,100.085 38.997,99.75 39.818,99.972 C38.818,99.308 37.725,99.095 37.237,99.414" id="Fill-45-Copy" sketch:type="MSShapeGroup"></path>
                <path d="M15.317,80.283 C14.928,80.704 14.077,80.979 14.053,80.551 C14.03,80.123 14.106,80.045 14.362,79.827 C14.174,79.887 14.037,79.916 13.944,79.871 C13.863,79.81 13.824,79.674 13.792,79.479 C13.715,79.807 13.679,79.908 13.289,80.083 C12.897,80.259 12.755,79.375 12.949,78.837 C12.467,78.512 11.371,78.707 10.36,79.356 C11.186,79.146 11.459,79.484 11.497,79.642 C11.53,79.778 11.25,79.838 11.41,80.263 C11.481,80.018 11.644,80.029 11.767,80.106 C11.965,80.227 11.854,80.612 11.921,80.89 C12.124,80.557 12.509,80.779 12.628,80.977 C12.762,81.199 12.641,81.609 12.465,82.292 C12.991,81.824 13.302,81.529 13.56,81.547 C13.791,81.563 14.164,81.802 13.96,82.136 C14.239,82.068 14.53,81.794 14.729,81.915 C14.853,81.99 14.937,82.129 14.751,82.304 C15.203,82.253 15.128,81.977 15.264,81.943 C15.42,81.905 15.846,81.994 16.037,82.824 C16.153,81.63 15.828,80.564 15.317,80.283" id="Fill-54-Copy" sketch:type="MSShapeGroup"></path>
                <path d="M66.007,0.954 C66.126,1.515 65.861,2.369 65.498,2.143 C65.134,1.915 65.115,1.808 65.083,1.473 C65.024,1.662 64.968,1.79 64.878,1.841 C64.781,1.871 64.648,1.824 64.471,1.738 C64.694,1.991 64.757,2.078 64.675,2.499 C64.593,2.919 63.788,2.527 63.46,2.059 C62.916,2.266 62.447,3.274 62.396,4.475 C62.7,3.679 63.133,3.65 63.283,3.709 C63.414,3.761 63.301,4.024 63.741,4.138 C63.581,3.938 63.685,3.813 63.818,3.756 C64.031,3.663 64.282,3.976 64.548,4.08 C64.393,3.723 64.796,3.536 65.026,3.553 C65.284,3.571 65.551,3.907 66.008,4.444 C65.927,3.744 65.865,3.32 66.028,3.119 C66.173,2.939 66.584,2.772 66.74,3.131 C66.845,2.864 66.789,2.468 67.002,2.375 C67.135,2.317 67.297,2.328 67.333,2.581 C67.551,2.182 67.282,2.084 67.333,1.954 C67.393,1.804 67.71,1.507 68.498,1.828 C67.588,1.046 66.53,0.699 66.007,0.954" id="Fill-43-Copy" sketch:type="MSShapeGroup"></path>
                <path d="M67.237,29.414 C67.426,29.955 67.268,30.836 66.88,30.655 C66.492,30.475 66.458,30.371 66.385,30.043 C66.351,30.238 66.311,30.372 66.228,30.434 C66.135,30.476 65.998,30.446 65.81,30.383 C66.063,30.605 66.137,30.685 66.108,31.111 C66.079,31.538 65.231,31.25 64.848,30.826 C64.334,31.099 63.994,32.158 64.092,33.355 C64.295,32.528 64.722,32.446 64.877,32.485 C65.013,32.522 64.934,32.797 65.385,32.855 C65.202,32.677 65.288,32.539 65.414,32.466 C65.613,32.348 65.901,32.626 66.179,32.697 C65.98,32.361 66.357,32.126 66.587,32.115 C66.846,32.101 67.151,32.399 67.672,32.876 C67.505,32.192 67.391,31.778 67.527,31.559 C67.649,31.362 68.037,31.145 68.235,31.481 C68.307,31.205 68.201,30.817 68.401,30.7 C68.527,30.625 68.688,30.616 68.756,30.863 C68.923,30.44 68.643,30.376 68.678,30.24 C68.718,30.085 68.997,29.75 69.818,29.972 C68.818,29.308 67.725,29.095 67.237,29.414" id="Fill-45-Copy-3" sketch:type="MSShapeGroup"></path>
                <path d="M45.317,10.283 C44.928,10.704 44.077,10.979 44.053,10.551 C44.03,10.123 44.106,10.045 44.362,9.827 C44.174,9.887 44.037,9.916 43.944,9.871 C43.863,9.81 43.824,9.674 43.792,9.479 C43.715,9.807 43.679,9.908 43.289,10.083 C42.897,10.259 42.755,9.375 42.949,8.837 C42.467,8.512 41.371,8.707 40.36,9.356 C41.186,9.146 41.459,9.484 41.497,9.642 C41.53,9.778 41.25,9.838 41.41,10.263 C41.481,10.018 41.644,10.029 41.767,10.106 C41.965,10.227 41.854,10.612 41.921,10.89 C42.124,10.557 42.509,10.779 42.628,10.977 C42.762,11.199 42.641,11.609 42.465,12.292 C42.991,11.824 43.302,11.529 43.56,11.547 C43.791,11.563 44.164,11.802 43.96,12.136 C44.239,12.068 44.53,11.794 44.729,11.915 C44.853,11.99 44.937,12.129 44.751,12.304 C45.203,12.253 45.128,11.977 45.264,11.943 C45.42,11.905 45.846,11.994 46.037,12.824 C46.153,11.63 45.828,10.564 45.317,10.283" id="Fill-54-Copy-6" sketch:type="MSShapeGroup"></path>
                <path d="M116.007,10.954 C116.126,11.515 115.861,12.369 115.498,12.143 C115.134,11.915 115.115,11.808 115.083,11.473 C115.024,11.662 114.968,11.79 114.878,11.841 C114.781,11.871 114.648,11.824 114.471,11.738 C114.694,11.991 114.757,12.078 114.675,12.499 C114.593,12.919 113.788,12.527 113.46,12.059 C112.916,12.266 112.447,13.274 112.396,14.475 C112.7,13.679 113.133,13.65 113.283,13.709 C113.414,13.761 113.301,14.024 113.741,14.138 C113.581,13.938 113.685,13.813 113.818,13.756 C114.031,13.663 114.282,13.976 114.548,14.08 C114.393,13.723 114.796,13.536 115.026,13.553 C115.284,13.571 115.551,13.907 116.008,14.444 C115.927,13.744 115.865,13.32 116.028,13.119 C116.173,12.939 116.584,12.772 116.74,13.131 C116.845,12.864 116.789,12.468 117.002,12.375 C117.135,12.317 117.297,12.328 117.333,12.581 C117.551,12.182 117.282,12.084 117.333,11.954 C117.393,11.804 117.71,11.507 118.498,11.828 C117.588,11.046 116.53,10.699 116.007,10.954" id="Fill-43-Copy-2" sketch:type="MSShapeGroup"></path>
                <path d="M95.317,20.283 C94.928,20.704 94.077,20.979 94.053,20.551 C94.03,20.123 94.106,20.045 94.362,19.827 C94.174,19.887 94.037,19.916 93.944,19.871 C93.863,19.81 93.824,19.674 93.792,19.479 C93.715,19.807 93.679,19.908 93.289,20.083 C92.897,20.259 92.755,19.375 92.949,18.837 C92.467,18.512 91.371,18.707 90.36,19.356 C91.186,19.146 91.459,19.484 91.497,19.642 C91.53,19.778 91.25,19.838 91.41,20.263 C91.481,20.018 91.644,20.029 91.767,20.106 C91.965,20.227 91.854,20.612 91.921,20.89 C92.124,20.557 92.509,20.779 92.628,20.977 C92.762,21.199 92.641,21.609 92.465,22.292 C92.991,21.824 93.302,21.529 93.56,21.547 C93.791,21.563 94.164,21.802 93.96,22.136 C94.239,22.068 94.53,21.794 94.729,21.915 C94.853,21.99 94.937,22.129 94.751,22.304 C95.203,22.253 95.128,21.977 95.264,21.943 C95.42,21.905 95.846,21.994 96.037,22.824 C96.153,21.63 95.828,20.564 95.317,20.283" id="Fill-54-Copy-7" sketch:type="MSShapeGroup"></path>
                <path d="M21.317,115.283 C20.928,115.704 20.077,115.979 20.053,115.551 C20.03,115.123 20.106,115.045 20.362,114.827 C20.174,114.887 20.037,114.916 19.944,114.871 C19.863,114.81 19.824,114.674 19.792,114.479 C19.715,114.807 19.679,114.908 19.289,115.083 C18.897,115.259 18.755,114.375 18.949,113.837 C18.467,113.512 17.371,113.707 16.36,114.356 C17.186,114.146 17.459,114.484 17.497,114.642 C17.53,114.778 17.25,114.838 17.41,115.263 C17.481,115.018 17.644,115.029 17.767,115.106 C17.965,115.227 17.854,115.612 17.921,115.89 C18.124,115.557 18.509,115.779 18.628,115.977 C18.762,116.199 18.641,116.609 18.465,117.292 C18.991,116.824 19.302,116.529 19.56,116.547 C19.791,116.563 20.164,116.802 19.96,117.136 C20.239,117.068 20.53,116.794 20.729,116.915 C20.853,116.99 20.937,117.129 20.751,117.304 C21.203,117.253 21.128,116.977 21.264,116.943 C21.42,116.905 21.846,116.994 22.037,117.824 C22.153,116.63 21.828,115.564 21.317,115.283" id="Fill-54-Copy-2" sketch:type="MSShapeGroup"></path>
                <path d="M145.317,50.283 C144.928,50.704 144.077,50.979 144.053,50.551 C144.03,50.123 144.106,50.045 144.362,49.827 C144.174,49.887 144.037,49.916 143.944,49.871 C143.863,49.81 143.824,49.674 143.792,49.479 C143.715,49.807 143.679,49.908 143.289,50.083 C142.897,50.259 142.755,49.375 142.949,48.837 C142.467,48.512 141.371,48.707 140.36,49.356 C141.186,49.146 141.459,49.484 141.497,49.642 C141.53,49.778 141.25,49.838 141.41,50.263 C141.481,50.018 141.644,50.029 141.767,50.106 C141.965,50.227 141.854,50.612 141.921,50.89 C142.124,50.557 142.509,50.779 142.628,50.977 C142.762,51.199 142.641,51.609 142.465,52.292 C142.991,51.824 143.302,51.529 143.56,51.547 C143.791,51.563 144.164,51.802 143.96,52.136 C144.239,52.068 144.53,51.794 144.729,51.915 C144.853,51.99 144.937,52.129 144.751,52.304 C145.203,52.253 145.128,51.977 145.264,51.943 C145.42,51.905 145.846,51.994 146.037,52.824 C146.153,51.63 145.828,50.564 145.317,50.283" id="Fill-54-Copy-5" sketch:type="MSShapeGroup"></path>
                <path d="M157.93,126.516 C158.004,127.084 157.671,127.915 157.327,127.659 C156.982,127.403 156.972,127.296 156.967,126.959 C156.893,127.143 156.828,127.266 156.734,127.309 C156.635,127.332 156.506,127.275 156.336,127.175 C156.538,127.444 156.594,127.537 156.479,127.949 C156.363,128.361 155.592,127.907 155.303,127.413 C154.744,127.577 154.195,128.545 154.049,129.737 C154.415,128.967 154.85,128.974 154.994,129.045 C155.12,129.106 154.986,129.36 155.416,129.508 C155.273,129.297 155.387,129.18 155.524,129.134 C155.743,129.059 155.969,129.39 156.225,129.516 C156.1,129.146 156.516,128.993 156.744,129.028 C157,129.066 157.238,129.422 157.651,129.994 C157.628,129.29 157.6,128.862 157.777,128.675 C157.936,128.508 158.359,128.374 158.486,128.744 C158.612,128.486 158.588,128.087 158.808,128.012 C158.945,127.964 159.105,127.988 159.121,128.243 C159.371,127.863 159.109,127.744 159.172,127.618 C159.242,127.473 159.582,127.202 160.344,127.586 C159.498,126.733 158.471,126.303 157.93,126.516" id="Fill-47-Copy" sketch:type="MSShapeGroup"></path>
                <path d="M174.317,158.283 C173.928,158.704 173.077,158.979 173.053,158.551 C173.03,158.123 173.106,158.045 173.362,157.827 C173.174,157.887 173.037,157.916 172.944,157.871 C172.863,157.81 172.824,157.674 172.792,157.479 C172.715,157.807 172.679,157.908 172.289,158.083 C171.897,158.259 171.755,157.375 171.949,156.837 C171.467,156.512 170.371,156.707 169.36,157.356 C170.186,157.146 170.459,157.484 170.497,157.642 C170.53,157.778 170.25,157.838 170.41,158.263 C170.481,158.018 170.644,158.029 170.767,158.106 C170.965,158.227 170.854,158.612 170.921,158.89 C171.124,158.557 171.509,158.779 171.628,158.977 C171.762,159.199 171.641,159.609 171.465,160.292 C171.991,159.824 172.302,159.529 172.56,159.547 C172.791,159.563 173.164,159.802 172.96,160.136 C173.239,160.068 173.53,159.794 173.729,159.915 C173.853,159.99 173.937,160.129 173.751,160.304 C174.203,160.253 174.128,159.977 174.264,159.943 C174.42,159.905 174.846,159.994 175.037,160.824 C175.153,159.63 174.828,158.564 174.317,158.283" id="Fill-54-Copy-8" sketch:type="MSShapeGroup"></path>
                <path d="M177.237,29.414 C177.426,29.955 177.268,30.836 176.88,30.655 C176.492,30.475 176.458,30.371 176.385,30.043 C176.351,30.238 176.311,30.372 176.228,30.434 C176.135,30.476 175.998,30.446 175.81,30.383 C176.063,30.605 176.137,30.685 176.108,31.111 C176.079,31.538 175.231,31.25 174.848,30.826 C174.334,31.099 173.994,32.158 174.092,33.355 C174.295,32.528 174.722,32.446 174.877,32.485 C175.013,32.522 174.934,32.797 175.385,32.855 C175.202,32.677 175.288,32.539 175.414,32.466 C175.613,32.348 175.901,32.626 176.179,32.697 C175.98,32.361 176.357,32.126 176.587,32.115 C176.846,32.101 177.151,32.399 177.672,32.876 C177.505,32.192 177.391,31.778 177.527,31.559 C177.649,31.362 178.037,31.145 178.235,31.481 C178.307,31.205 178.201,30.817 178.401,30.7 C178.527,30.625 178.688,30.616 178.756,30.863 C178.923,30.44 178.643,30.376 178.678,30.24 C178.718,30.085 178.997,29.75 179.818,29.972 C178.818,29.308 177.725,29.095 177.237,29.414" id="Fill-45-Copy-2" sketch:type="MSShapeGroup"></path>
                <path d="M155.317,10.283 C154.928,10.704 154.077,10.979 154.053,10.551 C154.03,10.123 154.106,10.045 154.362,9.827 C154.174,9.887 154.037,9.916 153.944,9.871 C153.863,9.81 153.824,9.674 153.792,9.479 C153.715,9.807 153.679,9.908 153.289,10.083 C152.897,10.259 152.755,9.375 152.949,8.837 C152.467,8.512 151.371,8.707 150.36,9.356 C151.186,9.146 151.459,9.484 151.497,9.642 C151.53,9.778 151.25,9.838 151.41,10.263 C151.481,10.018 151.644,10.029 151.767,10.106 C151.965,10.227 151.854,10.612 151.921,10.89 C152.124,10.557 152.509,10.779 152.628,10.977 C152.762,11.199 152.641,11.609 152.465,12.292 C152.991,11.824 153.302,11.529 153.56,11.547 C153.791,11.563 154.164,11.802 153.96,12.136 C154.239,12.068 154.53,11.794 154.729,11.915 C154.853,11.99 154.937,12.129 154.751,12.304 C155.203,12.253 155.128,11.977 155.264,11.943 C155.42,11.905 155.846,11.994 156.037,12.824 C156.153,11.63 155.828,10.564 155.317,10.283" id="Fill-54-Copy-3" sketch:type="MSShapeGroup"></path>
                <path d="M161.317,45.283 C160.928,45.704 160.077,45.979 160.053,45.551 C160.03,45.123 160.106,45.045 160.362,44.827 C160.174,44.887 160.037,44.916 159.944,44.871 C159.863,44.81 159.824,44.674 159.792,44.479 C159.715,44.807 159.679,44.908 159.289,45.083 C158.897,45.259 158.755,44.375 158.949,43.837 C158.467,43.512 157.371,43.707 156.36,44.356 C157.186,44.146 157.459,44.484 157.497,44.642 C157.53,44.778 157.25,44.838 157.41,45.263 C157.481,45.018 157.644,45.029 157.767,45.106 C157.965,45.227 157.854,45.612 157.921,45.89 C158.124,45.557 158.509,45.779 158.628,45.977 C158.762,46.199 158.641,46.609 158.465,47.292 C158.991,46.824 159.302,46.529 159.56,46.547 C159.791,46.563 160.164,46.802 159.96,47.136 C160.239,47.068 160.53,46.794 160.729,46.915 C160.853,46.99 160.937,47.129 160.751,47.304 C161.203,47.253 161.128,46.977 161.264,46.943 C161.42,46.905 161.846,46.994 162.037,47.824 C162.153,46.63 161.828,45.564 161.317,45.283" id="Fill-54-Copy-4" sketch:type="MSShapeGroup"></path>
            </g>
        </g>
    </g>
</svg>