<?xml version="1.0" encoding="utf-8"?>
<!-- Generator: Adobe Illustrator 19.1.0, SVG Export Plug-In . SVG Version: 6.00 Build 0)  -->
<!DOCTYPE svg PUBLIC "-//W3C//DTD SVG 1.1//EN" "http://www.w3.org/Graphics/SVG/1.1/DTD/svg11.dtd">
<svg version="1.1" id="Layer_1" xmlns:sketch="http://www.bohemiancoding.com/sketch/ns"
	 xmlns="http://www.w3.org/2000/svg" xmlns:xlink="http://www.w3.org/1999/xlink" x="0px" y="0px" viewBox="61 -61 282 283"
	 style="enable-background:new 61 -61 282 283;" xml:space="preserve">
<style type="text/css">
	.st0{opacity:0.23;}
	.st1{opacity:0.7021;}
	.st2{fill:#3D1425;}
	.st3{opacity:0.2033;}
</style>
<title>footer</title>
<desc>Created with Sketch.</desc>
<g id="Page-1" sketch:type="MSPage" class="st0">
	<g id="Connorween" transform="translate(0.000000, -905.000000)" sketch:type="MSArtboardGroup">
		<g id="footer" transform="translate(-1.000000, 901.000000)" sketch:type="MSLayerGroup">
			<g id="bats-layer-2" transform="translate(39.000000, 0.000000)" sketch:type="MSShapeGroup" class="st1">
				<path id="Fill-49" class="st2" d="M99.7,99c0.1,0.9-0.4,2.3-1,1.9c-0.6-0.4-0.6-0.6-0.6-1.2c-0.1,0.3-0.2,0.5-0.4,0.6
					c-0.2,0-0.4-0.1-0.7-0.2c0.3,0.4,0.4,0.6,0.2,1.3c-0.2,0.7-1.5-0.1-1.9-0.9c-0.9,0.3-1.8,1.9-2.1,3.9c0.6-1.3,1.3-1.3,1.6-1.1
					c0.2,0.1,0,0.5,0.7,0.8c-0.2-0.3-0.1-0.5,0.2-0.6c0.4-0.1,0.7,0.4,1.2,0.6c-0.2-0.6,0.5-0.9,0.9-0.8s0.8,0.7,1.5,1.6
					c0-1.2-0.1-1.9,0.2-2.2c0.3-0.3,1-0.5,1.2,0.1c0.2-0.4,0.2-1.1,0.5-1.2c0.2-0.1,0.5,0,0.5,0.4c0.4-0.6,0-0.8,0.1-1
					c0.1-0.2,0.7-0.7,1.9-0.1C102.3,99.3,100.6,98.6,99.7,99"/>
				<path id="Fill-51" class="st2" d="M230.8,128.1c0.1,0.8-0.4,2-0.9,1.7c-0.5-0.4-0.5-0.5-0.5-1c-0.1,0.3-0.2,0.4-0.3,0.5
					c-0.1,0-0.3-0.1-0.6-0.2c0.3,0.4,0.4,0.5,0.2,1.1c-0.2,0.6-1.3-0.1-1.7-0.8c-0.8,0.2-1.6,1.6-1.8,3.4c0.5-1.1,1.2-1.1,1.4-1
					c0.2,0.1,0,0.5,0.6,0.7c-0.2-0.3,0-0.5,0.2-0.5c0.3-0.1,0.6,0.4,1,0.6c-0.2-0.5,0.4-0.8,0.8-0.7c0.4,0.1,0.7,0.6,1.3,1.4
					c0-1-0.1-1.6,0.2-1.9c0.2-0.2,0.8-0.4,1,0.1c0.2-0.4,0.2-1,0.5-1.1c0.2-0.1,0.4,0,0.5,0.3c0.4-0.6,0-0.7,0.1-0.9
					c0.1-0.2,0.6-0.6,1.7,0C233.1,128.4,231.6,127.7,230.8,128.1"/>
				<path id="Fill-52" class="st2" d="M68.3,143.4c-0.6,0.6-1.8,1-1.8,0.3s0.1-0.7,0.5-1c-0.3,0.1-0.5,0.1-0.6,0
					c-0.1-0.1-0.2-0.3-0.2-0.6c-0.1,0.5-0.2,0.6-0.8,0.9c-0.6,0.2-0.7-1.1-0.4-1.8c-0.7-0.5-2.3-0.3-3.8,0.6
					c1.2-0.3,1.6,0.2,1.6,0.5c0,0.2-0.4,0.3-0.2,0.9c0.1-0.4,0.3-0.3,0.5-0.2c0.3,0.2,0.1,0.7,0.2,1.1c0.3-0.5,0.9-0.1,1,0.2
					c0.2,0.3,0,0.9-0.3,1.9c0.8-0.7,1.3-1.1,1.6-1c0.3,0,0.9,0.4,0.6,0.9c0.4-0.1,0.8-0.5,1.1-0.3c0.2,0.1,0.3,0.3,0,0.6
					c0.7-0.1,0.6-0.5,0.8-0.5c0.2,0,0.8,0.1,1.1,1.3C69.5,145.4,69.1,143.9,68.3,143.4"/>
				<path id="Fill-52-Copy" class="st2" d="M78.7,121.4c0.4,0.8,0.3,2-0.3,1.8c-0.6-0.2-0.7-0.3-0.8-0.8c0,0.3-0.1,0.5-0.2,0.6
					c-0.1,0.1-0.3,0.1-0.6,0c0.4,0.3,0.5,0.4,0.5,1c0,0.6-1.2,0.3-1.9-0.2c-0.7,0.5-1,2.1-0.7,3.8c0.2-1.2,0.8-1.4,1-1.4
					s0.1,0.4,0.8,0.5c-0.3-0.2-0.2-0.4,0-0.6c0.3-0.2,0.7,0.2,1.1,0.2c-0.3-0.5,0.2-0.9,0.5-0.9c0.4-0.1,0.9,0.3,1.7,0.9
					c-0.3-1-0.6-1.5-0.4-1.9c0.1-0.3,0.7-0.7,1-0.2c0.1-0.4-0.2-1,0.1-1.2c0.2-0.1,0.4-0.2,0.5,0.2c0.2-0.6-0.2-0.7-0.2-0.9
					s0.4-0.8,1.6-0.6C80.9,121,79.3,120.9,78.7,121.4"/>
				<path id="Fill-55-Copy-2" class="st2" d="M106.6,67.5c0.5,1,0.5,2.9-0.3,2.6c-0.8-0.2-0.9-0.4-1.2-1.1c0,0.4-0.1,0.7-0.2,0.8
					c-0.2,0.1-0.5,0.1-0.9,0c0.6,0.4,0.8,0.5,0.8,1.4c0.1,0.9-1.7,0.5-2.6-0.2c-1,0.7-1.3,2.9-0.8,5.3c0.2-1.7,1-2,1.3-2
					s0.2,0.6,1.1,0.6c-0.4-0.3-0.3-0.6-0.1-0.8c0.4-0.3,1,0.2,1.6,0.2c-0.5-0.6,0.2-1.2,0.7-1.3c0.5-0.1,1.2,0.4,2.4,1.2
					c-0.5-1.3-0.9-2.1-0.7-2.6c0.2-0.4,0.9-1,1.4-0.4c0.1-0.6-0.3-1.3,0.1-1.6c0.2-0.2,0.6-0.3,0.8,0.2c0.2-0.9-0.4-0.9-0.3-1.2
					c0-0.3,0.5-1.1,2.2-0.9C109.8,66.8,107.5,66.7,106.6,67.5"/>
				<path id="Fill-55-Copy" class="st2" d="M97.6,34.2c-0.4,1.1-1.8,2.3-2.2,1.5c-0.4-0.8-0.3-1,0-1.6c-0.3,0.3-0.5,0.4-0.8,0.4
					c-0.1,0-0.3-0.3-0.5-0.6c0.1,0.7,0.1,0.9-0.5,1.5C93,36,92,34.5,92,33.3c-1.2-0.2-3.1,1-4.5,3c1.4-1,2.2-0.6,2.4-0.3
					c0.2,0.2-0.3,0.6,0.3,1.2c-0.1-0.5,0.3-0.6,0.5-0.6c0.5,0.1,0.6,0.9,0.9,1.4c0.1-0.8,1-0.7,1.4-0.4c0.4,0.3,0.5,1.2,0.7,2.6
					c0.6-1.3,1-2.1,1.5-2.3c0.4-0.2,1.3,0,1.2,0.8c0.5-0.3,0.8-1.1,1.3-1c0.3,0,0.6,0.2,0.3,0.7c0.8-0.4,0.5-0.9,0.7-1.1
					c0.3-0.2,1.1-0.4,2.1,1.1C100.3,36.1,98.8,34.4,97.6,34.2"/>
				<path id="Fill-55-Copy-3" class="st2" d="M76.7,53.5c-0.1,1.2-1.1,2.7-1.7,2s-0.6-0.9-0.4-1.5c-0.2,0.3-0.4,0.6-0.6,0.6
					s-0.4-0.2-0.7-0.4c0.3,0.6,0.4,0.8,0,1.6c-0.4,0.8-1.8-0.5-2.1-1.6c-1.2,0.1-2.7,1.8-3.5,4.1c1.1-1.4,1.9-1.2,2.2-1
					c0.2,0.2-0.1,0.6,0.7,1.1c-0.2-0.5,0.1-0.7,0.4-0.7c0.5-0.1,0.8,0.7,1.2,1.1C72.1,58,73,57.9,73.4,58c0.5,0.2,0.8,1,1.4,2.3
					c0.2-1.4,0.4-2.3,0.8-2.6c0.4-0.3,1.3-0.4,1.4,0.4c0.4-0.5,0.5-1.3,0.9-1.3c0.3,0,0.6,0.1,0.5,0.6c0.7-0.7,0.2-1,0.4-1.2
					c0.2-0.3,1-0.7,2.4,0.4C79.8,54.6,77.9,53.3,76.7,53.5"/>
				<path id="Fill-55-Copy-6" class="st2" d="M166.6,17.5c0.5,1,0.5,2.9-0.3,2.6c-0.8-0.2-0.9-0.4-1.2-1.1c0,0.4-0.1,0.7-0.2,0.8
					c-0.2,0.1-0.5,0.1-0.9,0c0.6,0.4,0.8,0.5,0.8,1.4c0.1,0.9-1.7,0.5-2.6-0.2c-1,0.7-1.3,3-0.8,5.3c0.2-1.7,1-2,1.3-2
					s0.2,0.6,1.1,0.6c-0.4-0.3-0.3-0.6-0.1-0.8c0.4-0.3,1,0.2,1.6,0.2c-0.5-0.6,0.2-1.2,0.6-1.3c0.5-0.1,1.2,0.4,2.4,1.2
					c-0.5-1.3-0.9-2.1-0.7-2.6c0.2-0.4,0.9-1,1.4-0.4c0.1-0.6-0.3-1.3,0.1-1.6c0.2-0.2,0.6-0.3,0.8,0.2c0.2-0.9-0.4-0.9-0.3-1.2
					c0-0.3,0.5-1.1,2.2-0.9C169.8,16.8,167.5,16.7,166.6,17.5"/>
				<path id="Fill-55-Copy-4" class="st2" d="M157.6-15.8c-0.4,1.1-1.8,2.3-2.2,1.5s-0.3-1,0-1.6c-0.3,0.3-0.5,0.4-0.8,0.4
					c-0.2-0.1-0.4-0.3-0.6-0.6c0.1,0.7,0.1,0.9-0.5,1.5s-1.6-0.9-1.6-2.1c-1.2-0.2-3.1,1-4.5,3c1.4-1,2.2-0.6,2.4-0.3
					c0.2,0.2-0.3,0.6,0.3,1.2c-0.1-0.5,0.3-0.6,0.5-0.6c0.5,0.1,0.6,0.9,0.9,1.4c0.1-0.8,1-0.7,1.4-0.4s0.5,1.2,0.7,2.6
					c0.6-1.3,1-2.1,1.5-2.3c0.4-0.2,1.3,0,1.2,0.8c0.5-0.3,0.8-1.1,1.3-1c0.3,0,0.6,0.2,0.3,0.7c0.8-0.4,0.5-0.9,0.7-1.1
					c0.3-0.2,1.1-0.4,2.1,1.1C160.3-13.9,158.8-15.6,157.6-15.8"/>
				<path id="Fill-49-Copy" class="st2" d="M89.7,149c0.1,0.9-0.4,2.3-1,1.9c-0.6-0.4-0.6-0.6-0.6-1.2c-0.1,0.3-0.2,0.5-0.4,0.6
					c-0.2,0-0.4-0.1-0.7-0.2c0.3,0.4,0.4,0.6,0.2,1.3c-0.2,0.7-1.5-0.1-1.9-0.9c-0.9,0.3-1.8,1.9-2.1,3.9c0.6-1.3,1.3-1.3,1.6-1.1
					c0.2,0.1,0,0.5,0.7,0.8c-0.2-0.4-0.1-0.5,0.2-0.6c0.4-0.1,0.7,0.4,1.2,0.6c-0.2-0.6,0.5-0.9,0.9-0.8c0.4,0.1,0.8,0.7,1.5,1.6
					c0-1.2-0.1-1.9,0.2-2.2c0.3-0.3,1-0.5,1.2,0.1c0.2-0.4,0.2-1.1,0.5-1.2c0.2-0.1,0.5,0,0.5,0.4c0.4-0.6,0-0.8,0.1-1
					s0.7-0.7,1.9-0.1C92.3,149.3,90.6,148.6,89.7,149"/>
				<path id="Fill-56" class="st2" d="M70.9,84.6c-0.6,1-2.1,2-2.4,1.1c-0.3-0.8-0.1-1,0.3-1.6c-0.3,0.2-0.6,0.3-0.8,0.3
					c-0.2-0.1-0.3-0.3-0.5-0.7c0,0.7,0,0.9-0.7,1.4s-1.4-1.1-1.3-2.3c-1.1-0.4-3.2,0.5-4.9,2.3c1.5-0.8,2.2-0.3,2.4,0
					c0.1,0.3-0.4,0.5,0.1,1.3c0-0.5,0.3-0.6,0.6-0.5c0.5,0.1,0.4,1,0.7,1.5c0.2-0.8,1.1-0.5,1.4-0.2c0.4,0.4,0.3,1.2,0.3,2.7
					c0.8-1.2,1.3-1.9,1.8-2s1.3,0.2,1.1,1c0.5-0.3,1-1,1.4-0.8c0.3,0.1,0.5,0.3,0.2,0.8c0.9-0.3,0.6-0.8,0.8-1
					c0.3-0.2,1.2-0.2,2,1.4C73.2,86.8,72.1,84.9,70.9,84.6"/>
				<path id="Fill-57" class="st2" d="M224.4,59c-0.7,0.9-2.4,1.7-2.5,0.8c-0.1-0.9,0-1,0.5-1.5c-0.4,0.2-0.6,0.2-0.8,0.2
					c-0.2-0.1-0.3-0.4-0.4-0.8c-0.1,0.7-0.1,0.9-0.9,1.3c-0.8,0.4-1.2-1.3-0.9-2.5c-1-0.6-3.2,0.1-5.2,1.6c1.6-0.6,2.3,0,2.4,0.3
					c0.1,0.3-0.5,0.4-0.1,1.3c0.1-0.5,0.4-0.5,0.7-0.4c0.4,0.2,0.3,1,0.5,1.6c0.3-0.7,1.2-0.3,1.5,0c0.3,0.4,0.2,1.3-0.1,2.7
					c1-1.1,1.5-1.7,2.1-1.7c0.5,0,1.3,0.4,0.9,1.1c0.6-0.2,1.1-0.8,1.5-0.6c0.3,0.1,0.5,0.4,0.1,0.8c0.9-0.2,0.7-0.7,1-0.8
					c0.3-0.1,1.2,0,1.7,1.6C226.4,61.5,225.5,59.5,224.4,59"/>
				<path id="Fill-57-Copy" class="st2" d="M211.4,18c-0.7,0.9-2.4,1.7-2.5,0.8c-0.1-0.9,0-1,0.5-1.5c-0.4,0.2-0.6,0.2-0.8,0.2
					c-0.2-0.1-0.3-0.4-0.4-0.8c-0.1,0.7-0.1,0.9-0.9,1.3c-0.8,0.4-1.2-1.3-0.9-2.5c-1-0.6-3.2,0.1-5.2,1.6c1.6-0.6,2.3,0,2.4,0.3
					c0.1,0.3-0.5,0.4-0.1,1.3c0.1-0.5,0.4-0.5,0.7-0.4c0.4,0.2,0.3,1,0.5,1.6c0.3-0.7,1.2-0.3,1.5,0c0.3,0.4,0.2,1.3-0.1,2.7
					c1-1.1,1.5-1.7,2.1-1.7c0.5,0,1.3,0.4,0.9,1.1c0.6-0.2,1.1-0.8,1.5-0.6c0.3,0.1,0.5,0.4,0.1,0.8c0.9-0.2,0.7-0.7,1-0.8
					c0.3-0.1,1.2,0,1.7,1.6C213.4,20.5,212.5,18.5,211.4,18"/>
				<path id="Fill-51-Copy-3" class="st2" d="M210.8,83.1c0.1,0.8-0.4,2-0.9,1.7c-0.5-0.4-0.5-0.5-0.5-1c-0.1,0.3-0.2,0.4-0.3,0.5
					c-0.1,0-0.3,0-0.6-0.2c0.3,0.4,0.4,0.5,0.2,1.1c-0.2,0.6-1.3-0.1-1.7-0.8c-0.8,0.2-1.6,1.6-1.8,3.4c0.5-1.1,1.2-1.1,1.4-1
					s0,0.5,0.6,0.7c-0.2-0.3,0-0.5,0.2-0.5c0.3-0.1,0.6,0.4,1,0.6c-0.2-0.5,0.4-0.8,0.8-0.7c0.4,0.1,0.7,0.6,1.3,1.4
					c0-1-0.1-1.6,0.2-1.9c0.2-0.2,0.8-0.4,1,0.1c0.2-0.4,0.2-1,0.5-1.1c0.2-0.1,0.4,0,0.5,0.3c0.4-0.6,0-0.7,0.1-0.9
					c0.1-0.2,0.6-0.6,1.7,0C213.1,83.4,211.6,82.7,210.8,83.1"/>
				<path id="Fill-51-Copy-2" class="st2" d="M242.1,89.2c-0.4,0.7-1.5,1.4-1.7,0.8c-0.2-0.6-0.1-0.7,0.2-1.1
					c-0.2,0.1-0.4,0.2-0.6,0.2c-0.1-0.1-0.2-0.2-0.3-0.5c0,0.5,0,0.6-0.5,1s-1-0.8-0.9-1.7c-0.8-0.3-2.3,0.3-3.5,1.5
					c1.1-0.5,1.6-0.2,1.7,0.1c0.1,0.2-0.3,0.4,0.1,0.9c0-0.4,0.3-0.4,0.5-0.3c0.3,0.1,0.3,0.7,0.5,1.1c0.2-0.5,0.8-0.3,1-0.1
					c0.3,0.3,0.2,0.9,0.2,1.9c0.6-0.8,1-1.3,1.3-1.4c0.3,0,0.9,0.2,0.7,0.7c0.4-0.2,0.7-0.7,1-0.5c0.2,0.1,0.4,0.2,0.2,0.5
					c0.6-0.2,0.4-0.6,0.6-0.7c0.2-0.1,0.8-0.1,1.4,1C243.7,90.9,242.9,89.5,242.1,89.2"/>
				<path id="Fill-51-Copy-9" class="st2" d="M140.8,28.1c0.1,0.8-0.4,2-0.9,1.7c-0.5-0.4-0.5-0.5-0.5-1c-0.1,0.3-0.2,0.4-0.3,0.5
					c-0.1,0-0.3,0-0.6-0.2c0.3,0.4,0.4,0.5,0.2,1.1s-1.3-0.1-1.7-0.8c-0.8,0.2-1.6,1.6-1.8,3.4c0.5-1.1,1.2-1.1,1.4-1s0,0.5,0.6,0.7
					c-0.2-0.3,0-0.5,0.2-0.5c0.3-0.1,0.6,0.4,1,0.6c-0.2-0.5,0.4-0.8,0.8-0.7c0.4,0.1,0.7,0.6,1.3,1.4c0-1-0.1-1.6,0.2-1.9
					c0.2-0.2,0.8-0.4,1,0.1c0.2-0.4,0.2-1,0.5-1.1c0.2-0.1,0.4,0,0.5,0.3c0.4-0.5,0-0.7,0.1-0.9s0.6-0.6,1.7,0
					C143.1,28.4,141.6,27.7,140.8,28.1"/>
				<path id="Fill-51-Copy-7" class="st2" d="M93.8,12.1c0.1,0.8-0.4,2-0.9,1.7c-0.5-0.4-0.5-0.5-0.5-1c-0.1,0.3-0.2,0.4-0.3,0.5
					c-0.1,0-0.3,0-0.6-0.2c0.3,0.4,0.4,0.5,0.2,1.1c-0.2,0.6-1.3-0.1-1.7-0.8c-0.8,0.2-1.6,1.6-1.8,3.4c0.5-1.1,1.2-1.1,1.4-1
					c0.2,0.1,0,0.5,0.6,0.7c-0.2-0.3,0-0.5,0.2-0.5c0.3-0.1,0.6,0.4,1,0.6c-0.2-0.5,0.4-0.8,0.8-0.7c0.4,0.1,0.7,0.6,1.3,1.4
					c0-1-0.1-1.6,0.2-1.9c0.2-0.2,0.8-0.4,1,0.1c0.2-0.4,0.2-1,0.5-1.1c0.2-0.1,0.4,0,0.5,0.3c0.4-0.5,0-0.7,0.1-0.9
					c0.1-0.2,0.6-0.6,1.7,0C96.1,12.4,94.6,11.7,93.8,12.1"/>
				<path id="Fill-51-Copy-8" class="st2" d="M122.1,9.2c-0.4,0.7-1.5,1.4-1.7,0.8s-0.1-0.7,0.2-1.1c-0.2,0.1-0.4,0.2-0.6,0.2
					c-0.1-0.1-0.2-0.2-0.3-0.5c0,0.5,0,0.6-0.5,1s-1-0.8-0.9-1.7c-0.8-0.3-2.3,0.3-3.5,1.5c1.1-0.5,1.6-0.2,1.7,0.1
					c0.1,0.2-0.3,0.4,0.1,0.9c0-0.4,0.3-0.4,0.5-0.3c0.3,0.1,0.3,0.7,0.5,1.1c0.2-0.5,0.8-0.3,1-0.1c0.3,0.3,0.2,0.9,0.2,1.9
					c0.6-0.8,1-1.3,1.3-1.4c0.3,0,0.9,0.2,0.7,0.7c0.4-0.2,0.7-0.7,1-0.5c0.2,0.1,0.4,0.2,0.2,0.5c0.6-0.2,0.4-0.6,0.6-0.7
					s0.8-0.1,1.4,1C123.7,10.9,122.9,9.5,122.1,9.2"/>
				<path id="Fill-51-Copy-4" class="st2" d="M240.8,38.1c0.1,0.8-0.4,2-0.9,1.7c-0.5-0.4-0.5-0.5-0.5-1c-0.1,0.3-0.2,0.4-0.3,0.5
					c-0.1,0-0.3,0-0.6-0.2c0.3,0.4,0.4,0.5,0.2,1.1c-0.2,0.6-1.3-0.1-1.7-0.8c-0.8,0.2-1.6,1.6-1.8,3.4c0.5-1.1,1.2-1.1,1.4-1
					c0.2,0.1,0,0.5,0.6,0.7c-0.2-0.3,0-0.5,0.2-0.5c0.3-0.1,0.6,0.4,1,0.6c-0.2-0.5,0.4-0.8,0.8-0.7c0.4,0.1,0.7,0.6,1.3,1.4
					c0-1-0.1-1.6,0.2-1.9c0.2-0.2,0.8-0.4,1,0.1c0.2-0.4,0.2-1,0.5-1.1c0.2-0.1,0.4,0,0.5,0.3c0.4-0.5,0-0.7,0.1-0.9s0.6-0.6,1.7,0
					C243.1,38.4,241.6,37.7,240.8,38.1"/>
				<path id="Fill-51-Copy-5" class="st2" d="M198.8-16.9c0.1,0.8-0.4,2-0.9,1.7c-0.5-0.4-0.5-0.5-0.5-1c-0.1,0.3-0.2,0.4-0.3,0.5
					c-0.1,0-0.3,0-0.6-0.2c0.3,0.4,0.4,0.5,0.2,1.1s-1.3-0.1-1.7-0.8c-0.8,0.2-1.6,1.6-1.8,3.4c0.5-1.1,1.2-1.1,1.4-1s0,0.5,0.6,0.7
					c-0.2-0.3,0-0.5,0.2-0.5c0.3-0.1,0.6,0.4,1,0.6c-0.2-0.5,0.4-0.8,0.8-0.7c0.4,0.1,0.7,0.6,1.3,1.4c0-1-0.1-1.6,0.2-1.9
					c0.2-0.2,0.8-0.4,1,0.1c0.2-0.4,0.2-1,0.5-1.1c0.2-0.1,0.4,0,0.5,0.3c0.4-0.5,0-0.7,0.1-0.9s0.6-0.6,1.7,0
					C201.1-16.6,199.6-17.3,198.8-16.9"/>
				<path id="Fill-51-Copy-6" class="st2" d="M192.1-0.8c-0.4,0.7-1.5,1.4-1.7,0.8c-0.2-0.6-0.1-0.7,0.2-1.1
					c-0.2,0.1-0.4,0.2-0.6,0.2c-0.1-0.1-0.2-0.2-0.3-0.5c0,0.5,0,0.6-0.5,1s-1-0.8-0.9-1.7c-0.8-0.3-2.3,0.3-3.5,1.5
					c1.1-0.5,1.6-0.2,1.7,0.1c0.1,0.2-0.3,0.4,0.1,0.9c0-0.4,0.3-0.4,0.5-0.3c0.3,0.1,0.3,0.7,0.5,1.1c0.2-0.5,0.8-0.3,1-0.1
					c0.3,0.3,0.2,0.9,0.2,1.9c0.6-0.8,1-1.3,1.3-1.4c0.3,0,0.9,0.2,0.7,0.7c0.4-0.2,0.7-0.7,1-0.5c0.2,0.1,0.4,0.2,0.2,0.5
					c0.6-0.2,0.4-0.6,0.6-0.7c0.2-0.1,0.8-0.1,1.4,1C193.7,0.9,192.9-0.5,192.1-0.8"/>
			</g>
		</g>
	</g>
</g>
<g id="Page-1_1_" sketch:type="MSPage">
	<g id="Connorween_1_" transform="translate(0.000000, -905.000000)" sketch:type="MSArtboardGroup">
		<g id="footer_1_" transform="translate(-1.000000, 901.000000)" sketch:type="MSLayerGroup">
			<g id="bats-layer-1" transform="translate(38.000000, 8.000000)" sketch:type="MSShapeGroup" class="st3">
				<path id="Fill-43" class="st2" d="M97.6,49.4c0.1,0.6-0.1,1.4-0.5,1.2c-0.4-0.2-0.4-0.3-0.4-0.7c-0.1,0.2-0.1,0.3-0.2,0.4
					c-0.1,0-0.2,0-0.4-0.1c0.2,0.3,0.3,0.3,0.2,0.8c-0.1,0.4-0.9,0-1.2-0.4c-0.5,0.2-1,1.2-1.1,2.4c0.3-0.8,0.7-0.8,0.9-0.8
					c0.1,0.1,0,0.3,0.5,0.4c-0.2-0.2-0.1-0.3,0.1-0.4c0.2-0.1,0.5,0.2,0.7,0.3C96,52.1,96.4,52,96.7,52s0.5,0.4,1,0.9
					c-0.1-0.7-0.1-1.1,0-1.3c0.1-0.2,0.6-0.3,0.7,0c0.1-0.3,0-0.7,0.3-0.8c0.1-0.1,0.3,0,0.3,0.2c0.2-0.4-0.1-0.5,0-0.6
					c0.1-0.2,0.4-0.4,1.2-0.1C99.2,49.4,98.1,49.1,97.6,49.4"/>
				<path id="Fill-44" class="st2" d="M264.4,76c0.2,0.5,0.1,1.4-0.3,1.3c-0.4-0.2-0.4-0.3-0.5-0.6c0,0.2-0.1,0.3-0.1,0.4
					c-0.1,0-0.2,0-0.4,0c0.3,0.2,0.3,0.3,0.3,0.7s-0.9,0.2-1.3-0.2c-0.5,0.3-0.8,1.4-0.7,2.6c0.2-0.8,0.6-0.9,0.8-0.9
					c0.1,0,0.1,0.3,0.5,0.3c-0.2-0.2-0.1-0.3,0-0.4c0.2-0.1,0.5,0.1,0.8,0.2c-0.2-0.3,0.2-0.6,0.4-0.6c0.3,0,0.6,0.3,1.1,0.7
					c-0.2-0.7-0.3-1.1-0.2-1.3c0.1-0.2,0.5-0.4,0.7-0.1c0.1-0.3-0.1-0.7,0.1-0.8c0.1-0.1,0.3-0.1,0.4,0.2c0.2-0.4-0.1-0.5-0.1-0.6
					c0-0.2,0.3-0.5,1.1-0.3C266,75.9,264.9,75.7,264.4,76"/>
				<path id="Fill-45" class="st2" d="M98.8,127.8c0.2,0.5,0,1.4-0.4,1.2s-0.4-0.3-0.5-0.6c0,0.2-0.1,0.3-0.2,0.4
					c-0.1,0-0.2,0-0.4-0.1c0.3,0.2,0.3,0.3,0.3,0.7c0,0.4-0.9,0.1-1.3-0.3c-0.5,0.3-0.9,1.3-0.8,2.5c0.2-0.8,0.6-0.9,0.8-0.9
					c0.1,0,0.1,0.3,0.5,0.4c-0.2-0.2-0.1-0.3,0-0.4c0.2-0.1,0.5,0.2,0.8,0.2c-0.2-0.3,0.2-0.6,0.4-0.6c0.3,0,0.6,0.3,1.1,0.8
					c-0.2-0.7-0.3-1.1-0.1-1.3c0.1-0.2,0.5-0.4,0.7-0.1c0.1-0.3,0-0.7,0.2-0.8c0.1-0.1,0.3-0.1,0.4,0.2c0.2-0.4-0.1-0.5-0.1-0.6
					c0-0.2,0.3-0.5,1.1-0.3C100.4,127.7,99.3,127.5,98.8,127.8"/>
				<path id="Fill-46" class="st2" d="M116.9,27.7c-0.5,0.3-1.4,0.3-1.3-0.1c0.1-0.4,0.2-0.5,0.5-0.6c-0.2,0-0.3,0-0.4-0.1
					c-0.1-0.1-0.1-0.2,0-0.4c-0.2,0.3-0.2,0.4-0.7,0.4c-0.4,0-0.3-0.8,0.1-1.3c-0.4-0.5-1.5-0.6-2.6-0.3c0.8,0.1,1,0.5,1,0.6
					c0,0.1-0.3,0.1-0.3,0.6c0.1-0.2,0.3-0.1,0.4,0c0.2,0.2-0.1,0.5-0.1,0.8c0.3-0.3,0.6,0.1,0.6,0.3c0.1,0.3-0.2,0.6-0.6,1.2
					c0.6-0.3,1-0.5,1.3-0.4c0.2,0.1,0.5,0.4,0.2,0.7c0.3,0,0.6-0.1,0.8,0c0.1,0.1,0.1,0.3-0.1,0.4c0.4,0.1,0.5-0.2,0.6-0.2
					c0.2,0,0.5,0.2,0.5,1.1C117.3,29.2,117.3,28.1,116.9,27.7"/>
				<path id="Fill-47" class="st2" d="M188.5,8.9c0.1,0.6-0.3,1.4-0.6,1.1s-0.4-0.4-0.4-0.7c-0.1,0.2-0.1,0.3-0.2,0.4
					c-0.1,0-0.2,0-0.4-0.1c0.2,0.3,0.3,0.4,0.1,0.8c-0.1,0.4-0.9,0-1.2-0.5c-0.6,0.2-1.1,1.1-1.3,2.3c0.4-0.8,0.8-0.8,0.9-0.7
					c0.1,0.1,0,0.3,0.4,0.5c-0.1-0.2,0-0.3,0.1-0.4c0.2-0.1,0.4,0.3,0.7,0.4c-0.1-0.4,0.3-0.5,0.5-0.5c0.3,0,0.5,0.4,0.9,1
					c0-0.7-0.1-1.1,0.1-1.3c0.2-0.2,0.6-0.3,0.7,0.1c0.1-0.3,0.1-0.7,0.3-0.7c0.1,0,0.3,0,0.3,0.2c0.2-0.4,0-0.5,0.1-0.6
					s0.4-0.4,1.2,0C190.1,9.1,189.1,8.7,188.5,8.9"/>
				<path id="Fill-48" class="st2" d="M228.8,87.9c-0.5,0.3-1.4,0.2-1.3-0.2c0.1-0.4,0.2-0.5,0.5-0.6c-0.2,0-0.3,0-0.4-0.1
					c-0.1-0.1,0-0.2,0-0.4c-0.2,0.3-0.2,0.4-0.7,0.4c-0.4,0-0.3-0.8,0.1-1.3c-0.3-0.5-1.4-0.6-2.6-0.4c0.8,0.1,1,0.5,1,0.6
					s-0.3,0.1-0.3,0.6c0.1-0.2,0.3-0.1,0.4,0c0.1,0.2-0.1,0.5-0.1,0.8c0.3-0.2,0.6,0.1,0.6,0.3c0.1,0.3-0.2,0.6-0.6,1.2
					c0.6-0.3,1-0.4,1.3-0.3c0.2,0.1,0.5,0.4,0.2,0.7c0.3,0,0.6-0.1,0.8,0c0.1,0.1,0.1,0.3-0.1,0.4c0.4,0.1,0.5-0.2,0.6-0.2
					c0.2,0,0.5,0.2,0.4,1.1C229.2,89.5,229.2,88.4,228.8,87.9"/>
				<path id="Fill-50" class="st2" d="M238.8,61.3c-0.4,0.4-1.2,0.7-1.3,0.3c0-0.4,0.1-0.5,0.3-0.7c-0.2,0.1-0.3,0.1-0.4,0
					c-0.1-0.1-0.1-0.2-0.2-0.4c-0.1,0.3-0.1,0.4-0.5,0.6s-0.5-0.7-0.3-1.2c-0.5-0.3-1.6-0.1-2.6,0.5c0.8-0.2,1.1,0.1,1.1,0.3
					c0,0.1-0.2,0.2-0.1,0.6c0.1-0.2,0.2-0.2,0.4-0.2c0.2,0.1,0.1,0.5,0.2,0.8c0.2-0.3,0.6-0.1,0.7,0.1c0.1,0.2,0,0.6-0.2,1.3
					c0.5-0.5,0.8-0.8,1.1-0.7c0.2,0,0.6,0.3,0.4,0.6c0.3-0.1,0.6-0.3,0.8-0.2c0.1,0.1,0.2,0.2,0,0.4c0.5-0.1,0.4-0.3,0.5-0.4
					c0.2,0,0.6,0.1,0.8,0.9C239.6,62.6,239.3,61.6,238.8,61.3"/>
				<path id="Fill-53" class="st2" d="M258.2,98.7c0.1,0.6-0.3,1.4-0.6,1.1c-0.3-0.3-0.3-0.4-0.3-0.7c-0.1,0.2-0.2,0.3-0.2,0.3
					c-0.1,0-0.2,0-0.4-0.2c0.2,0.3,0.2,0.4,0.1,0.8c-0.1,0.4-0.9-0.1-1.2-0.6c-0.6,0.1-1.2,1.1-1.4,2.3c0.4-0.8,0.8-0.7,1-0.7
					c0.1,0.1,0,0.3,0.4,0.5c-0.1-0.2,0-0.3,0.1-0.4c0.2-0.1,0.4,0.3,0.7,0.4c-0.1-0.4,0.3-0.5,0.5-0.5c0.3,0.1,0.5,0.4,0.9,1
					c0-0.7,0-1.1,0.2-1.3s0.6-0.3,0.7,0.1c0.1-0.3,0.1-0.7,0.4-0.7c0.1,0,0.3,0,0.3,0.2c0.3-0.4,0-0.5,0.1-0.6s0.4-0.4,1.2,0
					C259.8,99,258.7,98.5,258.2,98.7"/>
				<path id="Fill-54" class="st2" d="M66.9,98.7c-0.4,0.4-1.2,0.7-1.3,0.3c0-0.4,0.1-0.5,0.3-0.7c-0.2,0.1-0.3,0.1-0.4,0
					c-0.1-0.1-0.1-0.2-0.2-0.4c-0.1,0.3-0.1,0.4-0.5,0.6s-0.5-0.7-0.3-1.2c-0.5-0.3-1.6-0.1-2.6,0.5c0.8-0.2,1.1,0.1,1.1,0.3
					c0,0.1-0.2,0.2-0.1,0.6c0.1-0.2,0.2-0.2,0.4-0.2c0.2,0.1,0.1,0.5,0.2,0.8c0.2-0.3,0.6-0.1,0.7,0.1s0,0.6-0.2,1.3
					c0.5-0.5,0.8-0.8,1.1-0.7c0.2,0,0.6,0.3,0.4,0.6c0.3-0.1,0.6-0.3,0.8-0.2c0.1,0.1,0.2,0.2,0,0.4c0.5-0.1,0.4-0.3,0.5-0.4
					c0.2,0,0.6,0.1,0.8,0.9C67.8,100,67.4,99,66.9,98.7"/>
				<path id="Fill-45-Copy" class="st2" d="M98.8,77.8c0.2,0.5,0,1.4-0.4,1.2s-0.4-0.3-0.5-0.6c0,0.2-0.1,0.3-0.2,0.4
					c-0.1,0-0.2,0-0.4-0.1c0.3,0.2,0.3,0.3,0.3,0.7c0,0.4-0.9,0.1-1.3-0.3c-0.5,0.3-0.9,1.3-0.8,2.5c0.2-0.8,0.6-0.9,0.8-0.9
					c0.1,0,0.1,0.3,0.5,0.4c-0.2-0.2-0.1-0.3,0-0.4c0.2-0.1,0.5,0.2,0.8,0.2c-0.2-0.3,0.2-0.6,0.4-0.6c0.3,0,0.6,0.3,1.1,0.8
					c-0.2-0.7-0.3-1.1-0.1-1.3c0.1-0.2,0.5-0.4,0.7-0.1c0.1-0.3,0-0.7,0.2-0.8c0.1-0.1,0.3-0.1,0.4,0.2c0.2-0.4-0.1-0.5-0.1-0.6
					c0-0.2,0.3-0.5,1.1-0.3C100.4,77.7,99.3,77.5,98.8,77.8"/>
				<path id="Fill-54-Copy" class="st2" d="M83.9,66.7c-0.4,0.4-1.2,0.7-1.3,0.3c0-0.4,0.1-0.5,0.3-0.7c-0.2,0.1-0.3,0.1-0.4,0
					c-0.1-0.1-0.1-0.2-0.2-0.4c-0.1,0.3-0.1,0.4-0.5,0.6s-0.5-0.7-0.3-1.2c-0.5-0.3-1.6-0.1-2.6,0.5c0.8-0.2,1.1,0.1,1.1,0.3
					c0,0.1-0.2,0.2-0.1,0.6c0.1-0.2,0.2-0.2,0.4-0.2c0.2,0.1,0.1,0.5,0.2,0.8c0.2-0.3,0.6-0.1,0.7,0.1c0.1,0.2,0,0.6-0.2,1.3
					c0.5-0.5,0.8-0.8,1.1-0.7c0.2,0,0.6,0.3,0.4,0.6c0.3-0.1,0.6-0.3,0.8-0.2c0.1,0.1,0.2,0.2,0,0.4c0.5-0.1,0.4-0.3,0.5-0.4
					c0.2,0,0.6,0.1,0.8,0.9C84.8,68,84.4,67,83.9,66.7"/>
				<path id="Fill-43-Copy" class="st2" d="M127.6-20.6c0.1,0.6-0.1,1.4-0.5,1.2s-0.4-0.3-0.4-0.7c-0.1,0.2-0.1,0.3-0.2,0.4
					c-0.1,0-0.2,0-0.4-0.1c0.2,0.3,0.3,0.3,0.2,0.8c-0.1,0.4-0.9,0-1.2-0.4c-0.5,0.2-1,1.2-1.1,2.4c0.3-0.8,0.7-0.8,0.9-0.8
					c0.1,0.1,0,0.3,0.5,0.4c-0.2-0.2-0.1-0.3,0.1-0.4c0.2-0.1,0.5,0.2,0.7,0.3c-0.2-0.4,0.2-0.5,0.5-0.5s0.5,0.4,1,0.9
					c-0.1-0.7-0.1-1.1,0-1.3s0.6-0.3,0.7,0c0.1-0.3,0-0.7,0.3-0.8c0.1-0.1,0.3,0,0.3,0.2c0.2-0.4-0.1-0.5,0-0.6s0.4-0.4,1.2-0.1
					C129.2-20.6,128.1-20.9,127.6-20.6"/>
				<path id="Fill-45-Copy-3" class="st2" d="M128.8,7.8c0.2,0.5,0,1.4-0.4,1.2c-0.4-0.2-0.4-0.3-0.5-0.6c0,0.2-0.1,0.3-0.2,0.4
					c-0.1,0-0.2,0-0.4-0.1c0.3,0.2,0.3,0.3,0.3,0.7c0,0.4-0.9,0.1-1.3-0.3c-0.5,0.3-0.9,1.3-0.8,2.5c0.2-0.8,0.6-0.9,0.8-0.9
					c0.1,0,0.1,0.3,0.5,0.4c-0.2-0.2-0.1-0.3,0-0.4c0.2-0.1,0.5,0.2,0.8,0.2c-0.2-0.3,0.2-0.6,0.4-0.6c0.3,0,0.6,0.3,1.1,0.8
					c-0.2-0.7-0.3-1.1-0.1-1.3c0.1-0.2,0.5-0.4,0.7-0.1c0.1-0.3,0-0.7,0.2-0.8c0.1-0.1,0.3-0.1,0.4,0.2c0.2-0.4-0.1-0.5-0.1-0.6
					c0-0.2,0.3-0.5,1.1-0.3C130.4,7.7,129.3,7.5,128.8,7.8"/>
				<path id="Fill-54-Copy-6" class="st2" d="M106.9-11.3c-0.4,0.4-1.2,0.7-1.3,0.3c0-0.4,0.1-0.5,0.3-0.7c-0.2,0.1-0.3,0.1-0.4,0
					s-0.1-0.2-0.2-0.4c-0.1,0.3-0.1,0.4-0.5,0.6c-0.4,0.2-0.5-0.7-0.3-1.2c-0.5-0.3-1.6-0.1-2.6,0.5c0.8-0.2,1.1,0.1,1.1,0.3
					c0,0.1-0.2,0.2-0.1,0.6c0.1-0.2,0.2-0.2,0.4-0.2c0.2,0.1,0.1,0.5,0.2,0.8c0.2-0.3,0.6-0.1,0.7,0.1c0.1,0.2,0,0.6-0.2,1.3
					c0.5-0.5,0.8-0.8,1.1-0.7c0.2,0,0.6,0.3,0.4,0.6c0.3-0.1,0.6-0.3,0.8-0.2c0.1,0.1,0.2,0.2,0,0.4c0.5-0.1,0.4-0.3,0.5-0.4
					c0.2,0,0.6,0.1,0.8,0.9C107.8-10,107.4-11,106.9-11.3"/>
				<path id="Fill-43-Copy-2" class="st2" d="M177.6-10.6c0.1,0.6-0.1,1.4-0.5,1.2s-0.4-0.3-0.4-0.7c-0.1,0.2-0.1,0.3-0.2,0.4
					c-0.1,0-0.2,0-0.4-0.1c0.2,0.3,0.3,0.3,0.2,0.8c-0.1,0.4-0.9,0-1.2-0.4c-0.5,0.2-1,1.2-1.1,2.4c0.3-0.8,0.7-0.8,0.9-0.8
					c0.1,0.1,0,0.3,0.5,0.4c-0.2-0.2-0.1-0.3,0.1-0.4c0.2-0.1,0.5,0.2,0.7,0.3C176-7.9,176.4-8,176.7-8s0.5,0.4,1,0.9
					c-0.1-0.7-0.1-1.1,0-1.3s0.6-0.3,0.7,0c0.1-0.3,0-0.7,0.3-0.8c0.1-0.1,0.3,0,0.3,0.2c0.2-0.4-0.1-0.5,0-0.6
					c0.1-0.2,0.4-0.4,1.2-0.1C179.2-10.6,178.1-10.9,177.6-10.6"/>
				<path id="Fill-54-Copy-7" class="st2" d="M150.9-2.3c-0.4,0.4-1.2,0.7-1.3,0.3c0-0.4,0.1-0.5,0.3-0.7c-0.2,0.1-0.3,0.1-0.4,0
					c-0.1-0.1-0.1-0.2-0.2-0.4c-0.1,0.3-0.1,0.4-0.5,0.6c-0.4,0.2-0.5-0.7-0.3-1.2c-0.5-0.3-1.6-0.1-2.6,0.5
					c0.8-0.2,1.1,0.1,1.1,0.3c0,0.1-0.2,0.2-0.1,0.6c0.1-0.2,0.2-0.2,0.4-0.2c0.2,0.1,0.1,0.5,0.2,0.8c0.2-0.3,0.6-0.1,0.7,0.1
					c0.1,0.2,0,0.6-0.2,1.3c0.5-0.5,0.8-0.8,1.1-0.7c0.2,0,0.6,0.3,0.4,0.6c0.3-0.1,0.6-0.3,0.8-0.2c0.1,0.1,0.2,0.2,0,0.4
					c0.5-0.1,0.4-0.3,0.5-0.4c0.2,0,0.6,0.1,0.8,0.9C151.8-1,151.4-2,150.9-2.3"/>
				<path id="Fill-54-Copy-2" class="st2" d="M82.9,93.7c-0.4,0.4-1.2,0.7-1.3,0.3c0-0.4,0.1-0.5,0.3-0.7c-0.2,0.1-0.3,0.1-0.4,0
					c-0.1-0.1-0.1-0.2-0.2-0.4c-0.1,0.3-0.1,0.4-0.5,0.6s-0.5-0.7-0.3-1.2c-0.5-0.3-1.6-0.1-2.6,0.5c0.8-0.2,1.1,0.1,1.1,0.3
					c0,0.1-0.2,0.2-0.1,0.6c0.1-0.2,0.2-0.2,0.4-0.2c0.2,0.1,0.1,0.5,0.2,0.8c0.2-0.3,0.6-0.1,0.7,0.1s0,0.6-0.2,1.3
					c0.5-0.5,0.8-0.8,1.1-0.7c0.2,0,0.6,0.3,0.4,0.6c0.3-0.1,0.6-0.3,0.8-0.2c0.1,0.1,0.2,0.2,0,0.4c0.5-0.1,0.4-0.3,0.5-0.4
					c0.2,0,0.6,0.1,0.8,0.9C83.8,95,83.4,94,82.9,93.7"/>
				<path id="Fill-54-Copy-5" class="st2" d="M206.9,28.7c-0.4,0.4-1.2,0.7-1.3,0.3c0-0.4,0.1-0.5,0.3-0.7c-0.2,0.1-0.3,0.1-0.4,0
					c-0.1-0.1-0.1-0.2-0.2-0.4c-0.1,0.3-0.1,0.4-0.5,0.6s-0.5-0.7-0.3-1.2c-0.5-0.3-1.6-0.1-2.6,0.5c0.8-0.2,1.1,0.1,1.1,0.3
					c0,0.1-0.2,0.2-0.1,0.6c0.1-0.2,0.2-0.2,0.4-0.2c0.2,0.1,0.1,0.5,0.2,0.8c0.2-0.3,0.6-0.1,0.7,0.1c0.1,0.2,0,0.6-0.2,1.3
					c0.5-0.5,0.8-0.8,1.1-0.7c0.2,0,0.6,0.3,0.4,0.6c0.3-0.1,0.6-0.3,0.8-0.2c0.1,0.1,0.2,0.2,0,0.4c0.5-0.1,0.4-0.3,0.5-0.4
					c0.2,0,0.6,0.1,0.8,0.9C207.8,30,207.4,29,206.9,28.7"/>
				<path id="Fill-47-Copy" class="st2" d="M219.5,104.9c0.1,0.6-0.3,1.4-0.6,1.1s-0.4-0.4-0.4-0.7c-0.1,0.2-0.1,0.3-0.2,0.3
					c-0.1,0-0.2,0-0.4-0.1c0.2,0.3,0.3,0.4,0.1,0.8c-0.1,0.4-0.9,0-1.2-0.5c-0.6,0.2-1.1,1.1-1.3,2.3c0.4-0.8,0.8-0.8,0.9-0.7
					c0.1,0.1,0,0.3,0.4,0.5c-0.1-0.2,0-0.3,0.1-0.4c0.2-0.1,0.4,0.3,0.7,0.4c-0.1-0.4,0.3-0.5,0.5-0.5c0.3,0,0.5,0.4,0.9,1
					c0-0.7-0.1-1.1,0.1-1.3c0.2-0.2,0.6-0.3,0.7,0.1c0.1-0.3,0.1-0.7,0.3-0.7c0.1,0,0.3,0,0.3,0.2c0.2-0.4,0-0.5,0.1-0.6
					s0.4-0.4,1.2,0C221.1,105.1,220.1,104.7,219.5,104.9"/>
				<path id="Fill-54-Copy-8" class="st2" d="M235.9,136.7c-0.4,0.4-1.2,0.7-1.3,0.3c0-0.4,0.1-0.5,0.3-0.7c-0.2,0.1-0.3,0.1-0.4,0
					c-0.1-0.1-0.1-0.2-0.2-0.4c-0.1,0.3-0.1,0.4-0.5,0.6s-0.5-0.7-0.3-1.2c-0.5-0.3-1.6-0.1-2.6,0.5c0.8-0.2,1.1,0.1,1.1,0.3
					c0,0.1-0.2,0.2-0.1,0.6c0.1-0.2,0.2-0.2,0.4-0.2c0.2,0.1,0.1,0.5,0.2,0.8c0.2-0.3,0.6-0.1,0.7,0.1c0.1,0.2,0,0.6-0.2,1.3
					c0.5-0.5,0.8-0.8,1.1-0.7c0.2,0,0.6,0.3,0.4,0.6c0.3-0.1,0.6-0.3,0.8-0.2c0.1,0.1,0.2,0.2,0,0.4c0.5-0.1,0.4-0.3,0.5-0.4
					c0.2,0,0.6,0.1,0.8,0.9C236.8,138,236.4,137,235.9,136.7"/>
				<path id="Fill-45-Copy-2" class="st2" d="M238.8,7.8c0.2,0.5,0,1.4-0.4,1.2c-0.4-0.2-0.4-0.3-0.5-0.6c0,0.2-0.1,0.3-0.2,0.4
					c-0.1,0-0.2,0-0.4-0.1c0.3,0.2,0.3,0.3,0.3,0.7c0,0.4-0.9,0.1-1.3-0.3c-0.5,0.3-0.9,1.3-0.8,2.5c0.2-0.8,0.6-0.9,0.8-0.9
					c0.1,0,0.1,0.3,0.5,0.4c-0.2-0.2-0.1-0.3,0-0.4c0.2-0.1,0.5,0.2,0.8,0.2c-0.2-0.3,0.2-0.6,0.4-0.6c0.3,0,0.6,0.3,1.1,0.8
					c-0.2-0.7-0.3-1.1-0.1-1.3c0.1-0.2,0.5-0.4,0.7-0.1c0.1-0.3,0-0.7,0.2-0.8c0.1-0.1,0.3-0.1,0.4,0.2c0.2-0.4-0.1-0.5-0.1-0.6
					c0-0.2,0.3-0.5,1.1-0.3C240.4,7.7,239.3,7.5,238.8,7.8"/>
				<path id="Fill-54-Copy-3" class="st2" d="M216.9-11.3c-0.4,0.4-1.2,0.7-1.3,0.3c0-0.4,0.1-0.5,0.3-0.7c-0.2,0.1-0.3,0.1-0.4,0
					c-0.1-0.1-0.1-0.2-0.2-0.4c-0.1,0.3-0.1,0.4-0.5,0.6c-0.4,0.2-0.5-0.7-0.3-1.2c-0.5-0.3-1.6-0.1-2.6,0.5
					c0.8-0.2,1.1,0.1,1.1,0.3c0,0.1-0.2,0.2-0.1,0.6c0.1-0.2,0.2-0.2,0.4-0.2c0.2,0.1,0.1,0.5,0.2,0.8c0.2-0.3,0.6-0.1,0.7,0.1
					c0.1,0.2,0,0.6-0.2,1.3c0.5-0.5,0.8-0.8,1.1-0.7c0.2,0,0.6,0.3,0.4,0.6c0.3-0.1,0.6-0.3,0.8-0.2c0.1,0.1,0.2,0.2,0,0.4
					c0.5-0.1,0.4-0.3,0.5-0.4c0.2,0,0.6,0.1,0.8,0.9C217.8-10,217.4-11,216.9-11.3"/>
				<path id="Fill-54-Copy-4" class="st2" d="M222.9,23.7c-0.4,0.4-1.2,0.7-1.3,0.3c0-0.4,0.1-0.5,0.3-0.7c-0.2,0.1-0.3,0.1-0.4,0
					c-0.1-0.1-0.1-0.2-0.2-0.4c-0.1,0.3-0.1,0.4-0.5,0.6s-0.5-0.7-0.3-1.2c-0.5-0.3-1.6-0.1-2.6,0.5c0.8-0.2,1.1,0.1,1.1,0.3
					c0,0.1-0.2,0.2-0.1,0.6c0.1-0.2,0.2-0.2,0.4-0.2c0.2,0.1,0.1,0.5,0.2,0.8c0.2-0.3,0.6-0.1,0.7,0.1c0.1,0.2,0,0.6-0.2,1.3
					c0.5-0.5,0.8-0.8,1.1-0.7c0.2,0,0.6,0.3,0.4,0.6c0.3-0.1,0.6-0.3,0.8-0.2c0.1,0.1,0.2,0.2,0,0.4c0.5-0.1,0.4-0.3,0.5-0.4
					c0.2,0,0.6,0.1,0.8,0.9C223.8,25,223.4,24,222.9,23.7"/>
			</g>
		</g>
	</g>
</g>
</svg>
