<?xml version="1.0" encoding="UTF-8" standalone="no"?>
<svg width="282px" height="7px" viewBox="0 0 282 7" version="1.1" xmlns="http://www.w3.org/2000/svg" xmlns:xlink="http://www.w3.org/1999/xlink" xmlns:sketch="http://www.bohemiancoding.com/sketch/ns">
    <!-- Generator: Sketch 3.3.2 (12043) - http://www.bohemiancoding.com/sketch -->
    <title>border bottom</title>
    <desc>Created with Sketch.</desc>
    <defs></defs>
    <g id="Page-1" stroke="none" stroke-width="1" fill="none" fill-rule="evenodd" sketch:type="MSPage">
        <g id="Connorween" sketch:type="MSArtboardGroup" transform="translate(0.000000, -380.000000)" fill="#3D1425">
            <g id="border-bottom" sketch:type="MSLayerGroup" transform="translate(-2.000000, 380.000000)">
                <path d="M0,0 L14,0 L7,7 L0,0 Z" id="Triangle-1" sketch:type="MSShapeGroup"></path>
                <path d="M12,0 L26,0 L19,7 L12,0 Z" id="Triangle-1-Copy" sketch:type="MSShapeGroup"></path>
                <path d="M24,0 L38,0 L31,7 L24,0 Z" id="Triangle-1-Copy-3" sketch:type="MSShapeGroup"></path>
                <path d="M36,0 L50,0 L43,7 L36,0 Z" id="Triangle-1-Copy-2" sketch:type="MSShapeGroup"></path>
                <path d="M48,0 L62,0 L55,7 L48,0 Z" id="Triangle-1-Copy-7" sketch:type="MSShapeGroup"></path>
                <path d="M60,0 L74,0 L67,7 L60,0 Z" id="Triangle-1-Copy-4" sketch:type="MSShapeGroup"></path>
                <path d="M72,0 L86,0 L79,7 L72,0 Z" id="Triangle-1-Copy-5" sketch:type="MSShapeGroup"></path>
                <path d="M84,0 L98,0 L91,7 L84,0 Z" id="Triangle-1-Copy-6" sketch:type="MSShapeGroup"></path>
                <path d="M96,0 L110,0 L103,7 L96,0 Z" id="Triangle-1-Copy-15" sketch:type="MSShapeGroup"></path>
                <path d="M108,0 L122,0 L115,7 L108,0 Z" id="Triangle-1-Copy-8" sketch:type="MSShapeGroup"></path>
                <path d="M120,0 L134,0 L127,7 L120,0 Z" id="Triangle-1-Copy-9" sketch:type="MSShapeGroup"></path>
                <path d="M132,0 L146,0 L139,7 L132,0 Z" id="Triangle-1-Copy-10" sketch:type="MSShapeGroup"></path>
                <path d="M144,0 L158,0 L151,7 L144,0 Z" id="Triangle-1-Copy-11" sketch:type="MSShapeGroup"></path>
                <path d="M156,0 L170,0 L163,7 L156,0 Z" id="Triangle-1-Copy-12" sketch:type="MSShapeGroup"></path>
                <path d="M168,0 L182,0 L175,7 L168,0 Z" id="Triangle-1-Copy-13" sketch:type="MSShapeGroup"></path>
                <path d="M180,0 L194,0 L187,7 L180,0 Z" id="Triangle-1-Copy-14" sketch:type="MSShapeGroup"></path>
                <path d="M192,0 L206,0 L199,7 L192,0 Z" id="Triangle-1-Copy-23" sketch:type="MSShapeGroup"></path>
                <path d="M204,0 L218,0 L211,7 L204,0 Z" id="Triangle-1-Copy-16" sketch:type="MSShapeGroup"></path>
                <path d="M216,0 L230,0 L223,7 L216,0 Z" id="Triangle-1-Copy-17" sketch:type="MSShapeGroup"></path>
                <path d="M228,0 L242,0 L235,7 L228,0 Z" id="Triangle-1-Copy-18" sketch:type="MSShapeGroup"></path>
                <path d="M240,0 L254,0 L247,7 L240,0 Z" id="Triangle-1-Copy-19" sketch:type="MSShapeGroup"></path>
                <path d="M252,0 L266,0 L259,7 L252,0 Z" id="Triangle-1-Copy-20" sketch:type="MSShapeGroup"></path>
                <path d="M264,0 L278,0 L271,7 L264,0 Z" id="Triangle-1-Copy-21" sketch:type="MSShapeGroup"></path>
                <path d="M276,0 L290,0 L283,7 L276,0 Z" id="Triangle-1-Copy-22" sketch:type="MSShapeGroup"></path>
            </g>
        </g>
    </g>
</svg>