<?xml version="1.0" encoding="UTF-8" standalone="no"?>
<svg width="68px" height="13px" viewBox="0 0 68 13" version="1.1" xmlns="http://www.w3.org/2000/svg" xmlns:xlink="http://www.w3.org/1999/xlink" xmlns:sketch="http://www.bohemiancoding.com/sketch/ns">
    <!-- Generator: Sketch 3.3.2 (12043) - http://www.bohemiancoding.com/sketch -->
    <title>bud</title>
    <desc>Created with Sketch.</desc>
    <defs>
        <path id="path-1" d="M0,0 L67.1532281,0 L67.1532281,10.5519111 L67.1532281,12.1428571 L0,12.1428571"></path>
    </defs>
    <g id="Page-1" stroke="none" stroke-width="1" fill="none" fill-rule="evenodd" sketch:type="MSPage">
        <g id="Connorween" sketch:type="MSArtboardGroup" transform="translate(-108.000000, -598.000000)">
            <g id="sponsors" sketch:type="MSLayerGroup" transform="translate(20.000000, 554.000000)">
                <g id="bud" transform="translate(87.000000, 44.000000)">
                    <g id="Group-5" transform="translate(1.000000, 0.000000)">
                        <mask id="mask-2" sketch:name="Clip 3" fill="white">
                            <use xlink:href="#path-1"></use>
                        </mask>
                        <g id="Clip-3"></g>
                        <path d="M51.0327993,3.32861969 C51.5482565,3.32861969 52.0378308,2.80565637 52.0769088,2.35374517 C52.1144643,1.9102027 51.8488693,1.6530695 51.4927691,1.6530695 C51.0189274,1.6530695 50.4664223,2.14403475 50.4254835,2.62991313 C50.3911422,3.03194015 50.6349144,3.32861969 51.0327993,3.32861969" id="Fill-2" fill="#E05536" sketch:type="MSShapeGroup" mask="url(#mask-2)"></path>
                        <path d="M6.48728333,10.221168 C6.61077652,8.78732625 7.98933268,7.7617471 9.26994014,7.70086873 C9.48275443,7.69184363 9.53824178,7.42010618 9.31476986,7.30081081 C9.08943708,7.17971042 8.67852618,7.18807915 8.24900672,7.33609073 C8.96256052,6.46951737 10.8645248,3.94150579 12.0182557,2.58511583 C12.7438205,3.01782819 12.7345162,3.14089768 12.9725366,3.31138996 C13.3616248,3.58624517 13.6207913,3.16846525 13.3101975,2.86013514 C13.0994132,2.65239382 12.7781617,2.43382239 12.3625141,2.20753861 C13.3881843,0.971756757 14.3450027,0.701824324 14.8570765,0.701167954 C15.8484054,0.701167954 15.8418078,1.68703668 15.8093274,2.05312741 C15.7452125,2.79925676 15.0837627,3.91 13.5494021,4.58245174 C12.812503,4.90423745 12.3374771,4.86830116 11.9707193,4.78559846 C11.7056318,4.67992278 11.4420669,4.62593629 11.1962647,4.62593629 C10.2736183,4.62593629 10.1296557,5.6323166 10.8142817,5.6323166 C11.0726024,5.6323166 11.1876371,5.47724903 11.8457036,5.47724903 C12.9453005,5.47659266 13.2883747,6.27785714 13.2340715,6.90157336 C13.0676095,8.83474903 10.2115334,11.4152703 7.71697099,11.4152703 C6.76472008,11.4152703 6.43501018,10.8307722 6.48728333,10.221168 L6.48728333,10.221168 Z M9.67899018,2.97352317 C9.85543319,2.84274131 10.4495539,2.33503861 10.7567643,1.99405405 C10.9820971,2.07675676 11.2126741,2.16914093 11.4625363,2.29598456 C9.67696016,4.60361969 5.63737951,9.79944981 3.80697361,11.1865251 C3.71900586,11.2538031 3.07802545,11.7377124 2.90953338,11.5160232 C2.75169893,11.3038514 3.0166172,10.8768822 3.31536921,10.4871622 C4.46520923,8.9942471 5.97250281,7.50395753 9.67899018,2.97352317 L9.67899018,2.97352317 Z M5.14780514,0.719218147 C6.29493845,0.715936293 7.60464294,0.973725869 9.09485048,1.43138031 C8.94868868,1.60252896 7.0666863,3.85814672 7.03505175,3.89523166 C6.04845958,4.34271236 4.71896236,4.62987452 3.59094511,4.61067568 C-0.72421143,4.61067568 -0.0898286077,0.719218147 5.14780514,0.719218147 L5.14780514,0.719218147 Z M23.8164228,10.1680019 C23.7159366,10.1686583 23.6386265,10.1346911 23.5931201,10.0744691 C23.544907,10.0076834 23.5283285,9.90512548 23.5455837,9.77434363 C23.6129128,9.26352317 24.304813,8.01559846 25.2306736,6.97656371 C26.0492812,6.07208494 26.8655204,5.55092664 27.4680995,5.55092664 C27.6352383,5.55092664 27.7766633,5.61246139 27.8566802,5.72010618 C27.9010024,5.78295367 27.9221485,5.85416988 27.9155509,5.93112934 C27.9148742,5.93621622 27.9148742,5.94064672 27.9141975,5.94507722 C27.833504,6.54893822 27.0280916,7.84444981 25.691151,9.05840734 C24.925324,9.75333977 24.2247962,10.1680019 23.8164228,10.1680019 L23.8164228,10.1680019 Z M45.1244114,5.94064672 C44.7953782,6.62392857 43.5775323,7.83805019 41.9056376,8.27584942 C42.816273,6.75208494 44.1814648,5.72781853 44.8324262,5.5317278 C45.1919098,5.42342664 45.2929035,5.59063707 45.1244114,5.94064672 L45.1244114,5.94064672 Z M55.9691435,8.27584942 C56.9848327,6.57716216 58.566053,5.49579151 59.0940287,5.49579151 C59.1549294,5.49644788 59.2097401,5.52089768 59.242728,5.56832046 C59.2665808,5.59900579 59.2770693,5.64002896 59.2738551,5.68302124 C59.198575,6.26111969 57.8821037,7.77766409 55.9691435,8.27584942 L55.9691435,8.27584942 Z M18.0607944,5.11772201 C16.8627413,6.42455598 15.1756213,7.88153475 14.3615813,8.56104247 C15.001885,7.25978764 14.5796398,5.87205598 13.4957756,5.38749035 C15.9884772,4.97397683 16.9618742,3.29465251 17.0655746,2.08135135 C17.1574332,1.02426641 16.4807582,0 15.1544752,0 C14.4811836,0 13.4013794,0.0853281853 11.7863253,1.90052124 C11.5378164,1.76842664 11.3038561,1.66472008 11.0766624,1.581361 C11.4638897,1.03132239 11.5675901,0.646196911 11.6158032,0.309642857 L10.0344137,0.309642857 C10.0344137,0.309642857 9.50914476,0.919247104 9.45027403,0.986525097 C7.69193401,0.375608108 6.18193373,0.146206564 4.92111901,0.146206564 C-0.802198225,0.146206564 -1.78016278,5.31512548 3.2948998,5.32923745 C4.2655901,5.33235521 5.35063848,5.14643822 6.33926067,4.7869112 C5.14848182,6.29262548 2.68098639,8.94305019 2.11393273,10.258417 C1.41289742,11.8826062 2.38883196,12.6505598 3.69261553,11.8852317 C4.25763917,11.5513031 4.98049725,10.9371042 5.83175441,10.0615058 C5.66123231,10.9390734 6.13693484,12.2447587 8.16831322,12.2447587 C11.1406082,12.2447587 13.1872118,10.1922876 15.7829371,7.98540541 C15.0678608,8.93599421 15.0275986,9.36936293 15.0091592,9.5826834 C14.9562094,10.1922876 15.2515781,10.8237162 16.0703548,10.8237162 C16.6440061,10.8237162 17.5228377,10.3058398 18.6099161,9.33014479 C18.2861271,10.3557239 19.0130453,11.3186197 20.1660995,10.5403282 C20.6967819,10.1801448 22.5112859,8.58401544 22.6315649,8.4776834 C22.3091293,9.47503861 22.4610428,10.8237162 23.5885525,10.8237162 C24.246619,10.8237162 25.0740233,10.3731178 25.9892263,9.53017375 C25.859643,10.0628185 25.9005819,10.8237162 26.75979,10.8237162 C27.4714829,10.8237162 28.0886105,10.2987838 29.1129273,9.42958494 C29.1129273,9.42958494 30.1086546,8.58795367 30.7252747,7.98803089 C30.3234989,8.53790541 29.9931123,9.06480695 29.9481135,9.58399614 C29.8894119,10.2776158 30.2653049,10.8237162 31.0088015,10.8237162 C31.5870203,10.8237162 32.4731263,10.2968147 33.5706931,9.31160232 C33.4340048,9.95451737 33.6461424,10.8045174 34.5554244,10.8045174 C35.3933173,10.8051737 36.4863166,10.3025579 37.7187109,9.35262548 C38.173944,9.4282722 39.321754,9.31554054 40.3064853,8.42254826 C40.037507,9.49046332 40.4683798,10.8237162 41.7885728,10.8237162 C42.6430442,10.8237162 43.5259359,10.3814865 44.8336103,9.29371622 C45.2480738,8.94239382 45.75355,8.48851351 46.3417498,7.9430695 C45.9120611,8.52576255 45.5711861,9.08285714 45.5282172,9.58399614 C45.4641023,10.334556 45.8804266,10.8237162 46.5689434,10.8237162 C47.2171981,10.8237162 47.9811641,10.2756467 49.2558507,9.20264479 C50.0323353,8.54824324 51.8072538,6.68300193 52.7813275,5.89010618 C52.6187563,8.53921815 50.7803995,10.2039382 50.1949064,10.2039382 C50.0132192,10.2039382 50.0746275,10.0661004 50.2008273,9.86935328 C50.3408991,9.65127413 50.3706728,9.56102317 50.3793004,9.46027027 C50.4023073,9.19690154 50.1987973,8.96356178 49.8849893,8.96421815 C49.4495489,8.96356178 49.1196699,9.34179537 49.0834677,9.75973938 C49.0398222,10.274334 49.3715621,10.8237162 50.3811612,10.8237162 C51.6348709,10.8237162 52.5771408,10.0469015 54.3632245,8.4597973 C54.095092,9.58087838 54.5978616,10.8237162 55.8527554,10.8237162 C56.8823164,10.8237162 57.920505,10.1089286 58.8079643,9.36673745 C59.9987432,8.37135135 62.5230793,5.67793436 63.3860091,5.55995174 C63.6154019,5.52844595 63.6008534,5.6726834 63.5321709,5.77655405 C63.1679506,6.31953668 60.3741286,9.52754826 59.3677437,10.7628378 L61.1545041,10.6007143 C62.1893093,9.54297297 63.2948271,8.44305985 64.1520052,7.73352317 C63.6240295,8.55529923 63.8493623,9.23923745 64.7354682,9.23923745 C65.348705,9.23923745 66.2725355,8.61814672 66.5124168,8.23285714 C66.7318287,7.88219112 66.3973821,7.69889961 66.2156948,7.84625483 C65.8462303,8.14752896 65.3202846,8.67196911 64.7566143,8.67196911 C64.5656228,8.67196911 64.4373929,8.57712355 64.4566781,8.35149614 C64.5055679,7.78357143 65.098166,7.14 65.591293,6.82395753 C66.6279591,6.18104247 66.9101326,5.96509653 67.0806547,5.77015444 C67.4771862,5.32464286 67.2254631,4.93361004 66.7325054,4.93361004 C65.8666997,4.93361004 65.3691744,5.53484556 64.8068575,6.57207529 C64.4460205,6.83938224 64.0442447,7.18611004 63.6497432,7.53037645 C64.0317262,6.96819498 64.367357,6.36499035 64.4137093,5.83546332 C64.4592157,5.29773166 64.1229082,4.93361004 63.6199695,4.93361004 C62.4635319,4.93361004 60.1481192,7.56811776 58.5073514,8.92582046 C57.3825484,9.8577027 56.6530927,10.2224807 56.0146499,10.2224807 C55.3334073,10.2224807 55.3789137,9.66161197 55.6242084,8.95650579 C58.296398,8.37315637 60.0812975,6.96819498 60.1706186,5.91882239 C60.218155,5.37337838 59.8097817,4.95166023 59.0728826,4.95166023 C58.0294497,4.95166023 56.4746197,5.79132239 54.9111621,7.1982529 C54.9111621,7.1982529 53.5980742,8.4463417 53.0191788,8.92959459 C53.175829,8.49622587 53.2333464,7.98031853 53.2524625,7.75666023 C53.3033823,7.16051158 53.2445115,6.70023166 53.3131941,5.90799228 C53.3449978,5.54009653 53.4136803,5.52089768 53.6364755,5.44705598 C53.6376597,5.44639961 54.3136581,5.30281853 54.360687,4.76311776 C54.387754,4.44330116 54.1815373,4.27658301 53.8841386,4.27658301 C53.5319293,4.27723938 53.1903775,4.55357143 52.8718328,5.09524131 C51.5000434,6.29574324 50.5219096,7.28932432 49.7019487,8.06302124 C49.0985238,8.63406371 47.9315977,9.69164093 47.0930282,10.1122104 C46.7758368,10.274334 46.2498911,10.3744305 46.5439064,9.8353861 C46.8074713,9.35262548 50.3733795,5.00548263 50.3733795,5.00548263 L48.580529,5.11887066 C47.3415371,6.14067568 46.4989075,7.02333012 45.6287035,7.84313707 C44.7569769,8.66425676 43.1519038,10.2224807 41.9518206,10.2218243 C41.4470211,10.2224807 41.1971588,9.88723938 41.5613792,8.95650579 C44.2349221,8.3725 46.0172841,6.95982625 46.1077894,5.91701737 C46.172581,5.15611969 45.4329752,4.95166023 45.0093767,4.95166023 C43.9654363,4.95100386 42.4627103,5.74964286 40.8456262,7.19759653 C40.386333,7.60914093 40.0434279,7.96111969 39.7453526,8.18986486 C38.9742814,8.76287645 38.4740494,8.81866795 38.3014973,8.79372587 C39.5438726,7.52578185 40.3785512,6.26505792 40.4320086,5.64445946 C40.5027211,4.81956564 39.6232128,4.71766409 39.1850657,5.28493243 C38.7792298,5.80986486 38.7871808,6.47837838 38.362398,7.4040251 C37.6095971,9.04429537 35.9410857,10.086612 34.9438359,10.2121429 C34.3762747,10.2800772 34.3710305,9.99554054 34.5493344,9.70000965 C34.9710721,9.0032722 36.56498,7.19250965 38.2724003,5.02468147 L36.5643034,5.1201834 C34.4383597,7.87513514 32.3733167,9.85261583 31.2948659,10.1763707 C31.0788374,10.2403668 30.9572051,10.2423359 30.911022,10.1801448 C30.7920964,10.0204826 31.0444961,9.69114865 31.2664455,9.40004826 C32.0997708,8.30276062 34.4490173,5.44705598 34.7880315,5.02599421 L33.0361199,5.12592664 C32.5768267,5.50859073 29.2985054,8.55529923 29.2985054,8.55529923 C28.2498283,9.48603282 27.7059508,9.88658301 27.4212398,10.0480502 C27.1495548,10.2039382 26.9592399,10.1986873 27.1020184,9.80322394 C27.3155093,9.21478764 30.9287847,4.50992278 33.4280839,1.09745174 L31.7812261,1.16587838 C31.7812261,1.16587838 28.750737,5.39126448 28.5003673,5.74258687 C28.4606126,5.30987452 28.1606764,4.95100386 27.4528743,4.95166023 C26.5324272,4.95166023 24.9205873,5.76949807 23.3703248,7.08486486 C22.8695853,7.51052124 20.5189855,9.67949807 19.8118601,10.1333784 C19.4616808,10.3590058 19.3150115,10.1666892 19.5071872,9.83013514 C19.6103801,9.64815637 19.7934207,9.42121622 20.0201069,9.13914093 L23.3300627,5.02599421 L21.62315,5.11952703 C19.5132773,7.85921815 17.4607528,9.82767375 16.3770578,10.1693147 C15.9157346,10.3166699 15.8707357,10.1532336 16.0109766,9.8577027 C16.2224375,9.41678571 19.4232795,5.55601351 19.8495848,5.02599421 L18.0607944,5.11772201 L18.0607944,5.11772201 Z" id="Fill-4" fill="#E05536" sketch:type="MSShapeGroup" mask="url(#mask-2)"></path>
                    </g>
                </g>
            </g>
        </g>
    </g>
</svg>