<?xml version="1.0" encoding="UTF-8" standalone="no"?>
<svg width="5px" height="5px" viewBox="0 0 5 5" version="1.1" xmlns="http://www.w3.org/2000/svg" xmlns:xlink="http://www.w3.org/1999/xlink" xmlns:sketch="http://www.bohemiancoding.com/sketch/ns">
    <!-- Generator: Sketch 3.3.2 (12043) - http://www.bohemiancoding.com/sketch -->
    <title>clock</title>
    <desc>Created with Sketch.</desc>
    <defs></defs>
    <g id="Page-1" stroke="none" stroke-width="1" fill="none" fill-rule="evenodd" sketch:type="MSPage">
        <g id="Connorween" sketch:type="MSArtboardGroup" transform="translate(-30.000000, -487.000000)" fill="#E05536">
            <g id="location-card" sketch:type="MSLayerGroup" transform="translate(21.000000, 413.000000)">
                <g id="clock" transform="translate(9.000000, 74.000000)" sketch:type="MSShapeGroup">
                    <g id="access-time">
                        <path d="M2.5,0 C1.125,0 0,1.125 0,2.5 C0,3.875 1.125,5 2.5,5 C3.875,5 5,3.875 5,2.5 C5,1.125 3.875,0 2.5,0 L2.5,0 Z M2.5,4.5 C1.4,4.5 0.5,3.6 0.5,2.5 C0.5,1.4 1.4,0.5 2.5,0.5 C3.6,0.5 4.5,1.4 4.5,2.5 C4.5,3.6 3.6,4.5 2.5,4.5 L2.5,4.5 Z" id="Shape"></path>
                        <path d="M2.625,1.25 L2.25,1.25 L2.25,2.75 L3.55,3.55 L3.75,3.225 L2.625,2.55 L2.625,1.25 Z" id="Shape"></path>
                    </g>
                </g>
            </g>
        </g>
    </g>
</svg>