<?xml version="1.0" encoding="utf-8"?>
<!-- Generator: Adobe Illustrator 19.1.0, SVG Export Plug-In . SVG Version: 6.00 Build 0)  -->
<!DOCTYPE svg PUBLIC "-//W3C//DTD SVG 1.1//EN" "http://www.w3.org/Graphics/SVG/1.1/DTD/svg11.dtd">
<svg version="1.1" id="Layer_1" xmlns:sketch="http://www.bohemiancoding.com/sketch/ns"
	 xmlns="http://www.w3.org/2000/svg" xmlns:xlink="http://www.w3.org/1999/xlink" x="0px" y="0px" viewBox="61 93.9 282 42.1"
	 style="enable-background:new 61 93.9 282 42.1;" xml:space="preserve">
<style type="text/css">
	.st0{fill:#C2B5BA;}
</style>
<title>clouds</title>
<desc>Created with Sketch.</desc>
<g id="Page-1" sketch:type="MSPage">
	<g id="Connorween" transform="translate(0.000000, -673.000000)" sketch:type="MSArtboardGroup">
		<g id="clouds" transform="translate(-2.000000, 673.000000)" sketch:type="MSLayerGroup">
			<path id="Fill-7" sketch:type="MSShapeGroup" class="st0" d="M218.6,93.9c-11.6,0-21.9,5.7-28.3,14.4c-3.9-2.6-8.6-4.1-13.7-4.1
				c-7.5,0-14.3,3.4-18.8,8.7c-6-4.9-13.7-7.9-22.1-7.9c-13,0-24.3,7.1-30.3,17.6c-6.2-5.4-14.2-8.6-23-8.6
				c-7.6,0-14.7,2.5-20.5,6.6l-0.2,14.7h283.6v-19.1c-3.8-1.4-8-2.2-12.3-2.2c-4.1,0-8,0.7-11.7,2c-3.4-9.7-12.6-16.7-23.4-16.7
				c-9.2,0-17.2,5-21.5,12.5c-3,1.3-5.6,3.2-7.8,5.6c-4.5-2.1-9.6-3.3-14.9-3.3c-1.1,0-2.3,0.1-3.4,0.2
				C244.7,102.2,232.6,93.9,218.6,93.9"/>
		</g>
	</g>
</g>
</svg>
