<?xml version="1.0" encoding="UTF-8" standalone="no"?>
<svg width="5px" height="4px" viewBox="0 0 5 4" version="1.1" xmlns="http://www.w3.org/2000/svg" xmlns:xlink="http://www.w3.org/1999/xlink" xmlns:sketch="http://www.bohemiancoding.com/sketch/ns">
    <!-- Generator: Sketch 3.3.2 (12043) - http://www.bohemiancoding.com/sketch -->
    <title>envelope</title>
    <desc>Created with Sketch.</desc>
    <defs></defs>
    <g id="Page-1" stroke="none" stroke-width="1" fill="none" fill-rule="evenodd" sketch:type="MSPage">
        <g id="Connorween" sketch:type="MSArtboardGroup" transform="translate(-30.000000, -460.000000)" fill="#E05536">
            <g id="location-card" sketch:type="MSLayerGroup" transform="translate(21.000000, 413.000000)">
                <g id="envelope" transform="translate(9.000000, 47.000000)" sketch:type="MSShapeGroup">
                    <g id="Group">
                        <path d="M0.479550781,1.23800496 C0.542753906,1.28333499 0.733271484,1.41796526 1.05111328,1.6418263 C1.36896484,1.86568734 1.61246094,2.03805459 1.78161133,2.15893797 C1.80019531,2.17218859 1.83967773,2.20099256 1.90007813,2.24538958 C1.96048828,2.28981638 2.01068359,2.32571712 2.050625,2.35310174 C2.0905957,2.38047643 2.13891602,2.4111861 2.19563477,2.44518114 C2.25233398,2.4791464 2.30578125,2.50469479 2.3559668,2.52160794 C2.40616211,2.53866005 2.45262695,2.5471067 2.49537109,2.5471067 L2.49817383,2.5471067 L2.50098633,2.5471067 C2.54373047,2.5471067 2.59021484,2.53865012 2.64041016,2.52160794 C2.69057617,2.50469479 2.74407227,2.47911663 2.80072266,2.44518114 C2.85740234,2.4111464 2.90572266,2.3804665 2.94569336,2.35310174 C2.98566406,2.32571712 3.03582031,2.28981638 3.09625,2.24538958 C3.15664063,2.20095285 3.19617188,2.17218859 3.21475586,2.15893797 C3.38573242,2.03805459 3.82072266,1.73104715 4.51958984,1.23794541 C4.65527344,1.14163772 4.76863281,1.02542928 4.85969727,0.889399504 C4.95083008,0.75342928 4.99634766,0.610789082 4.99634766,0.461558313 C4.99634766,0.336853598 4.95217773,0.230104218 4.86387695,0.141320099 C4.77558594,0.052516129 4.67101562,0.00813895782 4.55023437,0.00813895782 L0.446083984,0.00813895782 C0.30296875,0.00813895782 0.192832031,0.0572506203 0.115693359,0.155473945 C0.0385644531,0.253717122 0,0.376516129 0,0.523861042 C0,0.642878412 0.0511328125,0.771851117 0.153349609,0.910699752 C0.255556641,1.04955831 0.364326172,1.15866998 0.479550781,1.23800496 L0.479550781,1.23800496 Z" id="Shape"></path>
                        <path d="M4.7175,1.54119107 C4.10789063,1.96055583 3.645,2.28647146 3.32905273,2.51886849 C3.22310547,2.59818362 3.1371582,2.66009926 3.07115234,2.7044665 C3.00514648,2.74886352 2.91736328,2.79420347 2.80767578,2.8404665 C2.69802734,2.88679901 2.59583984,2.90989578 2.50102539,2.90989578 L2.49818359,2.90989578 L2.49538086,2.90989578 C2.40058594,2.90989578 2.29833984,2.88679901 2.18869141,2.8404665 C2.07904297,2.79420347 1.99120117,2.74886352 1.92521484,2.7044665 C1.85924805,2.66009926 1.77327148,2.59818362 1.66733398,2.51886849 C1.41638672,2.33185112 0.954492187,2.00591563 0.281630859,1.54119107 C0.175654297,1.46944913 0.0817871094,1.38721588 0,1.29466005 L0,3.54463524 C0,3.6693995 0.0436621094,3.77608933 0.131035156,3.86488337 C0.218388672,3.9537072 0.323427734,3.99810422 0.446113281,3.99810422 L4.55027344,3.99810422 C4.67292969,3.99810422 4.77795898,3.9537072 4.86532227,3.86488337 C4.95271484,3.77605955 4.99635742,3.66940943 4.99635742,3.54463524 L4.99635742,1.29466005 C4.91641602,1.38530025 4.82350586,1.4675335 4.7175,1.54119107 L4.7175,1.54119107 Z" id="Shape"></path>
                    </g>
                </g>
            </g>
        </g>
    </g>
</svg>