<?xml version="1.0" encoding="UTF-8" standalone="no"?>
<svg width="20px" height="20px" viewBox="0 0 20 20" version="1.1" xmlns="http://www.w3.org/2000/svg" xmlns:xlink="http://www.w3.org/1999/xlink" xmlns:sketch="http://www.bohemiancoding.com/sketch/ns">
    <!-- Generator: Sketch 3.3.2 (12043) - http://www.bohemiancoding.com/sketch -->
    <title>facebook2</title>
    <desc>Created with Sketch.</desc>
    <defs></defs>
    <g id="Page-1" stroke="none" stroke-width="1" fill="none" fill-rule="evenodd" sketch:type="MSPage">
        <g id="Connorween" sketch:type="MSArtboardGroup" transform="translate(-131.000000, -1146.000000)" fill="#E05536">
            <g id="social-media-" sketch:type="MSLayerGroup" transform="translate(102.000000, 1121.000000)">
                <g id="facebook2" transform="translate(29.000000, 25.000000)" sketch:type="MSShapeGroup">
                    <path d="M9.88186712,0 C4.43302804,0 2.30466024e-14,4.33477112 2.30466024e-14,9.66283809 C2.30466024e-14,14.9905158 4.43302804,19.3256762 9.88186712,19.3256762 C15.3303082,19.3256762 19.7637342,14.9905158 19.7637342,9.66283809 C19.7637342,4.33477112 15.3311042,0 9.88186712,0 L9.88186712,0 Z M12.3393974,10.0030186 L10.7316934,10.0030186 L10.7316934,15.6062658 L8.34939357,15.6062658 L8.34939357,10.0030186 L7.21695532,10.0030186 L7.21695532,8.02265442 L8.34939357,8.02265442 L8.34939357,6.74172313 C8.34939357,5.82432567 8.79520406,4.39081916 10.7535858,4.39081916 L12.5189158,4.39743594 L12.5189158,6.31980593 L11.2376087,6.31980593 C11.029033,6.31980593 10.7324895,6.42178223 10.7324895,6.85926833 L10.7324895,8.02304364 L12.547575,8.02304364 L12.3393974,10.0030186 L12.3393974,10.0030186 Z" id="Shape"></path>
                </g>
            </g>
        </g>
    </g>
</svg>