<?xml version="1.0" encoding="UTF-8" standalone="no"?>
<svg width="282px" height="45px" viewBox="0 0 282 45" version="1.1" xmlns="http://www.w3.org/2000/svg" xmlns:xlink="http://www.w3.org/1999/xlink" xmlns:sketch="http://www.bohemiancoding.com/sketch/ns">
    <!-- Generator: Sketch 3.3.2 (12043) - http://www.bohemiancoding.com/sketch -->
    <title>Fill 7 Copy 3</title>
    <desc>Created with Sketch.</desc>
    <defs></defs>
    <g id="Page-1" stroke="none" stroke-width="1" fill="none" fill-rule="evenodd" sketch:type="MSPage">
        <g id="Connorween" sketch:type="MSArtboardGroup" transform="translate(0.000000, -662.000000)" fill="#C2B5BA">
            <g id="parallax-clouds" sketch:type="MSLayerGroup" transform="translate(-6.000000, 622.000000)">
                <path d="M196.678821,39.3079166 C189.047221,39.6131023 182.294655,41.3863519 179.244406,41.8191454 C160.277961,44.5102564 141.059379,42.2594957 122.542061,48.8152881 C104.066652,55.356654 88.7693119,61.6163605 68.6985815,60.7219204 C55.5274048,60.1359317 42.5140839,57.2575109 29.3966899,56.0539325 C16.2492615,54.8482932 4.48733761,59.097973 4.48733761,59.097973 L9.68234303,101.407898 L289.411379,65.6646256 L284.318423,24.1856751 C284.318423,24.1856751 293.172961,33.0244842 254.574436,31.3194149 C219.585638,29.7730365 228.459515,38.0370148 196.678821,39.3079166 Z" id="Fill-7-Copy-3" sketch:type="MSShapeGroup" transform="translate(146.949358, 62.796787) rotate(7.000000) translate(-146.949358, -62.796787) "></path>
            </g>
        </g>
    </g>
</svg>