<?xml version="1.0" encoding="UTF-8" standalone="no"?>
<svg width="282px" height="283px" viewBox="0 0 282 283" version="1.1" xmlns="http://www.w3.org/2000/svg" xmlns:xlink="http://www.w3.org/1999/xlink" xmlns:sketch="http://www.bohemiancoding.com/sketch/ns">
    <!-- Generator: Sketch 3.3.2 (12043) - http://www.bohemiancoding.com/sketch -->
    <title>footer</title>
    <desc>Created with Sketch.</desc>
    <defs></defs>
    <g id="Page-1" stroke="none" stroke-width="1" fill="none" fill-rule="evenodd" sketch:type="MSPage">
        <g id="Connorween" sketch:type="MSArtboardGroup" transform="translate(0.000000, -905.000000)" fill="#3D1425">
            <g id="footer" sketch:type="MSLayerGroup" transform="translate(-1.000000, 901.000000)">
                <g id="house" transform="translate(0.000000, 50.000000)" sketch:type="MSShapeGroup">
                    <path d="M209.998,150.794 L209.998,148.714 L207.832,148.714 L207.832,147.149 L205.622,147.149 L205.622,145.407 L89.258,145.407 L89.258,147.149 L87.049,147.149 L87.049,148.714 L84.882,148.714 L84.882,150.794 L82.803,150.794 L82.803,152.873 L212.078,152.873 L212.078,150.794 L209.998,150.794" id="Fill-1"></path>
                    <path d="M102.212,90.835 L177.768,90.835 L177.768,146.635 L102.212,146.635 L102.212,90.835 Z" id="Fill-2"></path>
                    <path d="M88.002,120.295 L198.908,120.295 L177.768,111.283 L102.212,111.283 L88.002,120.295" id="Fill-3"></path>
                    <path d="M93.395,120.295 L95.562,120.295 L95.562,147.675 L93.395,147.675 L93.395,120.295 Z" id="Fill-4"></path>
                    <path d="M191.638,120.295 L193.804,120.295 L193.804,147.675 L191.638,147.675 L191.638,120.295 Z" id="Fill-5"></path>
                    <path d="M102.212,93.171 L95.981,93.171 L101.873,55.74 L177.768,55.74 L183.319,90.835 L183.319,93.171 L102.212,93.171" id="Fill-6"></path>
                    <path d="M101.18,80.001 L94.595,80.001 L101.527,40.145 L123.361,40.145 L123.361,80.001 L101.18,80.001" id="Fill-7"></path>
                    <path d="M177.768,56.87 L177.768,38.58 C176.969,34.31 162.977,34.31 162.178,38.58 L162.178,56.87 L177.768,56.87" id="Fill-8"></path>
                    <path d="M154.736,26.802 L154.736,10.166 C150.721,-2.133 136.205,-2.133 132.189,10.166 L132.189,26.802 L129.773,26.802 L129.773,37.545 L132.189,37.545 L132.189,62.499 L154.736,62.499 L154.736,37.545 L157.152,37.545 L157.152,26.802 L154.736,26.802" id="Fill-9"></path>
                    <path d="M108.458,32.32 C112.194,23.04 119.626,23.04 123.361,32.32 L123.361,41.274 L108.458,41.274 L108.458,32.32" id="Fill-10"></path>
                    <path d="M101.527,15.885 L107.072,15.885 L107.072,40.928 L101.527,40.928 L101.527,15.885 Z" id="Fill-11"></path>
                    <path d="M99.794,17.617 L108.631,17.617 L108.631,21.866 L99.794,21.866 L99.794,17.617 Z" id="Fill-12"></path>
                    <path d="M122.745,105.27 L114.426,105.27 L114.426,101.828 C114.365,88.657 122.807,88.656 122.745,101.828 L122.745,105.27" id="Fill-13"></path>
                    <path d="M166.588,105.27 L158.27,105.27 L158.27,101.828 C158.208,88.657 166.65,88.656 166.588,101.828 L166.588,105.27" id="Fill-14"></path>
                    <path d="M173.171,49.251 L166.773,49.251 L166.773,46.605 C166.727,36.477 173.219,36.477 173.171,46.605 L173.171,49.251" id="Fill-15"></path>
                    <path d="M141.203,44.833 L137.405,44.833 L137.405,43.262 C137.377,37.249 141.23,37.248 141.203,43.262 L141.203,44.833" id="Fill-16"></path>
                    <path d="M149.521,44.833 L145.723,44.833 L145.723,43.262 C145.695,37.249 149.549,37.248 149.521,43.262 L149.521,44.833" id="Fill-17"></path>
                    <path d="M119.156,54.095 L106.078,54.095 L106.078,51.607 C105.981,42.095 119.252,42.094 119.156,51.607 L119.156,54.095" id="Fill-18"></path>
                    <path d="M147.624,11.189 L139.302,11.189 L139.302,9.605 C139.24,3.552 147.685,3.552 147.624,9.605 L147.624,11.189" id="Fill-19"></path>
                    <path d="M82.803,152.873 C66.019,157.028 19.561,169.162 0.325,188.397 L283.135,188.397 C263.119,168.383 229.918,155.3 212.078,152.873 C194.236,150.447 101.689,148.198 82.803,152.873" id="Fill-21"></path>
                    <path d="M40.356,172.856 C37.367,169.867 34.378,166.878 34.378,164.019 C34.378,161.159 42.696,157.26 42.696,161.159 C42.696,165.059 45.035,170.517 45.035,172.336 C45.035,174.156 40.356,172.856 40.356,172.856" id="Fill-22"></path>
                    <path d="M33.858,170.431 C30.219,167.831 28.139,165.752 26.58,166.791 C25.02,167.831 25.54,171.21 26.839,174.59 C28.139,177.969 33.858,170.431 33.858,170.431" id="Fill-23"></path>
                    <path d="M67.081,160.835 C65.47,156.927 64.844,154.172 63.09,154.385 C61.336,154.598 60.082,157.792 59.447,161.334 C58.812,164.877 67.081,160.835 67.081,160.835" id="Fill-24"></path>
                    <path d="M20.861,176.929 C21.121,174.85 18.262,172.25 15.143,174.069 C12.023,175.889 14.103,180.568 18.782,179.009 C23.46,177.448 20.861,176.929 20.861,176.929" id="Fill-25"></path>
                    <path d="M50.667,166.704 C50.927,164.106 51.447,160.206 51.187,158.906 C50.927,157.606 49.627,155.787 50.927,153.968 C52.227,152.148 53.786,153.968 54.566,156.308 C55.346,158.646 60.024,159.946 61.324,161.766 C62.624,163.585 50.667,166.704 50.667,166.704" id="Fill-26"></path>
                    <path d="M39.446,161.723 L33.208,139.108 L29.829,139.888 L37.627,162.503 L39.446,161.723" id="Fill-27"></path>
                    <path d="M25.67,144.827 L40.226,141.447 L40.746,143.787 L26.45,147.166 L25.67,144.827" id="Fill-28"></path>
                    <path d="M16.962,161.982 L23.72,155.484 L24.76,157.044 L18.002,163.022 L16.962,161.982" id="Fill-29"></path>
                    <path d="M17.742,158.084 L27.1,168.741 L28.139,167.961 L19.562,156.784 L17.742,158.084" id="Fill-30"></path>
                    <path d="M10.854,162.242 L16.832,174.979 L16.182,175.499 L9.424,163.152 L10.854,162.242" id="Fill-31"></path>
                    <path d="M7.734,166.921 L15.069,162.763 L15.273,163.672 L8.142,168.481 L7.734,166.921" id="Fill-32"></path>
                    <path d="M50.321,140.192 L52.054,140.019 L52.4,155.788 L51.707,155.962 L50.321,140.192" id="Fill-33"></path>
                    <path d="M45.469,142.271 L57.772,141.925 L57.772,143.484 L45.469,143.311 L45.469,142.271" id="Fill-34"></path>
                    <path d="M65.774,144.558 L67.469,144.958 L63.469,156.044 L62.593,155.926 L65.774,144.558" id="Fill-35"></path>
                    <path d="M62.973,145.242 L69.424,146.731 L68.86,148.369 L62.736,146.993 L62.973,145.242" id="Fill-36"></path>
                    <path d="M189.428,140.033 C189.598,140.033 189.19,140.543 189.225,141.121 C189.258,141.699 189.122,142.584 188.373,142.651 C187.625,142.72 187.49,142.311 187.252,142.686 C187.014,143.06 186.469,144.557 186.707,145.883 C186.469,145.985 186.197,145.849 186.197,145.849 C186.096,145.27 185.993,144.557 186.027,143.977 C186.061,143.603 185.822,143.536 185.822,144.182 C185.822,144.828 185.721,145.61 185.789,145.917 C185.619,145.985 185.347,145.849 185.347,145.849 C185.312,145.339 185.074,145.032 185.041,144.08 C185.006,143.128 185.211,142.277 185.041,141.733 C184.871,141.19 184.395,140.917 184.293,141.495 C184.191,142.073 183.952,142.991 183.714,143.638 C183.477,144.284 183.442,145.169 183.68,145.713 C183.408,145.849 183.068,145.543 183.068,145.543 C183,145.101 182.83,144.284 182.967,143.876 C183.102,143.468 183,143.332 182.864,143.603 C182.729,143.876 182.49,145.135 182.729,145.577 C182.456,145.577 182.218,145.543 182.184,145.27 C182.15,144.998 181.98,144.114 182.184,143.569 C182.388,143.025 182.252,142.379 182.082,141.869 C181.912,141.358 181.844,141.054 181.775,140.815 C181.707,140.577 181.537,139.625 182.354,138.469 C183.17,137.311 184.122,137.176 184.904,137.21 C185.688,137.244 186.401,138.196 186.571,138.91 C186.741,139.625 187.149,140.509 187.966,140.441 C188.781,140.373 189.122,140.033 189.428,140.033" id="Fill-37"></path>
                    <path d="M182.872,139.692 C182.295,139.475 180.883,139.252 180.995,138.355 C181.107,137.459 181.906,136.49 181.303,135.726 C180.699,134.962 179.983,135.17 179.707,135.639 C179.43,136.108 181.293,135.568 181.023,136.5 C180.852,137.091 179.993,138.482 180.71,139.267 C181.363,139.98 182.357,140.028 182.753,140 C183.148,139.973 182.872,139.692 182.872,139.692" id="Fill-38"></path>
                    <path d="M188.496,141.428 C188.496,141.493 188.586,141.546 188.695,141.546 C188.807,141.546 188.895,141.493 188.895,141.428 C188.895,141.362 188.807,141.309 188.695,141.309 C188.586,141.309 188.496,141.362 188.496,141.428" id="Fill-39"></path>
                    <path d="M187.698,141.428 C187.698,141.493 187.787,141.546 187.898,141.546 C188.008,141.546 188.098,141.493 188.098,141.428 C188.098,141.362 188.008,141.309 187.898,141.309 C187.787,141.309 187.698,141.362 187.698,141.428" id="Fill-40"></path>
                    <path d="M188.645,141.428 C188.645,141.528 188.668,141.61 188.695,141.61 C188.723,141.61 188.746,141.528 188.746,141.428 C188.746,141.326 188.723,141.244 188.695,141.244 C188.668,141.244 188.645,141.326 188.645,141.428" id="Fill-41"></path>
                    <path d="M187.848,141.428 C187.848,141.528 187.87,141.61 187.898,141.61 C187.926,141.61 187.947,141.528 187.947,141.428 C187.947,141.326 187.926,141.244 187.898,141.244 C187.87,141.244 187.848,141.326 187.848,141.428" id="Fill-42"></path>
                    <path d="M225.67,168.715 C226.585,168.431 227.33,168.724 228.301,168.747 C229.561,168.777 230.676,168.853 231.844,168.235 C232.965,167.641 232.982,166.764 233.834,165.909 C234.561,165.178 236.508,158.602 237.021,157.685 C237.471,156.88 240.888,143.694 241.165,142.8 C243.955,133.806 246.822,127.15 246.873,126.009 C246.899,125.426 246.793,124.853 246.67,124.283 C246.578,123.864 246.558,122.88 246.343,122.553 C246.02,122.063 244.521,121.987 243.943,121.828 C242.932,121.552 242.299,120.929 241.771,119.99 C241.126,118.832 240.696,118.477 239.391,118.148 C238.468,117.916 238.093,118.248 237.38,118.823 C236.654,119.41 236.354,120.245 235.929,121.09 C235.469,122 235.625,123.132 234.856,123.914 C234.215,124.564 232.977,124.86 232.209,124.171 C231.453,123.489 231.398,122.498 230.49,121.926 C230.093,121.676 229.741,121.093 229.379,120.912 C228.761,120.606 228.722,121.003 228.34,121.377 C227.83,121.877 227.197,123.033 226.41,122.783 C227.529,122.28 227.45,120.555 227.875,119.618 C227.406,119.227 227.475,118.873 226.867,118.598 C226.299,118.339 225.846,118.317 225.462,117.76 C225.901,117.89 226.353,118.018 226.8,118.106 C227.146,117.383 226.607,116.547 227.01,115.878 C227.251,115.478 227.649,115.349 227.846,114.904 C228.021,114.501 227.865,114.132 228.301,113.862 C228.699,114.327 227.966,115.379 227.914,115.934 C227.889,116.212 227.881,116.92 228.113,117.091 C228.482,117.36 228.639,116.835 229.023,116.686 C229.514,116.497 229.714,116.709 230.207,116.745 C230.797,116.786 230.626,116.659 231.051,116.398 C231.846,115.907 232.607,115.7 233.291,115.089 C232.895,115.979 232.191,116.904 231.18,117.234 C230.732,117.38 229.918,117.36 229.809,117.906 C229.718,118.357 230.427,118.666 230.812,118.923 C230.76,119.262 230.883,119.595 231.133,119.845 C231.179,119.892 231.91,120.317 231.927,120.315 C232.615,120.211 232.295,119.092 232.525,118.725 C233.322,119.207 232.172,120.679 232.58,121.309 C233.451,122.659 233.785,119.902 233.859,119.529 C234.028,118.683 234.711,117.914 235.207,117.22 C235.62,116.644 236.148,114.7 234.722,115.421 C235.045,115.489 235.311,115.305 235.641,115.314 C235.883,115.319 236.369,115.624 236.48,115.614 C237.497,115.529 237.16,114.541 236.801,114.059 C236.322,113.422 236.017,112.548 235.408,112.033 C234.914,111.614 234.166,111.108 234.312,110.301 C234.514,110.641 236.182,112.229 236.292,112.185 C236.598,112.063 236.429,111.302 236.77,111.036 C237.187,110.716 237.834,110.982 238.23,110.606 C237.914,110.801 237.195,111.524 237.211,111.867 C237.227,112.264 237.691,112.311 237.846,112.56 C238.015,112.838 237.935,113.197 238.08,113.477 C238.382,114.053 238.822,114.028 239.451,114.114 C240.178,114.215 240.302,114.145 240.31,113.343 C240.785,113.541 240.619,113.988 240.888,114.315 C241.142,114.629 241.57,114.685 241.898,114.922 C242.643,115.461 242.799,116.383 243.373,116.993 C243.705,117.349 243.928,117.278 244.391,117.332 C244.93,117.394 244.985,117.466 245.484,117.713 C246.137,118.036 247.348,118.137 246.932,117.032 C246.814,116.724 246.357,116.516 246.254,116.188 C246.07,115.62 246.41,115.747 246.612,115.183 C246.798,114.669 246.727,113.214 246.324,112.802 C245.984,112.454 245.487,112.443 245.016,112.534 C244.519,112.63 244.404,112.902 243.967,113.039 C243.076,113.315 242.433,112.419 241.884,111.89 C241.248,111.278 241.067,111.021 240.777,110.238 C240.52,109.541 239.822,109.462 239.557,108.839 C239.48,108.953 239.262,109.103 239.197,109.243 C239.091,108.099 239.385,108.415 240.153,108.961 C241.032,107.986 240.848,106.436 240.824,105.379 C240.797,103.991 238.516,103.393 238.873,102.112 C239.426,102.708 240.887,103.763 241.398,102.589 C241.531,102.279 241.535,101.399 241.527,101.059 C241.512,100.424 240.986,99.755 240.363,99.553 C240.11,99.473 239.891,99.504 239.632,99.521 C239.496,99.53 239.453,99.712 239.309,99.725 C239.168,99.737 239.006,99.598 238.874,99.621 C238.106,99.765 238.259,99.932 237.784,100.529 C237.464,100.934 237.02,101.211 236.562,101.402 C236.001,101.636 235.777,101.392 235.099,101.439 C235.105,101.331 235.132,101.241 235.178,101.141 C235.646,101.356 236.564,100.885 236.814,100.458 C237.274,99.673 236.342,99.484 235.971,100.2 C235.323,99.94 235.092,100.137 234.742,100.644 C234.653,100.77 234.842,101.382 234.412,101.192 C234.274,101.132 234.285,100.472 234.336,100.354 C234.515,99.945 235.439,99.877 235.606,99.401 C235.837,98.754 235.06,98.546 234.578,98.567 C234.428,98.22 234.095,97.822 234.192,97.474 C234.908,97.955 235.523,98.699 236.482,98.602 C237.518,98.499 237.113,97.317 237.461,96.696 C237.645,96.367 238.072,96.262 238.156,95.757 C238.234,95.276 238.053,94.847 237.714,94.517 C236.99,93.812 235.594,93.105 237.145,92.555 C237.051,93.674 238.726,94.453 239.148,95.468 C239.291,95.81 239.3,98.912 240.334,97.508 C240.606,97.138 240.357,96.521 240.453,96.089 C240.595,95.44 240.893,95.25 240.602,94.563 C240.213,93.648 238.756,92.675 239.627,91.579 C239.594,92.462 241.318,95.184 242.388,94.609 C242.738,95.221 241.982,95.136 241.81,95.528 C241.615,95.972 242.051,96.161 242.068,96.513 C242.115,97.438 240.597,97.374 241.201,98.472 C241.404,98.842 241.758,98.961 242.117,99.178 C242.297,99.285 242.897,99.895 243.028,99.909 C243.654,99.979 244.181,98.644 244.939,98.573 C245.461,99.216 244.495,99.038 244.303,99.311 C244.185,99.477 244.292,99.741 244.237,99.848 C244.207,99.906 244.034,100.224 243.998,100.311 C243.904,100.536 243.487,101.062 243.498,101.307 C243.518,101.779 244.021,102.036 244.435,101.838 C244.124,102.508 243.824,102.966 243.754,103.76 C243.676,104.644 244.227,105.297 243.937,106.203 C243.775,106.709 243.354,107.711 243.662,108.251 C244.219,109.23 245.469,108.019 246.001,107.755 C246.731,107.393 247.696,107.934 248.13,107.057 C248.297,106.718 248.062,106.294 248.395,105.999 C248.709,105.72 249.234,105.945 249.564,105.787 C250.295,105.435 250.258,104.443 249.898,103.825 C249.508,103.157 248.502,102.895 248.242,102.189 C248.373,102.204 248.596,102.104 248.766,102.133 C249.465,100.857 246.658,100.823 246.829,100.18 C247.143,100.242 247.904,100.594 248.154,100.432 C248.574,100.159 248.195,99.423 248.867,99.334 C248.332,100.314 249.025,101.076 249.963,100.731 C249.963,101.207 249.415,101.217 249.379,101.574 C249.373,101.636 249.865,102.578 249.933,102.644 C250.186,102.893 250.603,102.924 250.863,102.617 C251.153,102.273 250.923,102.023 251.141,101.599 C252.165,101.766 251.58,99.727 252.685,100.168 C252.822,100.742 252.278,100.534 252.165,100.864 C252.092,101.082 252.266,101.686 252.317,101.895 C252.41,102.257 252.156,102.27 252.712,102.557 C253.119,102.766 253.486,102.305 253.561,103.151 C253.191,103.206 252.881,102.958 252.52,102.939 C252.228,102.924 252.336,102.797 252.02,103.011 C251.579,103.311 251.859,103.236 251.799,103.595 C251.742,103.931 251.778,104.301 251.698,104.672 C251.657,104.863 251.56,104.956 251.556,105.182 C251.549,105.574 251.918,105.9 251.922,106.203 C251.932,107.181 250.375,107.015 250.201,107.86 C250.037,108.662 251.112,109.189 250.074,109.759 C249.491,110.079 248.433,110.133 248.28,111.029 C248.195,111.538 248.816,113.069 249.072,113.516 C250.563,116.124 252.786,111.484 253.404,110.363 C254.06,109.172 254.403,107.997 254.749,106.669 C255.059,105.485 256.078,104.885 256.448,103.723 C256.701,102.932 256.766,101.276 256.17,100.609 C255.707,100.091 255.074,100.173 254.803,99.427 C254.565,98.771 255.008,98.618 255.08,98.058 C255.028,98.132 254.918,98.241 254.858,98.31 C255.633,97.94 255.087,95.973 254.793,95.381 C254.709,95.211 254.613,95.038 254.549,94.86 C254.47,94.64 254.462,94.235 254.392,94.077 C254.131,93.496 253.137,93.385 253.09,92.829 C253.182,92.864 253.32,92.872 253.42,92.889 C253.518,92.591 253.601,92.276 253.662,91.97 C253.183,91.745 252.839,91.565 252.456,91.292 C251.998,90.964 251.689,90.598 251.082,90.987 C250.797,90.717 250.426,90.505 250.35,90.065 C250.819,89.741 251.146,91 251.614,90.313 C252.013,89.727 250.937,89.457 251.211,88.841 C251.912,88.769 251.192,88.107 250.866,87.997 C250.307,87.806 250.017,88.068 249.6,88.213 C248.865,88.465 248.887,88.301 248.195,88.022 C247.691,87.819 247.199,87.8 246.725,88.07 C246.73,87.831 246.699,87.587 246.635,87.352 C247.033,87.394 247.33,87.68 247.728,87.701 C247.917,87.711 248.162,87.507 248.326,87.526 C248.529,87.552 248.658,87.725 248.816,87.755 C249.309,87.851 249.174,88.019 249.731,87.678 C250.055,87.48 250.279,87.094 250.666,87.386 C251.688,86.73 249.551,84.887 249.148,86.797 C248.668,86.442 247.711,86.55 247.091,86.342 C247.164,85.928 247.67,85.619 247.785,86.155 C248.752,86.487 249.18,85.855 249.883,85.461 C250.342,85.204 250.191,85.237 250.504,84.777 C250.744,84.424 251.217,84.069 251.199,84.875 C250.902,85.07 251.012,85.35 251.362,85.455 C251.539,85.233 251.602,84.931 251.648,84.636 C251.348,84.392 251.119,83.841 250.954,83.497 C250.636,82.833 250.721,82.845 251.031,82.25 C251.261,81.813 251.342,81.696 251.281,81.144 C251.234,80.71 250.961,80.244 251.382,79.891 C251.35,80.15 251.415,80.355 251.462,80.619 C251.537,81.046 251.543,81.073 251.515,81.46 C251.507,81.56 251.395,81.695 251.383,81.794 C251.365,81.958 251.475,82.121 251.465,82.274 C251.439,82.602 251.648,82.761 251.286,83.061 C251.867,83.464 252.205,83.717 252.576,82.936 C252.855,82.35 252.898,81.744 253.77,81.815 C253.85,82.187 253.42,82.238 253.221,82.555 C253.088,82.769 253.069,83.227 252.994,83.491 C253.727,84.153 254.103,83.472 254.872,83.3 C255.102,84.12 253.611,84.283 253.363,85.075 C253.301,85.277 253.371,85.523 253.32,85.706 C253.264,85.907 252.996,86.037 252.977,86.259 C252.937,86.684 253.267,86.903 253.379,87.282 C253.492,87.665 253.33,90.101 254.352,89.015 C254.76,88.582 254.099,86.563 255.094,86.831 C254.836,87.215 255.135,87.764 255.131,88.208 C255.127,88.671 254.828,89.16 254.846,89.608 C254.855,89.81 255.119,89.977 255.129,90.23 C255.139,90.461 255.005,90.696 254.965,90.921 C254.875,91.428 254.824,92.043 255.441,92.245 C256.736,92.667 256.395,90.512 256.445,89.843 C256.484,89.325 256.853,89.081 256.959,88.6 C257.096,87.987 256.723,87.521 256.467,87.017 C256.681,86.986 256.953,87.029 257.153,87.102 C257.135,87.682 257.315,89.142 257.68,89.341 C258.202,89.626 259.207,89.043 259.77,89.068 C260.703,89.109 261.637,89.332 262.094,88.304 C262.404,87.603 262.566,86.817 262.85,86.114 C263.141,85.395 263.295,84.65 263.529,83.904 C263.636,83.567 264.841,81.694 265.13,82.671 C265.291,83.215 263.822,84.01 264.053,84.688 C264.303,85.43 265.64,83.973 266.153,84.778 C266.245,84.922 266.237,85.098 266.199,85.241 C265.435,84.898 265.201,85.699 264.646,85.945 C264.053,86.208 263.121,85.898 263.378,86.898 C263.57,87.649 264.039,87.102 264.201,87.286 C264.613,87.752 264.145,87.557 263.904,87.701 C263.682,87.835 263.213,87.632 263.339,88.176 C263.413,88.503 263.769,88.441 264.049,88.551 C264.305,88.651 264.75,88.398 264.694,88.9 C264.648,89.329 264.254,89.113 263.976,89.172 C263.533,89.268 263.614,88.951 263.348,89.464 C263.145,89.853 263.574,89.998 263.125,90.306 C262.764,90.551 262.621,90.078 262.353,90.487 C262.145,90.806 262.969,91.018 262.141,91.239 C261.711,91.355 261.611,91.017 261.305,90.936 C260.969,90.849 260.598,90.873 260.257,90.773 C260.205,91.314 259.85,91.294 259.441,91.373 C258.906,91.476 258.781,91.394 258.293,91.802 C257.544,92.43 257.551,92.855 257.703,93.689 C257.863,94.577 257.553,95.1 257.592,95.936 C257.607,96.282 257.451,96.699 257.486,97.013 C257.537,97.455 257.898,97.738 258.078,98.177 C258.463,99.116 258.862,99.787 259.378,100.639 C259.884,101.473 259.48,102.056 259.325,102.922 C259.168,103.807 259.27,104.305 259.559,105.102 C259.656,105.377 259.621,105.936 259.891,105.996 C260.133,106.049 260.848,105.38 260.999,105.203 C261.369,104.767 261.512,104.195 261.621,103.621 C261.834,102.517 261.094,102.882 260.756,102.102 C260.576,101.686 260.895,101.71 260.904,101.409 C260.914,101.064 260.802,100.636 260.565,100.327 C260.398,100.111 259.168,99.019 260.222,99.127 C260.181,99.27 260.576,100.111 260.693,100.165 C261.218,100.407 261.359,99.967 261.357,99.413 C261.355,99.141 261.092,98.168 260.975,98.025 C260.715,97.704 260.06,97.786 259.869,97.466 C259.791,97.333 259.828,97.044 259.902,96.916 C260.145,96.496 260.082,96.794 260.378,96.86 C260.787,96.953 261.006,97.462 261.371,96.939 C261.652,96.537 261.22,95.87 261.496,95.407 C261.737,95.004 262.353,94.811 262.826,94.78 C262.771,95.154 262.455,94.972 262.312,95.182 C262.029,95.595 262.147,95.48 262.161,95.953 C262.174,96.436 262.201,96.977 262.36,97.456 C262.441,97.699 262.672,97.821 262.692,98.109 C262.723,98.519 262.507,98.505 262.42,98.773 C262.298,99.158 262.156,99.047 262.26,99.47 C262.332,99.764 262.609,100.105 262.893,100.134 C263.041,100.616 263.678,100.559 263.915,100.184 C264.19,99.749 263.621,99.256 263.986,98.929 C264.041,98.881 265.076,98.761 265.238,98.719 C265.815,98.572 266.053,98.415 266.547,98.123 C267.32,97.667 268.242,98.039 268.783,97.061 C269.213,96.285 268.606,95.182 269.838,95.056 C269.299,95.148 269.326,95.626 269.732,95.901 C270.041,95.876 271.648,93.985 271.453,95.264 C270.768,95.365 271.183,95.698 271.066,96.01 C270.932,96.368 270.838,96.452 270.551,96.721 C270.114,97.131 269.27,97.672 270.143,98.155 C270.74,98.486 271.684,97.702 272.062,98.569 C272.331,99.183 271.978,98.941 271.687,98.934 C271.527,98.93 271.49,98.716 271.285,98.705 C271.034,98.692 271.07,99.015 270.828,99.059 C270.113,99.187 269.647,98.558 269.026,99.331 C268.788,99.628 268.832,99.776 268.548,100.028 C268.372,100.183 267.888,100.527 267.659,100.626 C266.806,100.991 266.549,100.596 266.193,101.613 C265.995,102.18 265.355,102.656 265.223,103.271 C265.316,103.362 265.485,103.444 265.602,103.468 C265.763,103.166 265.794,102.779 266.143,102.808 C266.293,103.34 265.147,104.313 266.615,104.209 C266.98,104.186 268.293,103.222 268.133,104.34 C267.424,104.201 267.807,104.836 267.494,105.085 C267.047,105.443 266.703,104.956 266.239,104.933 C265.537,104.898 265.707,105.394 265.238,105.614 C264.775,105.831 264.32,105.335 263.889,105.481 C263.506,105.61 262.599,107.522 263.202,107.725 C263.739,107.904 263.676,106.977 264.074,106.837 C264.62,106.645 264.822,107.175 264.38,107.476 C264.897,108.305 265.96,107.352 266.492,107.111 C266.824,106.961 267.197,106.775 267.508,107.083 C268.152,107.716 267.309,107.443 267.137,107.445 C266.722,107.452 266.578,107.255 266.166,107.652 C265.9,107.907 265.619,108.112 266.127,108.481 C266.534,108.777 267.978,108.307 267.85,109.229 C267.553,109.227 267.404,108.945 267.092,108.995 C266.77,109.046 266.639,109.49 266.308,109.534 C265.739,109.611 265.283,108.956 264.709,109.056 C263.892,109.197 263.935,109.772 263.99,110.314 C264.047,110.887 264.074,111.444 263.262,111.027 C263.211,110.626 263.508,110.401 263.5,110.021 C263.489,109.605 263.129,109.494 263.322,108.953 C262.714,108.939 262.695,109.274 262.257,109.488 C261.699,109.761 261.252,109.34 260.719,109.468 C259.73,109.705 260.48,110.847 260.057,111.571 C259.488,112.542 258.551,112.376 259.025,113.775 C259.23,114.383 259.691,114.949 259.85,115.56 C260.018,116.224 259.736,116.706 260.183,117.307 C260.633,117.911 261.315,118.044 261.639,118.771 C261.893,119.341 261.842,119.792 261.847,120.416 C261.856,121.545 262.562,122.285 262.732,123.402 C262.896,124.483 262.804,125.926 263.781,126.717 C264.645,127.418 266.197,126.975 266.877,126.14 C267.793,125.013 266.859,123.775 267.328,122.612 C267.469,122.268 267.942,122.177 268.037,121.771 C268.18,121.157 267.223,120.73 266.795,120.525 C265.924,120.108 265.291,120.287 264.412,120.169 C263.18,120.004 263.859,119.293 263.632,118.602 C263.572,118.423 262.807,117.675 263.623,117.952 C263.896,118.045 264.041,118.926 264.19,118.994 C265.39,119.538 264.629,117.321 264.605,117.008 C264.562,116.443 264.816,115.717 265.446,115.567 C266.197,115.39 265.955,115.782 265.652,116.178 C265.228,116.729 265.158,116.471 265.295,117.186 C265.346,117.455 265.445,118.229 265.633,118.405 C266.402,119.13 266.712,117.613 267.228,117.51 C268.064,117.343 268.595,118.49 268.741,119.111 C268.817,119.434 268.95,121.225 269.633,120.172 C269.887,119.779 269.357,119.523 269.897,119.247 C270.178,119.102 270.584,119.365 270.908,119.248 C271.33,119.095 271.305,118.861 271.609,118.583 C272.062,118.17 272.29,118.345 272.764,118.136 C273.802,117.677 273.06,115.803 272.613,115.012 C272.395,114.626 271.41,114.019 271.803,113.483 C272.045,113.154 272.614,113.279 272.785,113.468 C272.852,113.541 272.996,114.22 273.053,114.365 C273.202,114.74 273.004,115.093 273.657,115.064 C274.027,114.612 273.729,114.373 273.504,113.936 C273.187,113.316 273.234,113.483 273.437,112.889 C273.662,112.224 273.812,111.957 273.315,111.259 C273.041,110.875 272.662,110.405 272.182,110.638 C272.393,110.431 273.076,109.53 273.457,109.612 C274.033,109.735 273.868,110.864 273.194,110.305 C273.256,110.921 274.468,111.489 273.975,112.302 C274.91,112.561 274.473,111.342 274.594,110.931 C275.015,110.897 275.317,110.48 275.734,110.679 C275.77,111.562 274.851,110.847 275.029,111.654 C275.077,111.879 275.411,111.869 275.452,112.15 C275.483,112.365 275.283,112.733 275.172,112.893 C275.459,113.032 276.021,113.111 276.324,113.008 C276.68,112.887 277.071,112.196 277.491,112.429 C278.354,112.906 277.161,113.116 277.119,113.144 C276.911,113.279 276.373,113.593 276.155,113.902 C275.899,114.263 276.069,114.784 275.932,115.203 C275.714,115.866 275.44,115.708 274.956,116.087 C274.199,116.679 274.082,117.667 274.304,118.552 C275.081,118.557 274.727,117.549 275.105,117.183 C275.581,116.724 276.25,117.094 276.419,116.186 C277.453,116.689 275.801,116.939 276.114,117.634 C276.478,118.439 277.851,117.85 277.65,119.084 C277.34,119.171 277.025,119.026 276.911,118.71 C276.334,118.648 276.504,119.194 276.122,119.39 C275.494,119.709 275.372,119.193 274.955,119.926 C274.766,120.261 274.807,120.618 274.493,120.91 C274.227,121.157 273.486,121.17 273.317,121.511 C272.872,122.401 274.431,122.21 274.865,121.925 C275.183,121.716 277.012,120.023 276.987,121.381 C276.975,122.108 276.5,121.351 276.174,121.55 C275.624,121.886 276.457,122.196 276.582,122.467 C276.7,122.72 276.685,123.497 276.204,123.277 C275.957,123.165 276.019,122.46 275.718,122.266 C275.265,121.974 275.284,122.265 274.874,122.41 C274.556,122.524 273.955,122.438 273.708,122.625 C273.17,123.034 273.859,124.714 272.769,124.013 C272.603,123.905 272.586,123.643 272.627,123.456 C272.213,123.424 272.102,123.862 271.988,124.194 C271.787,124.776 271.897,125.059 271.473,125.458 C270.972,125.931 269.133,126.495 270.544,127.218 C271.741,127.831 272.215,126.199 272.998,125.587 C274.122,124.71 274.571,124.73 275.624,125.46 C275.824,125.599 276.018,125.706 276.244,125.78 C276.601,125.894 276.956,125.692 277.185,125.75 C277.439,125.814 278.005,126.187 277.694,126.628 C277.62,126.733 275.677,126.923 275.416,126.877 C274.954,126.795 274.824,126.295 274.256,126.472 C273.858,126.595 273.72,127.031 273.477,127.348 C273.256,127.634 272.855,127.889 272.83,128.28 C272.809,128.617 273.617,129.321 273.543,129.482 C273.387,129.819 272.685,129.545 272.564,129.302 C271.773,129.691 272.395,130.979 272.96,131.347 C274.105,132.094 274.742,131.138 275.755,130.798 C276.279,130.621 276.435,130.61 276.924,130.28 C277.19,130.101 278.019,129.519 278.031,130.208 C278.043,130.842 277.361,130.352 277.13,130.517 C276.774,130.773 276.915,131.267 277.098,131.546 C277.303,131.861 277.781,131.802 277.921,132.011 C278.25,132.508 277.739,132.593 277.343,132.422 C277.058,132.299 276.923,131.86 276.512,131.757 C276.275,131.697 275.612,131.706 275.397,131.805 C275.204,131.892 275.133,132.117 275.03,132.174 C274.969,132.207 274.535,132.344 274.499,132.394 C274.217,132.777 274.407,133.219 274.205,133.606 C273.991,134.016 273.769,134.003 273.477,133.506 C273.219,133.066 273.629,132.605 273.516,132.319 C273.543,132.269 273.552,132.215 273.543,132.158 C273.254,132.01 272.725,132.037 272.411,132.029 C272.175,132.023 272.008,131.85 271.767,131.943 C271.56,132.025 271.69,132.357 271.543,132.424 C271.088,132.633 270.736,132.564 270.67,132.028 C270.582,131.304 271.045,131.684 271.381,131.299 C271.785,130.836 271.458,129.549 271.141,129.12 C270.773,128.622 270.808,128.917 270.308,128.805 C269.824,128.694 269.797,128.308 269.445,128.144 C268.857,127.865 267.883,128.748 267.304,129.121 C266.375,129.718 265.518,130.232 264.363,129.808 C263.278,129.408 262.782,128.197 261.915,127.5 C260.866,126.658 259.588,126.277 259.111,124.843 C257.9,124.826 258.191,125.794 257.75,126.592 C257.295,127.422 256.448,127.769 256.08,128.732 C254.34,133.276 253.047,142.085 252.834,143.224 C251.59,149.861 249.555,152.907 248.514,158.778 C248.37,159.584 247.453,166.095 247.609,166.838 C247.869,168.07 246.908,170.149 247.205,171.376 C247.363,172.03 247.695,172.197 248.098,172.72 C248.444,173.174 248.553,173.764 249.001,174.135 C249.572,174.608 250.33,174.575 250.972,174.787 C251.55,174.981 251.924,175.346 252.357,175.799 C252.788,176.245 252.781,176.277 253.365,176.503 C253.897,176.71 254.072,176.8 254.216,177.372 C254.51,178.561 253.531,178.305 252.732,178.195 C251.768,178.065 250.895,178.056 249.92,177.798 C248.584,177.444 247.248,177.544 245.943,177.118 C245.066,176.832 244.265,176.433 243.352,176.239 C242.269,176.01 241.02,176.336 240.012,175.876 C239.455,175.621 238.998,175.219 238.4,175.019 C237.756,174.804 237.095,174.809 236.43,174.715 C235.439,174.574 234.476,174.261 233.51,174.007 C231.957,173.598 230.287,173.149 228.797,172.555 C227.719,172.126 226.892,171.311 225.785,170.951 C225.08,170.724 223.29,170.704 223.402,169.564 C223.501,168.578 224.986,168.93 225.67,168.715" id="Fill-58"></path>
                    <rect id="Rectangle-1" x="1" y="188" width="282" height="49"></rect>
                </g>
                <g id="bats-layer-2" transform="translate(39.000000, 0.000000)" opacity="0.70207556" sketch:type="MSShapeGroup">
                    <path d="M39.371,120.06 C39.494,121.002 38.943,122.379 38.373,121.955 C37.803,121.531 37.784,121.352 37.777,120.795 C37.654,121.099 37.545,121.304 37.391,121.374 C37.226,121.412 37.012,121.318 36.73,121.152 C37.066,121.599 37.158,121.752 36.967,122.435 C36.776,123.119 35.498,122.365 35.017,121.547 C34.093,121.818 33.182,123.423 32.939,125.398 C33.546,124.123 34.266,124.134 34.506,124.252 C34.715,124.355 34.494,124.774 35.206,125.02 C34.97,124.67 35.156,124.476 35.385,124.399 C35.748,124.274 36.123,124.823 36.547,125.031 C36.338,124.42 37.03,124.166 37.406,124.224 C37.832,124.288 38.227,124.878 38.911,125.825 C38.873,124.659 38.824,123.95 39.12,123.639 C39.384,123.361 40.085,123.14 40.295,123.753 C40.504,123.326 40.463,122.664 40.827,122.539 C41.055,122.461 41.321,122.5 41.347,122.923 C41.761,122.293 41.329,122.095 41.431,121.887 C41.549,121.646 42.112,121.197 43.373,121.834 C41.973,120.421 40.27,119.707 39.371,120.06" id="Fill-49"></path>
                    <path d="M170.525,149.152 C170.631,149.977 170.145,151.18 169.646,150.808 C169.149,150.435 169.133,150.278 169.128,149.791 C169.02,150.056 168.924,150.235 168.789,150.297 C168.645,150.33 168.457,150.247 168.211,150.101 C168.504,150.492 168.584,150.626 168.416,151.224 C168.246,151.823 167.13,151.159 166.711,150.441 C165.901,150.676 165.1,152.078 164.881,153.807 C165.416,152.692 166.047,152.703 166.257,152.808 C166.439,152.898 166.244,153.264 166.867,153.481 C166.66,153.174 166.824,153.005 167.025,152.939 C167.344,152.83 167.668,153.311 168.04,153.496 C167.859,152.96 168.465,152.738 168.795,152.791 C169.167,152.848 169.511,153.365 170.107,154.196 C170.076,153.177 170.037,152.555 170.296,152.284 C170.527,152.042 171.142,151.85 171.324,152.387 C171.51,152.014 171.475,151.434 171.793,151.326 C171.993,151.258 172.227,151.292 172.246,151.662 C172.611,151.112 172.234,150.939 172.323,150.756 C172.428,150.547 172.922,150.155 174.023,150.716 C172.802,149.476 171.314,148.846 170.525,149.152" id="Fill-51"></path>
                    <path d="M5.376,162.51 C5.732,163.261 5.643,164.556 5.054,164.356 C4.465,164.156 4.401,164.013 4.246,163.551 C4.225,163.836 4.19,164.036 4.08,164.138 C3.953,164.214 3.749,164.192 3.469,164.13 C3.87,164.41 3.987,164.514 4.013,165.134 C4.037,165.756 2.77,165.471 2.15,164.919 C1.453,165.393 1.126,166.974 1.454,168.685 C1.616,167.46 2.219,167.275 2.452,167.309 C2.652,167.338 2.581,167.746 3.241,167.761 C2.95,167.532 3.052,167.321 3.223,167.196 C3.491,166.993 3.95,167.351 4.36,167.41 C4.022,166.956 4.529,166.559 4.859,166.506 C5.23,166.444 5.718,166.83 6.542,167.436 C6.197,166.476 5.967,165.896 6.129,165.559 C6.274,165.256 6.798,164.883 7.139,165.337 C7.198,164.925 6.986,164.385 7.255,164.184 C7.424,164.057 7.656,164.018 7.791,164.362 C7.967,163.727 7.554,163.679 7.582,163.477 C7.616,163.246 7.965,162.721 9.186,162.912 C7.64,162.111 6.031,161.974 5.376,162.51" id="Fill-52" transform="translate(5.255964, 165.437131) rotate(70.000000) translate(-5.255964, -165.437131) "></path>
                    <path d="M18.376,142.51 C18.732,143.261 18.643,144.556 18.054,144.356 C17.465,144.156 17.401,144.013 17.246,143.551 C17.225,143.836 17.19,144.036 17.08,144.138 C16.953,144.214 16.749,144.192 16.469,144.13 C16.87,144.41 16.987,144.514 17.013,145.134 C17.037,145.756 15.77,145.471 15.15,144.919 C14.453,145.393 14.126,146.974 14.454,148.685 C14.616,147.46 15.219,147.275 15.452,147.309 C15.652,147.338 15.581,147.746 16.241,147.761 C15.95,147.532 16.052,147.321 16.223,147.196 C16.491,146.993 16.95,147.351 17.36,147.41 C17.022,146.956 17.529,146.559 17.859,146.506 C18.23,146.444 18.718,146.83 19.542,147.436 C19.197,146.476 18.967,145.896 19.129,145.559 C19.274,145.256 19.798,144.883 20.139,145.337 C20.198,144.925 19.986,144.385 20.255,144.184 C20.424,144.057 20.656,144.018 20.791,144.362 C20.967,143.727 20.554,143.679 20.582,143.477 C20.616,143.246 20.965,142.721 22.186,142.912 C20.64,142.111 19.031,141.974 18.376,142.51" id="Fill-52-Copy"></path>
                    <path d="M46.339,88.606 C46.881,89.643 46.831,91.469 45.992,91.222 C45.153,90.974 45.054,90.776 44.809,90.134 C44.796,90.538 44.757,90.821 44.609,90.969 C44.434,91.084 44.149,91.064 43.751,90.993 C44.329,91.366 44.502,91.503 44.571,92.375 C44.641,93.247 42.843,92.921 41.94,92.177 C40.985,92.885 40.617,95.127 41.176,97.513 C41.337,95.781 42.173,95.487 42.501,95.521 C42.785,95.551 42.709,96.131 43.638,96.112 C43.213,95.807 43.347,95.505 43.577,95.318 C43.945,95.019 44.61,95.495 45.191,95.555 C44.689,94.936 45.379,94.349 45.841,94.255 C46.359,94.149 47.067,94.662 48.26,95.467 C47.718,94.134 47.361,93.335 47.57,92.851 C47.758,92.417 48.475,91.863 48.978,92.481 C49.037,91.9 48.708,91.152 49.077,90.853 C49.307,90.666 49.631,90.598 49.841,91.075 C50.051,90.17 49.467,90.126 49.497,89.841 C49.531,89.514 49.991,88.756 51.718,88.955 C49.498,87.917 47.228,87.817 46.339,88.606" id="Fill-55-Copy-2"></path>
                    <path d="M34.2216617,53.9178586 C34.7636617,54.9548586 34.7136617,56.7808586 33.8746617,56.5338586 C33.0356617,56.2858586 32.9366617,56.0878586 32.6916617,55.4458586 C32.6786617,55.8498586 32.6396617,56.1328586 32.4916617,56.2808586 C32.3166617,56.3958586 32.0316617,56.3758586 31.6336617,56.3048586 C32.2116617,56.6778586 32.3846617,56.8148586 32.4536617,57.6868586 C32.5236617,58.5588586 30.7256617,58.2328586 29.8226617,57.4888586 C28.8676617,58.1968586 28.4996617,60.4388586 29.0586617,62.8248586 C29.2196617,61.0928586 30.0556617,60.7988586 30.3836617,60.8328586 C30.6676617,60.8628586 30.5916617,61.4428586 31.5206617,61.4238586 C31.0956617,61.1188586 31.2296617,60.8168586 31.4596617,60.6298586 C31.8276617,60.3308586 32.4926617,60.8068586 33.0736617,60.8668586 C32.5716617,60.2478586 33.2616617,59.6608586 33.7236617,59.5668586 C34.2416617,59.4608586 34.9496617,59.9738586 36.1426617,60.7788586 C35.6006617,59.4458586 35.2436617,58.6468586 35.4526617,58.1628586 C35.6406617,57.7288586 36.3576617,57.1748586 36.8606617,57.7928586 C36.9196617,57.2118586 36.5906617,56.4638586 36.9596617,56.1648586 C37.1896617,55.9778586 37.5136617,55.9098586 37.7236617,56.3868586 C37.9336617,55.4818586 37.3496617,55.4378586 37.3796617,55.1528586 C37.4136617,54.8258586 37.8736617,54.0678586 39.6006617,54.2668586 C37.3806617,53.2288586 35.1106617,53.1288586 34.2216617,53.9178586" id="Fill-55-Copy" transform="translate(34.198158, 58.110868) rotate(48.000000) translate(-34.198158, -58.110868) "></path>
                    <path d="M14.2216617,73.9178586 C14.7636617,74.9548586 14.7136617,76.7808586 13.8746617,76.5338586 C13.0356617,76.2858586 12.9366617,76.0878586 12.6916617,75.4458586 C12.6786617,75.8498586 12.6396617,76.1328586 12.4916617,76.2808586 C12.3166617,76.3958586 12.0316617,76.3758586 11.6336617,76.3048586 C12.2116617,76.6778586 12.3846617,76.8148586 12.4536617,77.6868586 C12.5236617,78.5588586 10.7256617,78.2328586 9.82266168,77.4888586 C8.86766168,78.1968586 8.49966168,80.4388586 9.05866168,82.8248586 C9.21966168,81.0928586 10.0556617,80.7988586 10.3836617,80.8328586 C10.6676617,80.8628586 10.5916617,81.4428586 11.5206617,81.4238586 C11.0956617,81.1188586 11.2296617,80.8168586 11.4596617,80.6298586 C11.8276617,80.3308586 12.4926617,80.8068586 13.0736617,80.8668586 C12.5716617,80.2478586 13.2616617,79.6608586 13.7236617,79.5668586 C14.2416617,79.4608586 14.9496617,79.9738586 16.1426617,80.7788586 C15.6006617,79.4458586 15.2436617,78.6468586 15.4526617,78.1628586 C15.6406617,77.7288586 16.3576617,77.1748586 16.8606617,77.7928586 C16.9196617,77.2118586 16.5906617,76.4638586 16.9596617,76.1648586 C17.1896617,75.9778586 17.5136617,75.9098586 17.7236617,76.3868586 C17.9336617,75.4818586 17.3496617,75.4378586 17.3796617,75.1528586 C17.4136617,74.8258586 17.8736617,74.0678586 19.6006617,74.2668586 C17.3806617,73.2288586 15.1106617,73.1288586 14.2216617,73.9178586" id="Fill-55-Copy-3" transform="translate(14.198158, 78.110868) rotate(32.000000) translate(-14.198158, -78.110868) "></path>
                    <path d="M106.339,38.606 C106.881,39.643 106.831,41.469 105.992,41.222 C105.153,40.974 105.054,40.776 104.809,40.134 C104.796,40.538 104.757,40.821 104.609,40.969 C104.434,41.084 104.149,41.064 103.751,40.993 C104.329,41.366 104.502,41.503 104.571,42.375 C104.641,43.247 102.843,42.921 101.94,42.177 C100.985,42.885 100.617,45.127 101.176,47.513 C101.337,45.781 102.173,45.487 102.501,45.521 C102.785,45.551 102.709,46.131 103.638,46.112 C103.213,45.807 103.347,45.505 103.577,45.318 C103.945,45.019 104.61,45.495 105.191,45.555 C104.689,44.936 105.379,44.349 105.841,44.255 C106.359,44.149 107.067,44.662 108.26,45.467 C107.718,44.134 107.361,43.335 107.57,42.851 C107.758,42.417 108.475,41.863 108.978,42.481 C109.037,41.9 108.708,41.152 109.077,40.853 C109.307,40.666 109.631,40.598 109.841,41.075 C110.051,40.17 109.467,40.126 109.497,39.841 C109.531,39.514 109.991,38.756 111.718,38.955 C109.498,37.917 107.228,37.817 106.339,38.606" id="Fill-55-Copy-6"></path>
                    <path d="M94.2216617,3.91785856 C94.7636617,4.95485856 94.7136617,6.78085856 93.8746617,6.53385856 C93.0356617,6.28585856 92.9366617,6.08785856 92.6916617,5.44585856 C92.6786617,5.84985856 92.6396617,6.13285856 92.4916617,6.28085856 C92.3166617,6.39585856 92.0316617,6.37585856 91.6336617,6.30485856 C92.2116617,6.67785856 92.3846617,6.81485856 92.4536617,7.68685856 C92.5236617,8.55885856 90.7256617,8.23285856 89.8226617,7.48885856 C88.8676617,8.19685856 88.4996617,10.4388586 89.0586617,12.8248586 C89.2196617,11.0928586 90.0556617,10.7988586 90.3836617,10.8328586 C90.6676617,10.8628586 90.5916617,11.4428586 91.5206617,11.4238586 C91.0956617,11.1188586 91.2296617,10.8168586 91.4596617,10.6298586 C91.8276617,10.3308586 92.4926617,10.8068586 93.0736617,10.8668586 C92.5716617,10.2478586 93.2616617,9.66085856 93.7236617,9.56685856 C94.2416617,9.46085856 94.9496617,9.97385856 96.1426617,10.7788586 C95.6006617,9.44585856 95.2436617,8.64685856 95.4526617,8.16285856 C95.6406617,7.72885856 96.3576617,7.17485856 96.8606617,7.79285856 C96.9196617,7.21185856 96.5906617,6.46385856 96.9596617,6.16485856 C97.1896617,5.97785856 97.5136617,5.90985856 97.7236617,6.38685856 C97.9336617,5.48185856 97.3496617,5.43785856 97.3796617,5.15285856 C97.4136617,4.82585856 97.8736617,4.06785856 99.6006617,4.26685856 C97.3806617,3.22885856 95.1106617,3.12885856 94.2216617,3.91785856" id="Fill-55-Copy-4" transform="translate(94.198158, 8.110868) rotate(48.000000) translate(-94.198158, -8.110868) "></path>
                    <path d="M29.371,170.06 C29.494,171.002 28.943,172.379 28.373,171.955 C27.803,171.531 27.784,171.352 27.777,170.795 C27.654,171.099 27.545,171.304 27.391,171.374 C27.226,171.412 27.012,171.318 26.73,171.152 C27.066,171.599 27.158,171.752 26.967,172.435 C26.776,173.119 25.498,172.365 25.017,171.547 C24.093,171.818 23.182,173.423 22.939,175.398 C23.546,174.123 24.266,174.134 24.506,174.252 C24.715,174.355 24.494,174.774 25.206,175.02 C24.97,174.67 25.156,174.476 25.385,174.399 C25.748,174.274 26.123,174.823 26.547,175.031 C26.338,174.42 27.03,174.166 27.406,174.224 C27.832,174.288 28.227,174.878 28.911,175.825 C28.873,174.659 28.824,173.95 29.12,173.639 C29.384,173.361 30.085,173.14 30.295,173.753 C30.504,173.326 30.463,172.664 30.827,172.539 C31.055,172.461 31.321,172.5 31.347,172.923 C31.761,172.293 31.329,172.095 31.431,171.887 C31.549,171.646 32.112,171.197 33.373,171.834 C31.973,170.421 30.27,169.707 29.371,170.06" id="Fill-49-Copy"></path>
                    <path d="M10.948,106.605 C10.163,107.473 8.433,108.059 8.374,107.186 C8.315,106.312 8.467,106.152 8.984,105.699 C8.602,105.827 8.322,105.889 8.132,105.801 C7.964,105.676 7.883,105.402 7.812,105.004 C7.663,105.675 7.594,105.885 6.8,106.252 C6.007,106.619 5.69,104.819 6.075,103.716 C5.081,103.064 2.849,103.495 0.805,104.846 C2.485,104.398 3.05,105.08 3.132,105.398 C3.202,105.676 2.632,105.805 2.971,106.67 C3.11,106.167 3.44,106.186 3.695,106.338 C4.103,106.58 3.887,107.369 4.031,107.935 C4.438,107.249 5.228,107.693 5.476,108.095 C5.754,108.543 5.519,109.386 5.177,110.783 C6.239,109.812 6.865,109.201 7.392,109.23 C7.863,109.257 8.632,109.736 8.226,110.423 C8.792,110.277 9.379,109.71 9.788,109.952 C10.043,110.104 10.219,110.384 9.844,110.746 C10.765,110.629 10.606,110.066 10.883,109.995 C11.201,109.914 12.072,110.084 12.484,111.773 C12.688,109.33 11.996,107.166 10.948,106.605" id="Fill-56" transform="translate(6.662338, 107.595001) rotate(-13.000000) translate(-6.662338, -107.595001) "></path>
                    <path d="M154.134,69.084 C153.427,70.016 151.754,70.749 151.619,69.885 C151.485,69.021 151.623,68.847 152.098,68.351 C151.728,68.512 151.455,68.597 151.258,68.525 C151.08,68.416 150.976,68.15 150.871,67.76 C150.779,68.441 150.729,68.657 149.971,69.092 C149.211,69.526 148.74,67.761 149.027,66.627 C147.98,66.065 145.795,66.687 143.876,68.211 C145.51,67.618 146.133,68.249 146.242,68.56 C146.336,68.83 145.779,69.008 146.191,69.84 C146.287,69.327 146.617,69.317 146.884,69.446 C147.311,69.652 147.165,70.456 147.358,71.009 C147.703,70.289 148.529,70.664 148.811,71.042 C149.128,71.465 148.965,72.324 148.746,73.746 C149.721,72.688 150.291,72.023 150.818,72.008 C151.291,71.992 152.098,72.403 151.752,73.122 C152.304,72.929 152.84,72.312 153.268,72.518 C153.535,72.646 153.734,72.909 153.394,73.304 C154.301,73.107 154.093,72.561 154.363,72.466 C154.673,72.357 155.555,72.451 156.111,74.099 C156.104,71.646 155.227,69.551 154.134,69.084" id="Fill-57"></path>
                    <path d="M164.134,39.084 C163.427,40.016 161.754,40.749 161.619,39.885 C161.485,39.021 161.623,38.847 162.098,38.351 C161.728,38.512 161.455,38.597 161.258,38.525 C161.08,38.416 160.976,38.15 160.871,37.76 C160.779,38.441 160.729,38.657 159.971,39.092 C159.211,39.526 158.74,37.761 159.027,36.627 C157.98,36.065 155.795,36.687 153.876,38.211 C155.51,37.618 156.133,38.249 156.242,38.56 C156.336,38.83 155.779,39.008 156.191,39.84 C156.287,39.327 156.617,39.317 156.884,39.446 C157.311,39.652 157.165,40.456 157.358,41.009 C157.703,40.289 158.529,40.664 158.811,41.042 C159.128,41.465 158.965,42.324 158.746,43.746 C159.721,42.688 160.291,42.023 160.818,42.008 C161.291,41.992 162.098,42.403 161.752,43.122 C162.304,42.929 162.84,42.312 163.268,42.518 C163.535,42.646 163.734,42.909 163.394,43.304 C164.301,43.107 164.093,42.561 164.363,42.466 C164.673,42.357 165.555,42.451 166.111,44.099 C166.104,41.646 165.227,39.551 164.134,39.084" id="Fill-57-Copy"></path>
                    <path d="M150.525,104.152 C150.631,104.977 150.145,106.18 149.646,105.808 C149.149,105.435 149.133,105.278 149.128,104.791 C149.02,105.056 148.924,105.235 148.789,105.297 C148.645,105.33 148.457,105.247 148.211,105.101 C148.504,105.492 148.584,105.626 148.416,106.224 C148.246,106.823 147.13,106.159 146.711,105.441 C145.901,105.676 145.1,107.078 144.881,108.807 C145.416,107.692 146.047,107.703 146.257,107.808 C146.439,107.898 146.244,108.264 146.867,108.481 C146.66,108.174 146.824,108.005 147.025,107.939 C147.344,107.83 147.668,108.311 148.04,108.496 C147.859,107.96 148.465,107.738 148.795,107.791 C149.167,107.848 149.511,108.365 150.107,109.196 C150.076,108.177 150.037,107.555 150.296,107.284 C150.527,107.042 151.142,106.85 151.324,107.387 C151.51,107.014 151.475,106.434 151.793,106.326 C151.993,106.258 152.227,106.292 152.246,106.662 C152.611,106.112 152.234,105.939 152.323,105.756 C152.428,105.547 152.922,105.155 154.023,105.716 C152.802,104.476 151.314,103.846 150.525,104.152" id="Fill-51-Copy-3"></path>
                    <path d="M180.525,109.152 C180.631,109.977 180.145,111.18 179.646,110.808 C179.149,110.435 179.133,110.278 179.128,109.791 C179.02,110.056 178.924,110.235 178.789,110.297 C178.645,110.33 178.457,110.247 178.211,110.101 C178.504,110.492 178.584,110.626 178.416,111.224 C178.246,111.823 177.13,111.159 176.711,110.441 C175.901,110.676 175.1,112.078 174.881,113.807 C175.416,112.692 176.047,112.703 176.257,112.808 C176.439,112.898 176.244,113.264 176.867,113.481 C176.66,113.174 176.824,113.005 177.025,112.939 C177.344,112.83 177.668,113.311 178.04,113.496 C177.859,112.96 178.465,112.738 178.795,112.791 C179.167,112.848 179.511,113.365 180.107,114.196 C180.076,113.177 180.037,112.555 180.296,112.284 C180.527,112.042 181.142,111.85 181.324,112.387 C181.51,112.014 181.475,111.434 181.793,111.326 C181.993,111.258 182.227,111.292 182.246,111.662 C182.611,111.112 182.234,110.939 182.323,110.756 C182.428,110.547 182.922,110.155 184.023,110.716 C182.802,109.476 181.314,108.846 180.525,109.152" id="Fill-51-Copy-2" transform="translate(179.452000, 111.635741) rotate(38.000000) translate(-179.452000, -111.635741) "></path>
                    <path d="M80.525,49.152 C80.631,49.977 80.145,51.18 79.646,50.808 C79.149,50.435 79.133,50.278 79.128,49.791 C79.02,50.056 78.924,50.235 78.789,50.297 C78.645,50.33 78.457,50.247 78.211,50.101 C78.504,50.492 78.584,50.626 78.416,51.224 C78.246,51.823 77.13,51.159 76.711,50.441 C75.901,50.676 75.1,52.078 74.881,53.807 C75.416,52.692 76.047,52.703 76.257,52.808 C76.439,52.898 76.244,53.264 76.867,53.481 C76.66,53.174 76.824,53.005 77.025,52.939 C77.344,52.83 77.668,53.311 78.04,53.496 C77.859,52.96 78.465,52.738 78.795,52.791 C79.167,52.848 79.511,53.365 80.107,54.196 C80.076,53.177 80.037,52.555 80.296,52.284 C80.527,52.042 81.142,51.85 81.324,52.387 C81.51,52.014 81.475,51.434 81.793,51.326 C81.993,51.258 82.227,51.292 82.246,51.662 C82.611,51.112 82.234,50.939 82.323,50.756 C82.428,50.547 82.922,50.155 84.023,50.716 C82.802,49.476 81.314,48.846 80.525,49.152" id="Fill-51-Copy-9"></path>
                    <path d="M33.525,33.152 C33.631,33.977 33.145,35.18 32.646,34.808 C32.149,34.435 32.133,34.278 32.128,33.791 C32.02,34.056 31.924,34.235 31.789,34.297 C31.645,34.33 31.457,34.247 31.211,34.101 C31.504,34.492 31.584,34.626 31.416,35.224 C31.246,35.823 30.13,35.159 29.711,34.441 C28.901,34.676 28.1,36.078 27.881,37.807 C28.416,36.692 29.047,36.703 29.257,36.808 C29.439,36.898 29.244,37.264 29.867,37.481 C29.66,37.174 29.824,37.005 30.025,36.939 C30.344,36.83 30.668,37.311 31.04,37.496 C30.859,36.96 31.465,36.738 31.795,36.791 C32.167,36.848 32.511,37.365 33.107,38.196 C33.076,37.177 33.037,36.555 33.296,36.284 C33.527,36.042 34.142,35.85 34.324,36.387 C34.51,36.014 34.475,35.434 34.793,35.326 C34.993,35.258 35.227,35.292 35.246,35.662 C35.611,35.112 35.234,34.939 35.323,34.756 C35.428,34.547 35.922,34.155 37.023,34.716 C35.802,33.476 34.314,32.846 33.525,33.152" id="Fill-51-Copy-7"></path>
                    <path d="M60.525,29.152 C60.631,29.977 60.145,31.18 59.646,30.808 C59.149,30.435 59.133,30.278 59.128,29.791 C59.02,30.056 58.924,30.235 58.789,30.297 C58.645,30.33 58.457,30.247 58.211,30.101 C58.504,30.492 58.584,30.626 58.416,31.224 C58.246,31.823 57.13,31.159 56.711,30.441 C55.901,30.676 55.1,32.078 54.881,33.807 C55.416,32.692 56.047,32.703 56.257,32.808 C56.439,32.898 56.244,33.264 56.867,33.481 C56.66,33.174 56.824,33.005 57.025,32.939 C57.344,32.83 57.668,33.311 58.04,33.496 C57.859,32.96 58.465,32.738 58.795,32.791 C59.167,32.848 59.511,33.365 60.107,34.196 C60.076,33.177 60.037,32.555 60.296,32.284 C60.527,32.042 61.142,31.85 61.324,32.387 C61.51,32.014 61.475,31.434 61.793,31.326 C61.993,31.258 62.227,31.292 62.246,31.662 C62.611,31.112 62.234,30.939 62.323,30.756 C62.428,30.547 62.922,30.155 64.023,30.716 C62.802,29.476 61.314,28.846 60.525,29.152" id="Fill-51-Copy-8" transform="translate(59.452000, 31.635741) rotate(38.000000) translate(-59.452000, -31.635741) "></path>
                    <path d="M180.525,59.152 C180.631,59.977 180.145,61.18 179.646,60.808 C179.149,60.435 179.133,60.278 179.128,59.791 C179.02,60.056 178.924,60.235 178.789,60.297 C178.645,60.33 178.457,60.247 178.211,60.101 C178.504,60.492 178.584,60.626 178.416,61.224 C178.246,61.823 177.13,61.159 176.711,60.441 C175.901,60.676 175.1,62.078 174.881,63.807 C175.416,62.692 176.047,62.703 176.257,62.808 C176.439,62.898 176.244,63.264 176.867,63.481 C176.66,63.174 176.824,63.005 177.025,62.939 C177.344,62.83 177.668,63.311 178.04,63.496 C177.859,62.96 178.465,62.738 178.795,62.791 C179.167,62.848 179.511,63.365 180.107,64.196 C180.076,63.177 180.037,62.555 180.296,62.284 C180.527,62.042 181.142,61.85 181.324,62.387 C181.51,62.014 181.475,61.434 181.793,61.326 C181.993,61.258 182.227,61.292 182.246,61.662 C182.611,61.112 182.234,60.939 182.323,60.756 C182.428,60.547 182.922,60.155 184.023,60.716 C182.802,59.476 181.314,58.846 180.525,59.152" id="Fill-51-Copy-4"></path>
                    <path d="M138.525,4.152 C138.631,4.977 138.145,6.18 137.646,5.808 C137.149,5.435 137.133,5.278 137.128,4.791 C137.02,5.056 136.924,5.235 136.789,5.297 C136.645,5.33 136.457,5.247 136.211,5.101 C136.504,5.492 136.584,5.626 136.416,6.224 C136.246,6.823 135.13,6.159 134.711,5.441 C133.901,5.676 133.1,7.078 132.881,8.807 C133.416,7.692 134.047,7.703 134.257,7.808 C134.439,7.898 134.244,8.264 134.867,8.481 C134.66,8.174 134.824,8.005 135.025,7.939 C135.344,7.83 135.668,8.311 136.04,8.496 C135.859,7.96 136.465,7.738 136.795,7.791 C137.167,7.848 137.511,8.365 138.107,9.196 C138.076,8.177 138.037,7.555 138.296,7.284 C138.527,7.042 139.142,6.85 139.324,7.387 C139.51,7.014 139.475,6.434 139.793,6.326 C139.993,6.258 140.227,6.292 140.246,6.662 C140.611,6.112 140.234,5.939 140.323,5.756 C140.428,5.547 140.922,5.155 142.023,5.716 C140.802,4.476 139.314,3.846 138.525,4.152" id="Fill-51-Copy-5"></path>
                    <path d="M130.525,19.152 C130.631,19.977 130.145,21.18 129.646,20.808 C129.149,20.435 129.133,20.278 129.128,19.791 C129.02,20.056 128.924,20.235 128.789,20.297 C128.645,20.33 128.457,20.247 128.211,20.101 C128.504,20.492 128.584,20.626 128.416,21.224 C128.246,21.823 127.13,21.159 126.711,20.441 C125.901,20.676 125.1,22.078 124.881,23.807 C125.416,22.692 126.047,22.703 126.257,22.808 C126.439,22.898 126.244,23.264 126.867,23.481 C126.66,23.174 126.824,23.005 127.025,22.939 C127.344,22.83 127.668,23.311 128.04,23.496 C127.859,22.96 128.465,22.738 128.795,22.791 C129.167,22.848 129.511,23.365 130.107,24.196 C130.076,23.177 130.037,22.555 130.296,22.284 C130.527,22.042 131.142,21.85 131.324,22.387 C131.51,22.014 131.475,21.434 131.793,21.326 C131.993,21.258 132.227,21.292 132.246,21.662 C132.611,21.112 132.234,20.939 132.323,20.756 C132.428,20.547 132.922,20.155 134.023,20.716 C132.802,19.476 131.314,18.846 130.525,19.152" id="Fill-51-Copy-6" transform="translate(129.452000, 21.635741) rotate(38.000000) translate(-129.452000, -21.635741) "></path>
                </g>
                <g id="bats-layer-1" transform="translate(38.000000, 8.000000)" opacity="0.203299907" sketch:type="MSShapeGroup">
                    <path d="M36.007,70.954 C36.126,71.515 35.861,72.369 35.498,72.143 C35.134,71.915 35.115,71.808 35.083,71.473 C35.024,71.662 34.968,71.79 34.878,71.841 C34.781,71.871 34.648,71.824 34.471,71.738 C34.694,71.991 34.757,72.078 34.675,72.499 C34.593,72.919 33.788,72.527 33.46,72.059 C32.916,72.266 32.447,73.274 32.396,74.475 C32.7,73.679 33.133,73.65 33.283,73.709 C33.414,73.761 33.301,74.024 33.741,74.138 C33.581,73.938 33.685,73.813 33.818,73.756 C34.031,73.663 34.282,73.976 34.548,74.08 C34.393,73.723 34.796,73.536 35.026,73.553 C35.284,73.571 35.551,73.907 36.008,74.444 C35.927,73.744 35.865,73.32 36.028,73.119 C36.173,72.939 36.584,72.772 36.74,73.131 C36.845,72.864 36.789,72.468 37.002,72.375 C37.135,72.317 37.297,72.328 37.333,72.581 C37.551,72.182 37.282,72.084 37.333,71.954 C37.393,71.804 37.71,71.507 38.498,71.828 C37.588,71.046 36.53,70.699 36.007,70.954" id="Fill-43"></path>
                    <path d="M202.79,97.619 C202.999,98.152 202.876,99.039 202.48,98.873 C202.086,98.708 202.049,98.605 201.963,98.28 C201.935,98.477 201.902,98.612 201.82,98.677 C201.73,98.722 201.592,98.697 201.401,98.642 C201.662,98.855 201.74,98.931 201.727,99.358 C201.715,99.786 200.856,99.531 200.457,99.121 C199.953,99.413 199.654,100.485 199.798,101.679 C199.969,100.843 200.393,100.745 200.55,100.778 C200.686,100.81 200.617,101.087 201.071,101.128 C200.881,100.957 200.962,100.816 201.085,100.738 C201.279,100.612 201.578,100.88 201.857,100.94 C201.646,100.612 202.014,100.363 202.244,100.343 C202.502,100.318 202.818,100.606 203.357,101.063 C203.164,100.385 203.034,99.976 203.162,99.751 C203.277,99.551 203.656,99.319 203.867,99.647 C203.928,99.368 203.807,98.985 204.003,98.859 C204.125,98.78 204.286,98.765 204.363,99.009 C204.514,98.58 204.232,98.526 204.262,98.39 C204.295,98.232 204.56,97.888 205.391,98.077 C204.365,97.452 203.266,97.282 202.79,97.619" id="Fill-44"></path>
                    <path d="M37.237,149.414 C37.426,149.955 37.268,150.836 36.88,150.655 C36.492,150.475 36.458,150.371 36.385,150.043 C36.351,150.238 36.311,150.372 36.228,150.434 C36.135,150.476 35.998,150.446 35.81,150.383 C36.063,150.605 36.137,150.685 36.108,151.111 C36.079,151.538 35.231,151.25 34.848,150.826 C34.334,151.099 33.994,152.158 34.092,153.355 C34.295,152.528 34.722,152.446 34.877,152.485 C35.013,152.522 34.934,152.797 35.385,152.855 C35.202,152.677 35.288,152.539 35.414,152.466 C35.613,152.348 35.901,152.626 36.179,152.697 C35.98,152.361 36.357,152.126 36.587,152.115 C36.846,152.101 37.151,152.399 37.672,152.876 C37.505,152.192 37.391,151.778 37.527,151.559 C37.649,151.362 38.037,151.145 38.235,151.481 C38.307,151.205 38.201,150.817 38.401,150.7 C38.527,150.625 38.688,150.616 38.756,150.863 C38.923,150.44 38.643,150.376 38.678,150.24 C38.718,150.085 38.997,149.75 39.818,149.972 C38.818,149.308 37.725,149.095 37.237,149.414" id="Fill-45"></path>
                    <path d="M55.34,49.294 C54.839,49.572 53.944,49.569 54.055,49.155 C54.166,48.741 54.262,48.691 54.573,48.563 C54.375,48.561 54.236,48.547 54.162,48.476 C54.104,48.391 54.11,48.25 54.14,48.056 C53.964,48.343 53.899,48.429 53.473,48.474 C53.047,48.519 53.186,47.634 53.538,47.183 C53.181,46.724 52.078,46.57 50.916,46.873 C51.766,46.931 51.92,47.337 51.907,47.497 C51.896,47.637 51.611,47.606 51.632,48.061 C51.776,47.85 51.926,47.912 52.02,48.022 C52.171,48.198 51.946,48.53 51.924,48.815 C52.22,48.562 52.517,48.894 52.568,49.118 C52.627,49.37 52.383,49.724 52.004,50.317 C52.649,50.036 53.037,49.852 53.276,49.948 C53.491,50.035 53.771,50.379 53.474,50.633 C53.759,50.655 54.122,50.485 54.272,50.662 C54.368,50.772 54.405,50.93 54.173,51.039 C54.619,51.131 54.634,50.844 54.773,50.855 C54.934,50.868 55.311,51.084 55.234,51.933 C55.716,50.833 55.737,49.72 55.34,49.294" id="Fill-46"></path>
                    <path d="M126.93,30.516 C127.004,31.084 126.671,31.915 126.327,31.659 C125.982,31.403 125.972,31.296 125.967,30.959 C125.893,31.143 125.828,31.266 125.734,31.309 C125.635,31.332 125.506,31.275 125.336,31.175 C125.538,31.444 125.594,31.537 125.479,31.949 C125.363,32.361 124.592,31.907 124.303,31.413 C123.744,31.577 123.195,32.545 123.049,33.737 C123.415,32.967 123.85,32.974 123.994,33.045 C124.12,33.106 123.986,33.36 124.416,33.508 C124.273,33.297 124.387,33.18 124.524,33.134 C124.743,33.059 124.969,33.39 125.225,33.516 C125.1,33.146 125.516,32.993 125.744,33.028 C126,33.066 126.238,33.422 126.651,33.994 C126.628,33.29 126.6,32.862 126.777,32.675 C126.936,32.508 127.359,32.374 127.486,32.744 C127.612,32.486 127.588,32.087 127.808,32.012 C127.945,31.964 128.105,31.988 128.121,32.243 C128.371,31.863 128.109,31.744 128.172,31.618 C128.242,31.473 128.582,31.202 129.344,31.586 C128.498,30.733 127.471,30.303 126.93,30.516" id="Fill-47"></path>
                    <path d="M167.244,109.53 C166.738,109.8 165.844,109.779 165.961,109.368 C166.081,108.956 166.178,108.908 166.491,108.785 C166.293,108.78 166.154,108.762 166.082,108.69 C166.025,108.605 166.033,108.464 166.068,108.269 C165.887,108.554 165.819,108.638 165.394,108.675 C164.967,108.712 165.121,107.83 165.482,107.386 C165.133,106.92 164.034,106.745 162.867,107.025 C163.716,107.1 163.861,107.508 163.846,107.669 C163.832,107.809 163.549,107.773 163.561,108.227 C163.708,108.019 163.857,108.083 163.949,108.196 C164.096,108.375 163.865,108.702 163.838,108.987 C164.139,108.739 164.428,109.076 164.476,109.302 C164.529,109.556 164.279,109.903 163.889,110.49 C164.539,110.222 164.93,110.045 165.168,110.145 C165.381,110.236 165.654,110.586 165.354,110.834 C165.639,110.862 166.003,110.698 166.15,110.878 C166.243,110.99 166.277,111.148 166.045,111.253 C166.487,111.354 166.508,111.067 166.646,111.081 C166.808,111.097 167.181,111.32 167.088,112.167 C167.59,111.076 167.633,109.964 167.244,109.53" id="Fill-48"></path>
                    <path d="M177.203,82.9 C176.814,83.32 175.963,83.595 175.939,83.168 C175.916,82.739 175.992,82.662 176.248,82.443 C176.06,82.504 175.923,82.532 175.83,82.487 C175.749,82.426 175.711,82.29 175.679,82.096 C175.602,82.423 175.565,82.524 175.175,82.7 C174.783,82.875 174.641,81.991 174.836,81.453 C174.354,81.128 173.258,81.324 172.246,81.973 C173.072,81.764 173.346,82.102 173.383,82.259 C173.416,82.395 173.137,82.454 173.297,82.88 C173.367,82.635 173.529,82.646 173.653,82.723 C173.852,82.843 173.74,83.229 173.808,83.506 C174.011,83.173 174.395,83.396 174.514,83.594 C174.648,83.815 174.527,84.227 174.352,84.909 C174.877,84.441 175.187,84.145 175.446,84.163 C175.677,84.179 176.05,84.419 175.847,84.753 C176.125,84.685 176.416,84.41 176.615,84.531 C176.738,84.607 176.823,84.745 176.637,84.921 C177.089,84.87 177.014,84.593 177.15,84.561 C177.307,84.523 177.732,84.611 177.924,85.441 C178.039,84.246 177.715,83.182 177.203,82.9" id="Fill-50"></path>
                    <path d="M196.592,120.292 C196.643,120.863 196.275,121.679 195.942,121.409 C195.609,121.139 195.602,121.03 195.613,120.694 C195.531,120.874 195.46,120.995 195.365,121.034 C195.265,121.053 195.139,120.99 194.973,120.883 C195.163,121.161 195.215,121.255 195.083,121.662 C194.949,122.07 194.199,121.583 193.931,121.077 C193.365,121.217 192.775,122.161 192.579,123.346 C192.977,122.593 193.411,122.617 193.553,122.694 C193.676,122.762 193.532,123.009 193.956,123.176 C193.821,122.958 193.939,122.847 194.078,122.806 C194.301,122.739 194.512,123.08 194.764,123.217 C194.652,122.843 195.076,122.707 195.302,122.752 C195.557,122.802 195.779,123.167 196.168,123.756 C196.174,123.052 196.164,122.623 196.35,122.443 C196.516,122.282 196.943,122.167 197.055,122.542 C197.191,122.29 197.184,121.89 197.407,121.824 C197.547,121.782 197.705,121.813 197.71,122.068 C197.976,121.699 197.721,121.569 197.787,121.446 C197.863,121.305 198.215,121.049 198.959,121.464 C198.151,120.576 197.144,120.102 196.592,120.292" id="Fill-53"></path>
                    <path d="M5.317,120.283 C4.928,120.704 4.077,120.979 4.053,120.551 C4.03,120.123 4.106,120.045 4.362,119.827 C4.174,119.887 4.037,119.916 3.944,119.871 C3.863,119.81 3.824,119.674 3.792,119.479 C3.715,119.807 3.679,119.908 3.289,120.083 C2.897,120.259 2.755,119.375 2.949,118.837 C2.467,118.512 1.371,118.707 0.36,119.356 C1.186,119.146 1.459,119.484 1.497,119.642 C1.53,119.778 1.25,119.838 1.41,120.263 C1.481,120.018 1.644,120.029 1.767,120.106 C1.965,120.227 1.854,120.612 1.921,120.89 C2.124,120.557 2.509,120.779 2.628,120.977 C2.762,121.199 2.641,121.609 2.465,122.292 C2.991,121.824 3.302,121.529 3.56,121.547 C3.791,121.563 4.164,121.802 3.96,122.136 C4.239,122.068 4.53,121.794 4.729,121.915 C4.853,121.99 4.937,122.129 4.751,122.304 C5.203,122.253 5.128,121.977 5.264,121.943 C5.42,121.905 5.846,121.994 6.037,122.824 C6.153,121.63 5.828,120.564 5.317,120.283" id="Fill-54"></path>
                    <path d="M37.237,99.414 C37.426,99.955 37.268,100.836 36.88,100.655 C36.492,100.475 36.458,100.371 36.385,100.043 C36.351,100.238 36.311,100.372 36.228,100.434 C36.135,100.476 35.998,100.446 35.81,100.383 C36.063,100.605 36.137,100.685 36.108,101.111 C36.079,101.538 35.231,101.25 34.848,100.826 C34.334,101.099 33.994,102.158 34.092,103.355 C34.295,102.528 34.722,102.446 34.877,102.485 C35.013,102.522 34.934,102.797 35.385,102.855 C35.202,102.677 35.288,102.539 35.414,102.466 C35.613,102.348 35.901,102.626 36.179,102.697 C35.98,102.361 36.357,102.126 36.587,102.115 C36.846,102.101 37.151,102.399 37.672,102.876 C37.505,102.192 37.391,101.778 37.527,101.559 C37.649,101.362 38.037,101.145 38.235,101.481 C38.307,101.205 38.201,100.817 38.401,100.7 C38.527,100.625 38.688,100.616 38.756,100.863 C38.923,100.44 38.643,100.376 38.678,100.24 C38.718,100.085 38.997,99.75 39.818,99.972 C38.818,99.308 37.725,99.095 37.237,99.414" id="Fill-45-Copy"></path>
                    <path d="M15.317,80.283 C14.928,80.704 14.077,80.979 14.053,80.551 C14.03,80.123 14.106,80.045 14.362,79.827 C14.174,79.887 14.037,79.916 13.944,79.871 C13.863,79.81 13.824,79.674 13.792,79.479 C13.715,79.807 13.679,79.908 13.289,80.083 C12.897,80.259 12.755,79.375 12.949,78.837 C12.467,78.512 11.371,78.707 10.36,79.356 C11.186,79.146 11.459,79.484 11.497,79.642 C11.53,79.778 11.25,79.838 11.41,80.263 C11.481,80.018 11.644,80.029 11.767,80.106 C11.965,80.227 11.854,80.612 11.921,80.89 C12.124,80.557 12.509,80.779 12.628,80.977 C12.762,81.199 12.641,81.609 12.465,82.292 C12.991,81.824 13.302,81.529 13.56,81.547 C13.791,81.563 14.164,81.802 13.96,82.136 C14.239,82.068 14.53,81.794 14.729,81.915 C14.853,81.99 14.937,82.129 14.751,82.304 C15.203,82.253 15.128,81.977 15.264,81.943 C15.42,81.905 15.846,81.994 16.037,82.824 C16.153,81.63 15.828,80.564 15.317,80.283" id="Fill-54-Copy"></path>
                    <path d="M66.007,0.954 C66.126,1.515 65.861,2.369 65.498,2.143 C65.134,1.915 65.115,1.808 65.083,1.473 C65.024,1.662 64.968,1.79 64.878,1.841 C64.781,1.871 64.648,1.824 64.471,1.738 C64.694,1.991 64.757,2.078 64.675,2.499 C64.593,2.919 63.788,2.527 63.46,2.059 C62.916,2.266 62.447,3.274 62.396,4.475 C62.7,3.679 63.133,3.65 63.283,3.709 C63.414,3.761 63.301,4.024 63.741,4.138 C63.581,3.938 63.685,3.813 63.818,3.756 C64.031,3.663 64.282,3.976 64.548,4.08 C64.393,3.723 64.796,3.536 65.026,3.553 C65.284,3.571 65.551,3.907 66.008,4.444 C65.927,3.744 65.865,3.32 66.028,3.119 C66.173,2.939 66.584,2.772 66.74,3.131 C66.845,2.864 66.789,2.468 67.002,2.375 C67.135,2.317 67.297,2.328 67.333,2.581 C67.551,2.182 67.282,2.084 67.333,1.954 C67.393,1.804 67.71,1.507 68.498,1.828 C67.588,1.046 66.53,0.699 66.007,0.954" id="Fill-43-Copy"></path>
                    <path d="M67.237,29.414 C67.426,29.955 67.268,30.836 66.88,30.655 C66.492,30.475 66.458,30.371 66.385,30.043 C66.351,30.238 66.311,30.372 66.228,30.434 C66.135,30.476 65.998,30.446 65.81,30.383 C66.063,30.605 66.137,30.685 66.108,31.111 C66.079,31.538 65.231,31.25 64.848,30.826 C64.334,31.099 63.994,32.158 64.092,33.355 C64.295,32.528 64.722,32.446 64.877,32.485 C65.013,32.522 64.934,32.797 65.385,32.855 C65.202,32.677 65.288,32.539 65.414,32.466 C65.613,32.348 65.901,32.626 66.179,32.697 C65.98,32.361 66.357,32.126 66.587,32.115 C66.846,32.101 67.151,32.399 67.672,32.876 C67.505,32.192 67.391,31.778 67.527,31.559 C67.649,31.362 68.037,31.145 68.235,31.481 C68.307,31.205 68.201,30.817 68.401,30.7 C68.527,30.625 68.688,30.616 68.756,30.863 C68.923,30.44 68.643,30.376 68.678,30.24 C68.718,30.085 68.997,29.75 69.818,29.972 C68.818,29.308 67.725,29.095 67.237,29.414" id="Fill-45-Copy-3"></path>
                    <path d="M45.317,10.283 C44.928,10.704 44.077,10.979 44.053,10.551 C44.03,10.123 44.106,10.045 44.362,9.827 C44.174,9.887 44.037,9.916 43.944,9.871 C43.863,9.81 43.824,9.674 43.792,9.479 C43.715,9.807 43.679,9.908 43.289,10.083 C42.897,10.259 42.755,9.375 42.949,8.837 C42.467,8.512 41.371,8.707 40.36,9.356 C41.186,9.146 41.459,9.484 41.497,9.642 C41.53,9.778 41.25,9.838 41.41,10.263 C41.481,10.018 41.644,10.029 41.767,10.106 C41.965,10.227 41.854,10.612 41.921,10.89 C42.124,10.557 42.509,10.779 42.628,10.977 C42.762,11.199 42.641,11.609 42.465,12.292 C42.991,11.824 43.302,11.529 43.56,11.547 C43.791,11.563 44.164,11.802 43.96,12.136 C44.239,12.068 44.53,11.794 44.729,11.915 C44.853,11.99 44.937,12.129 44.751,12.304 C45.203,12.253 45.128,11.977 45.264,11.943 C45.42,11.905 45.846,11.994 46.037,12.824 C46.153,11.63 45.828,10.564 45.317,10.283" id="Fill-54-Copy-6"></path>
                    <path d="M116.007,10.954 C116.126,11.515 115.861,12.369 115.498,12.143 C115.134,11.915 115.115,11.808 115.083,11.473 C115.024,11.662 114.968,11.79 114.878,11.841 C114.781,11.871 114.648,11.824 114.471,11.738 C114.694,11.991 114.757,12.078 114.675,12.499 C114.593,12.919 113.788,12.527 113.46,12.059 C112.916,12.266 112.447,13.274 112.396,14.475 C112.7,13.679 113.133,13.65 113.283,13.709 C113.414,13.761 113.301,14.024 113.741,14.138 C113.581,13.938 113.685,13.813 113.818,13.756 C114.031,13.663 114.282,13.976 114.548,14.08 C114.393,13.723 114.796,13.536 115.026,13.553 C115.284,13.571 115.551,13.907 116.008,14.444 C115.927,13.744 115.865,13.32 116.028,13.119 C116.173,12.939 116.584,12.772 116.74,13.131 C116.845,12.864 116.789,12.468 117.002,12.375 C117.135,12.317 117.297,12.328 117.333,12.581 C117.551,12.182 117.282,12.084 117.333,11.954 C117.393,11.804 117.71,11.507 118.498,11.828 C117.588,11.046 116.53,10.699 116.007,10.954" id="Fill-43-Copy-2"></path>
                    <path d="M95.317,20.283 C94.928,20.704 94.077,20.979 94.053,20.551 C94.03,20.123 94.106,20.045 94.362,19.827 C94.174,19.887 94.037,19.916 93.944,19.871 C93.863,19.81 93.824,19.674 93.792,19.479 C93.715,19.807 93.679,19.908 93.289,20.083 C92.897,20.259 92.755,19.375 92.949,18.837 C92.467,18.512 91.371,18.707 90.36,19.356 C91.186,19.146 91.459,19.484 91.497,19.642 C91.53,19.778 91.25,19.838 91.41,20.263 C91.481,20.018 91.644,20.029 91.767,20.106 C91.965,20.227 91.854,20.612 91.921,20.89 C92.124,20.557 92.509,20.779 92.628,20.977 C92.762,21.199 92.641,21.609 92.465,22.292 C92.991,21.824 93.302,21.529 93.56,21.547 C93.791,21.563 94.164,21.802 93.96,22.136 C94.239,22.068 94.53,21.794 94.729,21.915 C94.853,21.99 94.937,22.129 94.751,22.304 C95.203,22.253 95.128,21.977 95.264,21.943 C95.42,21.905 95.846,21.994 96.037,22.824 C96.153,21.63 95.828,20.564 95.317,20.283" id="Fill-54-Copy-7"></path>
                    <path d="M21.317,115.283 C20.928,115.704 20.077,115.979 20.053,115.551 C20.03,115.123 20.106,115.045 20.362,114.827 C20.174,114.887 20.037,114.916 19.944,114.871 C19.863,114.81 19.824,114.674 19.792,114.479 C19.715,114.807 19.679,114.908 19.289,115.083 C18.897,115.259 18.755,114.375 18.949,113.837 C18.467,113.512 17.371,113.707 16.36,114.356 C17.186,114.146 17.459,114.484 17.497,114.642 C17.53,114.778 17.25,114.838 17.41,115.263 C17.481,115.018 17.644,115.029 17.767,115.106 C17.965,115.227 17.854,115.612 17.921,115.89 C18.124,115.557 18.509,115.779 18.628,115.977 C18.762,116.199 18.641,116.609 18.465,117.292 C18.991,116.824 19.302,116.529 19.56,116.547 C19.791,116.563 20.164,116.802 19.96,117.136 C20.239,117.068 20.53,116.794 20.729,116.915 C20.853,116.99 20.937,117.129 20.751,117.304 C21.203,117.253 21.128,116.977 21.264,116.943 C21.42,116.905 21.846,116.994 22.037,117.824 C22.153,116.63 21.828,115.564 21.317,115.283" id="Fill-54-Copy-2"></path>
                    <path d="M145.317,50.283 C144.928,50.704 144.077,50.979 144.053,50.551 C144.03,50.123 144.106,50.045 144.362,49.827 C144.174,49.887 144.037,49.916 143.944,49.871 C143.863,49.81 143.824,49.674 143.792,49.479 C143.715,49.807 143.679,49.908 143.289,50.083 C142.897,50.259 142.755,49.375 142.949,48.837 C142.467,48.512 141.371,48.707 140.36,49.356 C141.186,49.146 141.459,49.484 141.497,49.642 C141.53,49.778 141.25,49.838 141.41,50.263 C141.481,50.018 141.644,50.029 141.767,50.106 C141.965,50.227 141.854,50.612 141.921,50.89 C142.124,50.557 142.509,50.779 142.628,50.977 C142.762,51.199 142.641,51.609 142.465,52.292 C142.991,51.824 143.302,51.529 143.56,51.547 C143.791,51.563 144.164,51.802 143.96,52.136 C144.239,52.068 144.53,51.794 144.729,51.915 C144.853,51.99 144.937,52.129 144.751,52.304 C145.203,52.253 145.128,51.977 145.264,51.943 C145.42,51.905 145.846,51.994 146.037,52.824 C146.153,51.63 145.828,50.564 145.317,50.283" id="Fill-54-Copy-5"></path>
                    <path d="M157.93,126.516 C158.004,127.084 157.671,127.915 157.327,127.659 C156.982,127.403 156.972,127.296 156.967,126.959 C156.893,127.143 156.828,127.266 156.734,127.309 C156.635,127.332 156.506,127.275 156.336,127.175 C156.538,127.444 156.594,127.537 156.479,127.949 C156.363,128.361 155.592,127.907 155.303,127.413 C154.744,127.577 154.195,128.545 154.049,129.737 C154.415,128.967 154.85,128.974 154.994,129.045 C155.12,129.106 154.986,129.36 155.416,129.508 C155.273,129.297 155.387,129.18 155.524,129.134 C155.743,129.059 155.969,129.39 156.225,129.516 C156.1,129.146 156.516,128.993 156.744,129.028 C157,129.066 157.238,129.422 157.651,129.994 C157.628,129.29 157.6,128.862 157.777,128.675 C157.936,128.508 158.359,128.374 158.486,128.744 C158.612,128.486 158.588,128.087 158.808,128.012 C158.945,127.964 159.105,127.988 159.121,128.243 C159.371,127.863 159.109,127.744 159.172,127.618 C159.242,127.473 159.582,127.202 160.344,127.586 C159.498,126.733 158.471,126.303 157.93,126.516" id="Fill-47-Copy"></path>
                    <path d="M174.317,158.283 C173.928,158.704 173.077,158.979 173.053,158.551 C173.03,158.123 173.106,158.045 173.362,157.827 C173.174,157.887 173.037,157.916 172.944,157.871 C172.863,157.81 172.824,157.674 172.792,157.479 C172.715,157.807 172.679,157.908 172.289,158.083 C171.897,158.259 171.755,157.375 171.949,156.837 C171.467,156.512 170.371,156.707 169.36,157.356 C170.186,157.146 170.459,157.484 170.497,157.642 C170.53,157.778 170.25,157.838 170.41,158.263 C170.481,158.018 170.644,158.029 170.767,158.106 C170.965,158.227 170.854,158.612 170.921,158.89 C171.124,158.557 171.509,158.779 171.628,158.977 C171.762,159.199 171.641,159.609 171.465,160.292 C171.991,159.824 172.302,159.529 172.56,159.547 C172.791,159.563 173.164,159.802 172.96,160.136 C173.239,160.068 173.53,159.794 173.729,159.915 C173.853,159.99 173.937,160.129 173.751,160.304 C174.203,160.253 174.128,159.977 174.264,159.943 C174.42,159.905 174.846,159.994 175.037,160.824 C175.153,159.63 174.828,158.564 174.317,158.283" id="Fill-54-Copy-8"></path>
                    <path d="M177.237,29.414 C177.426,29.955 177.268,30.836 176.88,30.655 C176.492,30.475 176.458,30.371 176.385,30.043 C176.351,30.238 176.311,30.372 176.228,30.434 C176.135,30.476 175.998,30.446 175.81,30.383 C176.063,30.605 176.137,30.685 176.108,31.111 C176.079,31.538 175.231,31.25 174.848,30.826 C174.334,31.099 173.994,32.158 174.092,33.355 C174.295,32.528 174.722,32.446 174.877,32.485 C175.013,32.522 174.934,32.797 175.385,32.855 C175.202,32.677 175.288,32.539 175.414,32.466 C175.613,32.348 175.901,32.626 176.179,32.697 C175.98,32.361 176.357,32.126 176.587,32.115 C176.846,32.101 177.151,32.399 177.672,32.876 C177.505,32.192 177.391,31.778 177.527,31.559 C177.649,31.362 178.037,31.145 178.235,31.481 C178.307,31.205 178.201,30.817 178.401,30.7 C178.527,30.625 178.688,30.616 178.756,30.863 C178.923,30.44 178.643,30.376 178.678,30.24 C178.718,30.085 178.997,29.75 179.818,29.972 C178.818,29.308 177.725,29.095 177.237,29.414" id="Fill-45-Copy-2"></path>
                    <path d="M155.317,10.283 C154.928,10.704 154.077,10.979 154.053,10.551 C154.03,10.123 154.106,10.045 154.362,9.827 C154.174,9.887 154.037,9.916 153.944,9.871 C153.863,9.81 153.824,9.674 153.792,9.479 C153.715,9.807 153.679,9.908 153.289,10.083 C152.897,10.259 152.755,9.375 152.949,8.837 C152.467,8.512 151.371,8.707 150.36,9.356 C151.186,9.146 151.459,9.484 151.497,9.642 C151.53,9.778 151.25,9.838 151.41,10.263 C151.481,10.018 151.644,10.029 151.767,10.106 C151.965,10.227 151.854,10.612 151.921,10.89 C152.124,10.557 152.509,10.779 152.628,10.977 C152.762,11.199 152.641,11.609 152.465,12.292 C152.991,11.824 153.302,11.529 153.56,11.547 C153.791,11.563 154.164,11.802 153.96,12.136 C154.239,12.068 154.53,11.794 154.729,11.915 C154.853,11.99 154.937,12.129 154.751,12.304 C155.203,12.253 155.128,11.977 155.264,11.943 C155.42,11.905 155.846,11.994 156.037,12.824 C156.153,11.63 155.828,10.564 155.317,10.283" id="Fill-54-Copy-3"></path>
                    <path d="M161.317,45.283 C160.928,45.704 160.077,45.979 160.053,45.551 C160.03,45.123 160.106,45.045 160.362,44.827 C160.174,44.887 160.037,44.916 159.944,44.871 C159.863,44.81 159.824,44.674 159.792,44.479 C159.715,44.807 159.679,44.908 159.289,45.083 C158.897,45.259 158.755,44.375 158.949,43.837 C158.467,43.512 157.371,43.707 156.36,44.356 C157.186,44.146 157.459,44.484 157.497,44.642 C157.53,44.778 157.25,44.838 157.41,45.263 C157.481,45.018 157.644,45.029 157.767,45.106 C157.965,45.227 157.854,45.612 157.921,45.89 C158.124,45.557 158.509,45.779 158.628,45.977 C158.762,46.199 158.641,46.609 158.465,47.292 C158.991,46.824 159.302,46.529 159.56,46.547 C159.791,46.563 160.164,46.802 159.96,47.136 C160.239,47.068 160.53,46.794 160.729,46.915 C160.853,46.99 160.937,47.129 160.751,47.304 C161.203,47.253 161.128,46.977 161.264,46.943 C161.42,46.905 161.846,46.994 162.037,47.824 C162.153,46.63 161.828,45.564 161.317,45.283" id="Fill-54-Copy-4"></path>
                </g>
            </g>
        </g>
    </g>
</svg>