<?xml version="1.0" encoding="utf-8"?>
<!-- Generator: Adobe Illustrator 19.1.0, SVG Export Plug-In . SVG Version: 6.00 Build 0)  -->
<!DOCTYPE svg PUBLIC "-//W3C//DTD SVG 1.1//EN" "http://www.w3.org/Graphics/SVG/1.1/DTD/svg11.dtd">
<svg version="1.1" id="Layer_1" xmlns:sketch="http://www.bohemiancoding.com/sketch/ns"
	 xmlns="http://www.w3.org/2000/svg" xmlns:xlink="http://www.w3.org/1999/xlink" x="0px" y="0px" viewBox="61 -61 282 283"
	 style="enable-background:new 61 -61 282 283;" xml:space="preserve">
<style type="text/css">
	.st0{fill:#3D1425;}
</style>
<title>footer</title>
<desc>Created with Sketch.</desc>
<g id="Page-1" sketch:type="MSPage">
	<g id="Connorween" transform="translate(0.000000, -905.000000)" sketch:type="MSArtboardGroup">
		<g id="footer" transform="translate(-1.000000, 901.000000)" sketch:type="MSLayerGroup">
			<g id="house" transform="translate(0.000000, 50.000000)" sketch:type="MSShapeGroup">
				<path id="Fill-1" class="st0" d="M271.7,89.8v-2.1h-2.2v-1.6h-2.2v-1.7H151v1.7h-2.3v1.6h-2.2v2.1h-2.1v2.1h129.3v-2.1H271.7"/>
				<path id="Fill-2" class="st0" d="M163.9,29.8h75.6v55.8h-75.6V29.8L163.9,29.8z"/>
				<path id="Fill-3" class="st0" d="M149.7,59.3h110.9l-21.1-9h-75.6L149.7,59.3"/>
				<path id="Fill-4" class="st0" d="M155.1,59.3h2.2v27.4h-2.2V59.3z"/>
				<path id="Fill-5" class="st0" d="M253.3,59.3h2.2v27.4h-2.2V59.3z"/>
				<path id="Fill-6" class="st0" d="M163.9,32.2h-6.2l5.9-37.4h75.9l5.6,35.1v2.3L163.9,32.2"/>
				<path id="Fill-7" class="st0" d="M162.9,19h-6.6l6.9-39.9H185V19H162.9"/>
				<path id="Fill-8" class="st0" d="M239.5-4.1v-18.3c-0.8-4.3-14.8-4.3-15.6,0v18.3L239.5-4.1"/>
				<path id="Fill-9" class="st0" d="M216.4-34.2v-16.6c-4-12.3-18.5-12.3-22.5,0v16.6h-2.4v10.7h2.4v25h22.5v-25h2.4v-10.7
					L216.4-34.2"/>
				<path id="Fill-10" class="st0" d="M170.2-28.7c3.7-9.3,11.2-9.3,14.9,0v9h-14.9V-28.7"/>
				<path id="Fill-11" class="st0" d="M163.2-45.1h5.5v25h-5.5V-45.1z"/>
				<path id="Fill-12" class="st0" d="M161.5-43.4h8.8v4.2h-8.8V-43.4z"/>
				<path id="Fill-13" class="st0" d="M184.4,44.3h-8.3v-3.4c-0.1-13.2,8.4-13.2,8.3,0V44.3"/>
				<path id="Fill-14" class="st0" d="M228.3,44.3H220v-3.4c-0.1-13.2,8.4-13.2,8.3,0V44.3"/>
				<path id="Fill-15" class="st0" d="M234.9-11.7h-6.4v-2.6c0-10.1,6.4-10.1,6.4,0V-11.7"/>
				<path id="Fill-16" class="st0" d="M202.9-16.2h-3.8v-1.6c0-6,3.8-6,3.8,0V-16.2"/>
				<path id="Fill-17" class="st0" d="M211.2-16.2h-3.8v-1.6c0-6,3.8-6,3.8,0V-16.2"/>
				<path id="Fill-18" class="st0" d="M180.9-6.9h-13.1v-2.5c-0.1-9.5,13.2-9.5,13.1,0V-6.9"/>
				<path id="Fill-19" class="st0" d="M209.3-49.8H201v-1.6c-0.1-6.1,8.4-6.1,8.3,0V-49.8"/>
				<path id="Fill-21" class="st0" d="M144.5,91.9C127.7,96,81.3,108.2,62,127.4h282.8c-20-20-53.2-33.1-71.1-35.5
					C255.9,89.4,163.4,87.2,144.5,91.9"/>
				<path id="Fill-22" class="st0" d="M102.1,111.9c-3-3-6-6-6-8.8c0-2.9,8.3-6.8,8.3-2.9s2.3,9.4,2.3,11.2
					C106.7,113.2,102.1,111.9,102.1,111.9"/>
				<path id="Fill-23" class="st0" d="M95.6,109.4c-3.6-2.6-5.7-4.7-7.3-3.6c-1.6,1-1,4.4,0.3,7.8C89.8,117,95.6,109.4,95.6,109.4"
					/>
				<path id="Fill-24" class="st0" d="M128.8,99.8c-1.6-3.9-2.2-6.7-4-6.5s-3,3.4-3.6,6.9C120.5,103.9,128.8,99.8,128.8,99.8"/>
				<path id="Fill-25" class="st0" d="M82.6,115.9c0.3-2.1-2.6-4.7-5.7-2.9c-3.1,1.8-1,6.5,3.6,4.9
					C85.2,116.4,82.6,115.9,82.6,115.9"/>
				<path id="Fill-26" class="st0" d="M112.4,105.7c0.3-2.6,0.8-6.5,0.5-7.8s-1.6-3.1-0.3-4.9c1.3-1.8,2.9,0,3.6,2.3
					c0.8,2.3,5.5,3.6,6.8,5.5C124.3,102.6,112.4,105.7,112.4,105.7"/>
				<path id="Fill-27" class="st0" d="M101.1,100.7l-6.2-22.6l-3.4,0.8l7.8,22.6L101.1,100.7"/>
				<path id="Fill-28" class="st0" d="M87.4,83.8l14.6-3.4l0.5,2.3l-14.3,3.4L87.4,83.8"/>
				<path id="Fill-29" class="st0" d="M78.7,101l6.8-6.5l1,1.6l-6.8,6L78.7,101"/>
				<path id="Fill-30" class="st0" d="M79.4,97.1l9.4,10.7l1-0.8l-8.6-11.2L79.4,97.1"/>
				<path id="Fill-31" class="st0" d="M72.6,101.2l6,12.7l-0.7,0.5l-6.8-12.3L72.6,101.2"/>
				<path id="Fill-32" class="st0" d="M69.4,105.9l7.3-4.2l0.2,0.9l-7.1,4.8L69.4,105.9"/>
				<path id="Fill-33" class="st0" d="M112,79.2l1.7-0.2l0.3,15.8l-0.7,0.2L112,79.2"/>
				<path id="Fill-34" class="st0" d="M107.2,81.3l12.3-0.3v1.6l-12.3-0.2V81.3"/>
				<path id="Fill-35" class="st0" d="M127.5,83.6l1.7,0.4l-4,11.1l-0.9-0.1L127.5,83.6"/>
				<path id="Fill-36" class="st0" d="M124.7,84.2l6.5,1.5l-0.6,1.6l-6.1-1.4L124.7,84.2"/>
				<path id="Fill-37" class="st0" d="M251.1,79c0.2,0-0.2,0.5-0.2,1.1s-0.1,1.5-0.9,1.5c-0.7,0.1-0.9-0.3-1.1,0
					c-0.2,0.4-0.8,1.9-0.5,3.2c-0.2,0.1-0.5,0-0.5,0c-0.1-0.6-0.2-1.3-0.2-1.9c0-0.4-0.2-0.4-0.2,0.2s-0.1,1.4,0,1.7
					c-0.2,0.1-0.4-0.1-0.4-0.1c0-0.5-0.3-0.8-0.3-1.8s0.2-1.8,0-2.3s-0.6-0.8-0.7-0.2c-0.1,0.6-0.3,1.5-0.6,2.1
					c-0.2,0.6-0.3,1.5,0,2.1c-0.3,0.1-0.6-0.2-0.6-0.2c-0.1-0.4-0.2-1.3-0.1-1.7c0.1-0.4,0-0.5-0.1-0.3c-0.1,0.3-0.4,1.5-0.1,2
					c-0.3,0-0.5,0-0.5-0.3s-0.2-1.2,0-1.7s0.1-1.2-0.1-1.7c-0.2-0.5-0.2-0.8-0.3-1.1c-0.1-0.2-0.2-1.2,0.6-2.3
					c0.8-1.2,1.8-1.3,2.6-1.3s1.5,1,1.7,1.7s0.6,1.6,1.4,1.5C250.5,79.4,250.8,79,251.1,79"/>
				<path id="Fill-38" class="st0" d="M244.6,78.7c-0.6-0.2-2-0.4-1.9-1.3s0.9-1.9,0.3-2.6c-0.6-0.8-1.3-0.6-1.6-0.1
					s1.6-0.1,1.3,0.9c-0.2,0.6-1,2-0.3,2.8c0.7,0.7,1.6,0.8,2,0.7C244.8,79,244.6,78.7,244.6,78.7"/>
				<path id="Fill-39" class="st0" d="M250.2,80.4c0,0.1,0.1,0.1,0.2,0.1c0.1,0,0.2-0.1,0.2-0.1c0-0.1-0.1-0.1-0.2-0.1
					S250.2,80.4,250.2,80.4"/>
				<path id="Fill-40" class="st0" d="M249.4,80.4c0,0.1,0.1,0.1,0.2,0.1c0.1,0,0.2-0.1,0.2-0.1c0-0.1-0.1-0.1-0.2-0.1
					S249.4,80.4,249.4,80.4"/>
				<path id="Fill-41" class="st0" d="M250.3,80.4c0,0.1,0,0.2,0.1,0.2c0,0,0.1-0.1,0.1-0.2s0-0.2-0.1-0.2
					C250.4,80.2,250.3,80.3,250.3,80.4"/>
				<path id="Fill-42" class="st0" d="M249.5,80.4c0,0.1,0,0.2,0,0.2S249.6,80.5,249.5,80.4c0.1-0.1,0.1-0.2,0-0.2
					S249.5,80.3,249.5,80.4"/>
				<path id="Fill-58" class="st0" d="M287.4,107.7c0.9-0.3,1.7,0,2.6,0c1.3,0,2.4,0.1,3.5-0.5s1.1-1.5,2-2.3
					c0.7-0.7,2.7-7.3,3.2-8.2c0.5-0.8,3.9-14,4.1-14.9c2.8-9,5.7-15.7,5.7-16.8c0-0.6-0.1-1.2-0.2-1.7c-0.1-0.4-0.1-1.4-0.3-1.7
					c-0.3-0.5-1.8-0.6-2.4-0.7c-1-0.3-1.6-0.9-2.2-1.8c-0.6-1.2-1.1-1.5-2.4-1.8c-0.9-0.2-1.3,0.1-2,0.7c-0.7,0.6-1,1.4-1.5,2.3
					c-0.5,0.9-0.3,2-1.1,2.8c-0.6,0.7-1.9,0.9-2.6,0.3c-0.8-0.7-0.8-1.7-1.7-2.2c-0.4-0.2-0.7-0.8-1.1-1c-0.6-0.3-0.7,0.1-1,0.5
					c-0.5,0.5-1.1,1.7-1.9,1.4c1.1-0.5,1-2.2,1.5-3.2c-0.5-0.4-0.4-0.7-1-1s-1-0.3-1.4-0.8c0.4,0.1,0.9,0.3,1.3,0.3
					c0.3-0.7-0.2-1.6,0.2-2.2c0.2-0.4,0.6-0.5,0.8-1c0.2-0.4,0-0.8,0.5-1c0.4,0.5-0.3,1.5-0.4,2.1c0,0.3,0,1,0.2,1.2
					c0.4,0.3,0.5-0.3,0.9-0.4c0.5-0.2,0.7,0,1.2,0.1c0.6,0,0.4-0.1,0.8-0.3c0.8-0.5,1.6-0.7,2.2-1.3c-0.4,0.9-1.1,1.8-2.1,2.1
					c-0.4,0.1-1.3,0.1-1.4,0.7c-0.1,0.5,0.6,0.8,1,1c-0.1,0.3,0.1,0.7,0.3,0.9l0.8,0.5c0.7-0.1,0.4-1.2,0.6-1.6
					c0.8,0.5-0.4,2,0.1,2.6c0.9,1.3,1.2-1.4,1.3-1.8c0.2-0.8,0.9-1.6,1.3-2.3c0.4-0.6,0.9-2.5-0.5-1.8c0.3,0.1,0.6-0.1,0.9-0.1
					c0.2,0,0.7,0.3,0.8,0.3c1-0.1,0.7-1.1,0.3-1.6c-0.5-0.6-0.8-1.5-1.4-2c-0.5-0.4-1.2-0.9-1.1-1.7c0.2,0.3,1.9,1.9,2,1.9
					c0.3-0.1,0.1-0.9,0.5-1.1c0.4-0.3,1.1-0.1,1.5-0.4c-0.3,0.2-1,0.9-1,1.3c0,0.4,0.5,0.4,0.6,0.7c0.2,0.3,0.1,0.6,0.2,0.9
					c0.3,0.6,0.7,0.6,1.4,0.6c0.7,0.1,0.9,0,0.9-0.8c0.5,0.2,0.3,0.6,0.6,1c0.3,0.3,0.7,0.4,1,0.6c0.7,0.5,0.9,1.5,1.5,2.1
					c0.3,0.4,0.6,0.3,1,0.3c0.5,0.1,0.6,0.1,1.1,0.4c0.7,0.3,1.9,0.4,1.4-0.7c-0.1-0.3-0.6-0.5-0.7-0.8c-0.2-0.6,0.2-0.4,0.4-1
					c0.2-0.5,0.1-2-0.3-2.4c-0.3-0.3-0.8-0.4-1.3-0.3c-0.5,0.1-0.6,0.4-1,0.5c-0.9,0.3-1.5-0.6-2.1-1.1c-0.6-0.6-0.8-0.9-1.1-1.7
					c-0.3-0.7-1-0.8-1.2-1.4c-0.1,0.1-0.3,0.3-0.4,0.4c-0.1-1.1,0.2-0.8,1-0.3c0.9-1,0.7-2.5,0.7-3.6c0-1.4-2.3-2-2-3.3
					c0.6,0.6,2,1.7,2.5,0.5c0.1-0.3,0.1-1.2,0.1-1.5c0-0.6-0.5-1.3-1.2-1.5c-0.3-0.1-0.5,0-0.7,0c-0.1,0-0.2,0.2-0.3,0.2
					c-0.1,0-0.3-0.1-0.4-0.1c-0.8,0.1-0.6,0.3-1.1,0.9c-0.3,0.4-0.8,0.7-1.2,0.9c-0.6,0.2-0.8,0-1.5,0c0-0.1,0-0.2,0.1-0.3
					c0.5,0.2,1.4-0.3,1.6-0.7c0.5-0.8-0.5-1-0.8-0.3c-0.6-0.3-0.9-0.1-1.2,0.4c-0.1,0.1,0.1,0.7-0.3,0.5c-0.1-0.1-0.1-0.7-0.1-0.8
					c0.2-0.4,1.1-0.5,1.3-1c0.2-0.6-0.5-0.9-1-0.8c-0.2-0.3-0.5-0.7-0.4-1.1c0.7,0.5,1.3,1.2,2.3,1.1c1-0.1,0.6-1.3,1-1.9
					c0.2-0.3,0.6-0.4,0.7-0.9s-0.1-0.9-0.4-1.2c-0.7-0.7-2.1-1.4-0.6-2c-0.1,1.1,1.6,1.9,2,2.9c0.1,0.3,0.2,3.4,1.2,2
					c0.3-0.4,0-1,0.1-1.4c0.1-0.6,0.4-0.8,0.1-1.5c-0.4-0.9-1.8-1.9-1-3c0,0.9,1.7,3.6,2.8,3c0.4,0.6-0.4,0.5-0.6,0.9s0.2,0.6,0.3,1
					c0,0.9-1.5,0.9-0.9,2c0.2,0.4,0.6,0.5,0.9,0.7c0.2,0.1,0.8,0.7,0.9,0.7c0.6,0.1,1.2-1.3,1.9-1.3c0.5,0.6-0.4,0.5-0.6,0.7
					c-0.1,0.2,0,0.4-0.1,0.5c0,0.1-0.2,0.4-0.2,0.5c-0.1,0.2-0.5,0.8-0.5,1c0,0.5,0.5,0.7,0.9,0.5c-0.3,0.7-0.6,1.1-0.7,1.9
					c-0.1,0.9,0.5,1.5,0.2,2.4c-0.2,0.5-0.6,1.5-0.3,2c0.6,1,1.8-0.2,2.3-0.5c0.7-0.4,1.7,0.2,2.1-0.7c0.2-0.3-0.1-0.8,0.3-1.1
					c0.3-0.3,0.8-0.1,1.2-0.2c0.7-0.4,0.7-1.3,0.3-2c-0.4-0.7-1.4-0.9-1.7-1.6c0.1,0,0.4-0.1,0.5-0.1c0.7-1.3-2.1-1.3-1.9-2
					c0.3,0.1,1.1,0.4,1.3,0.3c0.4-0.3,0-1,0.7-1.1c-0.5,1,0.2,1.7,1.1,1.4c0,0.5-0.5,0.5-0.6,0.8c0,0.1,0.5,1,0.6,1.1
					c0.3,0.2,0.7,0.3,0.9,0c0.3-0.3,0.1-0.6,0.3-1c1,0.2,0.4-1.9,1.5-1.4c0.1,0.6-0.4,0.4-0.5,0.7c-0.1,0.2,0.1,0.8,0.2,1
					c0.1,0.4-0.2,0.4,0.4,0.7c0.4,0.2,0.8-0.3,0.8,0.6c-0.4,0.1-0.7-0.2-1-0.2s-0.2-0.1-0.5,0.1c-0.4,0.3-0.2,0.2-0.2,0.6
					c-0.1,0.3,0,0.7-0.1,1.1c0,0.2-0.1,0.3-0.1,0.5c0,0.4,0.4,0.7,0.4,1c0,1-1.5,0.8-1.7,1.7c-0.2,0.8,0.9,1.3-0.1,1.9
					c-0.6,0.3-1.6,0.4-1.8,1.3c-0.1,0.5,0.5,2,0.8,2.5c1.5,2.6,3.7-2,4.3-3.2c0.7-1.2,1-2.4,1.3-3.7c0.3-1.2,1.3-1.8,1.7-2.9
					c0.3-0.8,0.3-2.4-0.3-3.1c-0.5-0.5-1.1-0.4-1.4-1.2c-0.2-0.7,0.2-0.8,0.3-1.4c-0.1,0.1-0.2,0.2-0.2,0.3c0.8-0.4,0.2-2.3-0.1-2.9
					c-0.1-0.2-0.2-0.3-0.2-0.5c-0.1-0.2-0.1-0.6-0.2-0.8c-0.3-0.6-1.3-0.7-1.3-1.2c0.1,0,0.2,0,0.3,0.1c0.1-0.3,0.2-0.6,0.2-0.9
					c-0.5-0.2-0.8-0.4-1.2-0.7c-0.5-0.3-0.8-0.7-1.4-0.3c-0.3-0.3-0.7-0.5-0.7-0.9c0.5-0.3,0.8,0.9,1.3,0.2c0.4-0.6-0.7-0.9-0.4-1.5
					c0.7-0.1,0-0.7-0.3-0.8c-0.6-0.2-0.8,0.1-1.3,0.2c-0.7,0.3-0.7,0.1-1.4-0.2c-0.5-0.2-1-0.2-1.5,0c0-0.2,0-0.5-0.1-0.7
					c0.4,0,0.7,0.3,1.1,0.3c0.2,0,0.4-0.2,0.6-0.2s0.3,0.2,0.5,0.2c0.5,0.1,0.4,0.3,0.9-0.1c0.3-0.2,0.5-0.6,0.9-0.3
					c1-0.7-1.1-2.5-1.5-0.6c-0.5-0.4-1.4-0.2-2.1-0.5c0.1-0.4,0.6-0.7,0.7-0.2c1,0.3,1.4-0.3,2.1-0.7c0.5-0.3,0.3-0.2,0.6-0.7
					c0.2-0.4,0.7-0.7,0.7,0.1c-0.3,0.2-0.2,0.5,0.2,0.6c0.2-0.2,0.2-0.5,0.3-0.8c-0.3-0.2-0.5-0.8-0.7-1.1c-0.3-0.7-0.2-0.7,0.1-1.2
					c0.2-0.4,0.3-0.6,0.2-1.1c0-0.4-0.3-0.9,0.1-1.3c0,0.3,0,0.5,0.1,0.7c0.1,0.4,0.1,0.5,0.1,0.8c0,0.1-0.1,0.2-0.1,0.3
					c0,0.2,0.1,0.3,0.1,0.5c0,0.3,0.2,0.5-0.2,0.8c0.6,0.4,0.9,0.7,1.3-0.1c0.3-0.6,0.3-1.2,1.2-1.1c0.1,0.4-0.4,0.4-0.5,0.7
					c-0.1,0.2-0.2,0.7-0.2,0.9c0.7,0.7,1.1,0,1.9-0.2c0.2,0.8-1.3,1-1.5,1.8c-0.1,0.2,0,0.4,0,0.6c-0.1,0.2-0.3,0.3-0.3,0.6
					c0,0.4,0.3,0.6,0.4,1s0,2.8,1,1.7c0.4-0.4-0.3-2.5,0.7-2.2c-0.3,0.4,0,0.9,0,1.4s-0.3,1-0.3,1.4c0,0.2,0.3,0.4,0.3,0.6
					s-0.1,0.5-0.2,0.7c-0.1,0.5-0.1,1.1,0.5,1.3c1.3,0.4,1-1.7,1-2.4c0-0.5,0.4-0.8,0.5-1.2c0.1-0.6-0.2-1.1-0.5-1.6
					c0.2,0,0.5,0,0.7,0.1c0,0.6,0.2,2,0.5,2.2c0.5,0.3,1.5-0.3,2.1-0.3c0.9,0,1.9,0.3,2.3-0.8c0.3-0.7,0.5-1.5,0.8-2.2
					s0.4-1.5,0.7-2.2c0.1-0.3,1.3-2.2,1.6-1.2c0.2,0.5-1.3,1.3-1.1,2c0.2,0.7,1.6-0.7,2.1,0.1c0.1,0.1,0.1,0.3,0,0.5
					c-0.8-0.3-1,0.5-1.6,0.7c-0.6,0.3-1.5,0-1.3,1c0.2,0.8,0.7,0.2,0.8,0.4c0.4,0.5-0.1,0.3-0.3,0.4c-0.2,0.1-0.7-0.1-0.6,0.5
					c0.1,0.3,0.4,0.3,0.7,0.4c0.3,0.1,0.7-0.2,0.6,0.3c0,0.4-0.4,0.2-0.7,0.3c-0.4,0.1-0.4-0.2-0.6,0.3c-0.2,0.4,0.2,0.5-0.2,0.8
					c-0.4,0.2-0.5-0.2-0.8,0.2c-0.2,0.3,0.6,0.5-0.2,0.8c-0.4,0.1-0.5-0.2-0.8-0.3c-0.3-0.1-0.7-0.1-1-0.2c-0.1,0.5-0.4,0.5-0.8,0.6
					c-0.5,0.1-0.7,0-1.1,0.4c-0.7,0.6-0.7,1.1-0.6,1.9c0.2,0.9-0.1,1.4-0.1,2.2c0,0.3-0.1,0.8-0.1,1.1c0.1,0.4,0.4,0.7,0.6,1.2
					c0.4,0.9,0.8,1.6,1.3,2.5c0.5,0.8,0.1,1.4-0.1,2.3c-0.2,0.9-0.1,1.4,0.2,2.2c0.1,0.3,0.1,0.8,0.3,0.9c0.2,0.1,1-0.6,1.1-0.8
					c0.4-0.4,0.5-1,0.6-1.6c0.2-1.1-0.5-0.7-0.9-1.5c-0.2-0.4,0.1-0.4,0.1-0.7s-0.1-0.8-0.3-1.1c-0.2-0.2-1.4-1.3-0.3-1.2
					c0,0.1,0.4,1,0.5,1c0.5,0.2,0.7-0.2,0.7-0.8c0-0.3-0.3-1.2-0.4-1.4c-0.3-0.3-0.9-0.2-1.1-0.6c-0.1-0.1,0-0.4,0-0.6
					c0.2-0.4,0.2-0.1,0.5-0.1c0.4,0.1,0.6,0.6,1,0.1c0.3-0.4-0.2-1.1,0.1-1.5c0.2-0.4,0.9-0.6,1.3-0.6c-0.1,0.4-0.4,0.2-0.5,0.4
					c-0.3,0.4-0.2,0.3-0.2,0.8s0,1,0.2,1.5c0.1,0.2,0.3,0.4,0.3,0.7c0,0.4-0.2,0.4-0.3,0.7c-0.1,0.4-0.3,0.3-0.2,0.7
					c0.1,0.3,0.3,0.6,0.6,0.7c0.1,0.5,0.8,0.4,1,0c0.3-0.4-0.3-0.9,0.1-1.3c0.1,0,1.1-0.2,1.3-0.2c0.6-0.1,0.8-0.3,1.3-0.6
					c0.8-0.5,1.7-0.1,2.2-1.1c0.4-0.8-0.2-1.9,1.1-2c-0.5,0.1-0.5,0.6-0.1,0.8c0.3,0,1.9-1.9,1.7-0.6c-0.7,0.1-0.3,0.4-0.4,0.7
					c-0.1,0.4-0.2,0.4-0.5,0.7c-0.4,0.4-1.3,1-0.4,1.4c0.6,0.3,1.5-0.5,1.9,0.4c0.3,0.6-0.1,0.4-0.4,0.4c-0.2,0-0.2-0.2-0.4-0.2
					c-0.3,0-0.2,0.3-0.5,0.4c-0.7,0.1-1.2-0.5-1.8,0.3c-0.2,0.3-0.2,0.4-0.5,0.7c-0.2,0.2-0.7,0.5-0.9,0.6c-0.9,0.4-1.1,0-1.5,1
					c-0.2,0.6-0.8,1-1,1.7c0.1,0.1,0.3,0.2,0.4,0.2c0.2-0.3,0.2-0.7,0.5-0.7c0.1,0.5-1,1.5,0.5,1.4c0.4,0,1.7-1,1.5,0.1
					c-0.7-0.1-0.3,0.5-0.6,0.7c-0.4,0.4-0.8-0.1-1.3-0.2c-0.7,0-0.5,0.5-1,0.7s-0.9-0.3-1.3-0.1c-0.4,0.1-1.3,2-0.7,2.2
					c0.5,0.2,0.5-0.7,0.9-0.9c0.5-0.2,0.7,0.3,0.3,0.6c0.5,0.8,1.6-0.1,2.1-0.4c0.3-0.2,0.7-0.3,1,0c0.6,0.6-0.2,0.4-0.4,0.4
					c-0.4,0-0.6-0.2-1,0.2c-0.3,0.3-0.5,0.5,0,0.8c0.4,0.3,1.9-0.2,1.7,0.7c-0.3,0-0.4-0.3-0.8-0.2c-0.3,0.1-0.5,0.5-0.8,0.5
					c-0.6,0.1-1-0.6-1.6-0.5c-0.8,0.1-0.8,0.7-0.7,1.3c0.1,0.6,0.1,1.1-0.7,0.7c-0.1-0.4,0.2-0.6,0.2-1s-0.4-0.5-0.2-1.1
					c-0.6,0-0.6,0.3-1.1,0.5c-0.6,0.3-1-0.1-1.5,0c-1,0.2-0.2,1.4-0.7,2.1c-0.6,1-1.5,0.8-1,2.2c0.2,0.6,0.7,1.2,0.8,1.8
					c0.2,0.7-0.1,1.1,0.3,1.7c0.4,0.6,1.1,0.7,1.5,1.5c0.3,0.6,0.2,1,0.2,1.6c0,1.1,0.7,1.9,0.9,3c0.2,1.1,0.1,2.5,1,3.3
					c0.9,0.7,2.4,0.3,3.1-0.6c0.9-1.1,0-2.4,0.5-3.5c0.1-0.3,0.6-0.4,0.7-0.8c0.1-0.6-0.8-1-1.2-1.2c-0.9-0.4-1.5-0.2-2.4-0.4
					c-1.2-0.2-0.6-0.9-0.8-1.6c-0.1-0.2-0.8-0.9,0-0.6c0.3,0.1,0.4,1,0.6,1c1.2,0.5,0.4-1.7,0.4-2c0-0.6,0.2-1.3,0.8-1.4
					c0.8-0.2,0.5,0.2,0.2,0.6c-0.4,0.6-0.5,0.3-0.4,1c0.1,0.3,0.1,1,0.3,1.2c0.8,0.7,1.1-0.8,1.6-0.9c0.8-0.2,1.4,1,1.5,1.6
					c0.1,0.3,0.2,2.1,0.9,1.1c0.3-0.4-0.3-0.6,0.3-0.9c0.3-0.1,0.7,0.1,1,0c0.4-0.2,0.4-0.4,0.7-0.7c0.5-0.4,0.7-0.2,1.2-0.4
					c1-0.5,0.3-2.3-0.2-3.1c-0.2-0.4-1.2-1-0.8-1.5c0.2-0.3,0.8-0.2,1,0c0.1,0.1,0.2,0.8,0.3,0.9c0.1,0.4,0,0.7,0.6,0.7
					c0.4-0.5,0.1-0.7-0.2-1.1c-0.3-0.6-0.3-0.5-0.1-1c0.2-0.7,0.4-0.9-0.1-1.6c-0.3-0.4-0.7-0.9-1.1-0.6c0.2-0.2,0.9-1.1,1.3-1
					c0.6,0.1,0.4,1.3-0.3,0.7c0.1,0.6,1.3,1.2,0.8,2c0.9,0.3,0.5-1,0.6-1.4c0.4,0,0.7-0.5,1.1-0.3c0,0.9-0.9,0.2-0.7,1
					c0,0.2,0.4,0.2,0.4,0.5c0,0.2-0.2,0.6-0.3,0.7c0.3,0.1,0.8,0.2,1.2,0.1c0.4-0.1,0.7-0.8,1.2-0.6c0.9,0.5-0.3,0.7-0.4,0.7
					c-0.2,0.1-0.7,0.4-1,0.8c-0.3,0.4-0.1,0.9-0.2,1.3c-0.2,0.7-0.5,0.5-1,0.9c-0.8,0.6-0.9,1.6-0.7,2.5c0.8,0,0.4-1,0.8-1.4
					c0.5-0.5,1.1-0.1,1.3-1c1,0.5-0.6,0.8-0.3,1.4c0.4,0.8,1.7,0.2,1.5,1.4c-0.3,0.1-0.6-0.1-0.7-0.4c-0.6-0.1-0.4,0.5-0.8,0.7
					c-0.6,0.3-0.8-0.2-1.2,0.5c-0.2,0.3-0.1,0.7-0.5,1c-0.3,0.2-1,0.3-1.2,0.6c-0.4,0.9,1.1,0.7,1.5,0.4c0.3-0.2,2.1-1.9,2.1-0.5
					c0,0.7-0.5,0-0.8,0.2c-0.6,0.3,0.3,0.6,0.4,0.9c0.1,0.3,0.1,1-0.4,0.8c-0.2-0.1-0.2-0.8-0.5-1c-0.5-0.3-0.4,0-0.8,0.1
					c-0.3,0.1-0.9,0-1.2,0.2c-0.5,0.4,0.2,2.1-0.9,1.4c-0.2-0.1-0.2-0.4-0.1-0.6c-0.4,0-0.5,0.4-0.6,0.7c-0.2,0.6-0.1,0.9-0.5,1.3
					c-0.5,0.5-2.3,1-0.9,1.8c1.2,0.6,1.7-1,2.5-1.6c1.1-0.9,1.6-0.9,2.6-0.1c0.2,0.1,0.4,0.2,0.6,0.3c0.4,0.1,0.7-0.1,0.9,0
					c0.3,0.1,0.8,0.4,0.5,0.9c-0.1,0.1-2,0.3-2.3,0.2c-0.5-0.1-0.6-0.6-1.2-0.4c-0.4,0.1-0.5,0.6-0.8,0.9c-0.2,0.3-0.6,0.5-0.6,0.9
					c0,0.3,0.8,1,0.7,1.2c-0.2,0.3-0.9,0.1-1-0.2c-0.8,0.4-0.2,1.7,0.4,2c1.1,0.7,1.8-0.2,2.8-0.5c0.5-0.2,0.7-0.2,1.2-0.5
					c0.3-0.2,1.1-0.8,1.1-0.1c0,0.6-0.7,0.1-0.9,0.3c-0.4,0.3-0.2,0.8,0,1c0.2,0.3,0.7,0.3,0.8,0.5c0.3,0.5-0.2,0.6-0.6,0.4
					c-0.3-0.1-0.4-0.6-0.8-0.7c-0.2-0.1-0.9-0.1-1.1,0s-0.3,0.3-0.4,0.4c-0.1,0-0.5,0.2-0.5,0.2c-0.3,0.4-0.1,0.8-0.3,1.2
					c-0.2,0.4-0.4,0.4-0.7-0.1c-0.3-0.4,0.2-0.9,0-1.2c0-0.1,0-0.1,0-0.2c-0.3-0.1-0.8-0.1-1.1-0.1c-0.2,0-0.4-0.2-0.6-0.1
					s-0.1,0.4-0.2,0.5c-0.5,0.2-0.8,0.1-0.9-0.4c-0.1-0.7,0.4-0.3,0.7-0.7c0.4-0.5,0.1-1.8-0.2-2.2c-0.4-0.5-0.3-0.2-0.8-0.3
					s-0.5-0.5-0.9-0.7c-0.6-0.3-1.6,0.6-2.1,1c-0.9,0.6-1.8,1.1-2.9,0.7s-1.6-1.6-2.4-2.3c-1-0.8-2.3-1.2-2.8-2.7
					c-1.2,0-0.9,1-1.4,1.7c-0.5,0.8-1.3,1.2-1.7,2.1c-1.7,4.5-3,13.4-3.2,14.5c-1.2,6.6-3.3,9.7-4.3,15.6c-0.1,0.8-1.1,7.3-0.9,8.1
					c0.3,1.2-0.7,3.3-0.4,4.5c0.2,0.7,0.5,0.8,0.9,1.3c0.3,0.5,0.5,1,0.9,1.4c0.6,0.5,1.3,0.4,2,0.7c0.6,0.2,1,0.6,1.4,1
					s0.4,0.5,1,0.7c0.5,0.2,0.7,0.3,0.9,0.9c0.3,1.2-0.7,0.9-1.5,0.8c-1-0.1-1.8-0.1-2.8-0.4c-1.3-0.4-2.7-0.3-4-0.7
					c-0.9-0.3-1.7-0.7-2.6-0.9c-1.1-0.2-2.3,0.1-3.3-0.4c-0.6-0.3-1-0.7-1.6-0.9c-0.6-0.2-1.3-0.2-2-0.3c-1-0.1-2-0.5-2.9-0.7
					c-1.6-0.4-3.2-0.9-4.7-1.5c-1.1-0.4-1.9-1.2-3-1.6c-0.7-0.2-2.5-0.2-2.4-1.4C285.2,107.6,286.7,107.9,287.4,107.7"/>
				<rect id="Rectangle-1" x="61.7" y="127" class="st0" width="283.1" height="49"/>
			</g>
		</g>
	</g>
</g>
</svg>
