<?xml version="1.0" encoding="UTF-8" standalone="no"?>
<svg width="289px" height="130px" viewBox="0 0 289 130" version="1.1" xmlns="http://www.w3.org/2000/svg" xmlns:xlink="http://www.w3.org/1999/xlink" xmlns:sketch="http://www.bohemiancoding.com/sketch/ns">
    <!-- Generator: Sketch 3.3.2 (12043) - http://www.bohemiancoding.com/sketch -->
    <title>header-layer-1 9.31.24 PM</title>
    <desc>Created with Sketch.</desc>
    <defs></defs>
    <g id="Page-1" stroke="none" stroke-width="1" fill="none" fill-rule="evenodd" sketch:type="MSPage">
        <g id="header-layer-1" sketch:type="MSLayerGroup" fill="#3C1424">
            <g id="Page-1" sketch:type="MSShapeGroup">
                <g id="Connorween">
                    <g id="header">
                        <path d="M66.771,117.553 L68.205,100.977 L75.875,102.195 L76.276,99.573 L73.476,99.186 L76.58,98.446 L77.232,96.928 L69.792,96.434 L70.792,85.074 L64.902,85.793 L63.981,95.295 L56.159,94.645 L57.57,99.749 L62.044,100.228 L61.601,117.857 L66.771,117.553" id="Fill-8"></path>
                        <path d="M104.044,123.695 L103.259,103.072 C102.959,95.286 106.431,90.676 110.251,89.713 C110.234,88.201 110.237,83.711 110.237,83.711 L107.591,83.526 L107.023,82.141 L110.137,82.75 L109.887,78.669 L111.538,78.633 L111.353,82.612 L115.293,82.537 L115.186,83.669 L111.624,83.779 L112.01,89.527 C116.328,89.709 120.433,94.578 119.472,104.809 L117.734,123.314 L104.044,123.695" id="Fill-9"></path>
                        <path d="M100.787,123.889 L96.603,110.942 C93.007,99.813 104.731,95.64 107.199,109.146 L109.403,121.197 L100.787,123.889" id="Fill-10"></path>
                        <path d="M51.327,90.894 L56.894,117.282 L46.166,119.338 L36.825,97.088 L51.327,90.894" id="Fill-11"></path>
                        <path d="M46.325,95.682 L43.605,90.84 L46.249,89.843 L45.875,89.049 L44.914,89.43 L45.753,88.68 L45.669,88.147 L43.231,89.309 L41.371,85.981 L39.654,87.205 L41.182,90 L38.597,91.183 L40.018,92.352 L41.517,91.701 L44.752,96.666 L46.325,95.682" id="Fill-12"></path>
                        <path d="M154.553,82.457 L154.129,95.572 L144.362,92.689 L145.763,97.285 L154.161,98.673 C154.161,98.673 152.324,118.125 152.3,119.357 C152.269,120.584 157.996,120.85 157.996,120.85 L158.575,99.303 L169.99,100.023 L170.669,96.441 L158.061,95.492 L159.844,82.836 L154.553,82.457" id="Fill-13"></path>
                        <path d="M128.226,125.335 L130.648,110.502 C131.046,108.056 130.938,105.578 132.842,103.784 C136.032,100.78 142.917,99.113 143.087,104.919 C143.179,107.982 141.691,111.259 140.798,114.139 L136.913,126.641 L128.226,125.335" id="Fill-14"></path>
                        <path d="M230.831,122.965 L231.168,108.504 L237.889,109.142 L238.092,106.846 L235.643,106.66 L238.296,105.85 L238.779,104.498 L232.297,104.479 L232.541,94.564 L227.473,95.512 L227.19,103.809 L220.371,103.67 L221.873,108.021 L225.782,108.191 L226.361,123.514 L230.831,122.965" id="Fill-15"></path>
                        <path d="M263.244,129.258 L262.998,110.283388 C262.902,103.119119 266.232,98.9604358 269.798,98.1619844 C269.817,96.7731149 269.926,92.6471224 269.926,92.6471224 L267.475,92.4172952 L266.982,91.1284798 L269.853,91.7614952 L269.717,88.006 L271.251,88.0099625 L270.985,91.6624318 L274.644,91.6852164 L274.519,92.7224106 L271.212,92.7402421 L271.434,98.0351832 C275.439,98.3026545 279.13,102.871461 278,112.25376 L275.956,129.220356 L263.244,129.258" id="Fill-16"></path>
                        <path d="M247.704,124.813 L243.363,113.811 C239.635,104.352 249.579,100.09 252.458,111.671 L255.032,122.007 L247.704,124.813" id="Fill-17"></path>
                        <path d="M209.656,99.623 L215.934,122.215 L206.737,124.586 L197.414,105.793 L209.656,99.623" id="Fill-18"></path>
                        <path d="M205.58,104.049 L202.953,100 L205.195,98.989 L204.823,98.32 L204.014,98.703 L204.702,98.008 L204.598,97.551 L202.546,98.691 L200.749,95.907 L199.327,97.064 L200.807,99.404 L198.628,100.57 L199.927,101.506 L201.191,100.863 L204.27,104.99 L205.58,104.049" id="Fill-19"></path>
                        <path d="M271.204,86.534 L271.115,86.602 L271.202,86.534 L271.204,86.534 C274.711,84.082 275.342,81.071 276.224,77.392 C273.286,83.406 270.649,86.789 263.879,88.855 C264.005,88.751 264.126,88.647 264.255,88.536 C268.946,84.322 268.641,78.777 269.536,73.414 C270.709,73.545 272.363,73.399 273.599,73.379 C274.876,73.356 274.854,68.312 276.596,67.596 C277.198,67.357 281.856,65.637 279.009,66.209 C278.209,66.359 277.172,66.662 276.37,66.81 C275.788,66.922 275.191,67.098 275.111,67.592 C274.99,68.331 273.572,72.24 273.244,72.512 C273.083,72.66 271.16,72.519 269.725,72.389 C269.891,71.565 270.095,70.754 270.36,69.949 C272.634,63.035 279.933,58.477 288.674,54.449 C280.062,57.862 271.125,60.863 268.528,69.992 C267.359,74.105 267.692,76.43 266.655,79.762 C266.477,79.119 263.621,74.707 262.964,73.1 C265.097,70.152 266.482,66.994 267.449,63.713 C274.154,57.878 276.396,53.305 276.887,45.293 C275.657,51.64 274.567,57.029 268.145,61.061 C269.022,57.255 269.473,53.322 269.978,49.406 C268.391,57.397 267.211,65.51 261.873,72.369 C256.463,67.566 256.713,66.57 257.886,59.491 C254.534,66.546 254.518,67.98 260.848,73.289 C263.621,76.223 263.206,80.397 265.1,83.764 C264.314,85.297 263.213,86.641 261.569,87.739 C257.986,90.133 255.592,88.898 248.904,90.723 C248.654,90.229 248.377,89.75 248.062,89.284 C246.873,86.25 245.39,84.609 246.045,82.268 C246.18,81.789 246.404,81.279 246.739,80.723 C249.562,81.037 253.194,80.606 255.295,77.554 C252.46,79.592 249.785,80.665 247.451,79.684 C248.413,78.419 249.89,76.914 252.054,75.015 C252.61,74.523 253.394,73.043 253.394,73.043 L251.678,74.734 C251.342,75.064 250.384,75.852 250.028,76.149 C249.18,74.783 249.87,73.861 250.806,72.615 L250.624,72.631 C248.966,73.751 249.022,74.691 249.412,76.621 C246.172,79.368 243.673,80.077 244.23,84.284 C237.862,75.744 234.576,67.346 241.988,59.458 C245.831,55.769 249.672,52.078 253.511,48.389 C255.763,46.383 257.825,45.076 259.804,44.086 C263.026,41.756 265.403,39.987 267.154,38.391 C270.387,37.244 273.654,35.108 276.249,32.992 C278.312,29.562 279.415,30.967 283.606,30.565 C278.688,30.18 278.474,28.52 275.803,32.355 C273.912,33.639 271.079,35.658 269.096,36.379 C271.324,33.664 272.433,29.074 272.525,24.143 C273.862,22.087 275.502,21.632 276.874,17.71 C274.779,21.245 272.75,22.439 271.643,23.774 C271.496,26.372 271.287,28.853 270.957,30.195 C269.978,29.865 267.373,30.402 266.784,29.733 C267.435,28.012 267.533,26.943 267.525,25.611 C267.608,27.6 265.42,29.728 265.988,30.531 C266.43,31.156 269.444,30.541 270.673,31.239 C270.241,32.635 269.655,33.914 268.842,35.106 C266.908,37.941 263.688,40.283 258.23,42.576 C261.239,36.937 261.995,34.547 261.711,28.29 C261.519,24.025 263.744,18.137 268.005,16.609 C260.958,18.621 262.201,22.01 260.217,27.279 C257.864,22.499 256.596,18.727 256.437,15.216 C258.141,14.651 260.091,15.582 261.196,14.777 C261.794,11.874 263.638,10.042 264.923,7.176 C263.434,9.295 260.483,12.465 260.686,14.066 C259.648,14.752 258.039,13.625 256.433,13.854 C256.58,9.833 258.231,6.026 261.414,1.258 C255.191,9.975 253.66,15.826 258.061,24.924 C253.647,20.607 249.997,17.439 249.466,14.284 C249.831,12.99 252.028,12.897 254.635,7.539 C251.491,12.298 248.852,12.708 247.871,14.338 C248.091,16.606 251.605,19.146 252.75,21.432 C249.577,18.534 249.49,20.071 243.238,14.135 C246.404,19.827 251.839,20.614 255.649,24.775 C263.066,30.805 257.385,41.568 251.3,47.07 C246.501,52.772 239.603,56.87 235.936,62.911 C234.951,61.141 234.314,58.379 234.11,54.575 C233.972,51.941 233.985,49.374 234.362,46.454 L238.055,44.933 C238.672,45.059 238.894,45.274 239.413,45.371 C238.834,47.496 241.48,48.357 242.46,49.053 C243.159,49.549 240.795,50.846 241.174,52.475 C241.73,50.869 244.044,49.335 243.894,49.168 C242.921,48.115 239.704,47.311 240.387,45.647 C242.284,45.967 244.313,47.465 245.52,47.261 C246.852,45.46 248.722,43.778 252.445,42.912 C249.602,43.207 246.814,44.149 245.162,46.418 C244.144,46.445 243.074,45.613 241.098,44.994 C244.43,42.461 244.255,39.884 244.699,37.144 C246.98,35.839 248.947,32.855 249.646,31.552 C248.348,32.585 246.843,35.29 243.617,36.731 C243.254,37.936 243.126,39.175 242.756,40.345 C241.756,39.647 240.025,39.432 239.368,38.875 C239.43,38.004 239.118,36.769 237.901,35.355 C239.148,37.657 238.743,38.459 238.699,39.331 L242.49,41.09 C242.474,42.19 241.588,43.699 239.711,44.574 L238.042,44.12 L234.612,44.861 C235.157,41.607 236.113,37.67 234.626,34.517 L234.642,34.478 C238.789,28.755 241.255,23.404 240.34,18.964 C239.357,18.735 239.508,16.545 237.064,14.296 C238.923,17.401 239.739,20.092 239.524,22.437 C237.823,22.817 236.289,21.748 234.681,19.019 C233.193,16.489 232.665,15.149 230.517,12.913 C231.966,15.011 232.961,16.73 233.871,19.051 C232.412,18.879 231.311,18.956 229.84,19.115 C231.275,19.305 232.713,19.499 234.147,19.691 C235.72,21.484 236.772,23.037 239.392,23.397 C238.773,26.762 236.725,29.051 236.283,29.541 C235.883,26.919 236.664,24.171 235.454,22.952 C232.183,23.946 231.701,22.386 229.195,21.229 C231.238,23.089 232.787,24.562 234.912,23.69 C235.887,24.691 235.129,27.084 234.883,30.053 C234.883,30.053 234.585,32.072 234.195,32.746 C234.118,32.877 234.062,33.103 234.011,33.381 C233.816,33.064 233.601,32.738 233.36,32.402 C231.888,30.355 229.67,29.559 227.469,28.671 C227.48,28.498 227.477,28.303 227.496,28.138 C227.589,27.275 229.232,27.546 230.168,27.506 C230.783,26.19 230.9,25.315 230.422,24.799 C230.404,25.787 230.292,26.436 229.671,26.9 C228.728,27.084 228.303,27.006 227.935,27.133 C227.431,27.285 227.154,27.594 226.972,27.224 C226.833,26.895 226.888,25.986 226.689,25.773 C225.817,24.826 222.986,24.912 222.636,23.654 C222.604,23.534 223.822,21.88 223.201,19.423 C223.195,21.82 222.443,22.476 222.068,24 C221.855,24.846 225.199,25.208 225.873,25.938 C226.147,26.236 226.244,27.433 226.466,28.255 C224.518,27.41 222.675,26.328 221.483,24.058 C217.862,18.42 218.789,14.256 222.18,7.839 C219.455,11.17 218.262,13.569 218.027,17.707 C218.066,17.937 218.101,18.166 218.135,18.396 C216.322,15.621 214.227,12.815 212.166,10.644 C211.925,10.381 211.584,10.087 211.162,9.764 C211.653,6.898 213.171,4.3 212.008,2.901 C208.185,2.538 206.602,1.137 203.298,0.326 C205.893,1.656 207.575,2.764 210.954,3.704 C211.792,4.646 209.991,7.488 209.635,8.717 C207.472,7.345 204.565,5.933 201.62,5.045 L201.62,5.633 C204.748,6.747 208.19,8.56 211.203,11.19 C214.084,13.708 215.831,17.059 217.449,19.771 C216.279,18.727 210.533,18.582 207.777,20.466 C205.565,19.333 203.792,15.415 201.62,12.905 L201.62,13.534 C203.818,16.674 205.445,21.393 207.635,22.62 C208.22,20.734 214.241,18.35 216.741,20.523 C218.161,21.759 218.962,22.398 219.786,23.992 C222.352,28.965 228.317,29.782 231.275,33.274 C233.874,36.343 232.398,40.143 232.266,43.73 C231.677,49.116 230.337,53.918 231.995,59.15 C229.004,57.475 227.534,55.544 226.657,53.566 C225.17,50.191 224.628,47.772 223.644,46.025 C223.676,45.627 223.704,45.226 223.733,44.822 C224.539,43.015 224.123,41.949 222.709,40.645 C222.703,40.118 222.703,39.428 223.031,39.127 C223.858,38.352 226.413,39.737 226.466,38.611 C226.459,37.699 226.565,36.424 226.767,35.531 C226.833,35.254 227.456,32.451 227.124,33.209 C226.393,34.776 225.948,36.245 225.762,37.985 C225.733,38.232 224.091,38.466 223.695,38.527 C223.695,38.527 224.177,37.66 224.104,37.37 C223.883,36.503 223.741,35.521 223.421,34.611 C223.282,34.256 222.129,30.014 222.524,32.182 C222.621,32.566 222.646,33.008 222.636,33.414 C222.635,34.387 224.021,37.488 223.292,38.022 C222.675,38.476 222.28,39.42 222.241,40.234 C220.981,39.169 219.124,37.898 216.77,35.957 C221.835,40.82 224.18,41.6 223.009,45.082 C222.57,44.541 222.037,44.078 221.342,43.687 C219.238,43.397 217.235,43.156 215.323,42.52 C216.084,40.795 216.43,38.123 215.058,36.87 C213.224,36.41 210.924,35.961 209.666,35.238 C211.042,36.232 212.668,37.035 214.686,37.147 C215.555,38.157 214.772,40.441 214.53,42.053 L214.85,42.352 C214.186,42.109 213.346,41.647 212.578,41.049 C210.97,40.789 208.601,40.664 207.957,40.059 C209.033,41.383 211.688,41.045 212.583,41.705 C214.41,43.059 216.256,43.348 220.222,44.193 C222.804,45.501 223.592,47.549 224.157,49.923 C221.952,49.965 220.708,49.059 219.052,47.865 C221.002,49.678 221.711,50.109 224.338,50.72 C224.595,51.899 224.843,53.146 225.252,54.412 C225.578,55.397 226.191,56.493 227.102,57.572 C226.68,57.721 226.335,57.823 226.283,57.769 C225.32,56.932 225.129,55.307 222.662,53.789 C222.238,53.816 220.329,54.198 217.811,53.727 C218.646,54.145 220.684,54.348 222.522,54.51 C223.942,55.195 225.012,56.873 224.896,56.957 C223.864,57.715 223.494,56.903 222.577,56.26 C222.18,56.562 221.452,56.282 220.485,56.764 C220.002,57.002 219.218,57.404 220.304,57.123 C222.01,56.674 221.934,56.5 223.373,57.502 C224.482,58.289 224.252,57.373 225.23,57.456 C225.368,57.469 225.967,58.117 226.13,58.224 C226.402,58.405 227.027,58.309 227.651,58.185 C228.776,59.358 230.262,60.482 232.106,61.389 C232.677,62.596 233.19,63.496 233.758,64.353 L233.511,64.639 C233.666,68.42 234.876,72.004 234.294,78.391 C234.558,79.701 234.82,81.012 235.087,82.322 C230.698,81.391 227.795,80.549 226.436,77.723 C224.284,73.252 225.986,64.535 225.651,63.952 C224.837,62.26 221.607,60.431 219.383,58.773 C221.176,60.928 224.013,62.387 224.8,64.201 C224.559,65.797 224.123,67.422 224.364,68.752 C220.548,67.049 219.208,65.996 216.934,62.582 C218.528,66.217 219.66,67.602 223.448,69.608 L224.092,69.892 C224.045,72.216 224.252,74.55 224.648,76.859 C220.844,75.626 218.363,73.772 216.494,71.701 C212.777,67.57 210.85,64.403 208.629,62.35 C208.479,61.777 208.32,61.207 208.168,60.637 C208.412,57.805 207.316,56.478 204.708,55.203 C204.444,54.473 204.111,53.508 204.425,52.963 C205.196,51.565 209.435,52.506 208.96,50.916 C208.512,49.649 208.035,47.826 207.885,46.504 C207.842,46.094 207.351,41.944 207.257,43.127 C206.994,45.596 207.094,47.814 207.674,50.316 C207.755,50.672 205.576,51.634 205.059,51.87 C205.059,51.87 205.308,50.471 205.064,50.098 C204.335,48.975 203.662,47.657 202.772,46.516 C202.65,46.369 202.157,45.658 201.62,44.888 L201.62,46.123 C202.7,47.816 204.864,50.485 204.25,51.318 C203.606,52.193 203.515,53.662 203.859,54.812 C203.194,54.525 202.443,54.227 201.62,53.908 L201.62,54.553 C205.567,56.454 207.244,57.71 207.286,61.279 C206.409,60.691 205.44,60.254 204.278,59.975 C203.382,60.094 202.497,60.211 201.62,60.32 L201.62,61.198 C202.053,61.174 202.492,61.147 202.966,61.116 C207.199,61.939 209.296,64.492 211.234,67.586 C208.182,68.496 206.006,67.713 203.115,66.689 C206.711,68.464 207.914,68.787 211.875,68.625 C212.808,70.174 213.753,71.816 214.946,73.422 C215.875,74.672 217.264,75.965 219.06,77.118 C218.542,77.489 218.109,77.762 218.015,77.705 C216.262,76.908 215.202,74.719 211.029,73.557 C210.45,73.758 207.975,75.028 204.233,75.344 C205.597,75.606 208.538,75.1 211.185,74.615 C213.497,75.022 215.801,76.949 215.685,77.111 C214.61,78.565 213.701,77.577 212.113,77.034 C211.699,77.611 210.551,77.499 209.435,78.543 C208.879,79.065 207.98,79.928 209.358,79.117 C211.514,77.834 211.328,77.617 213.822,78.461 C215.753,79.131 214.986,77.936 216.39,77.681 C216.589,77.642 217.741,78.315 218.02,78.403 C218.486,78.549 219.313,78.17 220.123,77.76 C221.27,78.404 222.565,78.979 223.977,79.469 C224.794,79.994 225.659,80.51 226.65,81.023 C230.844,83.19 235.944,86.06 238.984,89.393 C242.121,92.83 240.243,99.832 236.12,104.304 C229.242,111.762 227.44,120.523 231.777,125.816 C233.078,127.402 251.306,122.236 254.612,123.71 C254.756,118.43 245.32,112.283 248.82,101.932 C250.197,97.863 250.315,95.025 249.674,92.694 C254.587,91.147 258.965,92.006 262.795,89.629 C266.047,89.226 268.075,89.52 270.319,87.365 C275.439,88.449 277.633,88.566 281.687,85.451 C277.66,87.16 275.529,87.623 271.204,86.534 L271.204,86.534 L271.204,86.534 Z M235.487,56.786 L235.326,56.641 C235.375,56.741 235.426,56.835 235.473,56.926 L235.487,56.786 L235.487,56.786 Z" id="Fill-20"></path>
                        <path d="M180.637,33.625 C180.804,33.594 180.815,33.723 180.949,33.729 C181.174,35.225 181.139,37.461 181.157,39.464 C179.935,41.084 178.369,42.556 176.986,44.364 C175.823,45.886 173.911,47.818 173.44,49.891 C172.467,54.179 175.572,58.703 175.631,62.926 C175.656,64.785 174.783,67.08 175.004,68.766 C175.114,69.6 175.937,70.834 176.361,72 C176.762,73.097 177.148,74.628 177.611,75.231 C178.735,76.693 181.802,76.852 183.348,78.256 C183.476,78.371 184.129,80.221 184.702,80.234 C184.959,80.242 186.6,77.943 187.101,77.316 C188.564,75.493 189.044,74.668 190.02,72.729 C190.656,71.467 191.688,70.881 191.793,69.286 C191.986,66.412 190.637,64.063 189.813,61.467 C188.875,61.575 187.102,61.336 185.641,61.571 C182.52,63.471 184.333,68.73 184.39,71.163 C183.476,69.414 181.463,67.895 182.2,65.428 C182.436,65.506 182.242,66.014 182.305,66.263 C182.676,65.904 182.617,65.117 182.617,64.387 C181.746,64.33 181.157,65.059 180.429,64.803 C182.266,63.548 184.236,62.424 185.12,60.215 C186.44,60.529 187.69,60.317 188.979,60.111 C188.576,59.053 188.079,58.09 187.728,56.981 C185.855,56.109 183.23,55.988 181.47,55.001 C180.063,55.576 178.784,56.834 177.299,56.981 C178.832,56.238 180.354,53.909 182.097,53.856 C184.161,53.789 185.784,56.258 188.353,56.043 C189.675,54.439 187.923,53.342 187.623,52.29 C188.248,52.374 189.159,53.035 189.813,53.437 C189.979,54.825 189.769,56.38 189.917,57.711 C190.487,62.856 195.075,66.133 193.254,72.103 C194.405,71.725 195.424,70.311 196.486,69.495 C198.073,69.607 199.422,70.401 200.762,70.121 C202.169,69.828 203.305,67.397 204.308,66.472 C205.119,65.721 207.448,64.1 207.853,62.926 C208.481,61.104 208.012,57.232 208.688,55.834 C209.238,54.692 211.511,54.371 212.232,53.332 C213.151,52.007 212.578,50.602 213.587,49.579 C214.14,53.26 212.037,55.188 210.251,56.879 C210.066,57.635 210.177,58.49 210.251,59.276 C211.136,59.247 211.281,57.603 211.919,56.981 C213.648,57.324 215.259,57.385 217.029,57.398 C220.762,55.326 222.482,50.689 228.396,51.143 C227.333,52.26 225.591,51.969 224.328,52.498 C222.075,53.444 221.022,56.371 219.01,57.504 C221.17,59.33 222.494,65.018 226.204,64.803 C228.139,64.691 229.065,62.686 230.272,61.571 C229.829,62.935 228.52,65.443 226.623,65.74 C225.77,65.876 223.359,65.642 222.45,65.117 C220.73,64.121 220.269,59.055 217.759,58.754 C216.374,58.707 214.507,58.994 212.856,58.65 C212.102,60.054 211.244,61.01 210.251,62.51 C209.596,63.498 207.731,65.289 208.061,66.785 C208.263,67.7 210.435,69.079 211.711,69.393 C213.26,69.77 214.942,69.174 216.299,68.973 C217.512,70.959 219.936,72.287 219.322,75.752 C218.439,74.062 218.105,71.232 215.986,70.538 C214.417,70.025 212.754,71.191 210.668,70.852 C209.815,72.083 209.326,73.682 209.104,75.543 C207.03,76.183 205.834,78.25 204.828,79.611 C205.062,78.523 205.583,77.723 205.872,76.69 C208.5,76.189 208.203,72.766 208.896,70.33 C208.362,69.264 207.184,68.844 206.185,68.244 C204.355,68.949 203.796,71.399 202.117,72.103 C200.426,72.811 198.714,72.08 196.591,72.52 C195.389,72.768 193.03,75.392 192.419,76.586 C191.762,77.873 190.549,81.229 190.543,82.842 C190.533,85.556 192.885,87.808 192.836,90.664 C193.94,90.846 194.481,91.592 194.818,92.541 C197.063,92.532 199.27,92.968 201.179,92.331 C202.923,91.754 204.041,89.872 205.455,89.518 C207.241,89.069 209.251,89.682 210.564,88.995 C213.415,87.506 215.274,84.982 216.924,82.322 C217.014,85.818 214.286,87.4 212.232,89.1 C213.902,89.375 215.561,89.664 217.134,90.038 C217.772,91.73 218.947,92.885 219.637,94.523 C217.888,93.887 217.479,91.189 215.153,90.768 C212.318,90.256 206.278,90.322 204.725,92.438 C205.69,92.723 207.123,92.539 208.061,92.854 C209.194,94.225 210.574,95.346 211.919,96.505 C211.933,98.748 213.109,101.148 212.648,102.864 C212.296,101.355 211.232,99.709 210.773,97.963 C209.221,96.803 208.047,95.267 206.496,94.104 C202.892,95.045 197.848,94.822 194.609,96.398 C193.361,98.314 192.225,100.34 192.211,103.49 C191.831,104.834 190.03,105.595 189.813,107.139 C189.672,108.135 190.198,109.24 190.125,110.373 C190.035,111.772 189.425,113.004 189.5,114.439 C191.951,114.676 193.569,113.242 195.651,112.771 C198.657,113.506 200.706,116.558 204.62,115.377 C206.451,116.881 208.327,118.344 208.373,121.635 C207.258,121.186 206.961,119.193 205.662,118.715 C204.37,118.238 202.693,119.565 201.179,119.341 C199.826,119.141 199.555,118.102 198.259,117.984 C197.722,118.178 197.279,118.465 196.694,118.609 C197.443,120.533 197.095,123.24 195.756,124.033 C196.395,121.178 195.296,118.999 193.254,118.715 C190.556,118.34 188.398,122.09 185.537,120.383 C184.861,121.729 185.316,123.255 184.077,124.242 C183.602,124.092 183.732,123.334 183.348,123.093 C180.465,123.34 180.144,126.147 178.656,127.787 C178.788,126.184 179.477,125.131 179.697,123.615 C180.814,122.473 182.677,122.076 182.617,119.757 C181.376,120.506 180.114,122.042 177.925,122.156 C176.879,122.209 175.877,121.674 174.901,121.738 C173.244,121.85 172.614,122.894 171.459,123.512 C171.787,121.477 172.951,120.275 175.422,120.383 C175.185,118.827 172.299,119.185 171.251,120.069 C171.239,119.293 171.523,118.813 171.668,118.193 C169.079,117.195 166.385,118.543 166.558,121.32 C166.101,121.363 166.199,120.848 166.037,120.59 C165.282,122.238 162.859,124.072 164.16,126.431 C164.005,126.553 163.693,126.523 163.742,126.85 C163.266,125.76 162.238,124.198 162.805,122.78 C163.085,122.082 163.94,121.561 164.265,120.696 C164.441,120.223 164.304,119.615 164.474,119.132 C165.049,117.477 166.7,116.528 167.497,115.794 C165.503,116.756 161.536,117.198 159.469,118.089 C160.35,117.313 161.049,115.561 162.492,115.377 C163.357,115.267 164.08,115.752 164.787,115.588 C166.142,115.267 166.333,113.641 167.705,113.188 C170.725,112.81 173.395,114.348 175.735,113.709 C176.156,113.594 176.574,113.095 177.09,112.875 C177.919,112.523 178.882,112.526 179.489,112.146 C180.61,111.44 182.227,108.654 182.513,106.827 C182.712,105.559 182.299,104.161 182.409,102.968 C182.565,101.289 183.763,99.272 184.285,97.963 C184.691,96.949 185.786,96.037 185.85,95.043 C186.05,91.902 184.132,87.703 182.93,85.763 C181.863,84.041 179.253,81.596 177.509,81.696 C175.9,81.789 173.953,83.586 172.295,84.407 C170.676,85.207 168.41,85.906 167.185,87.117 C165.402,88.878 165.69,91.639 165.725,94.731 C164.561,91.291 165.383,87.216 167.288,85.137 C165.895,84.551 164.446,84.018 162.909,83.572 C159.719,84.587 159.254,88.33 156.756,90.038 C156.746,91.598 157.024,93.842 156.443,95.461 C156.934,93.13 155.119,91.315 155.504,89.622 C155.773,88.451 157.615,88.54 157.695,87.015 C155.587,85.909 153.156,87.889 151.231,86.388 C155.33,85.721 159.454,85.665 161.241,82.636 C156.974,78.698 154.151,73.318 150.918,68.35 C147.994,67.216 146.113,69.404 143.409,69.286 C145.35,67.84 148.735,65.982 151.335,67.619 C150.974,64.232 151.862,61.143 152.586,58.024 C153.76,60.27 152.388,62.543 152.273,64.49 C152.037,68.492 153.961,70.195 155.401,73.248 C156.107,71.625 155.077,69.823 155.296,68.035 C155.574,65.777 159.122,65.239 160.302,63.655 C159.784,65.705 157.015,66.458 156.653,68.35 C156.413,69.6 157.045,72.954 157.486,73.98 C158.399,76.096 160.63,77.909 161.554,79.506 C161.245,77.346 159.427,76.696 158.634,75.023 C158.588,73.565 158.163,72.439 158.425,71.163 C159.44,75.258 162.483,77.323 164.056,80.863 C168.293,83.875 172.176,80 176.361,79.09 C175.116,77.014 174.996,74.459 173.231,73.041 C172.298,72.289 170.787,72.249 170.104,71.373 C169.398,70.467 169.401,69.27 168.331,68.766 C170.517,68.322 170.236,71.238 172.398,71.163 C171.03,69.228 170.402,65.654 169.061,63.344 C166.589,63.243 165.396,61.865 164.16,60.527 C162.367,60.113 160.021,60.723 159.051,59.381 C160.836,59.437 162.783,59.186 164.265,59.068 C165.826,60.182 166.589,62.098 169.375,61.987 C170.072,59.584 169.646,57.342 168.436,55.834 C168.962,54.311 169.018,52.315 170.208,51.455 C170.215,52.961 169.273,54.359 169.583,55.939 C169.759,56.844 170.804,57.531 170.939,58.44 C171.105,59.568 170.41,60.859 170.625,61.987 C170.745,62.618 171.455,62.947 171.668,63.552 C172.049,64.629 171.584,65.664 172.295,66.472 C174.577,61.436 171.145,55.598 171.251,50.412 C171.291,48.386 172.412,46.438 172.19,44.572 C172.025,43.197 170.711,42.081 170.731,40.818 C172.314,42.256 173.95,44.219 172.815,46.972 C175.313,42.83 180.859,40.834 180.637,33.625" id="Fill-21"></path>
                        <path d="M288.674,115.628 C256.292153,112.418 244.120418,108.365 204.850997,116.241 C154.19937,126.404 130.881883,108.042 107.430439,109.5 C72.385708,111.683 59.9775207,109.932 50.039402,109.688 C32.7123889,109.262 23.5516213,116.619 0.088,119.407 L0.088,129.258 L288.674,129.258 L288.674,115.628" id="Fill-22"></path>
                    </g>
                </g>
            </g>
        </g>
    </g>
</svg>