<?xml version="1.0" encoding="UTF-8" standalone="no"?>
<svg width="282px" height="126px" viewBox="0 0 282 126" version="1.1" xmlns="http://www.w3.org/2000/svg" xmlns:xlink="http://www.w3.org/1999/xlink" xmlns:sketch="http://www.bohemiancoding.com/sketch/ns">
    <!-- Generator: Sketch 3.3.2 (12043) - http://www.bohemiancoding.com/sketch -->
    <title>horizon</title>
    <desc>Created with Sketch.</desc>
    <defs></defs>
    <g id="Page-1" stroke="none" stroke-width="1" fill="none" fill-rule="evenodd" sketch:type="MSPage">
        <g id="Connorween" sketch:type="MSArtboardGroup" transform="translate(0.000000, -67.000000)" fill="#3D1425">
            <g id="horizon" sketch:type="MSLayerGroup" transform="translate(-33.000000, 66.000000)">
                <path d="M129.400176,93.4208199 L129.400176,92.1377548 L128.065493,92.1377548 L128.065493,91.1723716 L126.703697,91.1723716 L126.703697,90.0978046 L55.0005282,90.0978046 L55.0005282,91.1723716 L53.6393486,91.1723716 L53.6393486,92.1377548 L52.3040493,92.1377548 L52.3040493,93.4208199 L51.0229754,93.4208199 L51.0229754,94.7032682 L130.681866,94.7032682 L130.681866,93.4208199 L129.400176,93.4208199" id="Fill-1" sketch:type="MSShapeGroup"></path>
                <path d="M62.9827465,56.4346169 L109.540141,56.4346169 L109.540141,90.8553065 L62.9827465,90.8553065 L62.9827465,56.4346169 Z" id="Fill-2" sketch:type="MSShapeGroup"></path>
                <path d="M54.2265845,74.6072605 L122.566549,74.6072605 L109.540141,69.0481341 L62.9827465,69.0481341 L54.2265845,74.6072605" id="Fill-3" sketch:type="MSShapeGroup"></path>
                <path d="M57.5497359,74.6072605 L58.8850352,74.6072605 L58.8850352,91.4968391 L57.5497359,91.4968391 L57.5497359,74.6072605 Z" id="Fill-4" sketch:type="MSShapeGroup"></path>
                <path d="M118.086796,74.6072605 L119.421479,74.6072605 L119.421479,91.4968391 L118.086796,91.4968391 L118.086796,74.6072605 Z" id="Fill-5" sketch:type="MSShapeGroup"></path>
                <path d="M62.9827465,57.8755977 L59.1432218,57.8755977 L62.7738556,34.785977 L109.540141,34.785977 L112.960651,56.4346169 L112.960651,57.8755977 L62.9827465,57.8755977" id="Fill-6" sketch:type="MSShapeGroup"></path>
                <path d="M62.346831,49.7515747 L58.2891725,49.7515747 L62.5606514,25.1660728 L76.0147007,25.1660728 L76.0147007,49.7515747 L62.346831,49.7515747" id="Fill-7" sketch:type="MSShapeGroup"></path>
                <path d="M109.540141,35.4830268 L109.540141,24.2006897 C109.047799,21.566705 100.425968,21.566705 99.9336268,24.2006897 L99.9336268,35.4830268 L109.540141,35.4830268" id="Fill-8" sketch:type="MSShapeGroup"></path>
                <path d="M95.3478873,16.9353333 L95.3478873,6.67327969 C92.8738556,-0.91345977 83.9291373,-0.91345977 81.4544894,6.67327969 L81.4544894,16.9353333 L79.965757,16.9353333 L79.965757,23.5622414 L81.4544894,23.5622414 L81.4544894,38.9553218 L95.3478873,38.9553218 L95.3478873,23.5622414 L96.8366197,23.5622414 L96.8366197,16.9353333 L95.3478873,16.9353333" id="Fill-9" sketch:type="MSShapeGroup"></path>
                <path d="M66.8315141,20.3391571 C69.1336268,14.6147126 73.7132042,14.6147126 76.0147007,20.3391571 L76.0147007,25.8625057 L66.8315141,25.8625057 L66.8315141,20.3391571" id="Fill-10" sketch:type="MSShapeGroup"></path>
                <path d="M62.5606514,10.201092 L65.9774648,10.201092 L65.9774648,25.6490728 L62.5606514,25.6490728 L62.5606514,10.201092 Z" id="Fill-11" sketch:type="MSShapeGroup"></path>
                <path d="M61.4927817,11.2694904 L66.9381162,11.2694904 L66.9381162,13.8905211 L61.4927817,13.8905211 L61.4927817,11.2694904 Z" id="Fill-12" sketch:type="MSShapeGroup"></path>
                <path d="M75.6351232,65.3389655 L70.5089789,65.3389655 L70.5089789,63.2157395 C70.4713908,55.0910996 75.6733275,55.0904828 75.6351232,63.2157395 L75.6351232,65.3389655" id="Fill-13" sketch:type="MSShapeGroup"></path>
                <path d="M102.651056,65.3389655 L97.5255282,65.3389655 L97.5255282,63.2157395 C97.4873239,55.0910996 102.689261,55.0904828 102.651056,63.2157395 L102.651056,65.3389655" id="Fill-14" sketch:type="MSShapeGroup"></path>
                <path d="M106.707482,30.7831839 L102.765053,30.7831839 L102.765053,29.150977 C102.736708,22.9034368 106.73706,22.9034368 106.707482,29.150977 L106.707482,30.7831839" id="Fill-15" sketch:type="MSShapeGroup"></path>
                <path d="M87.0088908,28.0579042 L84.6685739,28.0579042 L84.6685739,27.0888199 C84.6513204,23.3796513 87.0255282,23.3790345 87.0088908,27.0888199 L87.0088908,28.0579042" id="Fill-16" sketch:type="MSShapeGroup"></path>
                <path d="M92.134419,28.0579042 L89.7941021,28.0579042 L89.7941021,27.0888199 C89.7768486,23.3796513 92.1516725,23.3790345 92.134419,27.0888199 L92.134419,28.0579042" id="Fill-17" sketch:type="MSShapeGroup"></path>
                <path d="M73.4235915,33.7712452 L65.3649648,33.7712452 L65.3649648,32.2365019 C65.3051937,26.3689464 73.4827465,26.3683295 73.4235915,32.2365019 L73.4235915,33.7712452" id="Fill-18" sketch:type="MSShapeGroup"></path>
                <path d="M90.965493,7.30432567 L85.8375,7.30432567 L85.8375,6.32722222 C85.7992958,2.59337931 91.003081,2.59337931 90.965493,6.32722222 L90.965493,7.30432567" id="Fill-19" sketch:type="MSShapeGroup"></path>
                <path d="M51.0229754,94.7032682 C40.6807218,97.2663142 12.0534331,104.751272 0.200264085,116.61654 L174.466989,116.61654 C162.133187,104.270739 141.674824,96.2003831 130.681866,94.7032682 C119.687676,93.2067701 62.6604754,91.8194559 51.0229754,94.7032682" id="Fill-21" sketch:type="MSShapeGroup"></path>
                <path d="M41.3351232,99.6146935 C40.3424296,97.2040115 39.9566901,95.504567 38.8758803,95.6359579 C37.7950704,95.7673487 37.0223592,97.7375939 36.6310739,99.9225057 C36.2397887,102.108034 41.3351232,99.6146935 41.3351232,99.6146935" id="Fill-24" sketch:type="MSShapeGroup"></path>
                <path d="M31.2208627,103.235034 C31.3810739,101.632437 31.7014965,99.2266897 31.5412852,98.4247739 C31.3810739,97.6228582 30.5800176,96.5007931 31.3810739,95.378728 C32.1821303,94.256046 33.1427817,95.378728 33.6234155,96.8221762 C34.1040493,98.2643908 36.9866197,99.0663065 37.7876761,100.188989 C38.5887324,101.311054 31.2208627,103.235034 31.2208627,103.235034" id="Fill-26" sketch:type="MSShapeGroup"></path>
                <path d="M28.0178697,88.1633372 L35.5989437,87.9499042 L35.5989437,88.9115862 L28.0178697,88.8048697 L28.0178697,88.1633372" id="Fill-34" sketch:type="MSShapeGroup"></path>
                <path d="M40.5297535,89.574092 L41.5742077,89.8208352 L39.109419,96.6593257 L38.5696303,96.5865364 L40.5297535,89.574092" id="Fill-35" sketch:type="MSShapeGroup"></path>
                <path d="M38.8037852,89.996023 L42.7788732,90.9145249 L42.431338,91.9249387 L38.6577465,91.0761418 L38.8037852,89.996023" id="Fill-36" sketch:type="MSShapeGroup"></path>
                <path d="M116.725,86.7828084 C116.829754,86.7828084 116.578345,87.0974061 116.599912,87.4539502 C116.620246,87.8104943 116.536444,88.3564138 116.074912,88.3977433 C115.613996,88.4403065 115.53081,88.1880115 115.384155,88.4193333 C115.2375,88.6500383 114.901673,89.5734751 115.048327,90.3914291 C114.901673,90.4543487 114.734067,90.3704559 114.734067,90.3704559 C114.671831,90.013295 114.608363,89.5734751 114.629313,89.2156973 C114.650264,88.9849923 114.502993,88.9436628 114.502993,89.3421533 C114.502993,89.7406437 114.440757,90.2230268 114.482658,90.4124023 C114.377905,90.4543487 114.210299,90.3704559 114.210299,90.3704559 C114.188732,90.0558582 114.042077,89.8664828 114.021743,89.2792337 C114.000176,88.6919847 114.126496,88.1670383 114.021743,87.8314674 C113.916989,87.4965134 113.62368,87.3281111 113.560827,87.6846552 C113.497975,88.0411992 113.350704,88.6074751 113.204049,89.0065824 C113.058011,89.4050728 113.036444,89.9509923 113.183099,90.2865632 C113.015493,90.3704559 112.805986,90.1816973 112.805986,90.1816973 C112.764085,89.909046 112.659331,89.4050728 112.74375,89.1533946 C112.826937,88.9017165 112.764085,88.8178238 112.680282,88.9849923 C112.597095,89.1533946 112.449824,89.9300192 112.597095,90.2026705 C112.428873,90.2026705 112.282218,90.1816973 112.261268,90.013295 C112.240317,89.8455096 112.135563,89.3002069 112.261268,88.9640192 C112.386972,88.6284483 112.303169,88.2299579 112.198415,87.9153602 C112.093662,87.6001456 112.051761,87.4126207 112.009243,87.2651916 C111.967342,87.1183793 111.862588,86.5311303 112.366021,85.8180421 C112.868838,85.1037203 113.455458,85.0204444 113.937324,85.0414176 C114.420423,85.0623908 114.859771,85.6496398 114.964525,86.0900766 C115.069278,86.5311303 115.320687,87.076433 115.82412,87.0344866 C116.32632,86.9925402 116.536444,86.7828084 116.725,86.7828084" id="Fill-37" sketch:type="MSShapeGroup"></path>
                <path d="M112.685211,86.5724598 C112.329665,86.4386015 111.459595,86.3010421 111.528609,85.7477203 C111.597623,85.1950153 112.089965,84.5972797 111.718398,84.126 C111.346215,83.6547203 110.905018,83.7830268 110.734947,84.0723333 C110.564261,84.3616398 111.712236,84.0285364 111.545863,84.6034483 C111.440493,84.9680115 110.91118,85.8260613 111.352993,86.310295 C111.75537,86.7501149 112.36787,86.7797241 112.611884,86.7624521 C112.855282,86.7457969 112.685211,86.5724598 112.685211,86.5724598" id="Fill-38" sketch:type="MSShapeGroup"></path>
                <path d="M116.150704,87.6433257 C116.150704,87.6834215 116.206162,87.7161149 116.273327,87.7161149 C116.342342,87.7161149 116.396567,87.6834215 116.396567,87.6433257 C116.396567,87.602613 116.342342,87.5699195 116.273327,87.5699195 C116.206162,87.5699195 116.150704,87.602613 116.150704,87.6433257" id="Fill-39" sketch:type="MSShapeGroup"></path>
                <path d="M115.658979,87.6433257 C115.658979,87.6834215 115.71382,87.7161149 115.782218,87.7161149 C115.85,87.7161149 115.905458,87.6834215 115.905458,87.6433257 C115.905458,87.602613 115.85,87.5699195 115.782218,87.5699195 C115.71382,87.5699195 115.658979,87.602613 115.658979,87.6433257" id="Fill-40" sketch:type="MSShapeGroup"></path>
                <path d="M116.242518,87.6433257 C116.242518,87.7050115 116.25669,87.7555939 116.273327,87.7555939 C116.290581,87.7555939 116.304754,87.7050115 116.304754,87.6433257 C116.304754,87.5804061 116.290581,87.5298238 116.273327,87.5298238 C116.25669,87.5298238 116.242518,87.5804061 116.242518,87.6433257" id="Fill-41" sketch:type="MSShapeGroup"></path>
                <path d="M115.751408,87.6433257 C115.751408,87.7050115 115.764965,87.7555939 115.782218,87.7555939 C115.799472,87.7555939 115.812412,87.7050115 115.812412,87.6433257 C115.812412,87.5804061 115.799472,87.5298238 115.782218,87.5298238 C115.764965,87.5298238 115.751408,87.5804061 115.751408,87.6433257" id="Fill-42" sketch:type="MSShapeGroup"></path>
                <path d="M139.057218,104.475536 C139.621039,104.300349 140.080106,104.481088 140.678433,104.495276 C141.454842,104.513782 142.141901,104.560663 142.86162,104.179444 C143.552377,103.813031 143.562852,103.272046 144.087852,102.744632 C144.535827,102.293709 145.735563,98.237249 146.051673,97.67159 C146.328961,97.1750192 148.434507,89.0411264 148.605194,88.4896552 C150.324384,82.9416322 152.091021,78.8358238 152.122447,78.1319885 C152.138468,77.7723602 152.073151,77.4189004 151.997359,77.0672912 C151.940669,76.8088276 151.928345,76.2018391 151.795863,76.0001264 C151.596831,75.6978659 150.673151,75.6509847 150.316989,75.5529042 C149.694014,75.3826513 149.303961,74.9983487 148.978609,74.4191188 C148.581162,73.7047969 148.316197,73.4858123 147.51206,73.2828659 C146.94331,73.1397548 146.712236,73.3445517 146.272887,73.6992452 C145.825528,74.061341 145.640669,74.5764176 145.378785,75.0976628 C145.095335,75.6590038 145.191461,76.3572874 144.717606,76.8396705 C144.322623,77.2406284 143.559771,77.4232184 143.086532,76.9982031 C142.620687,76.5775057 142.586796,75.9661992 142.027289,75.6133563 C141.782658,75.4591418 141.565757,75.0995134 141.342694,74.9878621 C140.961884,74.7991034 140.937852,75.0439962 140.702465,75.2747011 C140.388204,75.5831303 139.998151,76.2962184 139.513204,76.1420038 C140.202729,75.8317241 140.154049,74.7676437 140.415933,74.1896475 C140.126937,73.9484559 140.169454,73.7300881 139.794806,73.5604521 C139.444806,73.4006858 139.165669,73.3871149 138.929049,73.0435249 C139.19956,73.1237165 139.478081,73.2026743 139.753521,73.2569579 C139.966725,72.8109693 139.634595,72.2952759 139.882923,71.8825977 C140.031426,71.6358544 140.276673,71.5562797 140.398063,71.2817778 C140.505898,71.0331839 140.409771,70.8055632 140.678433,70.6390115 C140.92368,70.9258506 140.472007,71.5747854 140.439965,71.9171418 C140.42456,72.0886284 140.41963,72.525364 140.562588,72.6308467 C140.789965,72.7967816 140.886708,72.472931 141.123327,72.3810192 C141.42588,72.264433 141.54912,72.3952069 141.852905,72.4174138 C142.216461,72.442705 142.111092,72.364364 142.372975,72.203364 C142.862852,71.9004866 143.331778,71.7727969 143.753257,71.3958966 C143.509243,71.9449004 143.07544,72.5154943 142.452465,72.7190575 C142.176408,72.8091188 141.674824,72.7967816 141.607658,73.1335862 C141.551585,73.4117893 141.988468,73.6023985 142.225704,73.760931 C142.193662,73.970046 142.269454,74.1754598 142.423504,74.3296743 C142.451849,74.3586667 142.902289,74.6208314 142.912764,74.6195977 C143.336708,74.5554444 143.139525,73.8651801 143.28125,73.6387931 C143.772359,73.9361188 143.063732,74.8441341 143.315141,75.2327548 C143.851849,76.0655134 144.057658,74.3648352 144.103257,74.1347471 C144.207394,73.6128851 144.628257,73.1385211 144.933891,72.7104215 C145.18838,72.3551111 145.513732,71.1559387 144.635035,71.6006935 C144.834067,71.6426398 144.997975,71.5291379 145.20132,71.5346897 C145.35044,71.5377739 145.649912,71.7259157 145.71831,71.7197471 C146.344982,71.6673142 146.137324,71.0578582 145.916109,70.7605326 C145.620951,70.3675939 145.433011,69.8284598 145.057746,69.5107778 C144.753345,69.2523142 144.29243,68.9401839 144.382394,68.4423793 C144.506866,68.6521111 145.534683,69.631682 145.602465,69.6045402 C145.791021,69.5292835 145.686884,69.0598544 145.897007,68.8957701 C146.153961,68.6983755 146.552641,68.8624598 146.796655,68.6305211 C146.601937,68.7508084 146.158891,69.1967969 146.16875,69.4083793 C146.178609,69.653272 146.464525,69.6822644 146.560035,69.8358621 C146.664173,70.0073487 146.614877,70.2288008 146.704225,70.4015211 C146.890317,70.7568314 147.161444,70.74141 147.549032,70.7944598 C147.997007,70.8567625 148.073415,70.8135824 148.078345,70.3188621 C148.371039,70.441 148.26875,70.7167356 148.434507,70.9184483 C148.591021,71.1121418 148.854754,71.1466858 149.056866,71.2928812 C149.515933,71.6253678 149.61206,72.1941111 149.965757,72.5703946 C150.170335,72.7899962 150.307746,72.7461992 150.593046,72.7795096 C150.925176,72.8177548 150.959067,72.8621686 151.266549,73.0145326 C151.668926,73.2137778 152.415141,73.2760805 152.158803,72.5944521 C152.086092,72.4044598 151.804489,72.2761533 151.741021,72.0738238 C151.627641,71.7234483 151.837148,71.8017893 151.96162,71.4538812 C152.076232,71.1368161 152.032482,70.2392874 151.784155,69.9851418 C151.574648,69.7704751 151.268398,69.7636897 150.978169,69.8198238 C150.671919,69.8790421 150.601056,70.0468276 150.331778,70.1313372 C149.782746,70.30159 149.386532,69.7488851 149.048239,69.422567 C148.656338,69.0450498 148.544806,68.8865172 148.366109,68.4035172 C148.207746,67.973567 147.777641,67.9248352 147.614349,67.5405326 C147.566901,67.6108544 147.43257,67.7033831 147.392518,67.7897433 C147.327201,67.0840575 147.508363,67.2789847 147.981602,67.6157893 C148.523239,67.0143525 148.409859,66.0582222 148.39507,65.4062031 C148.378433,64.5500038 146.972887,64.1811226 147.19287,63.3909272 C147.533627,63.7585747 148.433891,64.4093602 148.748768,63.6851686 C148.830722,63.4939425 148.833187,62.9511073 148.828257,62.7413755 C148.819014,62.3496705 148.494894,61.9369923 148.111004,61.812387 C147.955106,61.7630383 147.820158,61.7821609 147.660563,61.7926475 C147.576761,61.7981992 147.550264,61.9104674 147.461532,61.9184866 C147.374648,61.9258889 147.274824,61.8401456 147.193486,61.8543333 C146.720246,61.9431609 146.814525,62.0461762 146.521831,62.4144406 C146.324648,62.6642682 146.051056,62.8351379 145.768838,62.9529579 C145.423151,63.0973027 145.285123,62.9467893 144.867342,62.9757816 C144.871039,62.9091609 144.887676,62.8536437 144.916021,62.7919579 C145.204401,62.9245824 145.77007,62.6340421 145.92412,62.3706437 C146.20757,61.88641 145.633275,61.7698238 145.404665,62.2114943 C145.00537,62.0511111 144.863028,62.1726322 144.647359,62.4853793 C144.592518,62.5631034 144.708979,62.9406207 144.444014,62.8234176 C144.358979,62.7864061 144.365757,62.3792797 144.397183,62.3064904 C144.507482,62.0541954 145.076849,62.012249 145.179754,61.7186245 C145.322095,61.3195172 144.84331,61.1912107 144.546303,61.2041648 C144.453873,60.9901149 144.24868,60.7446054 144.308451,60.5299387 C144.749648,60.8266475 145.128609,61.28559 145.719542,61.2257548 C146.357923,61.1622184 146.108363,60.433092 146.322799,60.050023 C146.43618,59.8470766 146.699296,59.7823065 146.751056,59.4707931 C146.79912,59.1740843 146.687588,58.9094521 146.478697,58.7058889 C146.03257,58.2710038 145.172359,57.8348851 146.128081,57.495613 C146.070158,58.1858774 147.102289,58.66641 147.362324,59.2925211 C147.45044,59.5034866 147.455986,61.4169808 148.093134,60.5509119 C148.260739,60.3226743 148.107306,59.9420728 148.166461,59.67559 C148.253961,59.275249 148.437588,59.158046 148.258275,58.7342644 C148.018574,58.1698391 147.120775,57.569636 147.657482,56.8935594 C147.637148,57.4382452 148.699472,59.1173333 149.358803,58.7626398 C149.574472,59.1401571 149.108627,59.0877241 149.002641,59.3295326 C148.882482,59.6034176 149.151144,59.7200038 149.16162,59.9371379 C149.190581,60.5077318 148.255194,60.4682529 148.627377,61.1455632 C148.752465,61.3738008 148.970599,61.4472069 149.191813,61.5810651 C149.302729,61.647069 149.672447,62.0233525 149.753169,62.0319885 C150.138908,62.0751686 150.463644,61.2516628 150.930722,61.2078659 C151.252377,61.6045057 150.65713,61.494705 150.53882,61.6631073 C150.466109,61.7655057 150.532042,61.9283563 150.498151,61.9943602 C150.479665,62.0301379 150.373063,62.2262989 150.35088,62.2799655 C150.292958,62.4187586 150.036004,62.7432261 150.042782,62.8943563 C150.055106,63.1855134 150.365053,63.344046 150.620158,63.221908 C150.428521,63.6352031 150.243662,63.9177241 150.200528,64.4075096 C150.152465,64.9528123 150.491989,65.3556207 150.313292,65.9144943 C150.213468,66.2266245 149.954049,66.8447165 150.143838,67.1778199 C150.48706,67.7817241 151.257306,67.0347088 151.585123,66.8718582 C152.034947,66.6485556 152.629577,66.9822759 152.897007,66.4412912 C152.999912,66.2321762 152.855106,65.9706284 153.060299,65.7886552 C153.253785,65.6165517 153.577289,65.7553448 153.780634,65.6578812 C154.231074,65.4407471 154.208275,64.8288238 153.986444,64.4476054 C153.746127,64.0355441 153.126232,63.8739272 152.966021,63.4384253 C153.046743,63.4476782 153.184155,63.3859923 153.288908,63.4038812 C153.71963,62.6167701 151.989965,62.5957969 152.095335,62.1991571 C152.28882,62.2374023 152.757746,62.4545364 152.911796,62.3546054 C153.170599,62.1862031 152.93706,61.7321954 153.351144,61.677295 C153.021479,62.2818161 153.448504,62.7518621 154.026496,62.539046 C154.026496,62.8326705 153.68882,62.8388391 153.666637,63.0590575 C153.66294,63.0973027 153.966109,63.6783831 154.008011,63.7190958 C154.163908,63.8726935 154.420863,63.8918161 154.581074,63.7024406 C154.759771,63.4902414 154.618046,63.3360268 154.752377,63.0744789 C155.383363,63.1774943 155.022887,61.9197203 155.703785,62.1917548 C155.788204,62.5458314 155.452993,62.4175249 155.383363,62.6210881 C155.33838,62.7555632 155.445599,63.1281456 155.477025,63.257069 C155.534331,63.4803716 155.377817,63.4883908 155.720423,63.6654291 C155.971215,63.7943525 156.197359,63.5099808 156.243574,64.0318429 C156.015581,64.0657701 155.82456,63.9127893 155.602113,63.901069 C155.422183,63.8918161 155.488732,63.8134751 155.294014,63.9454828 C155.022271,64.1305402 155.194806,64.0842759 155.157835,64.305728 C155.122711,64.5129923 155.144894,64.7412299 155.095599,64.9700843 C155.070335,65.0879042 155.010563,65.145272 155.008099,65.284682 C155.003785,65.5264904 155.231162,65.7275862 155.233627,65.9144943 C155.239789,66.5177816 154.28037,66.4153831 154.173151,66.9366284 C154.072095,67.4313487 154.734507,67.756433 154.094894,68.1080421 C153.735651,68.3054368 153.083715,68.3387471 152.989437,68.8914521 C152.93706,69.205433 153.319718,70.1498429 153.477465,70.4255785 C154.396215,72.0343448 155.766021,69.1721226 156.146831,68.4806245 C156.551056,67.7459464 156.762412,67.0211379 156.975616,66.2019502 C157.166637,65.47159 157.794542,65.1014751 158.022535,64.3846858 C158.178433,63.896751 158.218486,62.8752337 157.851232,62.4637893 C157.565933,62.1442567 157.17588,62.1948391 157.008891,61.7346628 C156.862236,61.3300038 157.135211,61.2356245 157.179577,60.8901839 C157.147535,60.9358314 157.079754,61.003069 157.042782,61.0456322 C157.520335,60.8173946 157.183891,59.6040345 157.002729,59.2388544 C156.950968,59.1339885 156.891813,59.027272 156.852377,58.9174713 C156.803697,58.7817625 156.798768,58.5319349 156.755634,58.4344713 C156.594806,58.0760766 155.982306,58.0076054 155.953345,57.6646322 C156.010035,57.6862222 156.09507,57.6911571 156.15669,57.7016437 C156.217077,57.5178199 156.268222,57.3235096 156.30581,57.134751 C156.010651,56.9959579 155.79868,56.8849234 155.562676,56.7165211 C155.280458,56.5141916 155.090053,56.2884215 154.716021,56.5283793 C154.540405,56.3618276 154.311796,56.2310536 154.264965,55.959636 C154.553961,55.7597739 154.755458,56.5363985 155.043838,56.1126169 C155.289701,55.7511379 154.626673,55.5845862 154.795511,55.2046015 C155.227465,55.1601877 154.783803,54.7518276 154.582923,54.6839732 C154.238468,54.5661533 154.059771,54.7277701 153.802817,54.8172146 C153.349912,54.9726628 153.363468,54.8714981 152.93706,54.6993946 C152.626496,54.5741724 152.323327,54.5624521 152.03125,54.7290038 C152.034331,54.5815747 152.015229,54.4310613 151.975792,54.2860996 C152.221039,54.3120077 152.404049,54.4884291 152.649296,54.5013831 C152.765757,54.5075517 152.916725,54.3817126 153.017782,54.393433 C153.14287,54.4094713 153.222359,54.5161877 153.319718,54.5346935 C153.623504,54.5939119 153.540317,54.6975441 153.883539,54.4871954 C154.083187,54.3650575 154.221215,54.1269502 154.459683,54.3070728 C155.089437,53.9024138 153.772623,52.7655441 153.524296,53.9437433 C153.228521,53.7247586 152.63882,53.7913793 152.256778,53.6630728 C152.301761,53.4076935 152.613556,53.2170843 152.684419,53.5477203 C153.280282,53.7525172 153.544014,53.3626628 153.977201,53.1196207 C154.260035,52.9610881 154.166989,52.9814444 154.359859,52.6976897 C154.507746,52.4799387 154.799208,52.260954 154.788116,52.7581418 C154.605106,52.8784291 154.672887,53.0511494 154.888556,53.1159195 C154.997623,52.978977 155.036444,52.7926858 155.064789,52.6107126 C154.87993,52.4601992 154.73882,52.1203103 154.637148,51.9081111 C154.441197,51.4985172 154.493574,51.5059195 154.684595,51.1388889 C154.82632,50.8693218 154.876232,50.7971494 154.838644,50.4566437 C154.809683,50.1889272 154.641461,49.9014713 154.90088,49.6837203 C154.881162,49.8434866 154.921215,49.9699425 154.950176,50.1327931 C154.996391,50.3961916 155.000088,50.4128467 154.982835,50.6515709 C154.977905,50.7132567 154.908891,50.7965326 154.901496,50.8576015 C154.890405,50.9587663 154.958187,51.0593142 154.952025,51.1536935 C154.936004,51.356023 155.064789,51.4541034 154.841725,51.6391609 C155.199736,51.8877548 155.408011,52.0438199 155.63662,51.5620536 C155.808539,51.2005747 155.835035,50.8267586 156.372359,50.8705556 C156.421655,51.1000268 156.15669,51.1314866 156.034067,51.3270307 C155.952113,51.4590383 155.940405,51.7415594 155.89419,51.90441 C156.345863,52.3127701 156.577553,51.8926897 157.051408,51.78659 C157.193134,52.2924138 156.274384,52.3929617 156.121567,52.8815134 C156.083363,53.0061188 156.126496,53.1578659 156.09507,53.270751 C156.060563,53.3947395 155.895423,53.474931 155.883715,53.6118736 C155.859067,53.8740383 156.062412,54.0091303 156.131426,54.2429195 C156.201056,54.4791762 156.101232,55.9818429 156.730986,55.3119349 C156.982394,55.0448352 156.575088,53.7993985 157.188204,53.9647165 C157.029225,54.20159 157.213468,54.5402452 157.211004,54.8141303 C157.208539,55.0997356 157.024296,55.4013793 157.035387,55.6777318 C157.040933,55.8023372 157.203609,55.9053525 157.209771,56.0614176 C157.215933,56.2039119 157.133363,56.3488736 157.108715,56.4876667 C157.053257,56.8004138 157.021831,57.1797816 157.402025,57.304387 C158.2,57.5647011 157.989877,56.2353716 158.020687,55.8226935 C158.044718,55.5031609 158.272095,55.3526475 158.337412,55.0559387 C158.421831,54.6778046 158.191989,54.3903487 158.034243,54.0794521 C158.166109,54.0603295 158.333715,54.0868544 158.456954,54.1318851 C158.445863,54.4896628 158.556778,55.3902759 158.78169,55.5130307 C159.103345,55.6888352 159.722623,55.3292069 160.069542,55.3446284 C160.644454,55.3699195 161.219982,55.5074789 161.501585,54.8733487 C161.692606,54.440931 161.79243,53.9560805 161.96743,53.5224291 C162.146743,53.078908 162.241637,52.6193487 162.385827,52.1591724 C162.451761,51.9512912 163.194278,50.7959157 163.372359,51.3985862 C163.471567,51.7341571 162.566373,52.2245594 162.708715,52.6427893 C162.862764,53.1004981 163.68662,52.2017356 164.002729,52.6983065 C164.059419,52.7871341 164.054489,52.8957011 164.031074,52.9839119 C163.560299,52.7723295 163.416109,53.266433 163.07412,53.4181801 C162.708715,53.5804138 162.134419,53.3891877 162.292782,54.006046 C162.411092,54.4693065 162.700088,54.1318851 162.799912,54.245387 C163.053785,54.5328429 162.765405,54.4125556 162.616901,54.5013831 C162.480106,54.5840421 162.191109,54.4588199 162.26875,54.7943908 C162.314349,54.9961034 162.533715,54.9578582 162.70625,55.0257126 C162.863996,55.0873985 163.138204,54.9313333 163.103697,55.2409962 C163.075352,55.5056284 162.83257,55.372387 162.661268,55.4087816 C162.388292,55.468 162.438204,55.2724559 162.274296,55.5889042 C162.149208,55.8288621 162.413556,55.9183065 162.136884,56.1082989 C161.914437,56.2594291 161.82632,55.9676552 161.66118,56.2199502 C161.533011,56.416728 162.040757,56.5475019 161.530546,56.6838276 C161.265581,56.7553831 161.203961,56.5468851 161.015405,56.4969195 C160.808363,56.4432529 160.579754,56.4580575 160.36963,56.3963716 C160.337588,56.730092 160.118838,56.7177548 159.866813,56.7664866 C159.537148,56.830023 159.460123,56.7794406 159.159419,57.0311188 C158.697887,57.4185057 158.702201,57.6806705 158.795863,58.1951303 C158.894454,58.7429004 158.703433,59.0655172 158.727465,59.5812107 C158.736708,59.7946437 158.640581,60.0518736 158.662148,60.245567 C158.693574,60.5182184 158.916021,60.6927893 159.026937,60.96359 C159.264173,61.5428199 159.510035,61.9567318 159.827993,62.482295 C160.139789,62.9967548 159.890845,63.3563831 159.795335,63.8905824 C159.698592,64.4365019 159.761444,64.7436973 159.939525,65.2353333 C159.999296,65.4049693 159.977729,65.7497931 160.144102,65.7868046 C160.293222,65.8194981 160.733803,65.4068199 160.826849,65.297636 C161.054842,65.0286858 161.142958,64.6758429 161.210123,64.3217663 C161.341373,63.6407548 160.885387,63.865908 160.677113,63.3847586 C160.566197,63.1281456 160.762764,63.1429502 160.76831,62.9572759 C160.774472,62.7444598 160.705458,62.4804444 160.559419,62.2898352 C160.456514,62.1565939 159.698592,61.4829847 160.348063,61.5496054 C160.322799,61.6378161 160.566197,62.1565939 160.638292,62.1899042 C160.961796,62.3391839 161.04868,62.0677663 161.047447,61.7260268 C161.046215,61.5582414 160.884155,60.9580383 160.81206,60.8698276 C160.651849,60.6718161 160.248239,60.7223985 160.130546,60.5250038 C160.082482,60.4429617 160.105282,60.2646897 160.15088,60.1857318 C160.300616,59.9266513 160.261796,60.1104751 160.44419,60.1511877 C160.696215,60.2085556 160.831162,60.5225364 161.056074,60.1999195 C161.229225,59.9519425 160.963028,59.5404981 161.133099,59.2548927 C161.281602,59.0062989 161.66118,58.8872452 161.952641,58.8681226 C161.91875,59.0988276 161.724032,58.9865594 161.635915,59.1160996 C161.461532,59.3708621 161.534243,59.2999234 161.54287,59.5916973 C161.55088,59.8896398 161.567518,60.2233602 161.665493,60.5188352 C161.715405,60.6687318 161.857746,60.7439885 161.87007,60.9216437 C161.889173,61.1745556 161.756074,61.1659195 161.702465,61.3312375 C161.627289,61.568728 161.539789,61.5002567 161.603873,61.7611877 C161.648239,61.9425441 161.818926,62.1528927 161.993926,62.1707816 C162.085123,62.4681073 162.477641,62.4329464 162.62368,62.2016245 C162.793134,61.9332912 162.442518,61.6291801 162.66743,61.4274674 C162.70132,61.3978582 163.339085,61.3238352 163.438908,61.2979272 C163.794454,61.207249 163.941109,61.1104023 164.245511,60.9302797 C164.721831,60.6489923 165.289965,60.8784636 165.623327,60.2751762 C165.888292,59.7964943 165.514261,59.1160996 166.273415,59.0383755 C165.941285,59.0951264 165.957923,59.3899847 166.208099,59.5596207 C166.398504,59.5441992 167.388732,58.3777203 167.268574,59.166682 C166.846479,59.2289847 167.102201,59.4343985 167.030106,59.6268582 C166.947535,59.8476935 166.889613,59.8995096 166.712764,60.0654444 C166.443486,60.3183563 165.923415,60.6520766 166.461356,60.9500192 C166.829225,61.1541992 167.410915,60.6705824 167.643838,61.2053985 C167.809595,61.5841494 167.592077,61.4348697 167.412764,61.4305517 C167.314173,61.4280843 167.291373,61.2960766 167.165053,61.2892912 C167.010387,61.281272 167.03257,61.4805172 166.883451,61.507659 C166.44287,61.5866169 166.155722,61.198613 165.773063,61.6754444 C165.626408,61.8586513 165.653521,61.9499464 165.478521,62.1053946 C165.37007,62.2010077 165.071831,62.4132069 164.930722,62.4742759 C164.405106,62.6994291 164.246743,62.4557701 164.027377,63.0831149 C163.90537,63.4328736 163.511004,63.7264981 163.429665,64.1058659 C163.486972,64.162 163.591109,64.2125824 163.663204,64.227387 C163.762412,64.0410958 163.781514,63.8023716 163.996567,63.8202605 C164.088996,64.1484291 163.382835,64.7486322 164.287412,64.6844789 C164.512324,64.6702912 165.321391,64.0756398 165.222799,64.7652874 C164.785915,64.6795441 165.021919,65.071249 164.829049,65.2248467 C164.553609,65.445682 164.341637,65.145272 164.055722,65.1310843 C163.623151,65.1094943 163.727905,65.4154559 163.438908,65.5511648 C163.153609,65.685023 162.873239,65.3790613 162.607658,65.4691226 C162.371655,65.5486973 161.812764,66.7281303 162.184331,66.8533525 C162.515229,66.9637701 162.476408,66.3919425 162.721655,66.3055824 C163.058099,66.1871456 163.18257,66.5140805 162.910211,66.6997548 C163.228785,67.2111303 163.883803,66.6232644 164.21162,66.4746015 C164.416197,66.3820728 164.646039,66.2673372 164.837676,66.4573295 C165.234507,66.8478008 164.715053,66.6793985 164.609067,66.6806322 C164.353345,66.6849502 164.264613,66.5634291 164.010739,66.8083218 C163.846831,66.9656207 163.67368,67.0920766 163.986708,67.3196973 C164.2375,67.5022874 165.127289,67.212364 165.048415,67.7811073 C164.865405,67.7798736 164.773592,67.6059195 164.581338,67.6367625 C164.382923,67.6682222 164.302201,67.9421073 164.098239,67.969249 C163.747623,68.0167471 163.466637,67.612705 163.11294,67.6743908 C162.609507,67.7613678 162.636004,68.1160613 162.669894,68.4503985 C162.705018,68.8038582 162.721655,69.1474483 162.221303,68.8902184 C162.189877,68.6428582 162.372887,68.5040651 162.367958,68.269659 C162.36118,68.013046 162.139349,67.9445747 162.258275,67.6108544 C161.883627,67.6022184 161.871919,67.8088659 161.602025,67.9408736 C161.258187,68.1092759 160.982746,67.8495785 160.654313,67.9285364 C160.044894,68.0747318 160.507042,68.7791839 160.246391,69.2257893 C159.895775,69.8247586 159.318398,69.7223602 159.610475,70.5853448 C159.736796,70.9603946 160.020863,71.3095364 160.118838,71.6864368 C160.222359,72.0960307 160.048592,72.3933563 160.324032,72.7640881 C160.60132,73.1366705 161.021567,73.2187126 161.221215,73.6671686 C161.377729,74.0187778 161.346303,74.2969808 161.349384,74.6819004 C161.35493,75.3783333 161.789965,75.8348084 161.894718,76.5238391 C161.995775,77.1906628 161.939085,78.0807893 162.541109,78.5687241 C163.073504,79.0011418 164.029842,78.7278736 164.448856,78.2127969 C165.013292,77.5175977 164.437764,76.7539272 164.726761,76.0365211 C164.813644,75.8243218 165.105106,75.7681877 165.163644,75.5177433 C165.251761,75.1389923 164.66206,74.8755939 164.398327,74.7491379 C163.86162,74.491908 163.471567,74.6023257 162.92993,74.5295364 C162.170775,74.4277548 162.589173,73.9891686 162.449296,73.5629195 C162.412324,73.4525019 161.940933,72.991092 162.44375,73.1619617 C162.611972,73.2193295 162.70132,73.7627816 162.793134,73.804728 C163.53257,74.1402989 163.063644,72.7727241 163.048856,72.5796475 C163.022359,72.2311226 163.178873,71.7832835 163.567077,71.6907548 C164.029842,71.5815709 163.880722,71.8233793 163.694014,72.0676552 C163.432746,72.4075441 163.389613,72.2483946 163.474032,72.6894483 C163.505458,72.8553831 163.566461,73.3328314 163.682306,73.4413985 C164.156162,73.8886207 164.347183,72.9528467 164.665141,72.8893103 C165.180282,72.786295 165.507482,73.4938314 165.597447,73.8769004 C165.644278,74.0761456 165.726232,75.1809387 166.147095,74.531387 C166.303609,74.2889617 165.977025,74.131046 166.309771,73.9607931 C166.482923,73.8713487 166.733099,74.0335824 166.932746,73.96141 C167.192782,73.8670307 167.177377,73.7226858 167.364701,73.5511992 C167.643838,73.2964368 167.784331,73.404387 168.076408,73.2754636 C168.716021,72.9923257 168.258803,71.8363333 167.983363,71.3483985 C167.849032,71.1102912 167.242077,70.7358582 167.484243,70.4052222 C167.633363,70.2022759 167.983979,70.2793831 168.089349,70.3959693 C168.130634,70.441 168.219366,70.8598467 168.254489,70.9492912 C168.346303,71.180613 168.224296,71.398364 168.626673,71.3804751 C168.854665,71.1016552 168.671039,70.9542261 168.532394,70.684659 C168.33706,70.3022069 168.366021,70.4052222 168.491109,70.0388084 C168.629754,69.6285977 168.722183,69.4638966 168.415933,69.0333295 C168.247095,68.7964559 168.013556,68.5065326 167.717782,68.6502605 C167.847799,68.5225709 168.268662,67.9667816 168.503433,68.017364 C168.858363,68.0932375 168.75669,68.7896705 168.341373,68.4448467 C168.379577,68.8248314 169.126408,69.1752069 168.822623,69.6767126 C169.398768,69.8364789 169.129489,69.0845287 169.204049,68.831 C169.463468,68.8100268 169.64956,68.5527969 169.906514,68.6755517 C169.928697,69.2202375 169.362412,68.7791839 169.472095,69.2769885 C169.501673,69.4157816 169.707482,69.409613 169.732746,69.5829502 C169.751849,69.7155747 169.628609,69.9425785 169.560211,70.0412759 C169.73706,70.1270192 170.083363,70.175751 170.27007,70.1122146 C170.489437,70.0375747 170.73037,69.6113257 170.989173,69.7550536 C171.520951,70.049295 170.785827,70.1788352 170.759947,70.1961073 C170.631778,70.2793831 170.300264,70.4730766 170.165933,70.6636858 C170.008187,70.8863716 170.11294,71.2077548 170.028521,71.4662184 C169.89419,71.8751954 169.725352,71.7777318 169.427113,72.0115211 C168.960651,72.3767011 168.888556,72.9861571 169.025352,73.5320766 C169.504137,73.5351609 169.286004,72.9133678 169.518926,72.6875977 C169.812236,72.4044598 170.224472,72.6326973 170.328609,72.07259 C170.965757,72.3828697 169.947799,72.5370843 170.140669,72.9658008 C170.364965,73.4623716 171.211004,73.0990421 171.087148,73.8602452 C170.896127,73.9139119 170.702025,73.8244674 170.631778,73.6295402 C170.276232,73.591295 170.380986,73.9280996 170.145599,74.0490038 C169.758627,74.2457816 169.683451,73.9274828 169.426496,74.3796398 C169.310035,74.5862874 169.335299,74.8065057 169.141813,74.9866284 C168.977905,75.1389923 168.521303,75.1470115 168.417165,75.3573602 C168.142958,75.906364 169.103609,75.7885441 169.371039,75.6127395 C169.566989,75.4838161 170.694014,74.4394751 170.678609,75.2771686 C170.671215,75.7256245 170.378521,75.2586628 170.177641,75.3814176 C169.838732,75.588682 170.352025,75.779908 170.429049,75.9470766 C170.501761,76.1031418 170.492518,76.5824406 170.196127,76.4467318 C170.043926,76.3776437 170.08213,75.9427586 169.896655,75.8230881 C169.617518,75.6429655 169.629225,75.8224713 169.376585,75.9119157 C169.180634,75.9822375 168.810299,75.9291877 168.658099,76.0445402 C168.326585,76.2968352 168.751144,77.3331571 168.079489,76.9007395 C167.977201,76.8341188 167.966725,76.6725019 167.991989,76.5571494 C167.736884,76.53741 167.668486,76.8075939 167.598239,77.0123908 C167.474384,77.3714023 167.542165,77.5459732 167.280898,77.7920996 C166.972183,78.0838736 165.838996,78.4317816 166.708451,78.8777701 C167.446039,79.2559042 167.738116,78.2491916 168.220599,77.8716743 C168.913204,77.3306897 169.189877,77.3430268 169.838732,77.7933333 C169.961972,77.8790766 170.081514,77.9450805 170.220775,77.990728 C170.440757,78.0610498 170.659507,77.9364444 170.800616,77.9722222 C170.95713,78.0117011 171.305898,78.2417893 171.114261,78.5138238 C171.068662,78.5785939 169.871391,78.6957969 169.710563,78.6674215 C169.42588,78.6168391 169.345775,78.30841 168.995775,78.4175939 C168.750528,78.4934674 168.665493,78.7624176 168.515757,78.9579617 C168.379577,79.1343831 168.132482,79.291682 168.117077,79.5328736 C168.104137,79.7407548 168.602025,80.175023 168.556426,80.2743372 C168.460299,80.4822184 168.027729,80.3131992 167.953169,80.1633027 C167.465757,80.4032605 167.849032,81.1977739 168.197183,81.4247778 C168.902729,81.8855709 169.295246,81.2958544 169.919454,81.0861226 C170.242342,80.9769387 170.338468,80.9701533 170.639789,80.76659 C170.803697,80.6561724 171.314525,80.2971609 171.321919,80.7221762 C171.329313,81.1132644 170.909067,80.8110038 170.766725,80.9127854 C170.547359,81.0707011 170.634243,81.3754291 170.747007,81.5475326 C170.873327,81.7418429 171.16787,81.7054483 171.254137,81.8343716 C171.456866,82.1409502 171.141989,82.1933831 170.897975,82.0879004 C170.722359,82.0120268 170.639173,81.7412261 170.385915,81.6776897 C170.239877,81.6406782 169.831338,81.6462299 169.698856,81.7072989 C169.57993,81.7609655 169.53618,81.8997586 169.472711,81.9349195 C169.435123,81.9552759 169.167694,82.0397854 169.145511,82.0706284 C168.971743,82.3068851 169.08882,82.5795364 168.964349,82.8182605 C168.832482,83.0711724 168.695687,83.0631533 168.515757,82.7565747 C168.356778,82.4851571 168.609419,82.2007854 168.539789,82.024364 C168.556426,81.9935211 168.561972,81.9602107 168.556426,81.9250498 C168.378345,81.8337548 168.052377,81.85041 167.858891,81.8454751 C167.713468,81.8417739 167.610563,81.7350575 167.46206,81.7924253 C167.334507,81.8430077 167.414613,82.0478046 167.324032,82.0891341 C167.043662,82.2180575 166.826761,82.1754943 166.786092,81.8448582 C166.731866,81.3982529 167.017165,81.632659 167.224208,81.3951686 C167.473151,81.1095632 167.271655,80.3156667 167.07632,80.0510345 C166.84956,79.7438391 166.871127,79.9258123 166.563028,79.8567241 C166.264789,79.7882529 166.248151,79.5501456 166.03125,79.4489808 C165.668926,79.2768774 165.06875,79.8215632 164.711972,80.0516513 C164.139525,80.4199157 163.611444,80.7369808 162.899736,80.475433 C162.231162,80.2286897 161.925528,79.4816743 161.391285,79.0517241 C160.744894,78.5323295 159.957394,78.2973065 159.663468,77.4127318 C158.917254,77.4022452 159.096567,77.999364 158.824824,78.4916169 C158.544454,79.0036092 158.022535,79.217659 157.795775,79.8116935 C156.723592,82.6146973 155.926849,88.0486015 155.795599,88.7512031 C155.029049,92.8452912 153.775088,94.7242414 153.133627,98.3458161 C153.044894,98.8430038 152.479842,102.859368 152.575968,103.317693 C152.73618,104.077663 152.144014,105.360111 152.327025,106.116996 C152.424384,106.520421 152.628961,106.623437 152.877289,106.946054 C153.090493,107.226107 153.157658,107.590054 153.433715,107.818908 C153.785563,108.110682 154.252641,108.090326 154.648239,108.2211 C155.004401,108.34077 155.234859,108.565923 155.501673,108.84536 C155.767254,109.120479 155.76294,109.140218 156.122799,109.279628 C156.450616,109.407318 156.558451,109.462835 156.647183,109.815678 C156.828345,110.549123 156.225088,110.391207 155.732746,110.323352 C155.138732,110.243161 154.600792,110.237609 154,110.07846 C153.176761,109.860092 152.353521,109.921778 151.549384,109.658996 C151.008979,109.482575 150.515405,109.236448 149.952817,109.116778 C149.285475,108.975517 148.515845,109.176613 147.894718,108.892858 C147.551496,108.735559 147.269894,108.487582 146.901408,108.364211 C146.504577,108.231586 146.097271,108.23467 145.6875,108.176686 C145.076849,108.089709 144.483451,107.896632 143.888204,107.73995 C142.93125,107.487655 141.902201,107.210686 140.984067,106.844272 C140.319806,106.57964 139.810211,106.0769 139.128081,105.854831 C138.693662,105.714805 137.590669,105.702467 137.659683,104.999249 C137.720687,104.391027 138.635739,104.608161 139.057218,104.475536" id="Fill-58" sketch:type="MSShapeGroup"></path>
                <path d="M137.435971,106.267 C124.318764,107.084 114.369985,107.35 106.538226,107.35 C93.4433464,107.35 86.261105,106.607 80.041976,106.455 C79.5578826,106.443 79.0788635,106.437 78.6069485,106.437 C62.1893818,106.437 52.8962089,113.464 30.088,116.174 L30.088,126.025 L317.674,126.025 L317.674,112.293 C299.739201,110.483 288.008308,108.45 274.128934,108.45 C263.532667,108.45 251.686078,109.634 234.861548,113.008 C223.787277,115.23 214.0161,116.089 205.267913,116.089 C190.406143,116.089 178.490544,113.613 168.106385,111.137 C157.72324,108.661 148.873566,106.184 140.151765,106.184 C139.245486,106.184 138.341236,106.211 137.435971,106.267 Z" id="Fill-6" sketch:type="MSShapeGroup"></path>
            </g>
        </g>
    </g>
</svg>