<?xml version="1.0" encoding="UTF-8" standalone="no"?>
<svg width="49px" height="13px" viewBox="0 0 49 13" version="1.1" xmlns="http://www.w3.org/2000/svg" xmlns:xlink="http://www.w3.org/1999/xlink" xmlns:sketch="http://www.bohemiancoding.com/sketch/ns">
    <!-- Generator: Sketch 3.3.2 (12043) - http://www.bohemiancoding.com/sketch -->
    <title>huggies</title>
    <desc>Created with Sketch.</desc>
    <defs></defs>
    <g id="Page-1" stroke="none" stroke-width="1" fill="none" fill-rule="evenodd" sketch:type="MSPage">
        <g id="Connorween" sketch:type="MSArtboardGroup" transform="translate(-20.000000, -597.000000)" fill="#E05536">
            <g id="sponsors" sketch:type="MSLayerGroup" transform="translate(20.000000, 554.000000)">
                <g id="huggies" transform="translate(0.000000, 43.000000)" sketch:type="MSShapeGroup">
                    <path d="M37.5327015,2.65739348 L41.291879,2.68947368 L41.5027805,2.76516291 L42.3665959,3.90150376 C42.8156037,3.26641604 43.4374264,2.89874687 44.1976047,2.73182957 C44.957783,2.56466165 45.6832429,2.56466165 46.4434211,2.73182957 C46.6851547,2.76516291 46.8579696,2.89874687 46.892429,2.93233083 L46.892429,5.23834586 C46.7196141,5.40551378 46.5470583,5.40551378 46.339784,5.23834586 L46.0288727,5.07117794 L45.7524206,4.93759398 C45.3378721,4.83734336 45.0614201,4.90401003 44.8194275,5.07117794 C44.6468716,5.23834586 44.6121532,5.43884712 44.6468716,5.6726817 C44.8194275,5.94010025 45.0614201,6.17393484 45.4759686,6.34110276 L46.3742434,6.77568922 C46.9616067,7.17669173 47.4106146,7.57769424 47.7215259,8.07894737 C47.9979779,8.58045113 48.1016151,9.18195489 48.0671557,9.78345865 C48.0671557,10.1844612 47.9290593,10.5857143 47.7215259,10.9531328 C47.4797923,11.3541353 47.2033403,11.6215539 46.7887918,11.9223058 C46.2014285,12.2566416 45.510428,12.4238095 44.7849681,12.4571429 C43.955612,12.4571429 43.2648706,12.2899749 42.7119666,11.9558897 L42.1246032,11.5882206 L41.8484103,12.1230576 C41.6755954,12.3568922 41.5372398,12.4571429 41.5027805,12.4238095 L37.3567775,12.4571429 C37.0114068,12.4238095 36.7694141,12.1897243 36.5968583,11.9223058 L36.4932212,11.5882206 L36.4932212,3.33333333 C36.5717263,2.95263158 37.1702307,2.67067669 37.5327015,2.65739348 L37.5327015,2.65739348 Z M41.6755954,8.66842105 C41.6235177,8.80350877 41.5470854,9.08170426 41.364684,9.08170426 L39.4642383,9.08170426 L39.4642383,9.91704261 L42.0209661,9.91704261 L42.3665959,9.41578947 C42.470233,9.24887218 42.6427888,9.11503759 42.8156037,9.11503759 L43.7485969,9.75012531 C44.0939676,9.91704261 44.4393383,10.0172932 44.7157903,10.0842105 C44.9922423,10.0842105 45.1650572,9.95062657 45.3031537,9.68320802 C45.3378721,9.34912281 45.234235,9.08170426 44.8886052,8.91453634 L44.4393383,8.74736842 L44.0247898,8.51353383 C42.470233,7.44411028 41.7792325,6.40802005 41.8484103,5.33859649 L39.5334161,5.33859649 L39.4642383,6.34110276 L41.364684,6.34110276 C41.5592627,6.38195489 41.6178177,6.52205514 41.6564225,6.67568922 L41.6755954,8.66842105 L41.6755954,8.66842105 Z" id="Fill-1"></path>
                    <path d="M0.21634249,0.659649123 L0.21634249,12.2566416 C0.21634249,12.4238095 0.31997961,12.4571429 0.492535417,12.4571429 L3.77472303,12.4571429 C3.94753793,12.4571429 4.05117505,12.3568922 4.05117505,12.1897243 L4.05117505,7.84511278 L6.19335434,7.84511278 L6.19335434,12.1897243 L6.26253212,12.3568922 L6.46954727,12.4571429 L9.54471973,12.5907268 C9.64835685,12.5907268 9.75173488,12.5240602 9.82091266,12.4238095 L9.89009044,12.1897243 L9.89009044,0.759899749 C9.89009044,0.559398496 9.89009044,0.392230576 9.82091266,0.32556391 C9.75173488,0.15839599 9.71727554,0.0581453634 9.54471973,0.0581453634 C8.36999297,-0.00877192982 7.29890333,0.0581453634 6.29699146,0.0914786967 C6.19335434,0.0914786967 6.12417656,0.258646617 6.12417656,0.659649123 L6.12417656,4.16892231 L6.08971722,4.2358396 L4.05117505,4.2358396 L4.01671571,4.16892231 L4.01671571,0.927067669 C4.01671571,0.659649123 4.01671571,0.425814536 3.94753793,0.392230576 C3.87861925,0.15839599 3.84390081,0.0581453634 3.67108591,0.0581453634 C2.49661824,-0.00877192982 1.4255286,0.0581453634 0.423616731,0.0914786967 C0.31997961,0.0914786967 0.250801832,0.258646617 0.21634249,0.659649123" id="Fill-2"></path>
                    <path d="M33.2110335,2.73182957 C34.0745899,2.66491228 34.8692275,2.66491228 35.6638651,2.73182957 L35.83668,2.76516291 L35.9058578,2.99899749 L35.9747765,12.1897243 C35.83668,12.3568922 35.7330429,12.4238095 35.6638651,12.4571429 L33.2110335,12.4571429 C33.0382186,12.4238095 32.8998631,12.2899749 32.8654038,12.1230576 L32.8654038,4.2358396 L32.2088626,5.23834586 C31.9326697,5.60601504 31.690677,5.90676692 31.5181212,6.10726817 C31.414225,6.17393484 31.2416692,6.10726817 31.0688543,5.94010025 L30.6198464,5.6726817 C30.2742166,5.50576441 29.8596682,5.43884712 29.4451197,5.50576441 C29.0650305,5.57243108 28.7194007,5.739599 28.4084894,6.00701754 C27.7866666,6.57518797 27.5449331,7.17669173 27.7174889,7.84511278 C27.7866666,8.17919799 27.8903038,8.51353383 28.2012151,8.78095238 C28.4084894,9.08170426 28.7194007,9.28220551 29.0650305,9.41578947 L29.2723048,9.5160401 C29.4104012,9.5160401 29.4451197,9.44937343 29.5140384,9.41578947 L29.5140384,7.57769424 C29.5832161,7.41077694 29.7904904,7.27694236 30.1014017,7.27694236 L31.9326697,7.27694236 L32.2780404,7.34385965 C32.3816775,7.41077694 32.4508553,7.51102757 32.4508553,7.61102757 L32.4508553,11.7553885 C32.1744032,11.9223058 31.8634919,12.0894737 31.5181212,12.1897243 C30.5506687,12.5907268 29.4451197,12.5907268 28.37403,12.2566416 C27.3721182,11.9558897 26.4738434,11.4210526 25.610028,10.6859649 L25.2991167,10.3516291 L25.0918424,10.0172932 L25.0918424,11.6884712 C24.1588492,12.2566416 23.1916558,12.5240602 22.1897439,12.4571429 C21.2222914,12.4571429 20.2548389,12.1897243 19.3221048,11.6884712 C18.5619265,11.2874687 18.0437409,10.7859649 17.6636518,10.1844612 C17.3527404,10.7859649 16.9034735,11.3541353 16.3163692,11.7553885 C15.6942874,12.2566416 15.0724647,12.4571429 14.4161826,12.5240602 C13.6904637,12.5907268 13.0341816,12.4238095 12.4120998,12.1230576 C11.8247364,11.8556391 11.3757286,11.4210526 10.9611801,10.8528822 C10.6847281,10.3516291 10.4427354,9.85037594 10.408276,9.24887218 L10.408276,3.06591479 C10.408276,2.99899749 10.4427354,2.93233083 10.5119132,2.8320802 L10.7539058,2.73182957 C11.3757286,2.66491228 12.1703662,2.66491228 13.1031003,2.73182957 L13.2759152,2.8320802 L13.3795523,3.06591479 L13.3795523,9.24887218 C13.3795523,9.41578947 13.5176488,9.5160401 13.724923,9.61629073 L14.2433677,9.61629073 C14.4161826,9.58295739 14.5542791,9.41578947 14.5887384,9.18195489 L14.5887384,3.06591479 C14.5887384,2.99899749 14.6579162,2.93233083 14.727094,2.8320802 L14.9343682,2.73182957 C15.6942874,2.59799499 16.5581028,2.59799499 17.5255553,2.73182957 C17.6636518,2.73182957 17.7672889,2.89874687 17.8364667,3.23308271 L17.8364667,4.90401003 C18.4582894,4.06842105 19.2184677,3.40025063 20.1856611,2.99899749 C21.1531136,2.59799499 22.1550255,2.56466165 23.1916558,2.73182957 C24.1588492,2.93233083 24.9190275,3.33333333 25.3682944,3.83458647 C25.4372131,3.90150376 25.4372131,3.93483709 25.3682944,4.06842105 C25.1263018,4.43609023 24.6772939,5.10451128 23.9862934,6.10726817 C23.9171156,6.24085213 23.8826563,6.27418546 23.8134785,6.24085213 C23.5370265,5.94010025 23.2261151,5.77293233 22.8807444,5.6726817 C22.5006553,5.57243108 22.1550255,5.57243108 21.8096548,5.6726817 C21.4987434,5.739599 21.1531136,5.83984962 20.8766616,6.10726817 C20.6004687,6.34110276 20.4276538,6.6085213 20.2892982,6.94285714 C20.1856611,7.27694236 20.1856611,7.61102757 20.2548389,7.94536341 C20.2892982,8.34636591 20.4276538,8.61378446 20.634928,8.84761905 C21.0494765,9.34912281 21.4642841,9.58295739 21.9824697,9.58295739 L22.016929,9.5160401 L22.016929,7.61102757 C22.016929,7.44411028 22.1550255,7.34385965 22.3625588,7.27694236 L24.6772939,7.27694236 C24.6772939,6.40802005 24.9190275,5.57243108 25.4372131,4.77042607 C25.9553987,4.00175439 26.5774805,3.43358396 27.4410368,3.06591479 C28.2356745,2.66491228 29.1686677,2.49774436 30.2050389,2.59799499 C31.2416692,2.73182957 32.1052255,3.06591479 32.7273073,3.60075188 L32.8654038,3.60075188 L32.8654038,2.99899749 C32.8998631,2.8320802 33.0382186,2.73182957 33.2110335,2.73182957" id="Fill-3"></path>
                </g>
            </g>
        </g>
    </g>
</svg>