<?xml version="1.0" encoding="UTF-8" standalone="no"?>
<svg width="21px" height="20px" viewBox="0 0 21 20" version="1.1" xmlns="http://www.w3.org/2000/svg" xmlns:xlink="http://www.w3.org/1999/xlink" xmlns:sketch="http://www.bohemiancoding.com/sketch/ns">
    <!-- Generator: Sketch 3.3.2 (12043) - http://www.bohemiancoding.com/sketch -->
    <title>instagram19</title>
    <desc>Created with Sketch.</desc>
    <defs></defs>
    <g id="Page-1" stroke="none" stroke-width="1" fill="none" fill-rule="evenodd" sketch:type="MSPage">
        <g id="Connorween" sketch:type="MSArtboardGroup" transform="translate(-158.000000, -1146.000000)" fill="#E05536">
            <g id="social-media-" sketch:type="MSLayerGroup" transform="translate(102.000000, 1121.000000)">
                <g id="instagram19" transform="translate(56.653449, 25.000000)" sketch:type="MSShapeGroup">
                    <g id="Group" transform="translate(0.000000, 0.000000)">
                        <path d="M10.0050479,11.7423108 C11.1089281,11.7423108 12.0088786,10.8638838 12.0088786,9.78368267 C12.0088786,9.3572771 11.8662085,8.96358102 11.6300369,8.64200344 C11.2661071,8.14860254 10.6744692,7.82505451 10.006257,7.82505451 C9.33764167,7.82505451 8.74640682,8.14820845 8.38167093,8.64160935 C8.14469336,8.96318693 8.00323226,9.35688301 8.00282924,9.78328858 C8.00162017,10.8634898 8.90076466,11.7423108 10.0050479,11.7423108 L10.0050479,11.7423108 Z" id="Shape"></path>
                        <path d="M14.3790573,7.38761441 L14.3790573,5.74583474 L14.3790573,5.50149884 L14.127974,5.50228702 L12.4497859,5.50741019 L12.4562342,7.39391985 L14.3790573,7.38761441 Z" id="Shape"></path>
                        <path d="M10.0054509,0 C4.48846801,0 0,4.38898227 0,9.78368267 C0,15.177989 4.48846801,19.5673653 10.0054509,19.5673653 C15.5220308,19.5673653 20.0109018,15.177989 20.0109018,9.78368267 C20.0109018,4.38898227 15.5228368,0 10.0054509,0 L10.0054509,0 Z M15.6957337,8.64200344 L15.6957337,13.1976859 C15.6957337,14.3842914 14.7091332,15.34863 13.4964368,15.34863 L6.51446502,15.34863 C5.30136555,15.34863 4.31516809,14.3842914 4.31516809,13.1976859 L4.31516809,8.64200344 L4.31516809,6.37046767 C4.31516809,5.18425625 5.30136555,4.21991759 6.51446502,4.21991759 L13.4960338,4.21991759 C14.7091332,4.21991759 15.6957337,5.18425625 15.6957337,6.37046767 L15.6957337,8.64200344 L15.6957337,8.64200344 Z" id="Shape"></path>
                        <path d="M13.1179981,9.78368267 C13.1179981,11.4613245 11.7219262,12.8272411 10.0054509,12.8272411 C8.28897562,12.8272411 6.89330671,11.4613245 6.89330671,9.78368267 C6.89330671,9.38013433 6.97552342,8.99432005 7.12222382,8.64200344 L5.42348155,8.64200344 L5.42348155,13.1976859 C5.42348155,13.7864566 5.91234854,14.2633057 6.51406199,14.2633057 L13.4956308,14.2633057 C14.0965382,14.2633057 14.5862112,13.7864566 14.5862112,13.1976859 L14.5862112,8.64200344 L12.8866629,8.64200344 C13.0345724,8.99432005 13.1179981,9.38013433 13.1179981,9.78368267 L13.1179981,9.78368267 Z" id="Shape"></path>
                    </g>
                </g>
            </g>
        </g>
    </g>
</svg>