<?xml version="1.0" encoding="UTF-8" standalone="no"?>
<svg width="50px" height="49px" viewBox="0 0 50 49" version="1.1" xmlns="http://www.w3.org/2000/svg" xmlns:xlink="http://www.w3.org/1999/xlink" xmlns:sketch="http://www.bohemiancoding.com/sketch/ns">
    <!-- Generator: Sketch 3.3.2 (12043) - http://www.bohemiancoding.com/sketch -->
    <title>moon</title>
    <desc>Created with Sketch.</desc>
    <defs>
        <path d="M5.18473684,1.62931357 C5.18631579,1.63402105 5.18736842,1.63872854 5.18842105,1.64395908 C5.18736842,1.63872854 5.18631579,1.63402105 5.18473684,1.62931357 L5.18473684,1.62931357 Z M2.36157895,0.355153744 C1.05526316,0.660617346 0.188947368,1.72764774 0.423157895,2.74708021 C0.616842105,3.59076649 1.50473684,4.13840415 2.54789474,4.13840415 C2.77157895,4.13840415 3.00210526,4.11329755 3.23421053,4.06046909 C4.55210526,3.76128213 5.42894737,2.68849815 5.19315789,1.66435819 C5.31315789,2.18479703 5.14421053,2.71778918 4.77736842,3.15558547 C4.94842105,2.81298503 5.00947368,2.44004744 4.92473684,2.07181735 C4.73052632,1.22813106 3.84263158,0.680493403 2.79947368,0.680493403 C2.57631579,0.680493403 2.34526316,0.7056 2.11315789,0.758428466 C1.46526316,0.905406672 0.925263158,1.2401613 0.570526316,1.66331208 C0.873157895,1.05709236 1.52684211,0.550252928 2.36157895,0.355153744 L2.36157895,0.355153744 Z M2.37105263,0.353061527 C2.36842105,0.353584581 2.36526316,0.354107635 2.36263158,0.354630689 C2.36578947,0.354107635 2.36842105,0.353584581 2.37105263,0.353061527 L2.37105263,0.353061527 Z M2.38157895,0.350446256 C2.37842105,0.350969311 2.37526316,0.352015419 2.37263158,0.352538473 C2.37526316,0.352015419 2.37842105,0.350969311 2.38157895,0.350446256 L2.38157895,0.350446256 Z M3.07157895,0.272511193 C4.08894737,0.273557302 4.95789474,0.795565308 5.17842105,1.60525308 C4.95789474,0.795565308 4.08894737,0.273557302 3.07157895,0.272511193 L3.07157895,0.272511193 Z M3.06842105,0.272511193 L3.06736842,0.272511193 L3.06842105,0.272511193 L3.06842105,0.272511193 Z" id="path-1"></path>
    </defs>
    <g id="Page-1" stroke="none" stroke-width="1" fill="none" fill-rule="evenodd" sketch:type="MSPage">
        <g id="Connorween" sketch:type="MSArtboardGroup" transform="translate(-20.000000, -38.000000)">
            <g id="moon" sketch:type="MSLayerGroup" transform="translate(20.000000, 38.000000)">
                <path d="M0.407894737,24.3704279 C0.407894737,37.7967039 11.36,48.680937 24.87,48.680937 C38.38,48.680937 49.3315789,37.7967039 49.3315789,24.3704279 C49.3315789,10.9441518 38.38,0.0599187546 24.87,0.0599187546 C11.36,0.0599187546 0.407894737,10.9441518 0.407894737,24.3704279" id="Fill-23" fill="#EBEFB5" sketch:type="MSShapeGroup"></path>
                <path d="M12.8289474,18.8966666 C12.8289474,20.7728617 11.2984211,22.293903 9.41052632,22.293903 C7.52210526,22.293903 5.99157895,20.7728617 5.99157895,18.8966666 C5.99157895,17.0199484 7.52210526,15.4994301 9.41052632,15.4994301 C11.2984211,15.4994301 12.8289474,17.0199484 12.8289474,18.8966666" id="Fill-25" fill="#C4CB85" sketch:type="MSShapeGroup"></path>
                <path d="M10.0178947,15.9900549 C10.6957895,15.9900549 11.3257895,16.1882924 11.8568421,16.5261853 C11.2363158,15.8932898 10.37,15.4994301 9.41052632,15.4994301 C7.52210526,15.4994301 5.99157895,17.0199484 5.99157895,18.8966666 C5.99157895,20.099168 6.62263158,21.1536451 7.57157895,21.7572495 C6.97052632,21.1452762 6.59947368,20.3099588 6.59947368,19.3872913 C6.59947368,17.5110962 8.13,15.9900549 10.0178947,15.9900549" id="Fill-26" fill="#929865" sketch:type="MSShapeGroup"></path>
                <g id="Clip-28" transform="translate(34.736842, 7.678725)">
                    <mask id="mask-2" sketch:name="Clip 28" fill="white">
                        <use xlink:href="#path-1"></use>
                    </mask>
                    <g></g>
                </g>
                <path d="M39.9252632,9.32268406 C39.9268421,9.32948377 39.9284211,9.33576042 39.93,9.34308317 C39.9284211,9.33576042 39.9268421,9.32948377 39.9252632,9.32268406 M39.9152632,9.28397806 C39.9173684,9.29182387 39.9194737,9.30019274 39.9215789,9.30803855 C39.9194737,9.30019274 39.9173684,9.29182387 39.9152632,9.28397806 M37.0994737,8.03335567 C37.0989474,8.03387872 37.0989474,8.03387872 37.0984211,8.03387872 C37.0989474,8.03387872 37.0989474,8.03387872 37.0994737,8.03335567 M37.1094737,8.03126345 C37.1094737,8.03126345 37.1084211,8.03126345 37.1078947,8.03178651 C37.1084211,8.03126345 37.1089474,8.03126345 37.1089474,8.03126345 M37.8042105,7.95123617 C37.5810526,7.95123617 37.3505263,7.97634277 37.1184211,8.02917124 C37.3505263,7.97634277 37.5810526,7.95123617 37.8042105,7.95123617 M37.8052632,7.95123617 L37.8052632,7.95123617 L37.8084211,7.95123617 L37.8052632,7.95123617" id="Fill-30" fill="#9A9F6C" sketch:type="MSShapeGroup"></path>
                <path d="M37.8052632,7.95123617 L37.8042105,7.95123617 C37.5810526,7.95123617 37.3505263,7.97634277 37.1184211,8.02917124 C37.1152632,8.02969429 37.1121053,8.0307404 37.1094737,8.03126345 C37.1094737,8.03126345 37.1084211,8.03126345 37.1078947,8.03178651 C37.1052632,8.03230956 37.1026316,8.03283262 37.0994737,8.03335567 C37.0989474,8.03387872 37.0989474,8.03387872 37.0984211,8.03387872 C36.2636842,8.22897791 35.61,8.73581735 35.3073684,9.34203706 C35.6621053,8.91888629 36.2021053,8.58413165 36.85,8.43715345 C37.0821053,8.38432498 37.3131579,8.35921838 37.5363158,8.35921838 C38.5794737,8.35921838 39.4673684,8.90685604 39.6615789,9.75054233 C39.7463158,10.1187724 39.6852632,10.49171 39.5142105,10.8343105 C39.8810526,10.3965142 40.05,9.86352202 39.93,9.34308317 C39.9284211,9.33576042 39.9268421,9.32948377 39.9252632,9.32268406 C39.9242105,9.31745352 39.9231579,9.31274603 39.9215789,9.30803855 C39.9194737,9.30019274 39.9173684,9.29182387 39.9152632,9.28397806 C39.6947368,8.47429029 38.8257895,7.95228228 37.8084211,7.95123617 L37.8052632,7.95123617" id="Fill-31" fill="#979D69" sketch:type="MSShapeGroup"></path>
                <path d="M14.8126316,26.6368213 C14.7489474,28.0108845 13.5763158,29.0732074 12.1936842,29.0099179 C10.8110526,28.9466283 9.74210526,27.7812638 9.80578947,26.4072006 C9.86947368,25.0331374 11.0421053,23.9708145 12.4247368,24.0341041 C13.8073684,24.0973936 14.8763158,25.2627582 14.8126316,26.6368213" id="Fill-32" fill="#C4CB85" sketch:type="MSShapeGroup"></path>
                <path d="M12.8526316,24.4133183 C13.3494737,24.4363327 13.8036842,24.6026639 14.1815789,24.8683754 C13.7484211,24.3835042 13.1273684,24.0660104 12.4247368,24.0341041 C11.0421053,23.9708145 9.86947368,25.0331374 9.80578947,26.4072006 C9.76473684,27.2880237 10.1910526,28.0814968 10.8647368,28.5553838 C10.4463158,28.0867274 10.2026316,27.4627238 10.2342105,26.7869379 C10.2978947,25.4128747 11.47,24.3500288 12.8526316,24.4133183" id="Fill-33" fill="#929865" sketch:type="MSShapeGroup"></path>
                <path d="M39.9678947,36.5936795 C39.5668421,36.5936795 39.1642105,36.7369963 38.8447368,37.0262452 C38.1642105,37.642926 38.1152632,38.6916495 38.7363158,39.3679585 C39.0652632,39.7267736 39.5163158,39.9087964 39.9689474,39.9087964 C40.3215789,39.9087964 40.6757895,39.797909 40.9731579,39.5740418 C40.6757895,39.797909 40.3226316,39.9077503 39.97,39.9077503 C39.9368421,39.9077503 39.9036842,39.9067042 39.8705263,39.904612 C40.1736842,39.8533527 40.4663158,39.7189278 40.7105263,39.4976759 C41.3910526,38.8809951 41.44,37.8322716 40.8194737,37.1564857 C40.5142105,36.8238233 40.1042105,36.6438927 39.6852632,36.6193091 C39.7794737,36.6030944 39.8742105,36.5952486 39.9694737,36.5952486 C40.3378947,36.5952486 40.7057895,36.7155511 41.0068421,36.9540638 C40.7052632,36.715028 40.3368421,36.5936795 39.9678947,36.5936795" id="Fill-34" fill="#DDE1A2" sketch:type="MSShapeGroup"></path>
                <path d="M41.0921053,39.4762307 C41.0536842,39.5107523 41.0142105,39.5437047 40.9731579,39.5740418 C41.0142105,39.5437047 41.0536842,39.5107523 41.0921053,39.4762307 M41.0068421,36.9540638 C41.0752632,37.0079383 41.14,37.0680895 41.2005263,37.1345174 C41.4915789,37.4514882 41.6352632,37.8505785 41.6363158,38.2480996 C41.6352632,37.8505785 41.4915789,37.4514882 41.2005263,37.1345174 C41.14,37.0680895 41.0752632,37.0079383 41.0068421,36.9540638" id="Fill-35" fill="#C8CA92" sketch:type="MSShapeGroup"></path>
                <path d="M39.9694737,36.5952486 C39.8742105,36.5952486 39.7794737,36.6030944 39.6852632,36.6193091 C40.1042105,36.6438927 40.5142105,36.8238233 40.8194737,37.1564857 C41.44,37.8322716 41.3910526,38.8809951 40.7105263,39.4976759 C40.4663158,39.7189278 40.1736842,39.8533527 39.8705263,39.904612 C39.9036842,39.9067042 39.9368421,39.9077503 39.97,39.9077503 C40.3226316,39.9077503 40.6757895,39.797909 40.9731579,39.5740418 C41.0142105,39.5437047 41.0536842,39.5107523 41.0921053,39.4762307 C41.4536842,39.1482758 41.6368421,38.6989723 41.6363158,38.2480996 C41.6352632,37.8505785 41.4915789,37.4514882 41.2005263,37.1345174 C41.14,37.0680895 41.0752632,37.0079383 41.0068421,36.9540638 C40.7057895,36.7155511 40.3378947,36.5952486 39.9694737,36.5952486" id="Fill-36" fill="#BFC389" sketch:type="MSShapeGroup"></path>
                <path d="M42.9131579,34.7132999 C42.5131579,34.2775958 42.5447368,33.6018099 42.9831579,33.2042888 C43.4215789,32.8067677 44.1021053,32.8376279 44.5015789,33.273855 C44.9015789,33.7095591 44.8705263,34.385345 44.4315789,34.7828661 C43.9931579,35.1803872 43.3131579,35.1495271 42.9131579,34.7132999" id="Fill-37" fill="#C4CB85" sketch:type="MSShapeGroup"></path>
                <path d="M44.1857895,34.7964655 C44.0284211,34.9397824 43.84,35.0260863 43.6442105,35.0595617 C43.9236842,35.0757764 44.2089474,34.984765 44.4315789,34.7828661 C44.8705263,34.385345 44.9015789,33.7095591 44.5015789,33.273855 C44.2452632,32.9940211 43.8742105,32.8820875 43.5247368,32.9417156 C43.7947368,32.9574073 44.0594737,33.0735253 44.2557895,33.2879775 C44.6557895,33.7236815 44.6247368,34.3994675 44.1857895,34.7964655" id="Fill-38" fill="#929865" sketch:type="MSShapeGroup"></path>
                <path d="M42.3710526,36.7814559 C42.5678947,36.6030944 42.8726316,36.6172169 43.0521053,36.8128391 C43.2310526,37.0079383 43.2173684,37.3113097 43.0205263,37.4891481 C42.8236842,37.6675096 42.5189474,37.6539102 42.3394737,37.4582879 C42.1605263,37.2626657 42.1742105,36.9598173 42.3710526,36.7814559" id="Fill-39" fill="#C4CB85" sketch:type="MSShapeGroup"></path>
                <path d="M42.3331579,37.3484466 C42.2689474,37.2783573 42.23,37.1946686 42.2147368,37.1073186 C42.2073684,37.2318055 42.2484211,37.3589076 42.3394737,37.4582879 C42.5189474,37.6539102 42.8236842,37.6675096 43.0205263,37.4891481 C43.1468421,37.3751223 43.1973684,37.2098372 43.1705263,37.0539671 C43.1631579,37.1742695 43.1110526,37.2924798 43.0142105,37.3798298 C42.8173684,37.5581913 42.5126316,37.5440688 42.3331579,37.3484466" id="Fill-40" fill="#929865" sketch:type="MSShapeGroup"></path>
                <path d="M6.39684211,26.2670221 C6.37473684,26.7419552 5.97,27.1091392 5.49157895,27.0871709 C5.01368421,27.0652027 4.64421053,26.662451 4.66631579,26.1875179 C4.68842105,25.7125847 5.09368421,25.3454007 5.57157895,25.367369 C6.04947368,25.3893373 6.41894737,25.792089 6.39684211,26.2670221" id="Fill-41" fill="#C4CB85" sketch:type="MSShapeGroup"></path>
                <path d="M5.71947368,25.4986556 C5.89105263,25.5065014 6.04842105,25.5640374 6.17894737,25.6555718 C6.02894737,25.4881945 5.81473684,25.3783532 5.57157895,25.367369 C5.09368421,25.3454007 4.68842105,25.7125847 4.66631579,26.1875179 C4.65210526,26.4919354 4.79947368,26.7660157 5.03263158,26.9302547 C4.88789474,26.7681079 4.80368421,26.5526096 4.81421053,26.3188044 C4.83631579,25.8438713 5.24157895,25.4766873 5.71947368,25.4986556" id="Fill-42" fill="#929865" sketch:type="MSShapeGroup"></path>
                <path d="M42.3426316,16.8442022 C41.4031579,16.5172934 40.9084211,15.4947226 41.2373684,14.561071 C41.5668421,13.6268964 42.5957895,13.1347024 43.5357895,13.4621343 C44.4752632,13.7895662 44.97,14.812137 44.6410526,15.7457886 C44.3115789,16.6799632 43.2826316,17.1716341 42.3426316,16.8442022" id="Fill-43" fill="#C4CB85" sketch:type="MSShapeGroup"></path>
                <path d="M44.2889474,15.9612869 C44.1705263,16.2960415 43.9615789,16.5732602 43.6994737,16.7772513 C44.1247368,16.580583 44.4736842,16.2207217 44.6410526,15.7457886 C44.97,14.812137 44.4752632,13.7895662 43.5357895,13.4621343 C42.9331579,13.2523896 42.2947368,13.3805379 41.8273684,13.7445835 C42.2384211,13.5541918 42.7215789,13.5165319 43.1836842,13.6771096 C44.1236842,14.0045414 44.6184211,15.0271122 44.2889474,15.9612869" id="Fill-44" fill="#929865" sketch:type="MSShapeGroup"></path>
                <path d="M11.1273684,12.9804015 C10.9489474,13.585052 10.2110526,13.9025459 9.47947368,13.6891398 C8.74842105,13.4757337 8.3,12.8125011 8.47842105,12.2078506 C8.65736842,11.6032 9.39526316,11.2857062 10.1263158,11.4991122 C10.8578947,11.7125183 11.3063158,12.3757509 11.1273684,12.9804015" id="Fill-45" fill="#C4CB85" sketch:type="MSShapeGroup"></path>
                <path d="M10.3152632,11.7261177 C10.5778947,11.8024836 10.8031579,11.9374316 10.9768421,12.1063781 C10.7963158,11.8322977 10.4984211,11.6073844 10.1263158,11.4991122 C9.39526316,11.2857062 8.65736842,11.6032 8.47842105,12.2078506 C8.36421053,12.5954337 8.50789474,13.0065542 8.81789474,13.3083564 C8.64368421,13.043168 8.57947368,12.7319508 8.66736842,12.434333 C8.84578947,11.8296824 9.58368421,11.5121886 10.3152632,11.7261177" id="Fill-46" fill="#929865" sketch:type="MSShapeGroup"></path>
                <path d="M40.2668421,21.9037047 C40.3568421,21.1269693 40.7373684,20.3240812 41.3942105,19.6718328 C42.7289474,18.3448445 44.6926316,18.1450378 45.7794737,19.2256676 C46.1694737,19.6132507 46.3910526,20.1143365 46.4563158,20.6572667 C46.5494737,19.8543787 46.3310526,19.0797355 45.7784211,18.5310517 C44.6915789,17.4504219 42.7278947,17.6502286 41.3931579,18.9772169 C40.5373684,19.8277029 40.1505263,20.9339623 40.2668421,21.9037047" id="Fill-47" fill="#929865" sketch:type="MSShapeGroup"></path>
                <path d="M41.3942105,19.6718328 C40.7373684,20.3240812 40.3568421,21.1269693 40.2668421,21.9037047 C40.3326316,22.4466348 40.5536842,22.9477207 40.9442105,23.3353038 C42.0310526,24.4159336 43.9947368,24.2161269 45.33,22.8891386 C45.9863158,22.2368901 46.3668421,21.4340021 46.4563158,20.6572667 C46.3910526,20.1143365 46.1694737,19.6132507 45.7794737,19.2256676 C44.6926316,18.1450378 42.7289474,18.3448445 41.3942105,19.6718328" id="Fill-48" fill="#C4CB85" sketch:type="MSShapeGroup"></path>
                <path d="M18.0263158,38.077584 C17.2594737,38.6822345 16.7815789,39.5259208 16.7821053,40.4611416 C16.7815789,42.3001999 18.6242105,43.7909041 20.8968421,43.7909041 C22.3542105,43.7914271 23.6310526,43.1768385 24.3626316,42.2520789 C23.6210526,42.8373764 22.6089474,43.1993299 21.4915789,43.1988068 L21.4910526,43.1988068 L21.4873684,43.1988068 C19.2378947,43.1977607 17.4110526,41.7353014 17.3763158,39.9213497 C17.3763158,39.9035659 17.3757895,39.8863051 17.3757895,39.8690443 C17.3757895,39.208427 17.6168421,38.5954076 18.0263158,38.077584" id="Fill-49" fill="#ADB17C" sketch:type="MSShapeGroup"></path>
                <path d="M20.8968421,37.130333 C19.7794737,37.130333 18.7673684,37.4922864 18.0263158,38.077584 C17.6168421,38.5954076 17.3757895,39.208427 17.3757895,39.8690443 C17.3757895,39.8863051 17.3763158,39.9035659 17.3763158,39.9213497 C17.4110526,41.7353014 19.2378947,43.1972377 21.4873684,43.1988068 L21.4915789,43.1988068 C22.6089474,43.1993299 23.6210526,42.8373764 24.3626316,42.2520789 C24.7721053,41.7347784 25.0126316,41.1212359 25.0126316,40.4611416 C25.0126316,38.6220833 23.1694737,37.130333 20.8968421,37.130333" id="Fill-50" fill="#D2D694" sketch:type="MSShapeGroup"></path>
                <path d="M21.4873684,43.1988068 L21.4910526,43.1988068 L21.4873684,43.1988068 M17.3757895,39.8690443 C17.3757895,39.8863051 17.3763158,39.9035659 17.3763158,39.9213497 C17.3763158,39.9035659 17.3757895,39.8863051 17.3757895,39.8690443 M18.0263158,38.077584 L18.0263158,38.077584 C17.6168421,38.5954076 17.3757895,39.208427 17.3757895,39.8690443 C17.3757895,39.208427 17.6168421,38.5954076 18.0263158,38.077584" id="Fill-51" fill="#BCC183" sketch:type="MSShapeGroup"></path>
            </g>
        </g>
    </g>
</svg>