<?xml version="1.0" encoding="UTF-8" standalone="no"?>
<svg width="4px" height="7px" viewBox="0 0 4 7" version="1.1" xmlns="http://www.w3.org/2000/svg" xmlns:xlink="http://www.w3.org/1999/xlink" xmlns:sketch="http://www.bohemiancoding.com/sketch/ns">
    <!-- Generator: Sketch 3.3.2 (12043) - http://www.bohemiancoding.com/sketch -->
    <title>pointing</title>
    <desc>Created with Sketch.</desc>
    <defs></defs>
    <g id="Page-1" stroke="none" stroke-width="1" fill="none" fill-rule="evenodd" sketch:type="MSPage">
        <g id="Connorween" sketch:type="MSArtboardGroup" transform="translate(-30.000000, -447.000000)" fill="#E05536">
            <g id="location-card" sketch:type="MSLayerGroup" transform="translate(21.000000, 413.000000)">
                <g id="pointing" transform="translate(9.000000, 34.000000)" sketch:type="MSShapeGroup">
                    <path d="M1.75180034,5.9996661 C1.86003976,6.22365647 2.0357914,6.22354654 2.14381097,5.99944625 C2.60730944,5.0379512 3.73581711,2.69400357 3.7709198,2.59648184 L3.77685575,2.58024959 C3.84715274,2.3794717 3.88729366,2.16456846 3.88729366,1.93958877 C3.88731198,0.868608485 3.01908823,0 1.94807131,0 C0.876816213,0 0.00848254052,0.868443598 0.00848254052,1.93958877 C0.00848254052,2.0981738 0.0296614106,2.25142748 0.065515259,2.3990017 L0.0674939077,2.40719111 C0.117125014,2.60648501 1.27989262,5.02296477 1.75180034,5.9996661 L1.75180034,5.9996661 Z M1.94816291,0.845725779 C2.55218209,0.845725779 3.04175109,1.33582608 3.04175109,1.93969869 C3.04175109,2.54393772 2.55207216,3.03354336 1.94816291,3.03354336 C1.34386893,3.03354336 0.854208319,2.54382779 0.854208319,1.93969869 C0.854318244,1.33582608 1.34386893,0.845725779 1.94816291,0.845725779 L1.94816291,0.845725779 Z" id="Shape"></path>
                </g>
            </g>
        </g>
    </g>
</svg>