<?xml version="1.0" encoding="UTF-8" standalone="no"?>
<svg width="5px" height="5px" viewBox="0 0 5 5" version="1.1" xmlns="http://www.w3.org/2000/svg" xmlns:xlink="http://www.w3.org/1999/xlink" xmlns:sketch="http://www.bohemiancoding.com/sketch/ns">
    <!-- Generator: Sketch 3.3.2 (12043) - http://www.bohemiancoding.com/sketch -->
    <title>telephone</title>
    <desc>Created with Sketch.</desc>
    <defs></defs>
    <g id="Page-1" stroke="none" stroke-width="1" fill="none" fill-rule="evenodd" sketch:type="MSPage">
        <g id="Connorween" sketch:type="MSArtboardGroup" transform="translate(-30.000000, -473.000000)" fill="#E05536">
            <g id="location-card" sketch:type="MSLayerGroup" transform="translate(21.000000, 413.000000)">
                <g id="telephone" transform="translate(9.000000, 60.000000)" sketch:type="MSShapeGroup">
                    <path d="M4.87532857,3.95234195 L4.1074,3.17991379 C3.95444286,3.0266954 3.70114286,3.03135057 3.54285714,3.19060345 L3.15597143,3.57962644 C3.13152857,3.56607759 3.10622857,3.55192529 3.07962857,3.53691092 C2.83531429,3.40076149 2.50092857,3.2141523 2.14905714,2.86 C1.79614286,2.50510057 1.61042857,2.16827586 1.47464286,1.92239943 C1.46031429,1.89635057 1.44658571,1.87123563 1.43302857,1.84738506 L1.69268571,1.58662356 L1.82034286,1.45807471 C1.97887143,1.29859195 1.98324286,1.04390805 1.83064286,0.890244253 L1.06271429,0.117729885 C0.910114286,-0.0357183908 0.6567,-0.0310632184 0.498171429,0.12841954 L0.281742857,0.347341954 L0.287657143,0.353247126 C0.215085714,0.44637931 0.154442857,0.553793103 0.109314286,0.669626437 C0.0677142857,0.779885057 0.0418142857,0.885100575 0.0299714286,0.990531609 C-0.0714285714,1.83599138 0.312714286,2.60867816 1.35522857,3.65719828 C2.7963,5.10645115 3.95761429,4.99696839 4.00771429,4.99162356 C4.11682857,4.97850575 4.2214,4.95228448 4.32767143,4.91077586 C4.44184286,4.86591954 4.54857143,4.80501437 4.64111429,4.73218391 L4.64584286,4.73640805 L4.8651,4.52047414 C5.0233,4.36102011 5.02785714,4.10625 4.87532857,3.95234195 L4.87532857,3.95234195 Z" id="Shape"></path>
                </g>
            </g>
        </g>
    </g>
</svg>