<?xml version="1.0" encoding="UTF-8" standalone="no"?>
<svg width="59px" height="13px" viewBox="0 0 59 13" version="1.1" xmlns="http://www.w3.org/2000/svg" xmlns:xlink="http://www.w3.org/1999/xlink" xmlns:sketch="http://www.bohemiancoding.com/sketch/ns">
    <!-- Generator: Sketch 3.3.2 (12043) - http://www.bohemiancoding.com/sketch -->
    <title>trojan</title>
    <desc>Created with Sketch.</desc>
    <defs></defs>
    <g id="Page-1" stroke="none" stroke-width="1" fill="none" fill-rule="evenodd" sketch:type="MSPage">
        <g id="Connorween" sketch:type="MSArtboardGroup" transform="translate(-203.000000, -598.000000)">
            <g id="sponsors" sketch:type="MSLayerGroup" transform="translate(20.000000, 554.000000)">
                <g id="trojan" transform="translate(183.105924, 44.428571)" sketch:type="MSShapeGroup">
                    <path d="M9.21914972,1.05246429 L0.171842578,1.05246429 L0.171842578,2.128 L3.51936327,2.128 L3.51936327,11.0549464 L6.05267746,11.0549464 L6.05267746,2.128 L9.21914972,2.128 L9.21914972,1.05246429" id="Fill-1" fill="#E05536"></path>
                    <path d="M17.9667552,11.0549464 L21.2518807,11.0549464 L15.5967597,7.19896429 C16.958203,7.189125 19.1710171,6.73007143 19.1710171,4.94848214 L19.1710171,3.07494643 C19.1710171,1.40396429 17.2238088,1.10573214 15.858615,1.05246429 L9.49055189,1.05246429 L9.49055189,11.0549464 L12.0238661,11.0549464 L12.0238661,7.19930357 L12.3119752,7.19930357 L17.9667552,11.0549464" id="Fill-2" fill="#E05536"></path>
                    <path d="M12.0255709,2.128 L15.3710458,2.128 C16.4569954,2.128 16.9997998,3.07494643 16.9997998,3.97541071 C16.9997998,4.87553571 16.4569954,5.68575 15.3710458,5.68575 L12.0255709,5.68575 L12.0255709,2.128" id="Fill-3" fill="#3D1425"></path>
                    <path d="M31.6732466,8.14658929 C31.6732466,10.3974107 28.9288797,11.117375 27.3004667,11.117375 L24.5090477,11.117375 C22.8802937,11.117375 20.1359268,10.3974107 20.1359268,8.14658929 L20.1359268,3.76505357 C20.1359268,1.51457143 22.8802937,0.794267857 24.5090477,0.794267857 L27.3004667,0.794267857 C28.9288797,0.794267857 31.6732466,1.51457143 31.6732466,3.76505357 L31.6732466,8.14658929" id="Fill-4" fill="#E05536"></path>
                    <path d="M27.0004241,9.95260714 L24.8646663,9.95260714 C23.6188076,9.95260714 22.5185378,9.40160714 22.5185378,7.67973214 L22.5185378,4.32758929 C22.5185378,2.60571429 23.6188076,2.128 24.8646663,2.128 L27.0004241,2.128 C28.2462828,2.128 29.2732467,2.60571429 29.2732467,4.32758929 L29.2732467,7.67973214 C29.2732467,9.40160714 28.2462828,9.95260714 27.0004241,9.95260714 Z" id="Fill-5" fill="#3D1425"></path>
                    <path d="M33.2546074,1.05246429 L33.2546074,9.79314286 C33.2546074,10.4235357 32.8928515,11.1136429 32.199003,11.1136429 C31.5054955,11.1136429 30.2991878,11.0237321 29.9070867,10.8435714 L29.9070867,12.1379464 C29.9070867,12.1379464 31.2640976,12.3778214 32.3800514,12.3778214 C33.4960053,12.3778214 35.6068732,12.3177679 35.6068732,9.85692857 L35.6068732,1.05246429 L33.2546074,1.05246429" id="Fill-6" fill="#E05536"></path>
                    <path d="M45.4380416,11.0549464 L48.1524042,11.0549464 L41.3707596,0.179142857 L35.5806195,11.0549464 L37.0545787,11.0549464 L38.800622,7.81646429 L43.421278,7.81646429 L45.4380416,11.0549464" id="Fill-7" fill="#E05536"></path>
                    <path d="M48.6652043,11.0549464 L48.6652043,0.179142857 L56.5965576,7.57625 L56.5965576,1.05246429 L58.0742674,1.05246429 L58.0742674,12.1678036 L50.0222151,5.0255 L50.0222151,11.0549464 L48.6652043,11.0549464" id="Fill-8" fill="#E05536"></path>
                    <path d="M39.466512,6.58621429 L40.9449037,3.85530357 L42.6520779,6.58621429 L39.466512,6.58621429" id="Fill-9" fill="#3D1425"></path>
                </g>
            </g>
        </g>
    </g>
</svg>