<?xml version="1.0" encoding="UTF-8" standalone="no"?>
<svg width="21px" height="20px" viewBox="0 0 21 20" version="1.1" xmlns="http://www.w3.org/2000/svg" xmlns:xlink="http://www.w3.org/1999/xlink" xmlns:sketch="http://www.bohemiancoding.com/sketch/ns">
    <!-- Generator: Sketch 3.3.2 (12043) - http://www.bohemiancoding.com/sketch -->
    <title>twitter</title>
    <desc>Created with Sketch.</desc>
    <defs></defs>
    <g id="Page-1" stroke="none" stroke-width="1" fill="none" fill-rule="evenodd" sketch:type="MSPage">
        <g id="Connorween" sketch:type="MSArtboardGroup" transform="translate(-102.000000, -1146.000000)" fill="#E05536">
            <g id="social-media-" sketch:type="MSLayerGroup" transform="translate(102.000000, 1121.000000)">
                <g id="twitter" transform="translate(0.802539, 25.000000)" sketch:type="MSShapeGroup">
                    <path d="M9.845529,0 C4.41672668,0 2.29618542e-14,4.31883107 2.29618542e-14,9.62730539 C2.29618542e-14,14.9353919 4.41672668,19.2546108 9.845529,19.2546108 C15.2739347,19.2546108 19.691058,14.9353919 19.691058,9.62730539 C19.691058,4.31883107 15.2747279,0 9.845529,0 L9.845529,0 Z M14.2376676,7.42387555 C14.24203,7.5192722 14.2444095,7.61544443 14.2444095,7.71161665 C14.2444095,10.6398283 11.965653,14.0151633 7.79639308,14.0151633 C6.51662501,14.0151633 5.32529459,13.6494762 4.32273689,13.0204788 C4.50000876,13.0410317 4.68045329,13.0515021 4.8632773,13.0515021 C5.9253222,13.0515021 6.9021021,12.6970609 7.67781525,12.1029647 C6.68636184,12.0851263 5.84917857,11.4444952 5.56086392,10.5638212 C5.69887424,10.5894155 5.84124695,10.6037637 5.98679231,10.6037637 C6.1934112,10.6037637 6.39408137,10.5773939 6.58404385,10.5265933 C5.54738015,10.3233907 4.76651144,9.4279807 4.76651144,8.35379895 C4.76651144,8.34449196 4.76651144,8.33479718 4.76690802,8.32587798 C5.07227568,8.49146484 5.42166386,8.59151498 5.79286402,8.60276093 C5.18530137,8.20605049 4.78515077,7.52741581 4.78515077,6.75881357 C4.78515077,6.35240835 4.89659013,5.97159735 5.09170816,5.64430154 C6.20887787,6.98528366 7.87927859,7.86712094 9.76224692,7.96019084 C9.72338194,7.79770631 9.70394946,7.62901712 9.70394946,7.45489885 C9.70394946,6.23141748 10.7184046,5.23905969 11.9696188,5.23905969 C12.6215986,5.23905969 13.2097287,5.50818681 13.6237597,5.93863509 C14.1405052,5.83936053 14.6243345,5.65554749 15.06335,5.40076864 C14.8928201,5.91846995 14.5347071,6.35240835 14.0655513,6.62696455 C14.524396,6.57344936 14.9622218,6.45478524 15.3671314,6.27834022 C15.0649364,6.7219734 14.680649,7.11247918 14.2376676,7.42387555 L14.2376676,7.42387555 Z" id="Shape"></path>
                </g>
            </g>
        </g>
    </g>
</svg>